<svg>
    <symbol>
        <svg width="210" height="96" viewBox="0 0 210 96" xmlns="http://www.w3.org/2000/svg" id="gazprom">
            <g clip-path="url(#clip0_2901_2223)">
                <path fill-rule="evenodd" clip-rule="evenodd" d="M61.7986 62.7644H74.4893V66.9056H68.4517V96H61.7986V62.7644Z"/>
                <path fill-rule="evenodd" clip-rule="evenodd" d="M82.0166 83.5215L83.1575 66.9056H83.5378L84.6786 83.5215H82.0166ZM74.6461 96H81.162L81.7775 87.1734H84.9139L85.5333 96H92.0452L88.5756 62.7644H78.1157L74.6461 96Z" />
                <path fill-rule="evenodd" clip-rule="evenodd" d="M101.58 84.3669V90.6336C101.58 91.4791 102.235 91.7218 102.615 91.7218C103.242 91.7218 103.677 91.2051 103.677 90.6336V82.8952C103.677 81.8618 103.485 80.715 101.004 80.715H98.3023V77.063H101.113C102.995 77.063 103.677 76.6285 103.677 74.5853V67.9938C103.677 67.4223 103.242 66.9056 102.615 66.9056C102.235 66.9056 101.58 67.1248 101.58 67.9938V73.415H94.9229V68.7023C94.9229 66.3851 95.1973 62.7644 99.8627 62.7644H105.375C110.04 62.7644 110.342 66.389 110.342 68.7023V74.0139C110.342 77.6384 107.806 78.617 105.814 78.5348V78.8636C110.287 78.754 110.342 82.1867 110.342 83.3571V90.0582C110.342 92.4028 110.04 95.9961 105.375 95.9961H99.8627C95.1973 95.9961 94.9229 92.3989 94.9229 90.0582V84.363H101.58V84.3669Z" />
                <path fill-rule="evenodd" clip-rule="evenodd" d="M114.702 62.7644H130.117V96H123.46V66.9056H121.359V96H114.702V62.7644Z" />
                <path fill-rule="evenodd" clip-rule="evenodd" d="M141.142 81.0438V66.9056H142.016C142.725 66.9056 143.243 67.5045 143.243 68.5692V79.3841C143.243 80.4449 142.725 81.0477 142.016 81.0477H141.142V81.0438ZM134.485 96H141.142V84.6957H144.96C149.598 84.6957 149.9 81.0986 149.9 78.7579V68.7062C149.9 66.389 149.598 62.7683 144.96 62.7683H134.485V96.0039V96Z" />
                <path fill-rule="evenodd" clip-rule="evenodd" d="M163.026 90.6336C163.026 91.2051 162.591 91.7217 161.963 91.7217C161.583 91.7217 160.928 91.4752 160.928 90.6336V67.9977C160.928 67.1248 161.583 66.9095 161.963 66.9095C162.591 66.9095 163.026 67.4262 163.026 67.9977V90.6336ZM154.267 90.0621C154.267 92.4067 154.569 96 159.207 96H164.747C169.385 96 169.687 92.4028 169.687 90.0621V68.7062C169.687 66.389 169.385 62.7683 164.747 62.7683H159.207C154.569 62.7683 154.267 66.3929 154.267 68.7062V90.0621Z" />
                <path fill-rule="evenodd" clip-rule="evenodd" d="M191.347 62.7644H200.023V96H193.366V75.1607H193.119L189.681 96H184.361L180.95 75.1607H180.703V96H174.046V62.7644H182.695L187.035 86.1362L191.347 62.7644Z" />
                <path fill-rule="evenodd" clip-rule="evenodd" d="M53.1696 17.3243C51.131 8.41947 46.0226 1.17035 45.3208 0C44.2074 1.66354 40.134 8.06328 38.064 15.148C35.8018 23.0743 35.4686 30.1042 36.2488 36.9971C37.025 43.9175 39.9497 51.0257 39.9497 51.0257C41.5062 54.7285 43.8349 58.7367 45.3522 60.6977C47.5751 57.809 52.6874 49.2017 54.2791 37.9796C55.1652 31.713 55.2044 26.237 53.1696 17.3321V17.3243ZM45.3208 58.4588C44.3211 56.58 42.7646 53.0102 42.6157 47.452C42.5765 42.113 44.7249 37.5099 45.3522 36.5548C45.9128 37.5099 47.7633 41.5142 47.9828 46.9901C48.1318 52.3291 46.3558 56.5526 45.3208 58.4588ZM52.5776 32.4449C52.5031 35.8503 52.0954 39.4474 51.5779 41.5963C51.7622 37.8896 51.3192 32.6876 50.4684 28.6012C49.6177 24.5421 47.2066 17.7314 45.2855 14.6C43.5095 17.5983 41.3219 23.4814 40.1732 28.5738C39.0206 33.6662 38.9892 39.8506 38.9892 41.7059C38.6834 40.152 37.9189 34.5703 38.1345 28.9848C38.3149 24.3816 39.3969 19.6141 39.9889 17.4339C42.2471 10.1613 44.8033 5.50338 45.2855 4.76751C45.7638 5.50338 48.9865 11.2494 50.6566 17.2695C52.3189 23.2896 52.6521 29.063 52.5816 32.441L52.5776 32.4449Z" />
                <path fill-rule="evenodd" clip-rule="evenodd" d="M48.7748 62.7645H33.281V73.145C33.281 73.145 33.3045 73.1176 33.3202 73.1176C36.9702 69.4657 42.8901 69.4657 46.544 73.1176C50.194 76.7422 50.194 82.6526 46.544 86.3007C46.5283 86.3281 46.5126 86.3281 46.493 86.3555C46.493 86.3555 46.4538 86.3829 46.4381 86.4103C42.796 90.0075 38.0365 91.8041 33.2771 91.8041C28.5176 91.8041 23.715 90.0075 20.0728 86.3555C13.6432 79.9557 12.8827 70.0097 17.7833 62.7645C18.4419 61.7821 19.2064 60.8583 20.0728 59.9854C23.7189 56.3335 28.498 54.5369 33.2771 54.5369V29.5837C14.9135 29.5837 0.0234375 44.4304 0.0234375 62.7645C0.0234375 81.0987 14.9135 95.9727 33.281 95.9727C42.8587 95.9727 51.4838 91.9137 57.5527 85.4591V62.7684H48.7748V62.7645Z" />
            </g>
            <defs>
            <clipPath id="clip0_2901_2223">
            <rect width="200" height="96" fill="white" transform="translate(0.0234375)"/>
            </clipPath>
            </defs>
        </svg>
    </symbol>
    <symbol>
        <svg width="90" height="96" viewBox="0 0 90 96" xmlns="http://www.w3.org/2000/svg" id="cska">
            <g clip-path="url(#clip0_2908_2671)">
            <path d="M43.6071 26.4866H42.2001V22.7766L47.0884 15.8252L51.1534 26.4866H49.4027V30.3674H56.7251V26.4866H55.3382L49.8064 11.9682L55.4901 3.88481H56.7251V0H49.3987V3.88481H50.8136L42.2001 16.1311V3.88083H43.6071V0H36.5084V3.88083H37.8914V26.4866H36.5084V30.3674H43.6071V26.4866ZM88.8249 11.289L90 7.59086L80.6351 4.63952L79.46 8.33764L80.8829 8.7865L68.1565 28.4886L67.0014 28.1271L65.8263 31.8292L72.805 34.0338L73.9841 30.3357L72.0056 29.716L74.9194 25.1956L82.7934 27.6703L82.5656 33.0367L80.5911 32.4171L79.416 36.1152L86.3987 38.3078L87.5738 34.6097L86.4187 34.2483L87.394 10.852L88.8249 11.289ZM82.9333 24.3972L76.706 22.4429L83.4649 11.9563L82.9333 24.3972ZM25.6486 29.4896L24.4495 25.712L20.7243 26.9037L21.6676 29.855L11.2755 33.1321L4.38868 11.5988L14.7808 8.31778L15.7481 11.3366L19.4733 10.145L17.3149 3.44787L13.5897 4.63952L13.9215 5.66832L12.0829 6.2284L10.7239 5.52135L1.87059 8.30189L0 11.9126V11.9325L7.43039 35.2254L11.2555 37.1877L23.7181 33.2512L25.6486 29.4896ZM52.3125 68.4647L46.7447 51.432L41.1769 68.4647H23.1585L37.7355 78.9911L32.1677 96L46.7447 85.4737L61.3257 96L55.7579 78.9672L70.3349 68.4409L52.3125 68.4647Z" />
            </g>
            <defs>
            <clipPath id="clip0_2908_2671">
            </clipPath>
            </defs>
        </svg>

    </symbol>
    <symbol>
        <svg width="101" height="96" viewBox="0 0 101 96" xmlns="http://www.w3.org/2000/svg" id="torpedo">
            <g clip-path="url(#clip0_2908_2674)">
            <path fill-rule="evenodd" clip-rule="evenodd" d="M13.7126 0H86.5429C82.2421 8.53988 77.9493 17.0837 73.6505 25.6236C71.9142 24.501 70.2038 23.3389 68.4456 22.2499C65.3981 20.3882 62.1351 18.8288 58.6725 17.892C58.6805 36.6319 58.6905 55.3699 58.7004 74.1098C59.8699 73.6849 61.0374 73.254 62.2069 72.8291C65.1606 78.9756 68.1143 85.1221 71.064 91.2686C68.7709 92.1066 66.5077 93.0315 64.1747 93.7608C59.82 95.1304 55.2718 95.913 50.7015 96.002H49.562C48.3506 95.9704 47.1412 95.9091 45.9357 95.7866C41.4892 95.3557 37.1186 94.2608 32.9515 92.6758C31.6982 92.2034 30.4409 91.7409 29.1895 91.2646C32.1432 85.1201 35.0929 78.9736 38.0466 72.8271C39.2161 73.252 40.3836 73.6829 41.5531 74.1078C41.5631 55.3659 41.5731 36.626 41.5811 17.8841C38.1105 18.8269 34.8435 20.3961 31.786 22.2618C30.0357 23.3468 28.3314 24.503 26.6031 25.6196C22.3043 17.0837 18.0134 8.5379 13.7126 0ZM16.9437 1.98822C18.0873 4.25314 19.2249 6.52201 20.3644 8.78692C20.3644 8.79088 20.3704 8.7968 20.3704 8.80076C20.4802 9.02013 20.5899 9.23951 20.6997 9.45889C20.6997 9.46284 20.7057 9.46877 20.7057 9.47272C20.7596 9.58142 20.8155 9.68815 20.8693 9.79685C20.8693 9.8008 20.8753 9.80673 20.8753 9.81068C20.9671 9.99251 21.0569 10.1743 21.1487 10.3542C21.1487 10.3581 21.1547 10.3641 21.1547 10.368C21.1887 10.4372 21.2246 10.5064 21.2605 10.5775C21.2605 10.5815 21.2665 10.5894 21.2665 10.5913C21.3204 10.6981 21.3743 10.8048 21.4281 10.9135C21.4301 10.9174 21.4341 10.9234 21.4361 10.9273C21.508 11.0716 21.5798 11.2159 21.6537 11.3582C21.6537 11.3621 21.6597 11.37 21.6597 11.372C23.5696 15.1607 25.4695 18.9553 27.3834 22.742C27.4692 22.6907 27.5511 22.6373 27.6349 22.5839C27.6389 22.582 27.6468 22.576 27.6508 22.5741C27.6888 22.5484 27.7666 22.4989 27.8045 22.4733C27.8085 22.4713 27.8145 22.4673 27.8165 22.4654C27.8544 22.4397 27.9322 22.3883 27.9722 22.3646C27.9761 22.3626 27.9841 22.3567 27.9881 22.3547C28.026 22.329 28.1039 22.2796 28.1418 22.2539C28.1458 22.2519 28.1538 22.246 28.1578 22.244C28.6986 21.8922 29.2355 21.5365 29.7783 21.1866C29.7803 21.1866 29.7863 21.1827 29.7903 21.1807C29.8302 21.155 29.91 21.1056 29.9479 21.0799C29.9519 21.0779 29.9579 21.074 29.9599 21.072C30.6225 20.6491 31.297 20.2439 31.9776 19.8526C31.9816 19.8526 31.9876 19.8467 31.9916 19.8447C32.1173 19.7716 32.245 19.7004 32.3707 19.6293C32.3747 19.6293 32.3807 19.6233 32.3827 19.6214C32.5104 19.5502 32.6402 19.4791 32.7679 19.4079C32.7719 19.4079 32.7779 19.404 32.7799 19.402C32.9814 19.2913 33.183 19.1826 33.3866 19.0739C33.3886 19.0739 33.3946 19.07 33.3985 19.068C35.2047 18.1114 37.0767 17.2774 39.0125 16.6114C39.0165 16.6114 39.0285 16.6054 39.0325 16.6054C39.0704 16.5936 39.1443 16.5679 39.1822 16.556C39.1882 16.554 39.1981 16.5501 39.2041 16.5481C39.2381 16.5343 39.3079 16.5106 39.3418 16.4967C39.3498 16.4947 39.3658 16.4888 39.3738 16.4868C39.4097 16.477 39.4815 16.4532 39.5175 16.4434C39.5234 16.4434 39.5354 16.4374 39.5414 16.4355C39.5773 16.4236 39.6512 16.3999 39.6871 16.388C39.6931 16.388 39.7031 16.3821 39.7071 16.3821C40.0723 16.2675 40.4375 16.1568 40.8047 16.052C40.8107 16.052 40.8247 16.0481 40.8307 16.0461C40.8646 16.0382 40.9284 16.0224 40.9624 16.0125L41.0083 16.0382L41.0622 16.0125L41.0681 15.9611C41.1959 15.9651 41.3156 15.9058 41.4394 15.8801C41.4433 15.8801 41.4513 15.8761 41.4553 15.8761C41.599 15.8406 41.7427 15.803 41.8884 15.7674C41.8924 15.7674 41.9004 15.7635 41.9044 15.7635C41.9562 15.7516 42.062 15.7259 42.1159 15.7141C42.1179 15.7141 42.1259 15.7141 42.1279 15.7121C42.545 15.6153 42.9641 15.5263 43.3852 15.4473C43.4151 15.4512 43.477 15.4572 43.5069 15.4591C43.5748 15.9038 43.5429 16.3544 43.5488 16.8031C43.5409 33.8077 43.5329 50.8104 43.5249 67.815C43.5309 70.8547 43.5089 73.8963 43.5309 76.936C43.491 76.9241 43.4091 76.9004 43.3692 76.8885C43.3652 76.8885 43.3572 76.8846 43.3533 76.8826C43.2096 76.8292 43.0659 76.7739 42.9202 76.7225C42.9162 76.7225 42.9082 76.7186 42.9062 76.7166C42.553 76.5862 42.1997 76.4577 41.8465 76.3292C41.8425 76.3292 41.8365 76.3253 41.8325 76.3233C41.6848 76.2699 41.5391 76.2146 41.3935 76.1632C41.3895 76.1632 41.3815 76.1593 41.3775 76.1573C41.3396 76.1434 41.2657 76.1158 41.2298 76.1039C41.2258 76.1039 41.2198 76.1 41.2158 76.098C41.0681 76.0446 40.9225 75.9913 40.7768 75.9379C40.7728 75.9379 40.7668 75.934 40.7628 75.932C40.4654 75.8233 40.1681 75.7126 39.8707 75.6059C39.8647 75.6059 39.8547 75.6 39.8488 75.598C39.8128 75.5841 39.741 75.5584 39.7051 75.5446C39.7011 75.5446 39.6931 75.5407 39.6891 75.5387C39.5434 75.4853 39.3997 75.432 39.254 75.3786C39.25 75.3786 39.244 75.3746 39.2401 75.3727C39.1802 75.3489 39.1183 75.3252 39.0584 75.3015C38.5695 76.3075 38.0905 77.3174 37.6036 78.3234C37.6036 78.3273 37.5996 78.3333 37.5976 78.3372C35.7036 82.2899 33.7957 86.2348 31.9117 90.1895L32.0175 90.2172C32.0175 90.2172 32.0375 90.2231 32.0434 90.2251C32.9375 90.565 33.8316 90.9029 34.7297 91.2251C34.7337 91.2251 34.7437 91.231 34.7477 91.231C35.1149 91.3634 35.4861 91.488 35.8573 91.6125C35.8633 91.6125 35.8772 91.6184 35.8832 91.6204C35.9192 91.6322 35.989 91.654 36.0249 91.6638C36.0329 91.6658 36.0489 91.6718 36.0569 91.6737C36.0908 91.6856 36.1626 91.7093 36.1966 91.7212C36.2026 91.7212 36.2145 91.7271 36.2205 91.7291C36.5099 91.8239 36.8013 91.9149 37.0946 92.0018C37.1006 92.0018 37.1106 92.0058 37.1146 92.0077C37.2942 92.0631 37.4758 92.1164 37.6574 92.1678C37.6614 92.1678 37.6694 92.1718 37.6734 92.1718C37.853 92.2133 38.0266 92.2983 38.2142 92.3101L38.2182 92.3595L38.2721 92.3852L38.318 92.3595C38.35 92.3674 38.4138 92.3832 38.4458 92.3912C38.4497 92.3912 38.4597 92.3951 38.4657 92.3971C38.6633 92.4366 38.8549 92.5295 39.0564 92.5354L39.0604 92.5848L39.1143 92.6105L39.1602 92.5848C39.278 92.6145 39.3977 92.6382 39.5175 92.6718C39.5215 92.6718 39.5314 92.6758 39.5354 92.6758C39.5694 92.6837 39.6412 92.6975 39.6751 92.7054L39.6871 92.7548L39.745 92.7746L39.7889 92.7449C39.8308 92.7489 39.9166 92.7548 39.9605 92.7588V92.8082C39.9865 92.8082 40.0363 92.8141 40.0603 92.8161H40.186L40.192 92.8655L40.2459 92.8912L40.2918 92.8635C41.7826 93.1936 43.2834 93.4841 44.8002 93.6699C47.2449 93.996 49.7216 94.0829 52.1864 93.9683C54.3617 93.8576 56.5251 93.5631 58.6625 93.1441L58.7104 93.1698L58.7623 93.1441L58.7663 93.0947C58.9978 93.0947 59.2213 93.0058 59.4508 92.9742L59.4967 93.0019L59.5506 92.9762L59.5546 92.9267C59.844 92.9129 60.1214 92.7983 60.4088 92.7508L60.4547 92.7785L60.5086 92.7528L60.5126 92.7034C60.7081 92.7014 60.8898 92.6145 61.0833 92.5848L61.1292 92.6105L61.1831 92.5848L61.1871 92.5354H61.253C62.8416 92.1204 64.4082 91.6283 65.9489 91.063C65.9529 91.063 65.9609 91.0591 65.9649 91.0571C66.2623 90.9484 66.5576 90.8358 66.853 90.7271C66.857 90.7271 66.863 90.7231 66.867 90.7211C67.3499 90.5393 67.8349 90.3594 68.3179 90.1776C65.9449 85.215 63.5481 80.2622 61.1791 75.2995C61.0674 75.345 60.9536 75.3865 60.8399 75.428C60.8339 75.428 60.8239 75.4339 60.8199 75.4359C60.6742 75.4873 60.5285 75.5407 60.3828 75.594C60.3788 75.594 60.3729 75.598 60.3689 75.5999C60.2232 75.6533 60.0775 75.7067 59.9318 75.76C59.9278 75.76 59.9198 75.764 59.9158 75.766C59.7143 75.8371 59.5147 75.9122 59.3151 75.9853C59.3111 75.9853 59.3031 75.9913 59.2972 75.9913C59.1495 76.0427 59.0038 76.096 58.8581 76.1514C58.8541 76.1514 58.8481 76.1553 58.8441 76.1573C58.6446 76.2304 58.447 76.3016 58.2494 76.3767C58.2434 76.3767 58.2334 76.3826 58.2294 76.3846C58.0838 76.4359 57.9361 76.4893 57.7924 76.5446C57.7884 76.5446 57.7804 76.5486 57.7764 76.5506C57.6287 76.6039 57.483 76.6553 57.3374 76.7107C57.3334 76.7107 57.3274 76.7146 57.3234 76.7166C57.2855 76.7304 57.2116 76.7581 57.1737 76.7719C57.1697 76.7719 57.1617 76.7759 57.1577 76.7779C57.0061 76.8332 56.8564 76.8905 56.7027 76.9379C56.7227 76.6514 56.7087 76.3628 56.7127 76.0763C56.7027 63.5579 56.7067 51.0377 56.6887 38.5194C56.6907 30.8194 56.6847 23.1195 56.6768 15.4176C56.9661 15.4591 57.2515 15.556 57.5429 15.5718L57.5469 15.6212L57.6008 15.6449L57.6467 15.6172C57.7804 15.637 57.9101 15.6884 58.0478 15.6825L58.0518 15.7319L58.1057 15.7556L58.1516 15.7299C58.3432 15.7595 58.5288 15.8425 58.7244 15.8485L58.7284 15.8979L58.7823 15.9236L58.8282 15.8959C58.8601 15.9038 58.926 15.9196 58.9579 15.9275C58.9639 15.9275 58.9739 15.9315 58.9778 15.9335C59.0138 15.9394 59.0856 15.9512 59.1215 15.9572L59.1275 16.0066L59.1814 16.0343L59.2273 16.0105C59.2572 16.0105 59.3171 16.0125 59.3451 16.0125L59.3511 16.0619L59.4049 16.0876L59.4508 16.0619C59.4828 16.0698 59.5466 16.0856 59.5786 16.0955C59.5845 16.0975 59.5945 16.0995 59.6005 16.1015C59.7801 16.1509 59.9578 16.2121 60.1414 16.2576C60.1493 16.2596 60.1653 16.2635 60.1733 16.2655C60.2092 16.2774 60.2791 16.3011 60.315 16.3129C60.321 16.3149 60.3349 16.3189 60.3409 16.3208C60.788 16.4592 61.229 16.6094 61.6701 16.7635C61.6761 16.7655 61.6861 16.7695 61.692 16.7714C63.3465 17.3663 64.9571 18.0818 66.5157 18.8921C66.5197 18.8941 66.5257 18.898 66.5297 18.9C66.7692 19.0245 67.0087 19.151 67.2462 19.2814C67.2502 19.2814 67.2561 19.2874 67.2601 19.2874C67.4278 19.3763 67.5934 19.4692 67.7591 19.5621C67.7611 19.564 67.769 19.566 67.771 19.568C67.9008 19.6391 68.0285 19.7123 68.1562 19.7854C68.1602 19.7874 68.1642 19.7913 68.1682 19.7913C68.3897 19.9158 68.6093 20.0463 68.8288 20.1747C68.8328 20.1767 68.8388 20.1807 68.8428 20.1826C68.9306 20.234 69.0204 20.2874 69.1102 20.3408C69.1142 20.3427 69.1202 20.3467 69.1241 20.3487C69.4215 20.5265 69.7169 20.7103 70.0122 20.8922C70.0162 20.8941 70.0242 20.9001 70.0282 20.902C70.2278 21.0305 70.4314 21.157 70.6309 21.2855C70.6349 21.2874 70.6429 21.2934 70.6449 21.2953C70.6848 21.321 70.7646 21.3744 70.8046 21.4001C70.8066 21.4021 70.8125 21.406 70.8165 21.406C70.8544 21.4317 70.9323 21.4831 70.9722 21.5068C70.9742 21.5088 70.9822 21.5127 70.9842 21.5167C71.0241 21.5424 71.1019 21.5938 71.1418 21.6195C71.1438 21.6214 71.1498 21.6254 71.1518 21.6274C71.1917 21.6531 71.2696 21.7044 71.3095 21.7301C71.3115 21.7321 71.3175 21.7361 71.3214 21.738C71.3594 21.7637 71.4392 21.8151 71.4771 21.8408C71.4791 21.8428 71.4851 21.8467 71.4871 21.8467C71.7665 22.0286 72.0439 22.2124 72.3233 22.3942C72.3273 22.3962 72.3333 22.4001 72.3373 22.4041C72.5089 22.5167 72.6785 22.6294 72.8502 22.7401C73.7223 21.0404 74.5705 19.3269 75.4327 17.6213C75.4327 17.6173 75.4366 17.6114 75.4386 17.6074C75.5105 17.4632 75.5843 17.3169 75.6562 17.1726C75.6582 17.1687 75.6622 17.1608 75.6622 17.1588C75.7161 17.0501 75.7679 16.9434 75.8238 16.8386C75.8258 16.8347 75.8298 16.8268 75.8298 16.8248C75.8637 16.7537 75.8997 16.6845 75.9356 16.6153C75.9376 16.6114 75.9396 16.6054 75.9416 16.6015C75.9755 16.5303 76.0114 16.4592 76.0473 16.39C76.0473 16.386 76.0513 16.3801 76.0533 16.3762C76.1252 16.2319 76.199 16.0876 76.2709 15.9433C76.2729 15.9394 76.2769 15.9335 76.2769 15.9295C76.4245 15.635 76.5722 15.3425 76.7199 15.05C76.7199 15.0461 76.7239 15.0401 76.7259 15.0362C78.8454 10.8186 80.9688 6.60106 83.0903 2.3835C83.0903 2.37954 83.0943 2.37164 83.0963 2.36966C83.1581 2.2412 83.224 2.11274 83.2938 1.98625C81.6174 1.96846 79.941 1.98427 78.2666 1.97834H39.0545C31.6842 1.9823 24.314 1.96846 16.9437 1.98427V1.98822ZM20.1209 3.93099C22.8012 9.2573 25.4735 14.5856 28.1598 19.9079C30.6784 18.2517 33.3347 16.7912 36.1187 15.6212C36.1447 15.6074 36.1986 15.5817 36.2245 15.5678C36.478 15.4947 36.7175 15.3781 36.9629 15.2832C36.9909 15.2714 37.0447 15.2457 37.0707 15.2319C37.1326 15.2239 37.1924 15.2042 37.2463 15.1706C37.2743 15.1587 37.3281 15.133 37.3541 15.1192C37.5297 15.0836 37.6954 15.0065 37.863 14.9413C37.8909 14.9295 37.9468 14.9077 37.9748 14.8959C38.0386 14.8899 38.0985 14.8702 38.1564 14.8366C38.1823 14.8227 38.2342 14.7971 38.2602 14.7832C38.34 14.7891 38.4198 14.7575 38.4897 14.7219C38.5176 14.7101 38.5715 14.6844 38.5974 14.6725C38.6773 14.6765 38.7551 14.6429 38.8269 14.6113C38.8549 14.5994 38.9088 14.5737 38.9347 14.5619H39.0006C39.0265 14.5461 39.0764 14.5184 39.1023 14.5065C39.3159 14.4828 39.5195 14.3899 39.727 14.3306C39.755 14.3188 39.8088 14.2951 39.8368 14.2832C39.9346 14.2832 40.0284 14.2496 40.1202 14.214C40.1481 14.2041 40.204 14.1824 40.2319 14.1725L40.2958 14.1666C40.3217 14.1547 40.3756 14.131 40.4016 14.1211C40.4295 14.1172 40.4854 14.1093 40.5133 14.1053C40.5413 14.0954 40.5972 14.0717 40.6251 14.0618C41.0402 13.9867 41.4513 13.8622 41.8644 13.7654C41.8924 13.7575 41.9503 13.7377 41.9782 13.7298C42.066 13.7397 42.1538 13.7041 42.2396 13.6903C43.3273 13.4531 44.429 13.2832 45.5346 13.1606C45.5246 35.3513 45.5067 57.5439 45.4987 79.7345C45.355 79.689 45.2193 79.6159 45.0716 79.5942C45.0456 79.5804 44.9957 79.5507 44.9698 79.5369H44.9059C44.878 79.523 44.8261 79.4973 44.7982 79.4855C44.7423 79.4519 44.6824 79.4321 44.6205 79.4242C44.5926 79.4124 44.5387 79.3886 44.5108 79.3788C44.4409 79.3452 44.3651 79.3096 44.2873 79.3155C44.2613 79.3017 44.2074 79.276 44.1835 79.2622C44.1276 79.2246 44.0677 79.2068 44.0019 79.2068C43.9759 79.193 43.926 79.1633 43.9001 79.1495H43.8362C43.8103 79.1376 43.7564 79.11 43.7305 79.0981C43.6746 79.0645 43.6147 79.0428 43.5508 79.0368C43.5229 79.025 43.469 79.0013 43.4411 78.9894C43.2734 78.9262 43.1078 78.8451 42.9302 78.8175C42.9062 78.8017 42.8543 78.772 42.8304 78.7582H42.7665C42.7406 78.7463 42.6867 78.7206 42.6607 78.7068C42.6049 78.6712 42.545 78.6515 42.4811 78.6475C42.4532 78.6356 42.3993 78.6119 42.3714 78.6001C42.2037 78.5349 42.0381 78.4597 41.8624 78.4242C41.8345 78.4123 41.7806 78.3886 41.7527 78.3748C41.6429 78.3234 41.5292 78.2759 41.4074 78.2562C41.3795 78.2443 41.3256 78.2206 41.2977 78.2068C41.13 78.1416 40.9664 78.0645 40.7887 78.0329C40.7628 78.019 40.7089 77.9953 40.681 77.9834C40.5712 77.9321 40.4575 77.8826 40.3357 77.8668C40.3078 77.855 40.2539 77.8293 40.2279 77.8174C40.1741 77.7917 40.1182 77.77 40.0623 77.7502C38.7032 80.5764 37.3481 83.4026 35.989 86.2288C35.548 87.1676 35.075 88.0926 34.6519 89.0392C34.6519 89.063 34.6519 89.1064 34.6539 89.1302C34.8275 89.1835 34.9911 89.2705 35.1728 89.3041C35.2007 89.3159 35.2546 89.3396 35.2825 89.3535C35.4482 89.4207 35.6178 89.4879 35.7954 89.5294C35.8234 89.5412 35.8792 89.563 35.9072 89.5748C35.977 89.6065 36.0529 89.6361 36.1327 89.6401C36.1606 89.6519 36.2145 89.6756 36.2425 89.6875C36.3143 89.7211 36.3921 89.7507 36.472 89.7487C36.4979 89.7626 36.5478 89.7922 36.5738 89.8061H36.6416C36.6676 89.8199 36.7175 89.8476 36.7434 89.8614H36.8093C36.8372 89.8733 36.8911 89.899 36.919 89.9108C36.9909 89.9405 37.0687 89.9681 37.1485 89.976C37.1765 89.9859 37.2323 90.0077 37.2603 90.0195C37.2882 90.0235 37.3421 90.0294 37.3701 90.0333C37.396 90.0452 37.4479 90.0709 37.4718 90.0828H37.5397C37.5656 90.0986 37.6175 90.1262 37.6435 90.1401H37.7093C37.7373 90.1539 37.7931 90.1756 37.8191 90.1875C37.9668 90.2369 38.1165 90.2923 38.2721 90.31C38.3001 90.3219 38.3559 90.3436 38.3839 90.3555C38.4118 90.3594 38.4677 90.3654 38.4956 90.3693C38.5216 90.3812 38.5755 90.4049 38.6014 90.4168L38.6673 90.4227C38.6952 90.4345 38.7511 90.4563 38.779 90.4662C38.807 90.4701 38.8629 90.4761 38.8908 90.48C38.9167 90.4919 38.9686 90.5156 38.9946 90.5294L39.0604 90.5353C39.0884 90.5472 39.1443 90.5689 39.1722 90.5808C39.2001 90.5828 39.256 90.5887 39.284 90.5927C39.3119 90.6025 39.3678 90.6243 39.3957 90.6342C39.5055 90.6678 39.6172 90.7132 39.733 90.7073C39.7609 90.7172 39.8168 90.7389 39.8448 90.7488C39.8727 90.7527 39.9286 90.7607 39.9565 90.7646C39.9845 90.7745 40.0403 90.7923 40.0683 90.8022C40.2519 90.8575 40.4415 90.9148 40.6351 90.9306C40.663 90.9405 40.7209 90.9583 40.7488 90.9682C44.7064 91.8951 48.8036 92.2726 52.8629 91.9801C55.4853 91.7903 58.0897 91.3575 60.6303 90.6895C60.6583 90.6796 60.7141 90.6599 60.7441 90.65C60.8419 90.65 60.9416 90.6184 61.0315 90.5808C61.0594 90.5709 61.1133 90.5512 61.1412 90.5413C61.1692 90.5373 61.225 90.5294 61.253 90.5255C61.2809 90.5136 61.3348 90.4919 61.3627 90.482C61.5364 90.4701 61.702 90.4029 61.8697 90.3555C61.8976 90.3456 61.9535 90.3239 61.9814 90.314L62.0453 90.31C62.0712 90.2962 62.1231 90.2685 62.1491 90.2567H62.2169C62.2429 90.2428 62.2948 90.2191 62.3207 90.2073C62.3486 90.2033 62.4045 90.1954 62.4325 90.1934C62.4604 90.1816 62.5163 90.1598 62.5442 90.148H62.6101C62.636 90.1322 62.6879 90.1045 62.7139 90.0907H62.7817C62.8077 90.0768 62.8575 90.0492 62.8835 90.0353C62.9194 90.0294 62.9913 90.0195 63.0272 90.0136C63.0312 90.0136 63.0392 90.0096 63.0412 90.0096C63.0791 89.9978 63.1569 89.9721 63.1968 89.9602C63.2008 89.9602 63.2088 89.9563 63.2128 89.9543C63.2427 89.9444 63.3046 89.9227 63.3345 89.9108C63.3625 89.899 63.4184 89.8772 63.4463 89.8654H63.5082C63.5341 89.8495 63.586 89.8219 63.6119 89.808C63.6918 89.8061 63.7676 89.7744 63.8395 89.7448C63.8674 89.7329 63.9213 89.7112 63.9492 89.6993C64.029 89.6895 64.1029 89.6638 64.1767 89.6321C64.2047 89.6203 64.2606 89.5985 64.2885 89.5887C64.4082 89.561 64.524 89.5215 64.6357 89.4701C64.6617 89.4582 64.7156 89.4325 64.7415 89.4187C64.8194 89.4187 64.8952 89.3871 64.965 89.3555C64.993 89.3436 65.0489 89.3199 65.0748 89.31C65.1387 89.3021 65.1985 89.2823 65.2544 89.2487C65.2804 89.2369 65.3343 89.2092 65.3602 89.1954C65.456 89.1934 65.5438 89.142 65.6336 89.1124C63.8295 85.3573 62.0253 81.6002 60.2192 77.8451C60.2192 77.8411 60.2132 77.8332 60.2112 77.8293L60.1753 77.7542C60.1214 77.774 60.0695 77.7957 60.0176 77.8214C59.9897 77.8332 59.9378 77.8589 59.9099 77.8708H59.848C59.822 77.8846 59.7721 77.9143 59.7462 77.9281C59.3211 78.0506 58.908 78.2206 58.4949 78.3767C58.4689 78.3906 58.4151 78.4163 58.3891 78.4281H58.3272C58.3013 78.442 58.2494 78.4716 58.2235 78.4854C58.1017 78.4993 57.988 78.5507 57.8782 78.6001C57.8503 78.6119 57.7964 78.6376 57.7704 78.6515C57.6487 78.6653 57.5349 78.7167 57.4252 78.7681C57.3992 78.7799 57.3453 78.8056 57.3194 78.8194H57.2575C57.2316 78.8333 57.1797 78.8629 57.1557 78.8768C57.034 78.8926 56.9202 78.944 56.8105 78.9934C56.7825 79.0052 56.7287 79.0309 56.7027 79.0428C56.5271 79.0764 56.3594 79.1535 56.1938 79.2187C56.1659 79.2305 56.112 79.2543 56.084 79.2661C55.9643 79.2898 55.8505 79.3333 55.7408 79.3867C55.7128 79.3985 55.6589 79.4222 55.631 79.4341C55.4554 79.4717 55.2897 79.5448 55.1221 79.61C55.0942 79.6219 55.0403 79.6456 55.0123 79.6574C54.9185 79.6732 54.8307 79.7108 54.7429 79.7444C54.7309 57.5537 54.715 35.3611 54.709 13.1705C55.8885 13.293 57.058 13.5085 58.2195 13.7377C58.2474 13.7456 58.3053 13.7634 58.3332 13.7733C58.461 13.8069 58.5887 13.8523 58.7224 13.8504C58.7503 13.8603 58.8062 13.88 58.8342 13.8899C58.8621 13.8939 58.918 13.9037 58.9479 13.9077C58.9758 13.9176 59.0317 13.9373 59.0597 13.9472C59.0876 13.9512 59.1455 13.9591 59.1734 13.963C59.2014 13.9729 59.2553 13.9946 59.2832 14.0045C59.3111 14.0085 59.371 14.0164 59.3989 14.0203C59.4249 14.0322 59.4788 14.0539 59.5047 14.0638L59.5706 14.0697C59.5985 14.0816 59.6544 14.1033 59.6823 14.1132C59.7103 14.1152 59.7662 14.1211 59.7941 14.1251C59.822 14.1369 59.8759 14.1587 59.9039 14.1705C59.9937 14.2041 60.0895 14.2417 60.1893 14.2358C60.2152 14.2496 60.2691 14.2753 60.295 14.2871L60.3609 14.2911C60.3888 14.303 60.4447 14.3247 60.4727 14.3366C60.5006 14.3385 60.5545 14.3445 60.5824 14.3484C60.6084 14.3603 60.6602 14.386 60.6862 14.3978H60.7541C60.78 14.4136 60.8319 14.4413 60.8578 14.4551H60.9237C60.9516 14.469 61.0055 14.4927 61.0335 14.5045C61.1632 14.552 61.2949 14.6034 61.4326 14.6231C61.4585 14.637 61.5124 14.6646 61.5364 14.6785H61.6002C61.6282 14.6923 61.6821 14.716 61.71 14.7279C61.7818 14.7615 61.8577 14.7872 61.9375 14.7931C61.9655 14.805 62.0193 14.8287 62.0473 14.8405C62.1171 14.8741 62.191 14.9058 62.2728 14.9018C62.2987 14.9156 62.3526 14.9413 62.3786 14.9552C62.4325 14.9888 62.4923 15.0085 62.5582 15.0145C62.5861 15.0263 62.64 15.05 62.668 15.0619C62.7757 15.1133 62.8895 15.1587 63.0092 15.1805C63.0372 15.1923 63.0911 15.218 63.117 15.2299C63.2248 15.2793 63.3365 15.3366 63.4563 15.3465C63.4822 15.3603 63.5341 15.388 63.562 15.4018C63.6538 15.4532 63.7516 15.4947 63.8554 15.5164C63.8834 15.5303 63.9352 15.554 63.9632 15.5678C66.4778 16.6094 68.8887 17.8901 71.1877 19.3387C71.1917 19.3407 71.1997 19.3447 71.2017 19.3466C71.4971 19.5304 71.7884 19.7222 72.0818 19.9099C74.7601 14.5836 77.4404 9.26125 80.1166 3.93297C60.1134 3.93297 40.1102 3.93099 20.107 3.93297L20.1209 3.93099Z"/>
            <path fill-rule="evenodd" clip-rule="evenodd" d="M83.1102 2.38542C83.1102 2.38542 83.1142 2.37356 83.1162 2.37158C83.1162 2.37553 83.1122 2.38146 83.1102 2.38542ZM21.4321 10.9115C21.4321 10.9115 21.4381 10.9213 21.4401 10.9253C21.4401 10.9213 21.4341 10.9154 21.4321 10.9115ZM75.6701 17.1765C75.6701 17.1765 75.6761 17.1647 75.6761 17.1627C75.6761 17.1647 75.6721 17.1726 75.6701 17.1765ZM37.6075 78.3372C37.6075 78.3372 37.6135 78.3273 37.6135 78.3233C37.6135 78.3273 37.6095 78.3332 37.6075 78.3372Z" />
            <path fill-rule="evenodd" clip-rule="evenodd" d="M20.3645 8.78687C20.3645 8.78687 20.3705 8.79675 20.3705 8.8007C20.3705 8.79872 20.3645 8.79082 20.3645 8.78687ZM76.7379 15.0519C76.7379 15.0519 76.7419 15.0421 76.7439 15.0381C76.7419 15.0421 76.7379 15.048 76.7379 15.0519Z" />
            <path fill-rule="evenodd" clip-rule="evenodd" d="M20.7018 9.45898C20.7018 9.45898 20.7078 9.46887 20.7078 9.47282C20.7078 9.46887 20.7018 9.46294 20.7018 9.45898ZM33.3926 19.0701C33.3926 19.0701 33.4006 19.0661 33.4046 19.0641C33.4006 19.0661 33.3946 19.0701 33.3926 19.0701Z" />
            <path fill-rule="evenodd" clip-rule="evenodd" d="M20.8713 9.79492C20.8713 9.79492 20.8768 9.80412 20.8768 9.8078C20.8768 9.80596 20.8713 9.7986 20.8713 9.79492Z" />
            <path fill-rule="evenodd" clip-rule="evenodd" d="M21.1527 10.3523C21.1527 10.3523 21.1587 10.3622 21.1587 10.3661C21.1587 10.3622 21.1527 10.3562 21.1527 10.3523ZM75.9515 16.6174C75.9515 16.6174 75.9555 16.6075 75.9575 16.6035C75.9555 16.6075 75.9535 16.6134 75.9515 16.6174Z" />
            <path fill-rule="evenodd" clip-rule="evenodd" d="M21.2645 10.5754C21.2645 10.5754 21.2705 10.5873 21.2705 10.5893C21.2705 10.5853 21.2645 10.5774 21.2645 10.5754ZM75.8398 16.8425C75.8398 16.8425 75.8458 16.8306 75.8458 16.8287C75.8458 16.8326 75.8418 16.8405 75.8398 16.8425Z" />
            <path fill-rule="evenodd" clip-rule="evenodd" d="M21.6577 11.3562C21.6577 11.3562 21.6637 11.3681 21.6637 11.37C21.6637 11.3661 21.6577 11.3582 21.6577 11.3562ZM75.4467 17.6252C75.4467 17.6252 75.4507 17.6154 75.4527 17.6114C75.4507 17.6154 75.4467 17.6213 75.4467 17.6252Z" />
            <path fill-rule="evenodd" clip-rule="evenodd" d="M41.8684 13.7695C41.8963 13.7616 41.9542 13.7418 41.9822 13.7339L41.9702 13.7813L41.9123 13.8011L41.8684 13.7695Z" />
            <path fill-rule="evenodd" clip-rule="evenodd" d="M58.2295 13.7317C58.2574 13.7396 58.3153 13.7574 58.3433 13.7673L58.2993 13.7989L58.2415 13.7791L58.2295 13.7317Z" />
            <path fill-rule="evenodd" clip-rule="evenodd" d="M58.7344 13.8445C58.7624 13.8544 58.8182 13.8741 58.8462 13.884L58.8023 13.9137L58.7444 13.8939L58.7324 13.8445H58.7344ZM58.9599 13.8998C58.9879 13.9097 59.0438 13.9295 59.0717 13.9393L59.0298 13.967L58.9719 13.9473L58.9599 13.8998Z" />
            <path fill-rule="evenodd" clip-rule="evenodd" d="M59.1854 13.9551C59.2134 13.965 59.2672 13.9867 59.2952 13.9966C59.2692 13.9966 59.2193 14.0005 59.1954 14.0025L59.1854 13.9551Z" />
            <path fill-rule="evenodd" clip-rule="evenodd" d="M59.4109 14.0125C59.4368 14.0243 59.4907 14.046 59.5167 14.0559C59.4927 14.0559 59.4428 14.0579 59.4189 14.0599L59.4109 14.0125Z" />
            <path fill-rule="evenodd" clip-rule="evenodd" d="M40.5173 14.1094C40.5453 14.0995 40.6012 14.0758 40.6291 14.0659L40.6191 14.1134L40.5612 14.1351L40.5173 14.1074V14.1094Z" />
            <path fill-rule="evenodd" clip-rule="evenodd" d="M59.5825 14.0637C59.6105 14.0756 59.6663 14.0973 59.6943 14.1072L59.6504 14.1349L59.5925 14.1112L59.5825 14.0618V14.0637Z" />
            <path fill-rule="evenodd" clip-rule="evenodd" d="M40.2998 14.1705C40.3257 14.1586 40.3796 14.1349 40.4056 14.125L40.3976 14.1724C40.3736 14.1724 40.3238 14.1724 40.2998 14.1724V14.1705Z" />
            <path fill-rule="evenodd" clip-rule="evenodd" d="M59.8062 14.1191C59.8341 14.131 59.888 14.1527 59.9159 14.1646L59.87 14.1923L59.8141 14.1685L59.8062 14.1191Z" />
            <path fill-rule="evenodd" clip-rule="evenodd" d="M40.1222 14.218C40.1501 14.2081 40.206 14.1864 40.234 14.1765L40.224 14.2259L40.1661 14.2477L40.1222 14.218Z" />
            <path fill-rule="evenodd" clip-rule="evenodd" d="M60.2032 14.2297C60.2292 14.2436 60.2831 14.2693 60.309 14.2811L60.2631 14.3048L60.2092 14.2791L60.2032 14.2297ZM62.0533 90.302C62.0792 90.2882 62.1311 90.2605 62.1571 90.2487L62.1531 90.2981L62.0992 90.3258L62.0533 90.302ZM61.259 90.5194C61.2869 90.5076 61.3408 90.4858 61.3688 90.476L61.3588 90.5254L61.3009 90.5491L61.257 90.5214L61.259 90.5194Z" />
            <path fill-rule="evenodd" clip-rule="evenodd" d="M39.7311 14.3326C39.759 14.3207 39.8129 14.297 39.8408 14.2852L39.8329 14.3346L39.777 14.3583L39.7311 14.3326ZM60.7661 14.3958C60.792 14.4097 60.8439 14.4373 60.8699 14.4512C60.8459 14.4512 60.794 14.4472 60.7701 14.4452L60.7661 14.3958Z" />
            <path fill-rule="evenodd" clip-rule="evenodd" d="M60.3749 14.2871C60.4028 14.299 60.4587 14.3207 60.4866 14.3326L60.4427 14.3602L60.3849 14.3365L60.3749 14.2871ZM61.8777 90.3476C61.9056 90.3377 61.9615 90.3159 61.9894 90.306L61.9794 90.3555L61.9216 90.3772L61.8777 90.3476Z" />
            <path fill-rule="evenodd" clip-rule="evenodd" d="M60.5964 14.3445C60.6224 14.3563 60.6743 14.382 60.7002 14.3939C60.6763 14.3939 60.6264 14.3919 60.6024 14.3919L60.5984 14.3445H60.5964Z" />
            <path fill-rule="evenodd" clip-rule="evenodd" d="M60.9357 14.4531C60.9636 14.465 61.0175 14.4887 61.0454 14.5006L60.9995 14.5263L60.9437 14.5025L60.9357 14.4531Z" />
            <path fill-rule="evenodd" clip-rule="evenodd" d="M39.0046 14.5639C39.0306 14.55 39.0805 14.5224 39.1064 14.5085V14.556C39.0785 14.556 39.0286 14.5599 39.0046 14.5619V14.5639Z" />
            <path fill-rule="evenodd" clip-rule="evenodd" d="M38.8309 14.6153C38.8589 14.6035 38.9128 14.5778 38.9387 14.5659L38.9327 14.6153L38.8768 14.641L38.8309 14.6153Z" />
            <path fill-rule="evenodd" clip-rule="evenodd" d="M61.4466 14.6191C61.4725 14.633 61.5264 14.6606 61.5504 14.6745L61.5044 14.6982L61.4506 14.6705L61.4446 14.6191H61.4466Z" />
            <path fill-rule="evenodd" clip-rule="evenodd" d="M38.4917 14.7259C38.5196 14.7141 38.5735 14.6884 38.5995 14.6765L38.5935 14.7259L38.5376 14.7516L38.4917 14.7259Z" />
            <path fill-rule="evenodd" clip-rule="evenodd" d="M61.6142 14.6765C61.6421 14.6884 61.696 14.7121 61.7239 14.7239L61.678 14.7516L61.6202 14.7279L61.6122 14.6785L61.6142 14.6765Z" />
            <path fill-rule="evenodd" clip-rule="evenodd" d="M38.1584 14.8405C38.1843 14.8266 38.2362 14.8009 38.2621 14.7871L38.2582 14.8365L38.2043 14.8642L38.1564 14.8424L38.1584 14.8405Z" />
            <path fill-rule="evenodd" clip-rule="evenodd" d="M61.9515 14.7891C61.9795 14.8009 62.0334 14.8247 62.0613 14.8365L62.0154 14.8622L61.9595 14.8365L61.9535 14.7871L61.9515 14.7891Z" />
            <path fill-rule="evenodd" clip-rule="evenodd" d="M37.865 14.9454C37.8929 14.9335 37.9488 14.9118 37.9768 14.8999L37.9688 14.9493L37.9109 14.973L37.865 14.9454Z" />
            <path fill-rule="evenodd" clip-rule="evenodd" d="M62.2867 14.8999C62.3127 14.9137 62.3666 14.9394 62.3925 14.9533L62.3466 14.977L62.2927 14.9513L62.2867 14.9019V14.8999Z" />
            <path fill-rule="evenodd" clip-rule="evenodd" d="M62.5722 15.0125C62.6002 15.0243 62.654 15.048 62.682 15.0599L62.6361 15.0876L62.5802 15.0638L62.5722 15.0144V15.0125ZM41.3037 78.2068L41.3496 78.1791L41.4055 78.2048L41.4135 78.2542C41.3855 78.2423 41.3317 78.2186 41.3037 78.2048V78.2068Z" />
            <path fill-rule="evenodd" clip-rule="evenodd" d="M37.2483 15.1725C37.2762 15.1606 37.3301 15.1349 37.3561 15.1211L37.3501 15.1705L37.2942 15.1962L37.2483 15.1705V15.1725Z" />
            <path fill-rule="evenodd" clip-rule="evenodd" d="M63.0232 15.1785C63.0511 15.1903 63.105 15.216 63.131 15.2279L63.0851 15.2536L63.0292 15.2279L63.0232 15.1765V15.1785Z" />
            <path fill-rule="evenodd" clip-rule="evenodd" d="M36.965 15.2853C36.9929 15.2734 37.0468 15.2477 37.0727 15.2339L37.0667 15.2853L37.0109 15.311L36.965 15.2853Z" />
            <path fill-rule="evenodd" clip-rule="evenodd" d="M63.4723 15.3445C63.4982 15.3583 63.5501 15.386 63.5781 15.3998L63.5302 15.4235L63.4763 15.3959L63.4723 15.3465V15.3445Z" />
            <path fill-rule="evenodd" clip-rule="evenodd" d="M63.8715 15.5125C63.8994 15.5263 63.9513 15.55 63.9792 15.5638L63.9333 15.5895L63.8774 15.5638L63.8715 15.5125Z" />
            <path fill-rule="evenodd" clip-rule="evenodd" d="M36.1207 15.6212C36.1467 15.6074 36.2006 15.5817 36.2265 15.5679L36.2225 15.6173L36.1686 15.645L36.1207 15.6212Z" />
            <path fill-rule="evenodd" clip-rule="evenodd" d="M57.5549 15.5698C57.5809 15.5817 57.6348 15.6054 57.6607 15.6153L57.6148 15.643L57.5609 15.6192L57.5569 15.5698H57.5549Z" />
            <path fill-rule="evenodd" clip-rule="evenodd" d="M42.1259 15.7141C42.1259 15.7141 42.1359 15.7141 42.1379 15.7122C42.1339 15.7122 42.1279 15.7141 42.1259 15.7141ZM39.6971 16.3861C39.6971 16.3861 39.7131 16.3802 39.7171 16.3802C39.7111 16.3802 39.7011 16.3861 39.6971 16.3861ZM58.2454 76.3846C58.2454 76.3846 58.2594 76.3787 58.2654 76.3767C58.2594 76.3767 58.2494 76.3826 58.2454 76.3846ZM65.9629 91.0651C65.9629 91.0651 65.9749 91.0611 65.9789 91.0591C65.9749 91.0591 65.9669 91.0631 65.9629 91.0651ZM34.7417 91.2251C34.7417 91.2251 34.7557 91.2311 34.7597 91.2311C34.7557 91.2311 34.7477 91.2251 34.7417 91.2251Z" />
            <path fill-rule="evenodd" clip-rule="evenodd" d="M58.0598 15.6824C58.0858 15.6942 58.1376 15.7179 58.1636 15.7298L58.1177 15.7555L58.0638 15.7318L58.0598 15.6824Z" />
            <path fill-rule="evenodd" clip-rule="evenodd" d="M41.8984 15.7674C41.8984 15.7674 41.9104 15.7634 41.9144 15.7634C41.9104 15.7634 41.9024 15.7674 41.8984 15.7674ZM71.3215 21.734C71.3215 21.734 71.3295 21.74 71.3335 21.7419C71.3295 21.74 71.3235 21.736 71.3215 21.734ZM39.8588 75.5959C39.8588 75.5959 39.8747 75.6019 39.8807 75.6038C39.8747 75.6038 39.8648 75.5979 39.8588 75.5959Z" />
            <path fill-rule="evenodd" clip-rule="evenodd" d="M41.4494 15.8782C41.4494 15.8782 41.4613 15.8743 41.4653 15.8743C41.4613 15.8743 41.4533 15.8762 41.4494 15.8782ZM39.1902 16.5502C39.1902 16.5502 39.2062 16.5443 39.2121 16.5423C39.2062 16.5443 39.1962 16.5482 39.1902 16.5502ZM71.1538 21.6215C71.1538 21.6215 71.1618 21.6275 71.1638 21.6294C71.1618 21.6275 71.1558 21.6235 71.1538 21.6215Z" />
            <path fill-rule="evenodd" clip-rule="evenodd" d="M58.7363 15.8484C58.7623 15.8602 58.8142 15.884 58.8401 15.8958L58.7942 15.9235L58.7403 15.8978L58.7363 15.8484Z" />
            <path fill-rule="evenodd" clip-rule="evenodd" d="M58.9719 15.9294C58.9719 15.9294 58.9868 15.9332 58.9905 15.9351C58.985 15.9351 58.9756 15.9313 58.9719 15.9294Z" />
            <path fill-rule="evenodd" clip-rule="evenodd" d="M76.2888 15.9443C76.2888 15.9443 76.2943 15.9351 76.2943 15.9314C76.2943 15.9351 76.2907 15.9406 76.2888 15.9443Z" />
            <path fill-rule="evenodd" clip-rule="evenodd" d="M40.9724 16.0086C40.9984 15.9968 41.0522 15.9711 41.0782 15.9592L41.0722 16.0106L41.0183 16.0363L40.9724 16.0106V16.0086Z" />
            <path fill-rule="evenodd" clip-rule="evenodd" d="M59.1355 15.9592C59.1615 15.9731 59.2134 15.9988 59.2393 16.0126L59.1934 16.0363L59.1395 16.0086L59.1335 15.9592H59.1355Z" />
            <path fill-rule="evenodd" clip-rule="evenodd" d="M40.8147 16.0482C40.8147 16.0482 40.8347 16.0442 40.8406 16.0422C40.8347 16.0422 40.8207 16.0462 40.8147 16.0482ZM60.1513 16.2616L60.1673 16.2656L60.1833 16.2695C60.1833 16.2695 60.1593 16.2636 60.1513 16.2616Z" />
            <path fill-rule="evenodd" clip-rule="evenodd" d="M59.3571 16.0164C59.383 16.0282 59.4369 16.0539 59.4628 16.0658L59.4169 16.0915L59.363 16.0658L59.3571 16.0164Z" />
            <path fill-rule="evenodd" clip-rule="evenodd" d="M59.5906 16.0974C59.5906 16.0974 59.6065 16.1014 59.6125 16.1033C59.6065 16.1014 59.5965 16.0994 59.5906 16.0974ZM39.5235 16.4393C39.5235 16.4393 39.5414 16.4334 39.5474 16.4314C39.5414 16.4334 39.5295 16.4373 39.5235 16.4393ZM61.6781 16.7674C61.6781 16.7674 61.6941 16.7733 61.7 16.7753C61.6941 16.7733 61.6841 16.7694 61.6781 16.7674ZM29.7783 21.1826C29.7783 21.1826 29.7863 21.1786 29.7903 21.1767C29.7883 21.1786 29.7823 21.1826 29.7783 21.1826Z" />
            <path fill-rule="evenodd" clip-rule="evenodd" d="M60.325 16.3169C60.325 16.3169 60.3455 16.323 60.3517 16.3251C60.3455 16.323 60.3311 16.3189 60.325 16.3169Z" />
            <path fill-rule="evenodd" clip-rule="evenodd" d="M76.0653 16.393C76.0653 16.393 76.069 16.3838 76.0708 16.3801C76.0708 16.3838 76.0671 16.3893 76.0653 16.393Z" />
            <path fill-rule="evenodd" clip-rule="evenodd" d="M39.3638 16.4888L39.3798 16.4849C39.3798 16.4849 39.3558 16.4928 39.3479 16.4947L39.3638 16.4888ZM37.1027 92.0058C37.1027 92.0058 37.1186 92.0097 37.1226 92.0117C37.1166 92.0117 37.1067 92.0077 37.1027 92.0058Z" />
            <path fill-rule="evenodd" clip-rule="evenodd" d="M39.0206 16.6094C39.0206 16.6094 39.0365 16.6035 39.0405 16.6035C39.0345 16.6035 39.0246 16.6094 39.0206 16.6094ZM70.0203 20.8982C70.0203 20.8982 70.0323 20.9061 70.0362 20.908C70.0323 20.9061 70.0243 20.9021 70.0203 20.8982ZM27.6389 22.582C27.6389 22.582 27.6509 22.5741 27.6549 22.5721C27.6509 22.5741 27.6429 22.58 27.6389 22.582Z" />
            <path fill-rule="evenodd" clip-rule="evenodd" d="M66.5258 18.896C66.5258 18.896 66.5354 18.9018 66.5393 18.9038C66.5354 18.9038 66.5296 18.8999 66.5258 18.896Z" />
            <path fill-rule="evenodd" clip-rule="evenodd" d="M67.2561 19.2834C67.2561 19.2834 67.2661 19.2894 67.2701 19.2894C67.2661 19.2894 67.2601 19.2834 67.2561 19.2834ZM59.9298 75.768C59.9298 75.768 59.9418 75.764 59.9458 75.762C59.9418 75.762 59.9338 75.766 59.9298 75.768Z" />
            <path fill-rule="evenodd" clip-rule="evenodd" d="M71.2017 19.3347C71.2017 19.3347 71.2133 19.3406 71.2152 19.3425C71.2113 19.3406 71.2055 19.3367 71.2017 19.3347Z" />
            <path fill-rule="evenodd" clip-rule="evenodd" d="M32.7739 19.4037C32.7739 19.4037 32.7836 19.3999 32.7855 19.3979C32.7816 19.3999 32.7759 19.4037 32.7739 19.4037Z" />
            <path fill-rule="evenodd" clip-rule="evenodd" d="M67.7671 19.564C67.7671 19.564 67.7767 19.5678 67.7787 19.5697C67.7767 19.5678 67.769 19.5659 67.7671 19.564Z" />
            <path fill-rule="evenodd" clip-rule="evenodd" d="M32.3748 19.6251C32.3748 19.6251 32.3844 19.6194 32.3863 19.6174C32.3825 19.6194 32.3767 19.6232 32.3748 19.6251Z" />
            <path fill-rule="evenodd" clip-rule="evenodd" d="M68.1642 19.7893C68.1642 19.7893 68.1719 19.7951 68.1758 19.7951C68.1738 19.7951 68.168 19.7912 68.1642 19.7893Z" />
            <path fill-rule="evenodd" clip-rule="evenodd" d="M31.9816 19.8486C31.9816 19.8486 31.9912 19.8428 31.9951 19.8408C31.9912 19.8428 31.9854 19.8467 31.9816 19.8486Z" />
            <path fill-rule="evenodd" clip-rule="evenodd" d="M15.4769 22.6374C16.1754 21.7243 16.9178 20.8468 17.7061 20.0088C18.7219 20.8942 19.9054 21.6057 21.1947 22.0207C21.7275 22.1729 22.3023 22.3488 22.8571 22.1867C23.0726 21.4812 22.7433 20.7717 22.5557 20.0997C23.5975 22.2124 24.6712 24.3113 25.727 26.4181C24.2042 28.0131 22.8591 29.7661 21.6696 31.616C25.24 31.616 28.8124 31.616 32.3827 31.616C32.3827 28.8194 32.3827 26.0229 32.3827 23.2263C33.5383 22.5049 34.7357 21.8527 35.9591 21.2539C35.9591 25.0545 35.9591 28.853 35.9611 32.6536C37.4519 34.1359 38.9527 35.6063 40.4375 37.0945C40.4335 37.217 40.4335 37.3395 40.4335 37.4621C38.5495 37.0866 36.6556 36.7565 34.7577 36.4601C34.3006 36.043 33.8755 35.5885 33.4285 35.1596C30.4409 35.1576 27.4513 35.1636 24.4637 35.1537C19.2867 34.6675 14.0839 34.2979 8.88299 34.5292C9.09853 33.9283 9.33403 33.3354 9.58349 32.7484C10.8687 33.2445 12.2538 33.5153 13.6368 33.454C14.1637 33.4125 14.7385 33.3769 15.1775 33.0508C15.1576 32.5923 14.8981 32.1911 14.6447 31.8215C13.7965 30.6357 12.629 29.695 11.3477 28.9993C11.8726 27.9795 12.4534 26.9854 13.082 26.0248C14.3633 26.7442 15.7543 27.3451 17.2411 27.4459C17.6762 27.4715 18.1512 27.5051 18.5423 27.2818C18.6022 26.9419 18.4904 26.6039 18.3687 26.2917C17.784 24.8252 16.6763 23.6414 15.4789 22.6354L15.4769 22.6374ZM79.0489 22.0247C80.3442 21.6096 81.5316 20.8962 82.5514 20.0088C83.3378 20.8468 84.0822 21.7263 84.7807 22.6393C83.703 23.5504 82.6911 24.59 82.0804 25.8727C81.8749 26.3134 81.6414 26.7897 81.7192 27.2877C82.1503 27.5249 82.6672 27.4735 83.1402 27.438C84.5811 27.3154 85.9302 26.7284 87.1736 26.0268C87.8082 26.9854 88.383 27.9815 88.9098 29.0032C87.7304 29.6376 86.6626 30.4875 85.8284 31.531C85.4932 31.9856 85.118 32.4678 85.08 33.0528C85.4652 33.3651 85.9881 33.4006 86.4631 33.4461C87.902 33.5726 89.3289 33.2228 90.6761 32.7504C91.1251 33.8058 91.5223 34.8829 91.8615 35.9778C90.5743 36.4087 89.3529 37.0727 88.3411 37.9779C87.9459 38.3574 87.5128 38.7586 87.3771 39.308C87.6964 39.6776 88.2014 39.8041 88.6544 39.9306C90.0534 40.3061 91.5262 40.2073 92.9392 39.9721C93.1967 41.0887 93.4022 42.2192 93.5379 43.3556C92.131 43.5651 90.7499 44.0414 89.5624 44.824C89.1653 45.1027 88.7322 45.4031 88.5446 45.8695C88.8659 46.3379 89.4148 46.5711 89.9197 46.7925C91.179 47.2985 92.5501 47.506 93.9052 47.4744C93.961 48.5515 93.961 49.6306 93.9171 50.7057C90.8736 49.1068 87.7823 47.585 84.5671 46.3557C84.1321 46.2016 83.7648 45.8952 83.4615 45.5593C83.2739 43.3319 82.7171 41.1539 82.0525 39.0234C81.6394 37.6913 81.1065 36.4008 80.5118 35.1398C75.9516 35.1497 71.3913 35.1537 66.8311 35.1557C64.8992 37.0549 62.9853 38.97 61.0534 40.8674C60.6443 40.7903 60.2332 40.731 59.8221 40.6717C59.8221 39.476 59.8201 38.2783 59.8221 37.0826C61.3069 35.6102 62.7957 34.1438 64.2765 32.6674C64.3264 32.5034 64.2825 32.3176 64.2965 32.1457C64.2965 28.5131 64.2965 24.8825 64.2985 21.2499C65.5298 21.8389 66.7193 22.5069 67.8748 23.2263C67.8808 26.0229 67.8649 28.8214 67.8828 31.6199C71.4512 31.6081 75.0196 31.6199 78.5899 31.614C77.4045 29.7622 76.0533 28.0111 74.5326 26.4162C75.5903 24.3133 76.6501 22.2105 77.7038 20.1076C77.7198 20.2875 77.5761 20.4258 77.5441 20.5977C77.4044 21.1096 77.2208 21.663 77.4045 22.1867C77.9533 22.3409 78.5221 22.1729 79.0509 22.0227L79.0489 22.0247ZM6.34841 47.4744C7.77736 47.504 9.22825 47.2787 10.5414 46.7055C12.5392 47.419 14.5549 48.0791 16.5925 48.67C16.5566 49.9903 16.6404 51.3125 16.7761 52.6267C16.9078 54.0003 17.1393 55.366 17.4686 56.7079C17.8059 58.125 18.213 59.5282 18.7379 60.8899C19.0433 61.6805 19.3845 62.4552 19.7378 63.226C24.296 63.222 28.8543 63.228 33.4125 63.2181C33.6141 63.0738 33.7718 62.8683 33.9554 62.7023C36.1108 60.5678 38.2662 58.4313 40.4235 56.2969C40.4235 57.9412 40.4235 59.5855 40.4215 61.2279C40.4375 61.3386 40.3218 61.3959 40.2619 61.469C39.3578 62.3603 38.4577 63.2556 37.5537 64.149C37.0268 64.6826 36.474 65.1945 35.9631 65.7399C35.9531 68.6669 35.9631 71.5939 35.9551 74.5209C35.5839 75.3629 35.1608 76.185 34.7676 77.021C33.0753 80.537 31.3889 84.0569 29.6965 87.5748C28.6807 87.059 27.6908 86.4938 26.7348 85.8751C27.4812 84.5826 28.0939 83.1675 28.1797 81.6615C28.1997 81.2623 28.2176 80.8334 28.0101 80.4737C27.4752 80.4105 26.9703 80.6496 26.4993 80.871C25.258 81.5014 24.1843 82.4284 23.3141 83.5035C22.3921 82.8157 21.508 82.0746 20.6578 81.3018C21.5439 80.2247 22.3582 79.0468 22.7354 77.695C22.8651 77.2147 23.0188 76.6949 22.8631 76.2028C22.3602 76.0348 21.8253 76.187 21.3324 76.3174C19.9872 76.7206 18.7559 77.4558 17.7021 78.3729C16.9158 77.5329 16.1714 76.6554 15.4729 75.7443C16.5346 74.845 17.5365 73.8233 18.1472 72.5604C18.3627 72.1058 18.6082 71.6176 18.5383 71.0998C18.0713 70.8548 17.5205 70.9101 17.0136 70.9536C15.6166 71.1196 14.2755 71.6315 13.078 72.3528C12.4494 71.3904 11.8706 70.3982 11.3457 69.3784C12.5412 68.6808 13.6987 67.8527 14.5189 66.7281C14.7943 66.3447 15.0937 65.9415 15.1676 65.4632C15.2254 65.2893 15.0159 65.23 14.8981 65.1648C14.3772 64.9474 13.7965 64.9257 13.2397 64.9138C11.9883 64.9217 10.743 65.1786 9.57751 65.6312C9.12647 64.5758 8.73131 63.4987 8.39204 62.4058C9.78506 61.8939 11.1561 61.2121 12.1939 60.135C12.4833 59.8326 12.7846 59.5045 12.8764 59.0855C12.5831 58.7495 12.14 58.6092 11.7249 58.4886C10.288 58.1032 8.76325 58.125 7.31035 58.4096C7.0549 57.2929 6.84734 56.1644 6.70964 55.028C8.11863 54.7731 9.5336 54.362 10.7191 53.5398C11.1042 53.2671 11.5293 52.9766 11.7089 52.522C11.5114 52.1821 11.1521 51.9864 10.8149 51.8085C9.4418 51.1069 7.87515 50.9152 6.34841 50.9093C6.28455 49.7669 6.28854 48.6206 6.34642 47.4763L6.34841 47.4744ZM21.6736 66.7657C22.1985 67.5938 22.7593 68.3981 23.3501 69.1828C24.5076 70.7362 25.8467 72.1473 27.2557 73.4774C28.8164 74.9478 30.5626 76.2147 32.3807 77.355C32.3807 73.8252 32.3807 70.2935 32.3807 66.7637C28.8124 66.7637 25.244 66.7637 21.6736 66.7637V66.7657ZM59.834 60.0223C61.3548 60.3128 62.8775 60.5875 64.4062 60.8405C64.9251 61.3643 65.468 61.8663 65.9769 62.3979C66.1306 63.2477 66.4259 64.0778 66.8949 64.8071C67.3739 65.57 68.0205 66.2182 68.739 66.7637C68.4516 66.7637 68.1642 66.7637 67.8768 66.7637C67.8768 70.2994 67.8768 73.8351 67.8768 77.3708C68.6711 76.8866 69.4315 76.3471 70.1839 75.8056C71.7885 74.6474 73.2453 73.3015 74.6144 71.8825C75.4067 71.0583 76.1471 70.1848 76.8337 69.2697C77.4444 68.4535 78.0571 67.6372 78.5839 66.7657C77.9732 66.7617 77.3625 66.7716 76.7518 66.7617C77.3585 66.3012 77.9154 65.7676 78.3524 65.1431C78.7695 64.5581 79.0789 63.9059 79.2984 63.224C79.7335 63.2299 80.1725 63.2062 80.6076 63.2378C84.0842 63.8189 87.5787 64.2913 91.0892 64.6233C90.9575 64.9612 90.8218 65.2972 90.6781 65.6293C89.4168 65.1885 88.0876 64.8486 86.7405 64.9178C86.2475 64.9454 85.7326 64.9751 85.2816 65.1925C85.2038 65.2439 85.0601 65.2893 85.092 65.4099C85.1539 65.9376 85.4892 66.3803 85.7945 66.7993C86.6307 67.8685 87.7184 68.7321 88.9138 69.3804C88.387 70.4002 87.8082 71.3923 87.1795 72.3528C85.9003 71.6335 84.5073 71.0326 83.0224 70.9318C82.5874 70.9061 82.1144 70.8706 81.7232 71.0959C81.6613 71.6572 81.9268 72.1809 82.1683 72.6691C82.8049 73.8628 83.7229 74.9004 84.7847 75.7423C84.0862 76.6554 83.3438 77.5329 82.5574 78.3709C81.4598 77.4756 80.2444 76.6633 78.8553 76.2937C78.3863 76.1732 77.8774 76.0269 77.4045 76.1929C77.2428 76.7285 77.4124 77.2878 77.5601 77.8076C77.9772 79.0982 78.7017 80.2801 79.6037 81.2959C78.7556 82.0746 77.8714 82.8138 76.9454 83.5015C76.0334 82.4422 74.9896 81.4441 73.7064 80.8413C73.2553 80.6318 72.7684 80.3967 72.2555 80.4678C72.01 80.8927 72.0659 81.4086 72.0998 81.8789C72.2215 83.3059 72.8203 84.6419 73.5247 85.8751C72.5668 86.4898 71.5789 87.057 70.5651 87.5709C68.5175 83.3098 66.4778 79.0448 64.4222 74.7877C64.3743 74.679 64.2985 74.5743 64.3065 74.4537C64.3045 71.5504 64.3105 68.6472 64.3005 65.7419C64.0809 65.4711 63.8015 65.2439 63.5621 64.9889C62.3207 63.7576 61.0754 62.5323 59.84 61.2971C59.846 60.8721 59.84 60.4452 59.84 60.0203L59.834 60.0223Z" />
            <path fill-rule="evenodd" clip-rule="evenodd" d="M68.8368 20.1787C68.8368 20.1787 68.8468 20.1846 68.8508 20.1866C68.8468 20.1846 68.8408 20.1807 68.8368 20.1787ZM69.1182 20.3447C69.1182 20.3447 69.1282 20.3507 69.1322 20.3526C69.1282 20.3507 69.1222 20.3467 69.1182 20.3447Z" />
            <path fill-rule="evenodd" clip-rule="evenodd" d="M29.95 21.076C29.95 21.076 29.9599 21.0701 29.9619 21.0681C29.9579 21.0701 29.9519 21.074 29.95 21.076ZM40.7728 75.9301C40.7728 75.9301 40.7828 75.934 40.7868 75.936C40.7828 75.936 40.7768 75.932 40.7728 75.9301Z" />
            <path fill-rule="evenodd" clip-rule="evenodd" d="M70.6389 21.2893C70.6389 21.2893 70.6509 21.2972 70.6529 21.2992C70.6489 21.2972 70.6429 21.2933 70.6389 21.2893ZM28.1438 22.2498C28.1438 22.2498 28.1558 22.2419 28.1598 22.2399C28.1558 22.2419 28.1478 22.2478 28.1438 22.2498Z" />
            <path fill-rule="evenodd" clip-rule="evenodd" d="M70.8145 21.4041C70.8145 21.4041 70.8225 21.41 70.8265 21.41C70.8225 21.41 70.8185 21.406 70.8145 21.4041ZM27.8085 22.4713C27.8085 22.4713 27.8184 22.4654 27.8204 22.4634C27.8165 22.4654 27.8105 22.4693 27.8085 22.4713Z" />
            <path fill-rule="evenodd" clip-rule="evenodd" d="M70.9822 21.5107C70.9822 21.5107 70.9921 21.5167 70.9941 21.5206C70.9921 21.5186 70.9842 21.5147 70.9822 21.5107ZM60.8359 75.4359C60.8359 75.4359 60.8498 75.43 60.8558 75.428C60.8498 75.428 60.8398 75.4339 60.8359 75.4359ZM41.3894 76.1553C41.3894 76.1553 41.4014 76.1592 41.4054 76.1612C41.4014 76.1612 41.3934 76.1573 41.3894 76.1553ZM32.0275 90.2171C32.0275 90.2171 32.0474 90.2231 32.0534 90.225C32.0474 90.2231 32.0335 90.2191 32.0275 90.2171ZM66.867 90.729C66.867 90.729 66.8769 90.7251 66.8809 90.7231C66.8769 90.7231 66.8709 90.727 66.867 90.729Z" />
            <path fill-rule="evenodd" clip-rule="evenodd" d="M71.4891 21.8428C71.4891 21.8428 71.4971 21.8487 71.4991 21.8487C71.4971 21.8487 71.4911 21.8447 71.4891 21.8428ZM37.6654 92.1718C37.6654 92.1718 37.6774 92.1757 37.6814 92.1757C37.6774 92.1757 37.6694 92.1718 37.6654 92.1718Z" />
            <path fill-rule="evenodd" clip-rule="evenodd" d="M27.9741 22.3603C27.9741 22.3603 27.9853 22.3527 27.9891 22.3508C27.9853 22.3527 27.9779 22.3565 27.9741 22.3603Z" />
            <path fill-rule="evenodd" clip-rule="evenodd" d="M72.3373 22.3982C72.3373 22.3982 72.3469 22.404 72.3508 22.4079C72.3469 22.406 72.3411 22.4021 72.3373 22.3982Z" />
            <path fill-rule="evenodd" clip-rule="evenodd" d="M8.06882 35.6575C10.8808 35.4915 13.7008 35.5429 16.5148 35.6694C19.5662 35.8156 22.6137 36.0646 25.6512 36.3868C30.5986 36.9204 35.5321 37.6121 40.4137 38.5825C40.4137 39.6656 40.4137 40.7486 40.4137 41.8317C37.5637 41.2605 34.7118 40.6992 31.85 40.1913C29.7145 39.8197 27.5751 39.4482 25.4177 39.2328C24.5576 39.1399 23.6914 39.1537 22.8273 39.1833C22.6157 39.2011 22.3902 39.1833 22.1966 39.2841C22.7055 39.4857 23.2603 39.5312 23.7932 39.6438C29.3473 40.7091 34.8815 41.8692 40.4077 43.059C40.4196 43.6855 40.4097 44.31 40.4137 44.9365C38.2503 44.4919 36.0869 44.0511 33.9235 43.6163C29.1298 42.6618 24.334 41.7091 19.5123 40.9028C18.275 40.7012 17.0356 40.4996 15.7863 40.383C15.4251 40.3613 15.0499 40.3099 14.6986 40.4166C14.7326 40.4739 14.7625 40.5411 14.8324 40.5648C15.0738 40.6874 15.3433 40.7387 15.6047 40.8C20.2568 41.8534 24.9208 42.8515 29.5848 43.8575C33.1931 44.6322 36.8014 45.4109 40.4097 46.1856C40.4216 48.6976 40.4117 51.2095 40.4156 53.7215C38.2004 53.1721 35.9971 52.5713 33.7818 52.0159C33.8377 51.3103 33.7619 50.5969 33.5803 49.913C33.1372 48.2351 31.9957 46.7607 30.4889 45.8813C28.8324 44.895 26.7389 44.6856 24.9128 45.3121C23.1586 45.899 21.6897 47.239 20.9333 48.909C19.3487 48.4406 17.8 47.8655 16.2154 47.3991C13.8225 46.6639 11.4376 45.8971 9.10062 45.0037C7.25456 44.2923 5.42647 43.5195 3.70216 42.5471C2.77016 42.0135 1.85611 41.4265 1.08775 40.6755C0.584829 40.1775 0.129802 39.5806 0.0020752 38.8711V38.5055C0.119823 37.9046 0.586825 37.4461 1.09773 37.1378C1.89602 36.6576 2.80807 36.4026 3.71414 36.199C5.14707 35.8927 6.60994 35.7464 8.07282 35.6555L8.06882 35.6575ZM12.5852 44.31C12.8566 44.395 13.124 44.4879 13.3934 44.5749C13.4573 43.7626 13.5531 42.9523 13.6848 42.1499C13.4174 42.0827 13.146 42.0234 12.8805 41.9522C12.7488 42.7329 12.669 43.5234 12.5852 44.31ZM14.8443 42.4226C14.7246 43.2033 14.6368 43.9899 14.553 44.7745C14.8224 44.8634 15.0938 44.9543 15.3632 45.0433C15.4271 44.231 15.5229 43.4207 15.6546 42.6183C15.3852 42.5531 15.1138 42.4878 14.8443 42.4226ZM16.5287 45.2508C16.8002 45.3279 17.0656 45.4247 17.333 45.5117C17.3969 44.6994 17.4947 43.8891 17.6244 43.0847C17.355 43.0195 17.0855 42.9562 16.8181 42.889C16.6964 43.6717 16.6006 44.4602 16.5307 45.2488L16.5287 45.2508ZM71.9223 39.132C72.5429 38.8869 73.2295 38.7802 73.896 38.8572C74.8041 38.958 75.6643 39.4679 76.1512 40.2387C76.726 41.1202 76.7659 42.2704 76.4087 43.2408C76.1353 43.9859 75.5844 44.6895 74.7961 44.9306C74.5965 45.0037 74.2992 44.9563 74.2134 45.2014C74.0697 45.6065 74.1595 46.0473 74.2273 46.4603C75.4707 46.6856 76.702 46.988 77.9534 47.1738C78.2547 47.2272 78.578 47.2034 78.8455 47.0453C79.3544 46.7588 79.6797 46.2587 80.003 45.7923C80.2425 45.4425 80.6656 45.2014 81.1006 45.2429C81.5237 45.2765 81.857 45.569 82.1524 45.8437C82.7232 46.3813 83.25 47.0137 83.9984 47.3181C87.2854 48.5968 90.4806 50.1008 93.576 51.7807C95.3282 52.7432 97.0585 53.7571 98.675 54.933C99.4155 55.4726 100.15 56.0773 100.601 56.8857C100.84 57.3046 100.958 57.777 101.002 58.2533V58.5359C100.982 59.1288 100.85 59.7119 100.671 60.2751C100.399 61.1171 99.9843 61.9254 99.3895 62.5914C98.8287 63.2219 98.0424 63.718 97.1723 63.7278C94.027 63.8425 90.8837 63.5361 87.7664 63.1547C84.9724 62.8049 82.1903 62.3622 79.4122 61.8878C79.536 60.7613 79.3404 59.6051 78.8794 58.5695C78.1809 56.9865 76.8358 55.6979 75.2132 55.0615C73.3532 54.3144 71.1559 54.4646 69.4176 55.4607C67.7292 56.4054 66.4939 58.1071 66.1466 59.9984C64.0391 59.6743 61.9356 59.3087 59.8421 58.8976C59.8421 55.9963 59.8421 53.095 59.8421 50.1937C64.1489 51.1246 68.4537 52.0732 72.7525 53.0476C77.7079 54.18 82.6673 55.3125 87.5848 56.6011C88.1256 56.7276 88.6565 56.9529 89.2213 56.9291C89.6164 56.9193 89.9757 56.7157 90.275 56.4746C90.0954 56.2829 89.818 56.2572 89.5825 56.1682C87.0978 55.4093 84.5752 54.7769 82.0546 54.1425C74.6764 52.3163 67.2602 50.6463 59.8381 49.0039C59.8381 48.3735 59.8381 47.743 59.8381 47.1125C64.9232 48.2549 70.0004 49.4249 75.0635 50.6562C77.3726 51.2194 79.6817 51.7906 81.9708 52.427C82.4498 52.5554 82.9128 52.2985 83.278 52.0179C82.9187 51.7451 82.4657 51.6404 82.0486 51.4843C79.7156 50.7273 77.3327 50.1304 74.9578 49.5178C69.9345 48.241 64.8833 47.073 59.8321 45.905C59.8441 44.5353 59.8321 43.1637 59.8381 41.7941C61.4387 42.0333 63.0293 42.3851 64.6518 42.4424C64.6159 42.7625 64.6119 43.0946 64.7257 43.4009C64.8674 43.812 65.2106 44.1203 65.5818 44.3298C66.2923 44.729 67.0966 44.9089 67.8769 45.1204C68.5714 45.3121 69.2879 45.4148 69.9904 45.5769C70.3696 45.2231 70.5292 44.7152 70.653 44.231C70.3017 44.1915 69.9445 44.1855 69.6012 44.0966C69.3458 44.0432 69.2021 43.7744 69.1861 43.5353C69.1542 42.9226 69.695 42.4285 69.6112 41.8099C69.5992 41.636 69.5094 41.4325 69.6371 41.2803C69.9225 40.9581 70.3915 40.8969 70.7009 40.6024C71.1918 40.1814 71.2976 39.4225 71.9183 39.1339L71.9223 39.132ZM26.4415 46.0018C24.5356 46.1975 22.7834 47.4169 21.9372 49.1185C21.071 50.7945 21.1429 52.8954 22.1088 54.514C23.0089 56.0694 24.6873 57.1564 26.4934 57.3264C28.2157 57.5161 29.9999 56.858 31.1914 55.6168C32.4148 54.3757 33.0095 52.5633 32.75 50.8479C32.5145 49.1521 31.4488 47.5987 29.954 46.7429C28.9043 46.1303 27.6509 45.8654 26.4395 46.0038L26.4415 46.0018ZM26.4096 48.0928C25.3579 48.2825 24.4099 48.9585 23.887 49.8814C23.4759 50.5909 23.3242 51.4427 23.4639 52.2511C23.6056 53.1108 24.0806 53.9093 24.7651 54.4547C25.3918 54.9627 26.1901 55.2532 27.0003 55.267C27.8385 55.2888 28.6768 55.0081 29.3333 54.4903C29.9959 53.9764 30.4709 53.2274 30.6445 52.4112C30.8122 51.6483 30.7204 50.8321 30.3831 50.1265C30.0259 49.3695 29.3972 48.7391 28.6328 48.3814C27.9483 48.0533 27.156 47.9525 26.4096 48.0928ZM26.5713 49.2055C25.8089 49.3537 25.1343 49.8715 24.799 50.5633C24.4358 51.2866 24.4697 52.1859 24.8769 52.8855C25.2521 53.5515 25.9486 54.0298 26.713 54.1346C27.3995 54.2393 28.1239 54.0377 28.6568 53.599C29.2635 53.1128 29.6207 52.34 29.5908 51.5673C29.5728 50.8222 29.1897 50.1008 28.5889 49.6561C28.0241 49.2272 27.2698 49.0612 26.5732 49.2035L26.5713 49.2055ZM71.8305 55.6228C71.1719 55.7275 70.5332 55.9489 69.9525 56.271C68.4357 57.0991 67.3381 58.6347 67.0706 60.3305C66.881 61.4827 67.0607 62.6902 67.5815 63.7377C68.0705 64.7338 68.8608 65.5797 69.8208 66.1449C70.8506 66.7537 72.0759 67.0284 73.2714 66.9157C75.0376 66.7655 76.6881 65.7339 77.6121 64.2397C78.3485 63.0717 78.6319 61.6329 78.3924 60.2751C78.105 58.5715 76.9814 57.0359 75.4447 56.2256C74.3511 55.6346 73.0578 55.4231 71.8305 55.6228ZM72.1458 57.6663C71.2457 57.8126 70.4135 58.3086 69.8547 59.0201C69.3019 59.7158 69.0205 60.619 69.0903 61.5025C69.1502 62.378 69.5513 63.2219 70.19 63.8286C70.9224 64.5401 71.9662 64.9196 72.99 64.8465C74.0038 64.7852 74.9757 64.2713 75.6024 63.4828C76.2231 62.7159 76.5025 61.6902 76.3528 60.7178C76.2091 59.7158 75.6124 58.7948 74.7642 58.2335C74.0058 57.7236 73.0479 57.5161 72.1438 57.6683L72.1458 57.6663ZM72.1697 58.8067C71.116 59.034 70.2798 59.9925 70.2219 61.0617C70.1241 62.1626 70.8625 63.2614 71.9183 63.6112C72.8682 63.9551 74.0058 63.6429 74.6484 62.8721C75.3689 62.0637 75.4627 60.785 74.858 59.8858C74.3072 59.0142 73.1796 58.5577 72.1697 58.8067Z" />
            <path fill-rule="evenodd" clip-rule="evenodd" d="M39.25 75.3726C39.25 75.3726 39.262 75.3765 39.264 75.3785C39.26 75.3785 39.254 75.3745 39.25 75.3726ZM41.8425 76.3212C41.8425 76.3212 41.8524 76.3252 41.8564 76.3271C41.8524 76.3271 41.8464 76.3232 41.8425 76.3212Z" />
            <path fill-rule="evenodd" clip-rule="evenodd" d="M39.701 75.5386C39.701 75.5386 39.7123 75.5424 39.716 75.5443C39.7123 75.5443 39.7048 75.5405 39.701 75.5386Z" />
            <path fill-rule="evenodd" clip-rule="evenodd" d="M60.3828 75.5998C60.3828 75.5998 60.3944 75.5959 60.3963 75.594C60.3925 75.594 60.3867 75.5979 60.3828 75.5998Z" />
            <path fill-rule="evenodd" clip-rule="evenodd" d="M59.3112 75.993C59.3112 75.993 59.3242 75.9873 59.3279 75.9873C59.3242 75.9873 59.3167 75.993 59.3112 75.993Z" />
            <path fill-rule="evenodd" clip-rule="evenodd" d="M41.2278 76.0959C41.2278 76.0959 41.2378 76.0999 41.2418 76.1019C41.2378 76.1019 41.2318 76.0979 41.2278 76.0959ZM57.3373 76.7146C57.3373 76.7146 57.3473 76.7106 57.3513 76.7086C57.3473 76.7086 57.3413 76.7126 57.3373 76.7146Z" />
            <path fill-rule="evenodd" clip-rule="evenodd" d="M58.8601 76.1592C58.8601 76.1592 58.8701 76.1553 58.8741 76.1533C58.8701 76.1533 58.8641 76.1573 58.8601 76.1592ZM43.3633 76.8806C43.3633 76.8806 43.3753 76.8846 43.3792 76.8866C43.3753 76.8866 43.3673 76.8826 43.3633 76.8806Z" />
            <path fill-rule="evenodd" clip-rule="evenodd" d="M57.7904 76.5504C57.7904 76.5504 57.8016 76.5466 57.8054 76.5447C57.8016 76.5447 57.7941 76.5485 57.7904 76.5504Z" />
            <path fill-rule="evenodd" clip-rule="evenodd" d="M42.9163 76.7146C42.9163 76.7146 42.9259 76.7185 42.9298 76.7204C42.9259 76.7204 42.9182 76.7165 42.9163 76.7146Z" />
            <path fill-rule="evenodd" clip-rule="evenodd" d="M57.1697 76.7757C57.1697 76.7757 57.1809 76.7719 57.1846 76.77C57.1809 76.77 57.1734 76.7738 57.1697 76.7757Z" />
            <path fill-rule="evenodd" clip-rule="evenodd" d="M40.236 77.8155L40.2819 77.7898L40.3377 77.8155L40.3437 77.8649C40.3158 77.853 40.2619 77.8273 40.236 77.8155Z" />
            <path fill-rule="evenodd" clip-rule="evenodd" d="M59.9258 77.8155L59.9817 77.7898L60.0276 77.8155C59.9996 77.8273 59.9477 77.853 59.9198 77.8649L59.9258 77.8155Z" />
            <path fill-rule="evenodd" clip-rule="evenodd" d="M60.2212 77.8213C60.2212 77.8213 60.2267 77.8324 60.2285 77.8362C60.2285 77.8324 60.223 77.825 60.2212 77.8213Z" />
            <path fill-rule="evenodd" clip-rule="evenodd" d="M59.7582 77.8727L59.8101 77.843L59.858 77.8648C59.8321 77.8786 59.7822 77.9082 59.7562 77.924V77.8746L59.7582 77.8727Z" />
            <path fill-rule="evenodd" clip-rule="evenodd" d="M40.687 77.9815L40.7329 77.9558L40.7888 77.9815L40.7948 78.0309C40.7688 78.0171 40.715 77.9934 40.687 77.9815Z" />
            <path fill-rule="evenodd" clip-rule="evenodd" d="M41.7587 78.3729L41.8046 78.3452L41.8605 78.3709L41.8665 78.4203C41.8385 78.4085 41.7847 78.3847 41.7567 78.3709L41.7587 78.3729Z" />
            <path fill-rule="evenodd" clip-rule="evenodd" d="M58.4031 78.3729L58.457 78.3452L58.5029 78.3689C58.4769 78.3828 58.423 78.4085 58.3971 78.4203L58.4031 78.3709V78.3729Z" />
            <path fill-rule="evenodd" clip-rule="evenodd" d="M58.2375 78.43L58.2894 78.4004L58.3373 78.4221C58.3114 78.436 58.2595 78.4656 58.2335 78.4794L58.2375 78.43Z" />
            <path fill-rule="evenodd" clip-rule="evenodd" d="M42.3754 78.598L42.4213 78.5703L42.4771 78.594L42.4851 78.6434C42.4572 78.6316 42.4033 78.6079 42.3754 78.596V78.598Z" />
            <path fill-rule="evenodd" clip-rule="evenodd" d="M57.7864 78.596L57.8423 78.5703L57.8882 78.596C57.8602 78.6079 57.8063 78.6336 57.7804 78.6474L57.7864 78.598V78.596Z" />
            <path fill-rule="evenodd" clip-rule="evenodd" d="M42.6648 78.7049L42.7107 78.6812L42.7646 78.7088L42.7706 78.7582C42.7446 78.7464 42.6907 78.7187 42.6648 78.7068V78.7049Z" />
            <path fill-rule="evenodd" clip-rule="evenodd" d="M42.8344 78.7561L42.8823 78.7363L42.9342 78.7679V78.8174C42.9103 78.8015 42.8604 78.7719 42.8344 78.7581V78.7561ZM35.1808 89.3C35.2087 89.3119 35.2626 89.3356 35.2906 89.3494L35.2447 89.3771L35.1888 89.3514L35.1808 89.302V89.3Z" />
            <path fill-rule="evenodd" clip-rule="evenodd" d="M57.3334 78.7642L57.3873 78.7385L57.4332 78.7622C57.4073 78.7741 57.3534 78.7998 57.3275 78.8136L57.3334 78.7642ZM44.8042 79.4876L44.8501 79.4639L44.904 79.4895L44.91 79.539C44.8821 79.5251 44.8302 79.5014 44.8022 79.4876H44.8042Z" />
            <path fill-rule="evenodd" clip-rule="evenodd" d="M57.1657 78.8214L57.2176 78.7917L57.2655 78.8135C57.2395 78.8273 57.1876 78.857 57.1637 78.8708V78.8214H57.1657Z" />
            <path fill-rule="evenodd" clip-rule="evenodd" d="M43.4451 78.9893L43.491 78.9617L43.5468 78.9854L43.5548 79.0348C43.5269 79.0229 43.473 78.9992 43.4451 78.9874V78.9893Z" />
            <path fill-rule="evenodd" clip-rule="evenodd" d="M56.7167 78.9854L56.7726 78.9597L56.8185 78.9854C56.7905 78.9973 56.7366 79.023 56.7107 79.0348L56.7167 78.9854Z" />
            <path fill-rule="evenodd" clip-rule="evenodd" d="M43.7345 79.0962L43.7804 79.0725L43.8343 79.1002L43.8403 79.1496C43.8143 79.1377 43.7604 79.1101 43.7345 79.0982V79.0962ZM65.2625 89.2409C65.2884 89.2291 65.3423 89.2014 65.3682 89.1875L65.3642 89.237L65.3104 89.2646L65.2625 89.2409Z" />
            <path fill-rule="evenodd" clip-rule="evenodd" d="M43.9041 79.1473L43.9515 79.1257L44.003 79.1551V79.2041C43.9792 79.1904 43.9298 79.161 43.9041 79.1473Z" />
            <path fill-rule="evenodd" clip-rule="evenodd" d="M56.1 79.2088L56.1559 79.1851L56.2018 79.2127C56.1739 79.2246 56.12 79.2483 56.092 79.2602L56.1 79.2108V79.2088Z" />
            <path fill-rule="evenodd" clip-rule="evenodd" d="M44.1875 79.2622L44.2334 79.2385L44.2873 79.2662L44.2913 79.3156C44.2653 79.3018 44.2114 79.2761 44.1875 79.2622Z" />
            <path fill-rule="evenodd" clip-rule="evenodd" d="M44.5168 79.3807L44.5627 79.353L44.6186 79.3767L44.6266 79.4262C44.5987 79.4143 44.5448 79.3906 44.5168 79.3807Z" />
            <path fill-rule="evenodd" clip-rule="evenodd" d="M55.647 79.3768L55.7029 79.3511L55.7488 79.3787C55.7209 79.3906 55.667 79.4143 55.639 79.4262L55.647 79.3768Z" />
            <path fill-rule="evenodd" clip-rule="evenodd" d="M44.9738 79.5386L45.0193 79.5171L45.0707 79.5465V79.5954C45.049 79.5817 44.9975 79.5523 44.9718 79.5386H44.9738Z" />
            <path fill-rule="evenodd" clip-rule="evenodd" d="M55.0284 79.6001L55.0843 79.5764L55.1301 79.6041C55.1022 79.6159 55.0483 79.6397 55.0204 79.6515L55.0284 79.6021V79.6001Z" />
            <path fill-rule="evenodd" clip-rule="evenodd" d="M34.6612 89.1252C34.5742 89.1017 34.5722 89.0724 34.6593 89.0352C34.6593 89.0587 34.6593 89.1017 34.6612 89.1252Z" />
            <path fill-rule="evenodd" clip-rule="evenodd" d="M64.973 89.3475C65.001 89.3356 65.0568 89.3119 65.0828 89.302L65.0748 89.3514L65.0189 89.3751L64.973 89.3475Z" />
            <path fill-rule="evenodd" clip-rule="evenodd" d="M64.6438 89.4623C64.6697 89.4504 64.7236 89.4247 64.7496 89.4109L64.7456 89.4603L64.6917 89.486L64.6438 89.4623Z" />
            <path fill-rule="evenodd" clip-rule="evenodd" d="M35.8014 89.5254C35.8293 89.5372 35.8852 89.559 35.9132 89.5708L35.8692 89.5985L35.8114 89.5748L35.8014 89.5254Z" />
            <path fill-rule="evenodd" clip-rule="evenodd" d="M64.1847 89.6243C64.2126 89.6124 64.2685 89.5907 64.2965 89.5808L64.2865 89.6302L64.2286 89.652L64.1847 89.6243Z" />
            <path fill-rule="evenodd" clip-rule="evenodd" d="M36.1387 89.6362C36.1666 89.6481 36.2205 89.6718 36.2484 89.6837L36.2025 89.7113L36.1467 89.6876L36.1387 89.6382V89.6362Z" />
            <path fill-rule="evenodd" clip-rule="evenodd" d="M63.8474 89.7388C63.8754 89.727 63.9292 89.7052 63.9572 89.6934L63.9472 89.7428L63.8913 89.7665L63.8474 89.7388Z" />
            <path fill-rule="evenodd" clip-rule="evenodd" d="M36.478 89.7449C36.504 89.7587 36.5539 89.7884 36.5798 89.8022L36.5319 89.8239L36.48 89.7943V89.7449H36.478Z" />
            <path fill-rule="evenodd" clip-rule="evenodd" d="M36.6456 89.8C36.6716 89.8139 36.7215 89.8416 36.7474 89.8574C36.7235 89.8574 36.6736 89.8514 36.6476 89.8495V89.8H36.6456Z" />
            <path fill-rule="evenodd" clip-rule="evenodd" d="M63.5142 89.8554C63.5401 89.8415 63.592 89.8139 63.6179 89.802L63.6139 89.8514L63.5601 89.8791L63.5142 89.8554Z" />
            <path fill-rule="evenodd" clip-rule="evenodd" d="M36.8132 89.8594C36.8412 89.8712 36.8951 89.8949 36.923 89.9068L36.8771 89.9345L36.8212 89.9108L36.8132 89.8613V89.8594Z" />
            <path fill-rule="evenodd" clip-rule="evenodd" d="M63.3425 89.9029C63.3705 89.891 63.4263 89.8693 63.4543 89.8574L63.4443 89.9068L63.3864 89.9305L63.3425 89.9029Z" />
            <path fill-rule="evenodd" clip-rule="evenodd" d="M63.2048 89.95C63.2048 89.95 63.2161 89.9462 63.2198 89.9443C63.2161 89.9443 63.2086 89.9481 63.2048 89.95Z" />
            <path fill-rule="evenodd" clip-rule="evenodd" d="M37.1526 89.9722C37.1805 89.982 37.2364 90.0038 37.2643 90.0156L37.2204 90.0433L37.1626 90.0216L37.1526 89.9722Z" />
            <path fill-rule="evenodd" clip-rule="evenodd" d="M63.0332 90.0056C63.0332 90.0056 63.0448 90.0017 63.0467 90.0017C63.0429 90.0017 63.0371 90.0056 63.0332 90.0056Z" />
            <path fill-rule="evenodd" clip-rule="evenodd" d="M37.374 90.0293C37.4 90.0412 37.4519 90.0668 37.4758 90.0787C37.4519 90.0787 37.402 90.0787 37.378 90.0787L37.374 90.0313V90.0293Z" />
            <path fill-rule="evenodd" clip-rule="evenodd" d="M62.7897 90.0807C62.8156 90.0669 62.8655 90.0392 62.8915 90.0254V90.0748C62.8635 90.0748 62.8156 90.0788 62.7897 90.0807Z" />
            <path fill-rule="evenodd" clip-rule="evenodd" d="M37.5437 90.0808C37.5696 90.0946 37.6215 90.1223 37.6475 90.1361C37.6215 90.1361 37.5716 90.1302 37.5477 90.1302L37.5437 90.0808Z" />
            <path fill-rule="evenodd" clip-rule="evenodd" d="M62.618 90.1361C62.644 90.1223 62.6959 90.0946 62.7218 90.0808L62.7178 90.1302C62.6919 90.1302 62.642 90.1361 62.618 90.1361Z" />
            <path fill-rule="evenodd" clip-rule="evenodd" d="M37.7154 90.1382C37.7433 90.15 37.7992 90.1718 37.8251 90.1836L37.7792 90.2113L37.7214 90.1876L37.7134 90.1382H37.7154Z" />
            <path fill-rule="evenodd" clip-rule="evenodd" d="M62.4404 90.1836C62.4684 90.1718 62.5242 90.15 62.5522 90.1382L62.5422 90.1876L62.4863 90.2113L62.4424 90.1836H62.4404Z" />
            <path fill-rule="evenodd" clip-rule="evenodd" d="M62.225 90.2469C62.2509 90.235 62.3028 90.2113 62.3288 90.1995L62.3228 90.2469C62.2988 90.2469 62.2489 90.2469 62.225 90.2469Z" />
            <path fill-rule="evenodd" clip-rule="evenodd" d="M38.2781 90.3062C38.306 90.318 38.3619 90.3398 38.3898 90.3516L38.3459 90.3793L38.2901 90.3556L38.2801 90.3062H38.2781Z" />
            <path fill-rule="evenodd" clip-rule="evenodd" d="M38.5017 90.3655C38.5277 90.3773 38.5815 90.4011 38.6075 90.4129C38.5835 90.4129 38.5336 90.4129 38.5097 90.4129L38.5037 90.3655H38.5017ZM61.0375 90.575C61.0655 90.5651 61.1193 90.5453 61.1473 90.5354L61.1373 90.5829L61.0814 90.6026L61.0375 90.575Z" />
            <path fill-rule="evenodd" clip-rule="evenodd" d="M38.6733 90.4187C38.7013 90.4306 38.7572 90.4523 38.7851 90.4622L38.7412 90.4899L38.6833 90.4662L38.6733 90.4167V90.4187Z" />
            <path fill-rule="evenodd" clip-rule="evenodd" d="M38.8968 90.4761C38.9227 90.4879 38.9746 90.5116 39.0005 90.5255C38.9766 90.5255 38.9267 90.5255 38.9008 90.5255L38.8948 90.478L38.8968 90.4761Z" />
            <path fill-rule="evenodd" clip-rule="evenodd" d="M39.0685 90.5293C39.0964 90.5412 39.1523 90.5629 39.1802 90.5748L39.1363 90.6024L39.0785 90.5787L39.0685 90.5293Z" />
            <path fill-rule="evenodd" clip-rule="evenodd" d="M39.2899 90.5867C39.3179 90.5966 39.3737 90.6183 39.4017 90.6282L39.3578 90.6578L39.2999 90.6361L39.2899 90.5867Z" />
            <path fill-rule="evenodd" clip-rule="evenodd" d="M60.6364 90.6836C60.6643 90.6737 60.7202 90.6539 60.7501 90.644L60.7381 90.6935L60.6803 90.7132L60.6364 90.6836Z" />
            <path fill-rule="evenodd" clip-rule="evenodd" d="M39.741 90.7014C39.7689 90.7113 39.8248 90.733 39.8527 90.7429L39.8088 90.7726L39.7509 90.7508L39.741 90.7014Z" />
            <path fill-rule="evenodd" clip-rule="evenodd" d="M39.9645 90.7588C39.9924 90.7687 40.0483 90.7865 40.0762 90.7963L40.0323 90.826L39.9765 90.8062L39.9665 90.7588H39.9645Z" />
            <path fill-rule="evenodd" clip-rule="evenodd" d="M40.6431 90.9248C40.671 90.9347 40.7289 90.9525 40.7568 90.9624L40.7149 90.994L40.657 90.9742L40.6451 90.9248H40.6431Z" />
            <path fill-rule="evenodd" clip-rule="evenodd" d="M35.8673 91.6145C35.8673 91.6145 35.8873 91.6204 35.8933 91.6224C35.8873 91.6204 35.8733 91.6165 35.8673 91.6145ZM38.4558 92.3952C38.4558 92.3952 38.4697 92.3991 38.4757 92.4011C38.4697 92.4011 38.4598 92.3971 38.4558 92.3952Z" />
            <path fill-rule="evenodd" clip-rule="evenodd" d="M36.033 91.6658L36.0489 91.6717L36.0649 91.6776C36.0649 91.6776 36.0409 91.6697 36.033 91.6677V91.6658ZM39.5275 92.6737C39.5275 92.6737 39.5415 92.6777 39.5454 92.6777C39.5415 92.6777 39.5315 92.6737 39.5275 92.6737Z" />
            <path fill-rule="evenodd" clip-rule="evenodd" d="M36.2046 91.7231C36.2046 91.7231 36.2227 91.7292 36.2287 91.7312C36.2227 91.7312 36.2106 91.7252 36.2046 91.7231Z" />
            <path fill-rule="evenodd" clip-rule="evenodd" d="M38.2223 92.314C38.2482 92.3258 38.3001 92.3515 38.3261 92.3634L38.2802 92.3891L38.2263 92.3634L38.2223 92.314Z" />
            <path fill-rule="evenodd" clip-rule="evenodd" d="M39.0664 92.5374C39.0924 92.5492 39.1442 92.5729 39.1702 92.5868L39.1243 92.6125L39.0704 92.5868L39.0664 92.5374Z" />
            <path fill-rule="evenodd" clip-rule="evenodd" d="M61.0934 92.5868C61.1193 92.5749 61.1712 92.5512 61.1972 92.5374L61.1932 92.5868L61.1393 92.6125L61.0934 92.5868Z" />
            <path fill-rule="evenodd" clip-rule="evenodd" d="M39.6872 92.7073C39.7151 92.7172 39.771 92.7369 39.7989 92.7468L39.755 92.7764L39.6972 92.7567L39.6852 92.7073H39.6872Z" />
            <path fill-rule="evenodd" clip-rule="evenodd" d="M60.4188 92.7528C60.4448 92.7409 60.4967 92.7172 60.5226 92.7053L60.5186 92.7547L60.4647 92.7804L60.4188 92.7528Z" />
            <path fill-rule="evenodd" clip-rule="evenodd" d="M39.9705 92.7607C39.9942 92.7745 40.0437 92.8019 40.0694 92.8156C40.0456 92.8156 39.9982 92.8097 39.9724 92.8077V92.7588L39.9705 92.7607Z" />
            <path fill-rule="evenodd" clip-rule="evenodd" d="M40.196 92.8181C40.222 92.83 40.2759 92.8537 40.3018 92.8655L40.2559 92.8932L40.202 92.8675L40.196 92.8181Z" />
            <path fill-rule="evenodd" clip-rule="evenodd" d="M59.4589 92.9761C59.4848 92.9643 59.5367 92.9406 59.5646 92.9287L59.5606 92.9781L59.5068 93.0038L59.4609 92.9761H59.4589Z" />
            <path fill-rule="evenodd" clip-rule="evenodd" d="M58.6725 93.1441C58.6984 93.1323 58.7503 93.1085 58.7763 93.0967L58.7723 93.1461L58.7204 93.1718L58.6725 93.1461V93.1441Z" />
            </g>
            <defs>
            <clipPath id="clip0_2908_2674">
            <rect width="101" height="96" fill="white"/>
            </clipPath>
            </defs>
            </svg>


    </symbol>

    <symbol>
        <svg viewBox="0 0 100 100" xmlns="http://www.w3.org/2000/svg" id="scrollTop">
            <path d="M50.1317 0.000618005C77.7095 0.136745 100.129 22.6352 99.9994 50.0436C99.8704 77.7242 77.4584 100.091 49.9393 99.9997C22.3685 99.9082 -0.1866 77.337 0.00116387 50.0272C0.193622 22.2339 22.6103 -0.135509 50.1317 0.000618005ZM26.7904 56.4955C29.0036 58.69 31.3178 60.983 33.8104 63.4521C39.1828 58.0657 44.6209 52.6136 50.2186 47.0019C55.6661 52.4751 61.0807 57.9131 66.3709 63.2291C68.6758 60.9243 70.9759 58.6219 73.1304 56.4674C65.4509 48.7762 57.6892 41.0006 49.9909 33.2906C42.2879 40.9935 34.5168 48.7668 26.7904 56.4932V56.4955Z" />
        </svg>
    </symbol>
    
</svg>