<svg width="26" height="25" viewBox="0 0 26 25" fill="none" xmlns="http://www.w3.org/2000/svg">
<g id="_&#195;&#144;&#194;&#161;&#195;&#144;&#194;&#187;&#195;&#144;&#194;&#190;&#195;&#144;&#194;&#185;_1" clip-path="url(#clip0_1103_9435)">
<path id="Vector" d="M3.90923 25.0004C2.16821 25.0004 0.679104 23.9309 0.204942 22.3393C0.0940989 21.9682 0.0302801 21.5411 0.0146053 21.0703C-0.00498817 20.4915 -0.000509659 19.9058 0.00340904 19.3386C0.00508848 19.1099 0.00676792 18.8818 0.00676792 18.6531C0.00676792 17.9115 0.320823 17.5807 1.02451 17.5801C1.39958 17.5801 1.77466 17.5801 2.15309 17.5801H3.56998C3.56998 17.5644 3.56998 17.5481 3.56998 17.5317C3.57838 16.2662 3.58678 15.0013 3.59517 13.7364C3.61869 10.2562 3.64276 6.65749 3.65899 3.11832C3.66403 2.06287 4.0559 1.21746 4.82453 0.606008C5.33004 0.204015 5.94079 0.00856134 6.69095 0.00856134C8.61167 0.0103117 10.529 0.0108951 12.4458 0.0108951H18.1912C18.6609 0.0108951 19.1311 0.00797789 19.6008 0.00564412C20.0716 0.00331034 20.5424 0.000976562 21.0132 0.000976562C21.7175 0.000976562 22.298 0.006811 22.8399 0.0190633C23.7625 0.0400673 24.6369 0.443227 25.2387 1.12644C25.9888 1.9771 25.9928 3.09965 25.9961 4.09034V4.13176C26.0006 5.36691 26 6.59214 25.9972 8.05192V8.41832C25.995 9.23631 25.9933 10.0543 25.9933 10.8729C25.9933 11.0514 25.9933 11.2299 25.9933 11.4085C25.9933 11.4435 25.9944 11.4791 25.995 11.5147C25.9984 11.6605 26.0017 11.8262 25.9625 11.9937C25.9323 12.1214 25.878 12.2323 25.8013 12.3239C25.672 12.4773 25.4262 12.6605 24.9913 12.6605H24.9733C24.5568 12.6559 24.1023 12.6535 23.5425 12.6535C23.2374 12.6535 22.9323 12.6535 22.6272 12.6547C22.326 12.6553 22.0248 12.6559 21.7231 12.6559H21.6755V12.688C21.6755 13.5188 21.6755 14.349 21.6766 15.1799C21.6777 17.0947 21.6788 19.0743 21.6738 21.0219C21.671 21.9793 21.3777 22.8591 20.824 23.5651C20.2698 24.2728 19.5073 24.7396 18.6189 24.9164C18.2791 24.9841 17.9359 24.9841 17.6034 24.9846C17.3213 24.9846 17.038 24.9846 16.7558 24.9846C15.6093 24.9846 14.4628 24.9829 13.3169 24.9811C12.171 24.9794 11.025 24.9776 9.87909 24.9776C7.51163 24.9776 5.68272 24.9852 3.94898 25.0016H3.90811L3.90923 25.0004ZM14.5675 17.579C14.7192 17.579 14.8441 17.5801 14.96 17.5831C15.4671 17.5947 15.7784 17.8917 15.8366 18.4186C15.8461 18.5061 15.8461 18.5913 15.8456 18.6659C15.8456 18.6887 15.8456 18.7114 15.8456 18.7342C15.8478 19.0014 15.8456 19.2727 15.8439 19.5347C15.84 20.117 15.8355 20.7191 15.8753 21.3019C15.9296 22.0931 16.3433 22.694 17.071 23.0388C17.37 23.1806 17.6672 23.2524 17.9533 23.2524C18.3866 23.2524 18.8087 23.0879 19.2073 22.7629C19.748 22.3224 20.0106 21.6987 20.0106 20.8556C20.0095 18.2167 20.0095 15.5772 20.0095 12.9383C20.0095 9.74683 20.0095 6.55539 20.0078 3.36395C20.0078 2.71924 20.1114 2.2099 20.3353 1.76239C20.3353 1.76239 14.6257 1.76181 13.201 1.76181C10.9937 1.76181 8.78689 1.76181 6.57954 1.76414C5.82939 1.76473 5.34067 2.27991 5.33508 3.07689C5.30932 6.73976 5.28525 10.402 5.26062 14.0649L5.23711 17.5819H14.0105C14.1029 17.5819 14.1953 17.5819 14.2876 17.5807C14.3811 17.5807 14.474 17.5796 14.5675 17.5796V17.579ZM1.68061 19.3311C1.68173 19.4997 1.68229 19.6695 1.68285 19.8398C1.68397 20.3463 1.68509 20.8696 1.7114 21.379C1.76234 22.3498 2.67036 23.2343 3.61645 23.2349C4.95888 23.2361 6.30131 23.2361 7.64375 23.2361C9.48218 23.2361 11.32 23.2355 13.1585 23.2349H14.7942C14.4388 22.687 14.2406 22.1059 14.2036 21.5015C14.1729 20.9945 14.1712 20.4816 14.1701 19.9863C14.1695 19.7716 14.1689 19.5574 14.1661 19.3427C14.1661 19.3386 14.1661 19.3351 14.1661 19.3311H1.68117H1.68061ZM24.32 10.8985C24.32 10.2393 24.3217 9.57996 24.3228 8.92067C24.3262 7.0484 24.3301 5.11311 24.3139 3.20992C24.3072 2.41527 23.7462 1.81665 23.009 1.81665C22.9642 1.81665 22.9188 1.81899 22.8735 1.82366C22.1704 1.89367 21.6788 2.4987 21.6783 3.2951C21.6766 5.1207 21.6766 6.94571 21.6772 8.77131V10.8985H24.32Z" fill="white"/>
<path id="Vector_2" d="M12.4812 15.1965C10.8801 15.1965 9.27963 15.1965 7.67856 15.1954C7.52013 15.1954 7.39865 15.186 7.28501 15.165C6.91441 15.0974 6.63898 14.7724 6.61491 14.375C6.59084 13.9766 6.83548 13.6107 7.19712 13.5057C7.32364 13.469 7.46415 13.4515 7.63825 13.4515C8.56418 13.4497 9.49068 13.4497 10.4166 13.4497H14.9399C15.6828 13.4497 16.4251 13.4497 17.1674 13.4509C17.683 13.4509 18.0329 13.7245 18.1023 14.1819C18.1773 14.6744 17.8918 15.0898 17.4244 15.1697C17.2894 15.193 17.1579 15.196 17.0582 15.196C15.5328 15.196 14.0067 15.1965 12.4812 15.1965Z" fill="white"/>
<path id="Vector_3" d="M7.59452 11.04C7.56429 11.04 7.53406 11.04 7.50383 11.0389C6.96977 11.0214 6.60253 10.6585 6.61149 10.1555C6.62045 9.65435 6.98768 9.3037 7.50551 9.30311C9.1189 9.30195 10.7328 9.30078 12.3457 9.30078C13.9585 9.30078 15.6027 9.30136 17.2317 9.30311C17.7501 9.30311 18.1145 9.65785 18.1173 10.1649C18.1185 10.4041 18.0401 10.6135 17.8901 10.7716C17.7249 10.9449 17.4915 11.0371 17.2144 11.0377C16.4497 11.0394 15.6855 11.04 14.9208 11.04H12.3507H7.71096H7.59452Z" fill="white"/>
<path id="Vector_4" d="M8.89168 6.88933C8.45782 6.88933 8.02341 6.88933 7.58955 6.88699C7.42665 6.88641 7.28725 6.86599 7.16465 6.82515C6.82373 6.71138 6.5914 6.35198 6.61268 5.9704C6.63451 5.57366 6.9077 5.24635 7.27718 5.17459C7.40146 5.15066 7.52238 5.14716 7.62426 5.14716H8.10962C8.71366 5.146 9.3177 5.146 9.92174 5.146C10.9378 5.146 11.7686 5.14775 12.5355 5.15066C12.7505 5.15183 12.961 5.19734 13.1278 5.2796C13.4245 5.42547 13.5779 5.73878 13.5381 6.11743C13.5012 6.471 13.2952 6.7318 12.9727 6.83332C12.821 6.88116 12.6676 6.88758 12.5517 6.88816C12.1313 6.88991 11.7115 6.89049 11.291 6.89049H10.0953H8.89168V6.88933Z" fill="white"/>
</g>
<defs>
<clipPath id="clip0_1103_9435">
<rect width="26" height="25" fill="white"/>
</clipPath>
</defs>
</svg>
