<svg width="29" height="21" viewBox="0 0 29 21" fill="none" xmlns="http://www.w3.org/2000/svg">
<g id="_&#195;&#144;&#194;&#161;&#195;&#144;&#194;&#187;&#195;&#144;&#194;&#190;&#195;&#144;&#194;&#185;_1" clip-path="url(#clip0_1103_9431)">
<path id="Vector" d="M14.469 21C10.925 21 7.38106 21 3.83628 21C1.58073 20.9992 0 19.438 0 17.2104C0 12.736 0 8.26241 0 3.78803C0 1.56039 1.58154 0 3.83789 0C10.946 0 18.0548 0 25.1629 0C27.4217 0 28.9984 1.558 28.9992 3.78883C28.9992 8.26321 28.9992 12.7368 28.9992 17.2112C28.9992 19.4412 27.4209 20.9992 25.1613 20.9992C21.5972 20.9992 18.0331 20.9992 14.4682 20.9992L14.469 21ZM14.5068 19.0913C18.0508 19.0913 21.5956 19.0913 25.1396 19.0913C26.3595 19.0913 27.0666 18.3906 27.0666 17.1825C27.0666 12.728 27.0666 8.27355 27.0666 3.81984C27.0666 2.60939 26.3619 1.91032 25.1412 1.91032C18.0524 1.91032 10.9637 1.91032 3.87574 1.91032C2.63322 1.91032 1.93425 2.60223 1.93425 3.83337C1.93425 8.27752 1.93425 12.7225 1.93425 17.1666C1.93425 18.3978 2.63322 19.0913 3.87413 19.0913C7.4181 19.0913 10.9629 19.0913 14.5068 19.0913Z" fill="white"/>
<path id="Vector_2" d="M14.4993 4.77256C17.6906 4.77256 20.8827 4.77177 24.0739 4.77256C24.8252 4.77256 25.3116 5.38972 25.0741 6.03868C24.934 6.42043 24.6465 6.6288 24.2406 6.67652C24.1512 6.68686 24.0594 6.6805 23.9693 6.6805C17.6568 6.6805 11.3435 6.6805 5.03104 6.67811C4.86193 6.67811 4.68477 6.67016 4.52613 6.62085C4.08163 6.48246 3.81267 6.04425 3.87387 5.59888C3.93588 5.15272 4.31193 4.80517 4.77335 4.77495C4.9038 4.7662 5.03506 4.77177 5.16551 4.77177C8.27625 4.77177 11.3878 4.77177 14.4985 4.77177L14.4993 4.77256Z" fill="white"/>
<path id="Vector_3" d="M6.76617 15.2732C7.39025 15.2732 8.01433 15.27 8.63841 15.274C9.22947 15.2779 9.6611 15.6796 9.66512 16.2204C9.66915 16.7628 9.23914 17.1787 8.6529 17.1811C7.39508 17.1859 6.13645 17.1859 4.87863 17.1811C4.29401 17.1787 3.86319 16.7612 3.86722 16.2196C3.87205 15.6764 4.30045 15.2779 4.89393 15.2748C5.51801 15.2708 6.14209 15.274 6.76617 15.274V15.2732Z" fill="white"/>
</g>
<defs>
<clipPath id="clip0_1103_9431">
<rect width="29" height="21" fill="white"/>
</clipPath>
</defs>
</svg>
