<svg width="23" height="27" viewBox="0 0 23 27" fill="none" xmlns="http://www.w3.org/2000/svg">
<g id="_&#195;&#144;&#194;&#161;&#195;&#144;&#194;&#187;&#195;&#144;&#194;&#190;&#195;&#144;&#194;&#185;_1" clip-path="url(#clip0_1103_9429)">
<path id="Vector" d="M2.18381 27.0002L2.13373 26.9858C1.68807 26.8588 1.22023 26.7049 0.833221 26.3534C0.283831 25.8535 0.00484332 25.2576 0.00412797 24.5819C-0.000164143 20.3091 -0.00302555 16.7462 0.00555867 13.0439C0.00842008 11.74 1.13224 10.6593 2.51072 10.636C2.70601 10.6325 2.91346 10.6291 3.11806 10.6291C3.32265 10.6291 3.49147 10.6318 3.65528 10.638C3.65528 10.638 3.67174 10.638 3.67317 10.638C3.67818 10.6312 3.6839 10.6209 3.69177 10.6071C5.29273 7.68486 6.92587 4.71728 8.50537 1.84652L8.83086 1.25534C9.27652 0.445815 9.96612 -0.000488281 10.7723 -0.000488281C11.1658 -0.000488281 11.5742 0.105251 11.9877 0.313984C14.6538 1.65839 17.3199 3.00417 19.9853 4.35063C21.2272 4.9782 21.607 6.15301 20.9546 7.34361C20.5576 8.06868 20.1585 8.79238 19.7593 9.51677C19.554 9.88891 19.3494 10.2611 19.1441 10.6339H19.1799C20.7493 10.6373 21.8503 11.6934 21.8574 13.2025C21.8603 13.8322 21.8596 14.4721 21.8589 15.0914C21.8589 15.3524 21.8589 15.6126 21.8589 15.8735H21.8639C21.9383 15.8735 22.0112 15.8735 22.0842 15.8762C22.645 15.8927 22.9948 16.2333 22.9963 16.7654C23.0006 18.0721 23.0006 19.4096 22.9963 20.8529C22.9948 21.3987 22.6393 21.7455 22.0677 21.7578C21.9983 21.7592 21.929 21.7599 21.8581 21.7599V22.7328C21.8581 23.2842 21.8581 23.8349 21.8581 24.3862C21.856 25.6881 21.1428 26.5917 19.8487 26.9363C19.8444 26.9391 19.7464 27.0023 19.7464 27.0023H2.18381V27.0002ZM2.696 12.3484C2.0672 12.3484 1.7875 12.6203 1.78679 13.2286C1.78679 16.9536 1.78679 20.6785 1.78679 24.4034C1.78679 25.0049 2.0765 25.2857 2.69743 25.2857C5.4408 25.2857 8.18418 25.2857 10.9276 25.2857C13.6709 25.2857 16.4143 25.2857 19.1577 25.2857C19.7722 25.2857 20.0712 24.9959 20.0726 24.4C20.074 23.7655 20.0733 23.1311 20.0726 22.4967V21.7578C19.9574 21.7578 19.8437 21.7592 19.73 21.7592C19.5032 21.7606 19.2793 21.7613 19.0568 21.7613C18.7449 21.7613 18.4874 21.7592 18.2456 21.7544C17.3192 21.7359 16.4629 21.3129 15.8957 20.5954C15.3263 19.8738 15.1331 18.9633 15.3656 18.0961C15.7147 16.7963 16.8829 15.9058 18.2721 15.8797C18.5131 15.8749 18.77 15.8728 19.0811 15.8728C19.2993 15.8728 19.5189 15.8735 19.74 15.8749C19.8501 15.8749 19.9603 15.8756 20.0712 15.8762V15.5865C20.0719 14.801 20.0726 14.0148 20.0712 13.2293C20.0698 12.6285 19.7786 12.3491 19.1548 12.3491H10.9247H2.69457L2.696 12.3484ZM19.6019 17.5859C19.1155 17.5859 18.7163 17.5873 18.3465 17.5914C17.6168 17.5983 17.0495 18.14 17.0545 18.8246C17.0596 19.503 17.6376 20.0379 18.3708 20.042C18.6169 20.0434 18.863 20.044 19.109 20.044C19.3065 20.044 20.0962 20.0427 20.2937 20.0427H21.1993V17.588C20.9747 17.588 20.7508 17.588 20.5261 17.5866C20.2185 17.5866 19.9102 17.5852 19.6026 17.5852L19.6019 17.5859ZM5.80849 10.6298C5.9952 10.6298 6.14829 10.6325 6.28921 10.6387C6.29493 10.6387 6.30066 10.6387 6.30638 10.6387C6.31282 10.6387 6.31783 10.6387 6.3214 10.6387C6.32713 10.6312 6.33571 10.6188 6.34644 10.5982C7.26066 8.92352 8.19562 7.22414 9.10054 5.58105L9.5505 4.76397C9.70073 4.4907 9.93035 4.17691 10.3689 4.17691C10.5191 4.17691 10.6858 4.21536 10.8918 4.29707C11.0484 4.35887 11.208 4.39045 11.3668 4.39045C11.7473 4.39045 12.0921 4.20575 12.3118 3.88441C12.4877 3.62624 12.7209 3.36258 13.1115 3.36258C13.2868 3.36258 13.4721 3.41682 13.7139 3.53836C14.5308 3.94896 15.3742 4.37535 16.2219 4.80586C16.8299 5.11415 16.9701 5.49317 16.7055 6.11318C16.4973 6.60206 16.6582 7.13007 17.1068 7.42806C17.762 7.8627 17.8436 8.18472 17.4709 8.86242L16.4987 10.6305C16.5366 10.6305 16.5738 10.6305 16.611 10.6305C16.7984 10.6305 16.9508 10.6332 17.0917 10.6394C17.0975 10.6394 17.1032 10.6394 17.1089 10.6394C17.1154 10.6394 17.1204 10.6394 17.1239 10.6394C17.1297 10.6318 17.1375 10.6195 17.1483 10.6003C17.6848 9.61083 18.237 8.60837 18.7707 7.63886C18.961 7.29349 19.1505 6.94812 19.3408 6.60343C19.4603 6.38646 19.5061 6.23128 19.4782 6.1434C19.4495 6.05551 19.3215 5.95389 19.0969 5.83991L11.1472 1.8273C11.0005 1.75314 10.8796 1.71538 10.7873 1.71538C10.7308 1.71538 10.5992 1.71538 10.4204 2.04084C8.84445 4.90336 7.26924 7.76657 5.69475 10.6298C5.73267 10.6298 5.7713 10.6298 5.80849 10.6298ZM8.35872 10.6312C9.19926 10.6312 10.0398 10.6318 10.8803 10.6318C12.2746 10.6318 13.4184 10.6305 14.4736 10.6277C14.8191 10.0132 15.1639 9.38356 15.4987 8.77453L15.6582 8.4834C14.9443 7.69104 14.7661 7.12389 14.872 6.06649C14.6338 5.94153 14.3891 5.81794 14.1516 5.69847C13.9013 5.57213 13.6423 5.44236 13.3884 5.30778C12.9592 5.72593 12.4763 5.96968 11.9534 6.03216C11.7974 6.0507 11.6315 6.05963 11.4312 6.05963C11.2988 6.05963 11.1658 6.0562 11.037 6.05208C10.9798 6.0507 10.9218 6.04864 10.8639 6.04727L8.3437 10.6312H8.35872Z" fill="white"/>
</g>
<defs>
<clipPath id="clip0_1103_9429">
<rect width="23" height="27" fill="white"/>
</clipPath>
</defs>
</svg>
