<svg width="21" height="21" viewBox="0 0 21 21" fill="none" xmlns="http://www.w3.org/2000/svg">
<g id="&#240;&#159;&#166;&#134; icon &#34;tick circle&#34;">
<g id="Group">
<path id="Vector" d="M10.5 21C16.2989 21 21 16.2989 21 10.5C21 4.70101 16.2989 0 10.5 0C4.70101 0 0 4.70101 0 10.5C0 16.2989 4.70101 21 10.5 21Z" fill="white"/>
<path id="Vector_2" d="M9.00643 14.2593C8.79643 14.2593 8.59693 14.1753 8.44993 14.0283L5.47837 11.0568C5.17388 10.7523 5.17388 10.2483 5.47837 9.94377C5.78287 9.63927 6.28688 9.63927 6.59138 9.94377L9.00643 12.3588L14.4034 6.96177C14.7079 6.65727 15.2119 6.65727 15.5164 6.96177C15.8209 7.26627 15.8209 7.77027 15.5164 8.07477L9.56293 14.0283C9.41593 14.1753 9.21643 14.2593 9.00643 14.2593Z" fill="#252525"/>
</g>
</g>
</svg>
