<svg width="35" height="21" viewBox="0 0 35 21" fill="none" xmlns="http://www.w3.org/2000/svg">
<g id="&#240;&#159;&#166;&#134; icon &#34;delivery truck&#34;">
<path id="Vector" d="M11.2395 20C12.8539 20 14.1626 18.6913 14.1626 17.0769C14.1626 15.4625 12.8539 14.1538 11.2395 14.1538C9.62511 14.1538 8.31641 15.4625 8.31641 17.0769C8.31641 18.6913 9.62511 20 11.2395 20Z" stroke="white" stroke-width="2" stroke-miterlimit="1.5" stroke-linecap="round" stroke-linejoin="round"/>
<path id="Vector_2" d="M25.8489 20C27.4633 20 28.7719 18.6913 28.7719 17.0769C28.7719 15.4625 27.4633 14.1538 25.8489 14.1538C24.2344 14.1538 22.9258 15.4625 22.9258 17.0769C22.9258 18.6913 24.2344 20 25.8489 20Z" stroke="white" stroke-width="2" stroke-miterlimit="1.5" stroke-linecap="round" stroke-linejoin="round"/>
<path id="Vector_3" d="M14.2269 17.0769H21.4616V1.87692C21.4616 1.39261 21.069 1 20.5846 1H1" stroke="white" stroke-width="2" stroke-linecap="round"/>
<path id="Vector_4" d="M7.79496 17.077H4.7988C4.31449 17.077 3.92188 16.6845 3.92188 16.2001V9.03857" stroke="white" stroke-width="2" stroke-linecap="round"/>
<path id="Vector_5" d="M2.46289 5.38477H8.30905" stroke="white" stroke-width="2" stroke-linecap="round" stroke-linejoin="round"/>
<path id="Vector_6" d="M21.4688 5.38477H29.6681C30.0147 5.38477 30.3288 5.58886 30.4695 5.90554L33.0855 11.7916C33.1353 11.9038 33.1611 12.0251 33.1611 12.1478V16.2002C33.1611 16.6845 32.7685 17.0771 32.2841 17.0771H29.5072" stroke="white" stroke-width="2" stroke-linecap="round"/>
<path id="Vector_7" d="M21.4688 17.0771H22.9303" stroke="white" stroke-width="2" stroke-linecap="round"/>
</g>
</svg>
