<svg width="75" height="76" viewBox="0 0 75 76" fill="none" xmlns="http://www.w3.org/2000/svg">
<g id="&#208;&#151;&#208;&#189;&#208;&#176;&#209;&#135;&#208;&#190;&#208;&#186;_3">
<path id="Vector" d="M37.5 0.555664C16.79 0.555664 0 17.3117 0 37.9797C0 58.6478 16.79 75.4038 37.5 75.4038C58.21 75.4038 75 58.6478 75 37.9797C75 17.3117 58.2113 0.555664 37.5 0.555664ZM50.2394 38.0228C49.2153 40.5214 47.8004 42.7873 46.1915 45.2779C44.0179 48.6439 41.5789 51.9615 38.9418 55.1379L38.9324 55.1486C38.8623 55.232 38.7923 55.3167 38.7208 55.3987C38.3476 55.8264 37.8692 56.0604 37.3733 56.0604C36.8774 56.0604 36.3708 55.8049 36.0123 55.3423C35.7065 54.9482 35.4006 54.5556 35.0933 54.1615C34.0059 52.767 32.8807 51.324 31.8256 49.8623C29.295 46.3591 27.3829 43.3226 25.8076 40.3076C25.0193 38.7987 24.0639 36.7775 23.6705 34.5263C23.2177 31.9349 23.6435 29.3704 24.9331 26.9041C26.67 23.5824 29.5658 21.381 33.537 20.3603C34.7915 20.0376 36.0609 19.8991 37.7803 19.8964C41.3728 19.9556 44.6243 21.1578 47.1927 23.3753C49.6654 25.5095 51.0991 28.3 51.4522 31.6713C51.7015 34.0503 50.9792 36.2167 50.2381 38.0214L50.2394 38.0228Z" fill="#252525"/>
<path id="Vector_2" d="M43.6446 24.9731C41.8053 23.8368 39.7584 23.2612 37.5606 23.2612C36.8073 23.2612 36.0217 23.3285 35.2281 23.4629C32.4454 23.9309 30.2611 25.1991 28.7357 27.2297C27.147 29.345 26.5743 31.6917 27.0352 34.2051C27.3276 35.8014 27.9959 37.2632 28.9096 38.9683C30.6842 42.2806 32.8861 45.6936 35.6404 49.4039C36.1134 50.0413 36.5917 50.6572 37.0971 51.3081C37.1968 51.4372 37.2978 51.5663 37.3989 51.6967C39.6506 48.9171 41.7541 45.9962 43.6541 43.0148C45.0083 40.8874 46.3033 38.7868 47.2439 36.4738C47.702 35.3468 48.148 34.1406 48.1265 32.867C48.0672 29.4298 46.558 26.7752 43.6433 24.9745L43.6446 24.9731ZM37.3208 39.6596C37.2884 39.6596 37.2561 39.6596 37.2237 39.6596C35.573 39.6367 34.0099 38.9522 32.8241 37.7338C31.6262 36.502 30.9807 34.899 31.0063 33.2207C31.0615 29.692 33.8859 26.9271 37.4366 26.9271H37.5148C39.1871 26.9473 40.7623 27.6278 41.9508 28.8461C43.138 30.0632 43.7807 31.6554 43.7605 33.3283C43.7174 36.8785 40.889 39.6609 37.3208 39.6609V39.6596Z" fill="#252525"/>
<path id="Vector_3" d="M37.4381 30.2959H37.4017C35.751 30.2959 34.3968 31.634 34.3819 33.2786C34.3685 34.8964 35.72 36.2762 37.3357 36.291H37.3653C39.039 36.291 40.3649 34.9798 40.3824 33.3069C40.3999 31.6649 39.078 30.3147 37.4368 30.2959H37.4381Z" fill="#252525"/>
<path id="Vector_4" d="M37.5 0.555664C16.79 0.555664 0 17.3117 0 37.9797C0 58.6478 16.79 75.4038 37.5 75.4038C58.21 75.4038 75 58.6478 75 37.9797C75 17.3117 58.2113 0.555664 37.5 0.555664ZM50.2394 38.0228C49.2153 40.5214 47.8004 42.7873 46.1915 45.2779C44.0179 48.6439 41.5789 51.9615 38.9418 55.1379L38.9324 55.1486C38.8623 55.232 38.7923 55.3167 38.7208 55.3987C38.3476 55.8264 37.8692 56.0604 37.3733 56.0604C36.8774 56.0604 36.3708 55.8049 36.0123 55.3423C35.7065 54.9482 35.4006 54.5556 35.0933 54.1615C34.0059 52.767 32.8807 51.324 31.8256 49.8623C29.295 46.3591 27.3829 43.3226 25.8076 40.3076C25.0193 38.7987 24.0639 36.7775 23.6705 34.5263C23.2177 31.9349 23.6435 29.3704 24.9331 26.9041C26.67 23.5824 29.5658 21.381 33.537 20.3603C34.7915 20.0376 36.0609 19.8991 37.7803 19.8964C41.3728 19.9556 44.6243 21.1578 47.1927 23.3753C49.6654 25.5095 51.0991 28.3 51.4522 31.6713C51.7015 34.0503 50.9792 36.2167 50.2381 38.0214L50.2394 38.0228Z" fill="#252525"/>
<path id="Vector_5" d="M43.6446 24.9731C41.8053 23.8368 39.7584 23.2612 37.5606 23.2612C36.8073 23.2612 36.0217 23.3285 35.2281 23.4629C32.4454 23.9309 30.2611 25.1991 28.7357 27.2297C27.147 29.345 26.5743 31.6917 27.0352 34.2051C27.3276 35.8014 27.9959 37.2632 28.9096 38.9683C30.6842 42.2806 32.8861 45.6936 35.6404 49.4039C36.1134 50.0413 36.5917 50.6572 37.0971 51.3081C37.1968 51.4372 37.2978 51.5663 37.3989 51.6967C39.6506 48.9171 41.7541 45.9962 43.6541 43.0148C45.0083 40.8874 46.3033 38.7868 47.2439 36.4738C47.702 35.3468 48.148 34.1406 48.1265 32.867C48.0672 29.4298 46.558 26.7752 43.6433 24.9745L43.6446 24.9731ZM37.3208 39.6596C37.2884 39.6596 37.2561 39.6596 37.2237 39.6596C35.573 39.6367 34.0099 38.9522 32.8241 37.7338C31.6262 36.502 30.9807 34.899 31.0063 33.2207C31.0615 29.692 33.8859 26.9271 37.4366 26.9271H37.5148C39.1871 26.9473 40.7623 27.6278 41.9508 28.8461C43.138 30.0632 43.7807 31.6554 43.7605 33.3283C43.7174 36.8785 40.889 39.6609 37.3208 39.6609V39.6596Z" fill="#252525"/>
<path id="Vector_6" d="M37.4381 30.2959H37.4017C35.751 30.2959 34.3968 31.634 34.3819 33.2786C34.3685 34.8964 35.72 36.2762 37.3357 36.291H37.3653C39.039 36.291 40.3649 34.9798 40.3824 33.3069C40.3999 31.6649 39.078 30.3147 37.4368 30.2959H37.4381Z" fill="#252525"/>
</g>
</svg>
