<svg width="75" height="75" viewBox="0 0 75 75" fill="none" xmlns="http://www.w3.org/2000/svg">
<g id="&#208;&#151;&#208;&#189;&#208;&#176;&#209;&#135;&#208;&#190;&#208;&#186;_2">
<path id="Vector" d="M49.2721 29.3347C49.2721 29.1442 49.2694 28.9255 49.2384 28.7417C48.9244 26.9051 47.4543 25.6696 45.5799 25.6682C43.3916 25.6655 41.2018 25.6655 39.0148 25.6655C36.3117 25.6655 33.6086 25.6655 30.9055 25.6682H29.4138C29.2103 25.6682 28.9961 25.6709 28.8182 25.7017C26.9734 26.013 25.7324 27.4766 25.7297 29.3441C25.7243 34.3333 25.727 39.3319 25.7297 44.1655V45.4346C25.7297 45.6371 25.7324 45.8505 25.7634 46.0275C26.076 47.8587 27.534 49.0943 29.3936 49.101C30.3436 49.105 31.365 49.1064 32.6087 49.1064C33.3297 49.1064 35.0087 49.105 35.0087 49.105C35.8091 49.105 36.6082 49.1037 37.4086 49.1037H41.0388C42.513 49.1037 43.9885 49.1037 45.4627 49.1024H45.4896C45.7308 49.1024 45.9815 49.1024 46.1863 49.0675C48.031 48.7549 49.2721 47.2926 49.2748 45.4265C49.2802 40.6801 49.2788 35.9015 49.2748 31.2812V29.3347H49.2721ZM42.8822 39.2044C41.9874 39.2058 41.0927 39.2071 40.1979 39.2071C39.3032 39.2071 38.4354 39.2071 37.5541 39.2044C36.464 39.2017 35.6716 38.4102 35.6703 37.3236C35.6676 35.2911 35.6676 33.1219 35.6703 30.6896C35.6703 29.607 36.4559 28.79 37.4948 28.79C38.5405 28.8021 39.3261 29.6271 39.3274 30.7097C39.3288 31.9587 39.3274 33.2077 39.3274 34.4567V35.5648H41.1911C41.757 35.5648 42.323 35.5648 42.8889 35.5675C43.9589 35.5715 44.7647 36.3563 44.762 37.392C44.7593 38.4236 43.9508 39.2031 42.8808 39.2058L42.8822 39.2044Z" fill="#252525"/>
<path id="Vector_2" d="M37.5 0.0512695C16.79 0.0512695 0 16.767 0 37.3852C0 58.0034 16.79 74.7191 37.5 74.7191C58.21 74.7191 75 58.0034 75 37.3852C75 16.767 58.2113 0.0512695 37.5 0.0512695ZM52.9304 45.3862C52.9263 49.003 50.5601 51.9048 47.0431 52.6104C46.6065 52.6976 46.1201 52.7406 45.5541 52.7419C42.1974 52.7473 39.0887 52.7486 36.0501 52.7486C33.8482 52.7486 31.6464 52.7486 29.4446 52.7446C25.8103 52.7406 22.897 50.3781 22.1976 46.8673C22.1127 46.4406 22.0723 45.9805 22.0723 45.4184C22.0642 39.1373 22.0629 34.0313 22.0696 29.3534C22.075 25.7526 24.4412 22.8629 27.9569 22.1613C28.5161 22.05 29.0699 22.0325 29.5389 22.0312C30.6694 22.0272 31.8768 22.0245 33.4521 22.0245C34.1299 22.0245 37.5472 22.0258 37.5472 22.0258C37.5472 22.0258 41.6962 22.0231 42.4535 22.0231C43.487 22.0231 44.5206 22.0231 45.5541 22.0272C49.1897 22.0366 52.1017 24.399 52.7983 27.9045C52.8846 28.3365 52.925 28.8073 52.925 29.3842C52.9331 35.0133 52.9344 40.2467 52.9277 45.3862H52.9304Z" fill="#252525"/>
</g>
</svg>
