<svg width="75" height="76" viewBox="0 0 75 76" fill="none" xmlns="http://www.w3.org/2000/svg">
<g id="&#208;&#183;&#208;&#189;&#208;&#176;&#209;&#135;&#208;&#190;&#208;&#186;_1">
<path id="Vector" d="M60.5654 40.8585C59.2812 38.5656 57.8245 35.9661 56.4204 33.4312C56.3503 33.3062 56.3463 33.3062 56.225 33.3062C55.3006 33.3142 54.3789 33.3156 53.6782 33.3156H51.2554V45.736C51.2769 45.6822 51.2985 45.6257 51.3201 45.5706C51.3551 45.4805 51.3915 45.3904 51.4306 45.303C52.2579 43.4902 54.0878 42.3189 56.0903 42.3189C56.19 42.3189 56.2897 42.3216 56.3908 42.327C58.4767 42.4467 60.3107 43.899 60.9588 45.9431C60.9696 45.9431 60.9804 45.9431 60.9912 45.9431C60.9912 45.7495 60.9912 45.5572 60.9912 45.3662C60.9885 44.3926 60.9871 43.4727 60.9966 42.5381C61.0033 41.9343 60.8618 41.3829 60.5667 40.8544L60.5654 40.8585Z" fill="#252525"/>
<path id="Vector_2" d="M37.5 0.457031C16.79 0.457031 0 17.2131 0 37.8811C0 58.5491 16.79 75.3052 37.5 75.3052C58.21 75.3052 75 58.5491 75 37.8811C75 17.2131 58.2113 0.457031 37.5 0.457031ZM11.4256 34.3833C11.1655 34.1197 11.0402 33.7539 11.0442 33.2618C11.051 32.3204 11.5657 31.839 12.575 31.8322C12.924 31.8296 13.273 31.8282 13.622 31.8282C13.8875 31.8282 15.1973 31.8296 15.1973 31.8296H16.7846C17.1458 31.8282 17.5083 31.8296 17.8694 31.8309C18.5095 31.8349 18.8827 32.0797 19.0835 32.2827C19.3449 32.5477 19.4797 32.9027 19.4756 33.3115C19.4676 34.1856 18.8154 34.776 17.8546 34.7814C16.9585 34.7854 16.0624 34.7881 15.1663 34.7881C14.2702 34.7881 13.432 34.7854 12.5642 34.7814C12.0616 34.7787 11.6897 34.6482 11.4269 34.3833H11.4256ZM19.919 35.6716C19.919 34.5568 19.9163 33.5025 19.923 32.432C19.9284 31.5646 20.5617 30.9097 21.3945 30.9097C22.2071 30.9124 22.8283 31.5404 22.8768 32.4024C22.8835 32.5315 22.8822 32.6512 22.8808 32.7682C22.8808 32.8099 22.8808 32.8516 22.8808 32.8933V36.3211H32.3889C32.4239 36.3211 32.4589 36.3211 32.4953 36.3198C32.5425 36.3198 32.5897 36.3171 32.6368 36.3171C32.7567 36.3171 32.8578 36.3252 32.9548 36.3413C33.696 36.4664 34.1649 36.9747 34.2107 37.6995C34.2579 38.462 33.8321 39.0349 33.0707 39.2313C32.9077 39.2729 32.7541 39.2783 32.6395 39.2783C32.6045 39.2783 32.4792 39.2756 32.4522 39.2756C29.8798 39.2756 27.3087 39.2756 24.7377 39.2756H18.7345H18.5836C18.5054 39.2756 18.4017 39.2729 18.2885 39.2582C17.5015 39.1492 16.9679 38.5279 16.9895 37.7493C17.0124 36.9492 17.6107 36.3507 18.4138 36.3265C18.6712 36.3185 18.9488 36.3158 19.287 36.3158C19.4958 36.3158 19.7074 36.3158 19.9217 36.3185C19.9217 36.1006 19.9217 35.8841 19.9217 35.6689L19.919 35.6716ZM63.9517 45.0891C63.9517 45.6002 63.9544 46.1125 63.9517 46.6235C63.9477 48.0141 63.1432 48.8788 61.8509 48.8788C61.789 48.8788 61.7256 48.8761 61.6609 48.872C61.5841 48.8667 61.5114 48.864 61.4413 48.864C61.0559 48.864 60.8915 48.8868 60.6786 49.4678C60.021 51.2563 58.1493 52.5056 56.1267 52.5056C56.027 52.5056 55.9246 52.503 55.8249 52.4962C53.6392 52.3564 51.8726 50.9954 51.2137 48.9433C51.2083 48.9258 51.2029 48.9097 51.1975 48.8922C51.1975 48.8922 44.0988 48.8922 44.0934 48.8922C42.192 48.8922 39.9377 48.8922 37.6226 48.8828C37.6226 48.8828 37.6105 48.8828 37.6051 48.8828C36.965 51.0291 35.0192 52.4828 32.7581 52.503H32.7136C30.5077 52.503 28.5202 51.0156 27.8801 48.8868C27.8801 48.8855 27.8801 48.8828 27.8787 48.8814C26.9799 48.8909 26.0097 48.8949 24.8131 48.8949C24.1879 48.8949 23.5613 48.8949 22.9361 48.8922H21.6707C20.4755 48.8895 19.9176 48.3301 19.9163 47.1319C19.9163 45.9444 19.9163 44.7583 19.9163 43.548V42.682C18.9757 42.682 18.0365 42.682 17.0959 42.682C16.2942 42.682 15.4937 42.682 14.692 42.682H14.4979C14.3739 42.6833 14.2271 42.6793 14.0681 42.6497C13.3808 42.5233 12.9213 42.0096 12.8715 41.309C12.8216 40.6271 13.1908 40.0664 13.8349 39.8445C14.1273 39.7436 14.4225 39.7302 14.6987 39.7288C16.5569 39.7261 18.4151 39.7261 20.2734 39.7261H24.2337H24.3873C24.4601 39.7261 24.5571 39.7275 24.6609 39.7396C25.5004 39.8324 26.0623 40.4281 26.0582 41.2215C26.0542 42.0634 25.429 42.6632 24.5383 42.6779C24.2324 42.6833 23.9278 42.6847 23.6192 42.6847C23.3929 42.6847 23.1665 42.6847 22.9374 42.6833C22.9293 42.6833 22.9199 42.6833 22.9105 42.6833V45.935H25.0759C26.0097 45.935 26.9422 45.935 27.876 45.9404C28.5768 43.7376 30.4781 42.3216 32.7554 42.3216C35.0165 42.3256 36.9111 43.7417 37.6186 45.9417C40.3621 45.9337 43.1393 45.9323 45.8263 45.931H48.202V26.2514H22.9145V27.3743H25.0422C25.6149 27.3743 26.1863 27.3743 26.759 27.377C27.9192 27.3823 28.4366 28.122 28.4353 28.8522C28.4339 29.5851 27.9138 30.3261 26.7549 30.3288C25.3009 30.3315 23.847 30.3315 22.393 30.3315H17.321C17.2172 30.3315 17.1067 30.3288 16.9841 30.314C16.1837 30.2118 15.6393 29.6308 15.6298 28.8683C15.619 28.0467 16.2443 27.4106 17.0838 27.3891C17.608 27.3756 18.1322 27.3743 18.5297 27.3743H19.6778L19.9176 27.3756V27.3003C19.9176 26.7597 19.9176 26.2339 19.9176 25.7094C19.9203 24.0836 20.7423 23.2606 22.362 23.2592C26.7603 23.2592 31.1572 23.2592 35.5555 23.2592C39.9538 23.2592 44.3508 23.2592 48.7491 23.2592C50.3849 23.2592 51.2164 24.0957 51.2177 25.7457C51.2177 26.831 51.2177 27.9162 51.2177 29.0015V30.3584C51.564 30.3584 51.909 30.3597 52.2526 30.361C52.8051 30.3624 53.3508 30.3637 53.8952 30.3637C54.7778 30.3637 55.5001 30.3597 56.1658 30.3516H56.2237C57.4729 30.3516 58.4134 30.9084 59.0171 32.0071C60.3067 34.3551 61.6421 36.73 62.933 39.0269L63.1324 39.3819C63.7011 40.3932 63.9706 41.43 63.9571 42.5542C63.9463 43.3974 63.949 44.2581 63.9504 45.0905L63.9517 45.0891Z" fill="#252525"/>
</g>
</svg>
