<svg width="37" height="37" viewBox="0 0 37 37" fill="none" xmlns="http://www.w3.org/2000/svg">
<path d="M22.2892 12.056C21.0426 12.0226 19.7704 12.0059 18.5059 12.0059C17.2414 12.0059 15.9224 12.0237 14.629 12.0571C13.0905 12.0983 12.1146 13.0765 12.0176 14.6729C11.9653 15.5441 11.9463 16.4398 11.9274 17.3065C11.9185 17.702 11.9107 18.1031 11.8984 18.5019C11.9096 18.8829 11.9174 19.2784 11.9263 19.6616C11.9441 20.5473 11.9631 21.4631 12.0221 22.3621C12.1012 23.5653 12.6393 24.3563 13.6208 24.7117C14.1032 24.8866 14.6513 24.9835 15.2061 24.9924C16.2299 25.0091 17.3094 25.0169 18.4168 25.0169C19.5241 25.0169 20.5558 25.0102 21.73 24.9946C22.2447 24.9879 22.7504 24.9077 23.1927 24.7629C24.573 24.3095 24.8883 23.2177 24.9095 22.3822C24.9786 19.6538 24.9808 17.1394 24.9151 14.693C24.8716 13.0854 23.8901 12.0994 22.2881 12.056H22.2892ZM18.4814 23.2422H18.4502C17.1824 23.2344 15.9937 22.7364 15.1047 21.843C14.2146 20.9484 13.7266 19.7597 13.7277 18.4941C13.7322 15.8817 15.8556 13.7572 18.4625 13.7572H18.4925C19.7614 13.765 20.949 14.2618 21.838 15.1553C22.7271 16.0488 23.2161 17.2386 23.2139 18.5053C23.2094 21.1177 21.0872 23.2433 18.4814 23.2433V23.2422ZM23.0245 15.387H22.9967C22.2101 15.387 21.5885 14.7754 21.5829 13.9933C21.5796 13.6101 21.7244 13.2503 21.9907 12.9829C22.2558 12.7155 22.6112 12.5696 22.9922 12.5696C23.7631 12.5707 24.3948 13.1968 24.4015 13.9644C24.4082 14.7353 23.7899 15.3736 23.0245 15.387Z" fill="white"/>
<path d="M18.4755 16.0742H18.4722C17.8238 16.0742 17.2144 16.3282 16.7554 16.7883C16.2953 17.2495 16.0447 17.8623 16.0469 18.5129C16.0525 19.8408 17.1409 20.9226 18.4722 20.9226C19.8124 20.9192 20.8953 19.8308 20.8953 18.4962C20.8953 17.1627 19.8091 16.0753 18.4755 16.0742Z" fill="white"/>
<path d="M18.5 0C8.283 0 0 8.283 0 18.5C0 28.717 8.283 37 18.5 37C28.717 37 37 28.717 37 18.5C37 8.283 28.717 0 18.5 0ZM27.3423 19.8079V19.8213C27.3166 20.7738 27.2921 21.7564 27.2108 22.7212C27.1083 23.9433 26.6259 25.0206 25.8138 25.8394C24.9949 26.6638 23.921 27.1451 22.7056 27.2297C20.9955 27.3501 19.2308 27.3501 17.6734 27.3501H17.1119C16.136 27.3501 15.0008 27.3367 13.8822 27.1763C11.5962 26.8487 9.96522 25.1219 9.72682 22.7757C9.65217 22.0472 9.61875 21.45 9.61875 20.8963C9.61987 18.7607 9.62544 16.8334 9.67668 14.8693C9.69228 14.2666 9.80591 13.6327 10.0064 13.0356C10.6013 11.2664 11.9215 10.1557 13.8243 9.82262C14.4794 9.70788 15.1924 9.65329 16.0691 9.64995C16.3265 9.64995 16.5827 9.64883 16.8389 9.64883C18.6582 9.64883 20.4908 9.67334 22.065 9.69562C22.9161 9.70788 23.7049 9.88056 24.4056 10.2092C26.0633 10.9857 27.0314 12.385 27.203 14.2532C27.2932 15.2403 27.3177 16.2396 27.3411 17.2055C27.3512 17.6322 27.3623 18.0666 27.3779 18.49V18.5089C27.3623 18.949 27.3501 19.3846 27.34 19.8068L27.3423 19.8079Z" fill="white"/>
</svg>
