<svg width="36" height="37" viewBox="0 0 36 37" fill="none" xmlns="http://www.w3.org/2000/svg">
<path d="M18 0C8.05875 0 0 8.2826 0 18.5C0 28.7174 8.05875 37 18 37C27.9412 37 36 28.7174 36 18.5C36 8.2826 27.9412 0 18 0ZM26.1019 15.4812C25.5863 18.7515 25.0519 22.0179 24.5044 25.2824C24.4284 25.7372 24.2869 26.1948 24.0938 26.6121C23.7928 27.2624 23.3062 27.4629 22.5966 27.2229C22.1822 27.0832 21.7809 26.8606 21.4153 26.6111C19.7709 25.4886 18.1397 24.3448 16.5084 23.2021C16.2497 23.02 15.9947 22.8215 15.7772 22.5912C15.4003 22.1923 15.3862 21.8127 15.7116 21.3627C15.8644 21.1517 16.0416 20.957 16.2272 20.7749C17.6906 19.3402 19.1606 17.9122 20.6231 16.4766C20.9606 16.1451 21.2897 15.8002 21.5897 15.434C21.6806 15.3232 21.6619 15.117 21.6937 14.9551C21.5231 14.9455 21.3103 14.8636 21.1875 14.9387C20.5144 15.3483 19.8572 15.7867 19.2066 16.2318C17.3691 17.4902 15.5362 18.7573 13.7016 20.0195C13.1925 20.3702 12.6609 20.7055 12.0375 20.7219C11.5669 20.7345 11.0784 20.6728 10.6219 20.5485C9.675 20.2922 8.74312 19.9752 7.8075 19.6755C7.65375 19.6264 7.50375 19.5474 7.36688 19.4587C6.94219 19.1831 6.90281 18.7871 7.28906 18.4586C7.50187 18.2774 7.74656 18.1194 8.00156 18.0086C13.0819 15.7896 18.1641 13.5734 23.2528 11.3746C23.8734 11.1067 24.5278 10.9005 25.1841 10.7435C26.0719 10.5315 26.5481 10.9699 26.5378 12.1204C26.4122 13.1013 26.2894 14.2961 26.1019 15.4812Z" fill="white"/>
</svg>
