<svg width="12" height="16" viewBox="0 0 12 16" fill="none" xmlns="http://www.w3.org/2000/svg">
<path d="M5.87285 15.9999C5.73376 15.8895 5.5748 15.7956 5.45922 15.666C4.0752 14.1114 2.80472 12.4753 1.7443 10.6956C1.12832 9.66125 0.588583 8.59129 0.254033 7.43521C-0.247183 5.7001 -0.0152285 4.06209 1.02573 2.56893C2.01437 1.14976 3.40975 0.299434 5.17293 0.0617971C6.89718 -0.170751 8.45233 0.254413 9.79864 1.3138C10.9856 2.2479 11.6924 3.46389 11.9337 4.93199C12.1214 6.07359 11.8956 7.15921 11.4868 8.22133C10.9394 9.64481 10.1559 10.9485 9.28729 12.2067C8.45192 13.4172 7.531 14.5659 6.546 15.666C6.43003 15.7956 6.27107 15.8895 6.13238 16.0003H5.87325L5.87285 15.9999ZM5.98396 8.70913C7.6194 8.73654 8.98802 7.43756 9.01802 5.82891C9.04803 4.22574 7.70902 2.90248 6.02897 2.87469C4.38218 2.84767 3.01113 4.149 2.98639 5.76235C2.96166 7.3667 4.29864 8.68095 5.98396 8.70913Z" fill="white"/>
</svg>
