<svg width="36" height="37" viewBox="0 0 36 37" fill="none" xmlns="http://www.w3.org/2000/svg">
<path d="M20.3243 20.1767C20.0512 20.4594 19.7676 20.7519 19.4878 21.0385C19.0782 21.4575 18.5503 21.6877 18.0003 21.6877C17.4503 21.6877 16.9225 21.4575 16.5129 21.0385C16.3552 20.8764 16.1975 20.7143 16.0408 20.5513L16.0369 20.5473C15.9388 20.4455 15.8408 20.3438 15.7427 20.243C15.6408 20.1382 15.5389 20.0335 15.4379 19.9297L12.1562 23.2738H23.8463L20.5647 19.9307C20.4868 20.0107 20.3253 20.1777 20.3253 20.1777L20.3243 20.1767Z" fill="white"/>
<path d="M17.9992 19.7014C17.9992 19.7014 18.056 19.6974 18.1723 19.5769C20.0655 17.6251 21.9578 15.6744 23.851 13.7227H12.1484C14.0426 15.6754 15.9368 17.6281 17.831 19.5808C17.9435 19.6965 17.9983 19.7014 17.9992 19.7014Z" fill="white"/>
<path d="M10.7578 15.168V21.8177L14.0221 18.4953L10.7578 15.168Z" fill="white"/>
<path d="M25.2331 21.8518V15.207L21.9678 18.5255L25.2331 21.8518Z" fill="white"/>
<path d="M18.0005 0C8.05844 0 0 8.28228 0 18.5005C0 28.7187 8.05844 37.001 18.0005 37.001C27.9425 37.001 36.001 28.7187 36.001 18.5005C36.001 8.28228 27.9416 0 18.0005 0ZM26.7522 24.7194C26.4214 25.088 25.9445 25.2747 25.333 25.2747H10.6959C10.6911 25.2747 10.6834 25.2747 10.6747 25.2747C10.5382 25.2747 9.82858 25.2481 9.32187 24.7273C8.98534 24.3814 8.81515 23.91 8.81611 23.327C8.81611 22.7538 8.81611 21.2379 8.81611 19.5658C8.81611 18.6398 8.81611 17.7129 8.81611 16.7869V13.509C8.85553 12.918 9.30744 11.7875 10.742 11.7292C10.7757 11.7272 10.8151 11.7262 10.8545 11.7262C13.1881 11.7262 15.5198 11.7262 17.8524 11.7262C20.185 11.7262 22.7071 11.7262 25.1339 11.7262C25.1407 11.7262 25.157 11.7262 25.1647 11.7262H25.1734C26.6666 11.7262 27.1175 12.7698 27.1502 13.3884C27.1522 13.4082 27.1589 13.511 27.1608 13.5554V13.5653C27.1608 15.2176 27.1656 16.8877 27.1704 18.5035C27.1752 20.1192 27.18 21.7903 27.18 23.4406C27.18 23.4465 27.18 23.4515 27.18 23.4574C27.1868 23.6037 27.1868 24.2322 26.7493 24.7204L26.7522 24.7194Z" fill="white"/>
</svg>
