<svg width="15" height="15" viewBox="0 0 15 15" fill="none" xmlns="http://www.w3.org/2000/svg">
<path id="Vector" d="M0.0783067 2.15864L2.02335 0.212657C2.15942 0.0765182 2.31951 0.0204612 2.50361 0.0444856C2.6877 0.06851 2.83578 0.1566 2.94784 0.308754L4.61674 2.63912C4.7288 2.79929 4.77282 2.97747 4.74881 3.17367C4.7248 3.36987 4.64475 3.53604 4.50868 3.67218L3.07991 5.08962C3.89635 6.22677 4.80884 7.29987 5.81738 8.30889C6.82592 9.31792 7.89449 10.2268 9.0231 11.0357L10.4519 9.61822C10.5879 9.48208 10.758 9.40601 10.9621 9.38999C11.1662 9.37397 11.3443 9.42202 11.4964 9.53414L13.8017 11.1678C13.9537 11.2799 14.0438 11.4301 14.0718 11.6183C14.0998 11.8064 14.0458 11.9686 13.9097 12.1048L11.9527 14.0507C11.9287 14.0587 11.8906 14.0627 11.8386 14.0627C11.7866 14.0627 11.6685 14.0547 11.4844 14.0387C11.3003 14.0227 11.1102 13.9987 10.9141 13.9666C10.718 13.9346 10.4679 13.8766 10.1637 13.7925C9.85955 13.7084 9.54938 13.6023 9.23321 13.4741C8.91704 13.346 8.55685 13.1758 8.15263 12.9636C7.74842 12.7514 7.3422 12.5112 6.93398 12.2429C6.52576 11.9746 6.08152 11.6423 5.60127 11.2459C5.12101 10.8495 4.64475 10.415 4.1725 9.94255C3.58018 9.34995 3.0459 8.74734 2.56964 8.13471C2.09339 7.52209 1.71518 6.96753 1.43503 6.47102C1.15488 5.97452 0.914755 5.49603 0.714648 5.03556C0.51454 4.57509 0.376466 4.17469 0.300426 3.83434C0.224385 3.49399 0.164353 3.19569 0.120329 2.93943C0.0763056 2.68317 0.058296 2.49097 0.0663003 2.36284L0.0783067 2.15864Z" fill="white"/>
</svg>
