<svg width="157" height="97" viewBox="0 0 157 97" fill="none" xmlns="http://www.w3.org/2000/svg">
<g clip-path="url(#clip0_1087_127887)">
<path d="M9.56941 88.6611C10.748 88.6611 11.4824 88.4975 11.8224 88.134C12.1578 87.7841 12.3301 87.4978 12.3301 87.2887C12.3301 87.0615 12.1578 86.7707 11.8224 86.4208C11.4824 86.0572 10.748 85.8754 9.56941 85.8754H4.40619V88.6611H9.56941ZM4.40619 96.632H0.0271987L0 92.6238V86.7207L0.0271987 82.708H11.6093C13.5767 82.708 14.9276 83.0534 15.6438 83.7441C16.351 84.4485 16.7091 85.4346 16.7091 86.7162V87.8386C16.7091 89.1247 16.351 90.1108 15.6438 90.8015C14.9276 91.4923 13.5767 91.824 11.6093 91.824H4.40619V96.6229V96.632Z" fill="white"/>
<path d="M31.6094 88.0976C31.6094 87.3251 31.4281 86.7661 31.0972 86.4162C30.7618 86.0527 30.0093 85.8709 28.8624 85.8709H26.3873C25.3265 85.8709 24.6058 86.0845 24.2431 86.4708C23.8805 86.8434 23.7173 87.3842 23.7173 88.0931V91.2696C23.7173 91.9467 23.8805 92.4966 24.2431 92.8692C24.6058 93.2691 25.3265 93.46 26.3873 93.46H28.8624C30.0047 93.46 30.7527 93.2737 31.0836 92.9283C31.3783 92.5966 31.5641 92.0194 31.6049 91.2833V88.0976M34.9186 95.6231C34.216 96.2912 32.8561 96.632 30.9068 96.632H24.4562C22.5115 96.632 21.147 96.3184 20.4308 95.6231C19.6556 94.9824 19.293 93.9553 19.293 92.6238V86.7207C19.293 85.3801 19.6556 84.3713 20.4308 83.7032C21.147 83.0579 22.5115 82.708 24.4562 82.708H30.9068C32.8515 82.708 34.2115 83.0534 34.9186 83.7441C35.6394 84.4485 36.0156 85.4346 36.0156 86.7162V92.6193C36.0156 93.9235 35.6439 94.9006 34.9186 95.6186" fill="white"/>
<path d="M54.1891 95.6231C53.4729 96.2912 52.1311 96.632 50.1909 96.632H43.7539C41.8092 96.632 40.4583 96.3184 39.6968 95.6231C38.9397 94.9824 38.5635 93.9553 38.5635 92.6238V86.7207C38.5635 85.3801 38.9397 84.3713 39.6968 83.7032C40.4583 83.0579 41.8092 82.708 43.7539 82.708H50.1909C52.1311 82.708 53.4729 83.0534 54.1891 83.7441C54.9326 84.4485 55.2861 85.4346 55.2861 86.7162V88.0931H50.8845C50.8845 87.3206 50.7122 86.7616 50.3904 86.4117C50.0413 86.0481 49.307 85.8664 48.1556 85.8664H45.685C44.6197 85.8664 43.899 86.0799 43.5136 86.4662C43.1646 86.8389 42.9697 87.3796 42.9697 88.0886V91.2651C42.9697 91.9422 43.1646 92.4921 43.5136 92.8647C43.8944 93.2646 44.6197 93.4555 45.685 93.4555H48.1556C49.307 93.4555 50.0413 93.2691 50.3904 92.9238C50.7122 92.592 50.8845 92.0149 50.8845 91.2651H55.2861V92.6148C55.2861 93.919 54.9326 94.896 54.1891 95.614" fill="white"/>
<path d="M62.2352 96.6323H57.8789L57.8472 92.6242V86.7256L57.8789 82.7129H62.2352V88.048H70.1365V82.7129H74.5698V96.6323H70.1365V91.2109H62.2352V96.6323Z" fill="white"/>
<path d="M82.7791 91.2109H81.528C81.5552 91.9289 81.7274 92.5015 82.0946 92.8787C82.4437 93.274 83.178 93.4694 84.2479 93.4694H93.849V96.6369H82.3167C80.3675 96.6369 79.0257 96.3233 78.2505 95.628C77.5116 94.9873 77.1309 93.9602 77.1309 92.6287V86.7256C77.1309 85.385 77.5116 84.3761 78.2505 83.7081C79.0257 83.0628 80.3675 82.7129 82.3167 82.7129H93.849V85.8758H84.2479C83.178 85.8758 82.4437 86.0894 82.0946 86.4756C81.7274 86.8483 81.5507 87.3618 81.528 88.048H93.849V91.2109H82.7791Z" fill="white"/>
<path d="M127.657 85.8712H121.624V82.7129H138.324V85.8712H132.036V96.6323H127.657V85.8712Z" fill="white"/>
<path d="M144.692 90.6749V93.4561H149.851C151.016 93.4561 151.76 93.2743 152.095 92.9335C152.426 92.5699 152.589 92.2882 152.589 92.0792C152.589 91.8519 152.426 91.5475 152.095 91.2066C151.76 90.8295 151.016 90.6704 149.851 90.6704H144.692M144.692 87.503H151.905C153.849 87.503 155.205 87.8574 155.916 88.5618C156.642 89.2298 157 90.2296 157 91.5247V92.6245C157 93.906 156.642 94.9058 155.916 95.5874C155.205 96.2827 153.849 96.6326 151.905 96.6326H140.309L140.282 92.6245V86.7032L140.309 82.7041H144.692V87.5075V87.503Z" fill="white"/>
<path d="M100.635 89.3159C100.635 87.5754 102.168 87.7663 102.168 87.7663H106.601V90.7065H102.136C102.136 90.7065 100.635 90.7611 100.635 89.3159ZM115.413 90.7065H110.944V87.7663H115.386C115.386 87.7663 116.918 87.5754 116.918 89.3159C116.918 90.7611 115.409 90.7065 115.409 90.7065M117.743 84.817H110.944V82.6221H106.619V84.817H99.6562C99.6562 84.817 95.6807 84.9533 95.6807 89.1887C95.6807 93.4241 99.765 93.4922 99.765 93.4922H106.624V96.7415H110.948V93.4922H117.639C117.639 93.4922 121.705 93.4559 121.705 89.1887C121.705 84.9215 117.748 84.817 117.748 84.817" fill="white"/>
<path d="M74.334 39.0908H68.2007V68.0431H74.334V39.0908Z" fill="white"/>
<path d="M81.605 33.1104H75.4717V68.043H81.605V33.1104Z" fill="white"/>
<path d="M88.8536 39.0908H82.7339V68.0431H88.8536V39.0908Z" fill="white"/>
<path d="M59.8145 40.2368L53.6948 35.0516V20.2324H59.8145V40.2368Z" fill="white"/>
<path d="M67.0947 46.6939L60.9478 40.9816V13.6699H67.0947V46.6939Z" fill="white"/>
<path d="M74.334 7.20801H68.2007V38.1825H74.334V7.20801Z" fill="white"/>
<path d="M81.605 0.741211H75.4717V31.8384H81.605V0.741211Z" fill="white"/>
<path d="M97.2627 40.2368L103.382 35.0516V20.2324H97.2627V40.2368Z" fill="white"/>
<path d="M89.9961 46.6939L96.1067 40.9816V13.6699H89.9961V46.6939Z" fill="white"/>
<path d="M88.8536 7.20801H82.7339V38.1825H88.8536V7.20801Z" fill="white"/>
</g>
<defs>
<clipPath id="clip0_1087_127887">
<rect width="157" height="96" fill="white" transform="translate(0 0.741211)"/>
</clipPath>
</defs>
</svg>
