<svg width="91" height="97" viewBox="0 0 91 97" fill="none" xmlns="http://www.w3.org/2000/svg">
<g clip-path="url(#clip0_1087_127733)">
<path d="M44.4069 27.2278H42.9999V23.5178L47.8882 16.5664L51.9532 27.2278H50.2025V31.1086H57.5249V27.2278H56.138L50.6062 12.7094L56.2899 4.62602H57.5249V0.741211H50.1985V4.62602H51.6134L42.9999 16.8723V4.62205H44.4069V0.741211H37.3082V4.62205H38.6912V27.2278H37.3082V31.1086H44.4069V27.2278ZM89.6247 12.0302L90.7998 8.33208L81.4349 5.38073L80.2598 9.07885L81.6827 9.52771L68.9563 29.2298L67.8012 28.8683L66.6261 32.5704L73.6048 34.775L74.7839 31.0769L72.8054 30.4572L75.7192 25.9368L83.5933 28.4115L83.3654 33.778L81.3909 33.1583L80.2158 36.8564L87.1985 39.0491L88.3736 35.3509L87.2185 34.9895L88.1938 11.5932L89.6247 12.0302ZM83.7331 25.1384L77.5059 23.1841L84.2647 12.6975L83.7331 25.1384ZM26.4484 30.2308L25.2493 26.4532L21.5241 27.6449L22.4674 30.5962L12.0753 33.8733L5.18849 12.34L15.5806 9.05899L16.5479 12.0779L20.2731 10.8862L18.1147 4.18908L14.3895 5.38073L14.7213 6.40953L12.8827 6.96961L11.5237 6.26256L2.67039 9.0431L0.799805 12.6538V12.6737L8.23019 35.9666L12.0553 37.9289L24.5179 33.9925L26.4484 30.2308ZM53.1123 69.206L47.5445 52.1732L41.9767 69.206H23.9583L38.5353 79.7323L32.9675 96.7412L47.5445 86.2149L62.1255 96.7412L56.5577 79.7084L71.1347 69.1821L53.1123 69.206Z" fill="white"/>
</g>
<defs>
<clipPath id="clip0_1087_127733">
<rect width="90" height="96" fill="white" transform="translate(0.799805 0.741211)"/>
</clipPath>
</defs>
</svg>
