<svg width="200" height="97" viewBox="0 0 200 97" fill="none" xmlns="http://www.w3.org/2000/svg">
<g clip-path="url(#clip0_1087_127703)">
<path fill-rule="evenodd" clip-rule="evenodd" d="M61.7754 63.5059H74.466V67.6471H68.4285V96.7414H61.7754V63.5059Z" fill="white"/>
<path fill-rule="evenodd" clip-rule="evenodd" d="M81.9931 84.2629L83.134 67.6471H83.5142L84.6551 84.2629H81.9931ZM74.6226 96.7414H81.1384L81.7539 87.9149H84.8903L85.5098 96.7414H92.0217L88.5521 63.5059H78.0922L74.6226 96.7414Z" fill="white"/>
<path fill-rule="evenodd" clip-rule="evenodd" d="M101.556 85.1084V91.3751C101.556 92.2205 102.211 92.4632 102.591 92.4632C103.219 92.4632 103.654 91.9465 103.654 91.3751V83.6367C103.654 82.6033 103.462 81.4564 100.98 81.4564H98.2789V77.8045H101.09C102.972 77.8045 103.654 77.37 103.654 75.3268V68.7352C103.654 68.1638 103.219 67.6471 102.591 67.6471C102.211 67.6471 101.556 67.8663 101.556 68.7352V74.1564H94.8994V69.4437C94.8994 67.1265 95.1739 63.5059 99.8392 63.5059H105.351C110.017 63.5059 110.319 67.1304 110.319 69.4437V74.7553C110.319 78.3799 107.782 79.3584 105.791 79.2762V79.605C110.264 79.4954 110.319 82.9282 110.319 84.0985V90.7997C110.319 93.1443 110.017 96.7375 105.351 96.7375H99.8392C95.1739 96.7375 94.8994 93.1404 94.8994 90.7997V85.1045H101.556V85.1084Z" fill="white"/>
<path fill-rule="evenodd" clip-rule="evenodd" d="M114.678 63.5059H130.094V96.7414H123.437V67.6471H121.335V96.7414H114.678V63.5059Z" fill="white"/>
<path fill-rule="evenodd" clip-rule="evenodd" d="M141.118 81.7852V67.6471H141.992C142.702 67.6471 143.219 68.246 143.219 69.3106V80.1256C143.219 81.1864 142.702 81.7891 141.992 81.7891H141.118V81.7852ZM134.461 96.7414H141.118V85.4372H144.936C149.574 85.4372 149.876 81.84 149.876 79.4993V69.4476C149.876 67.1304 149.574 63.5098 144.936 63.5098H134.461V96.7454V96.7414Z" fill="white"/>
<path fill-rule="evenodd" clip-rule="evenodd" d="M163.003 91.3751C163.003 91.9465 162.567 92.4632 161.94 92.4632C161.56 92.4632 160.905 92.2166 160.905 91.3751V68.7392C160.905 67.8663 161.56 67.651 161.94 67.651C162.567 67.651 163.003 68.1677 163.003 68.7392V91.3751ZM154.244 90.8036C154.244 93.1482 154.546 96.7414 159.184 96.7414H164.724C169.362 96.7414 169.663 93.1443 169.663 90.8036V69.4476C169.663 67.1304 169.362 63.5098 164.724 63.5098H159.184C154.546 63.5098 154.244 67.1343 154.244 69.4476V90.8036Z" fill="white"/>
<path fill-rule="evenodd" clip-rule="evenodd" d="M191.324 63.5059H200V96.7414H193.343V75.9022H193.096L189.658 96.7414H184.338L180.927 75.9022H180.68V96.7414H174.023V63.5059H182.672L187.012 86.8776L191.324 63.5059Z" fill="white"/>
<path fill-rule="evenodd" clip-rule="evenodd" d="M53.1464 18.0655C51.1077 9.16068 45.9993 1.91156 45.2976 0.741211C44.1842 2.40475 40.1108 8.80449 38.0407 15.8892C35.7786 23.8155 35.4454 30.8454 36.2256 37.7384C37.0018 44.6587 39.9265 51.7669 39.9265 51.7669C41.4829 55.4697 43.8117 59.4779 45.3289 61.4389C47.5519 58.5502 52.6642 49.9429 54.2559 38.7208C55.1419 32.4542 55.1811 26.9782 53.1464 18.0733V18.0655ZM45.2976 59.2C44.2979 57.3212 42.7414 53.7514 42.5924 48.1932C42.5532 42.8542 44.7017 38.2511 45.3289 37.2961C45.8896 38.2511 47.74 42.2554 47.9596 47.7313C48.1086 53.0703 46.3326 57.2938 45.2976 59.2ZM52.5544 33.1861C52.4799 36.5915 52.0722 40.1887 51.5547 42.3376C51.7389 38.6308 51.2959 33.4288 50.4452 29.3424C49.5944 25.2833 47.1833 18.4726 45.2623 15.3412C43.4863 18.3395 41.2987 24.2226 40.15 29.315C38.9973 34.4074 38.966 40.5918 38.966 42.4472C38.6602 40.8932 37.8957 35.3116 38.1113 29.726C38.2917 25.1229 39.3737 20.3553 39.9657 18.1751C42.2239 10.9025 44.7801 6.2446 45.2623 5.50872C45.7406 6.2446 48.9632 11.9907 50.6334 18.0107C52.2957 24.0308 52.6289 29.8042 52.5583 33.1822L52.5544 33.1861Z" fill="white"/>
<path fill-rule="evenodd" clip-rule="evenodd" d="M48.7513 63.506H33.2575V73.8865C33.2575 73.8865 33.2811 73.8591 33.2967 73.8591C36.9467 70.2071 42.8667 70.2071 46.5206 73.8591C50.1705 77.4836 50.1705 83.3941 46.5206 87.0421C46.5049 87.0695 46.4892 87.0695 46.4696 87.0969C46.4696 87.0969 46.4304 87.1243 46.4147 87.1517C42.7726 90.7489 38.0131 92.5455 33.2536 92.5455C28.4941 92.5455 23.6915 90.7489 20.0494 87.0969C13.6198 80.6972 12.8592 70.7512 17.7598 63.506C18.4185 62.5235 19.183 61.5998 20.0494 60.7269C23.6955 57.0749 28.4745 55.2783 33.2536 55.2783V30.3252C14.89 30.3252 0 45.1718 0 63.506C0 81.8402 14.89 96.7142 33.2575 96.7142C42.8353 96.7142 51.4604 92.6551 57.5293 86.2006V63.5099H48.7513V63.506Z" fill="white"/>
</g>
<defs>
<clipPath id="clip0_1087_127703">
<rect width="200" height="96" fill="white" transform="translate(0 0.741211)"/>
</clipPath>
</defs>
</svg>
