<svg width="145" height="97" viewBox="0 0 145 97" fill="none" xmlns="http://www.w3.org/2000/svg">
<g clip-path="url(#clip0_1087_127713)">
<path d="M65.2124 12.8266C72.3511 8.77291 79.3812 4.78438 86.5007 0.741211C98.7704 21.722 111.004 42.6418 123.316 63.6961C122.528 63.6961 121.902 63.6961 121.277 63.6961C112.765 63.6961 104.251 63.6856 95.7386 63.7192C95.0211 63.7213 94.672 63.4923 94.3335 62.9081C90.0456 55.4921 85.7343 48.0887 81.4251 40.6853C76.1961 31.7059 70.963 22.7286 65.7319 13.7491C65.5743 13.4801 65.4274 13.2069 65.2145 12.8245L65.2124 12.8266Z" fill="white"/>
<path d="M63.7879 63.6209V69.6247H57.6988C57.6988 68.1915 57.6477 66.7331 57.7158 65.2832C57.7669 64.1883 57.4795 63.2679 56.9196 62.3201C51.6481 53.4016 46.417 44.4579 41.1753 35.5205C41.088 35.3734 41.0156 35.2179 40.8857 34.9678C47.9606 30.9225 55.0034 26.8962 62.1592 22.8047C70.0941 36.3905 78.0035 49.9343 85.998 63.623H63.7857L63.7879 63.6209Z" fill="white"/>
<path d="M86.1836 73.7305V63.6982H92.0746V96.0583H86.19C86.1687 95.6128 86.1495 95.2072 86.124 94.6608C82.3875 96.8253 78.5105 97.3528 74.4738 95.9112C71.8253 94.9655 69.7303 93.255 68.2208 90.9161C65.0656 86.0302 65.6234 79.8583 69.543 75.668C73.4029 71.5408 80.1477 70.1497 86.1836 73.7305ZM79.1003 90.9917C82.9538 90.9665 86.1516 87.8711 86.1453 84.1705C86.1389 80.3374 82.8857 77.1727 79.0002 77.2147C75.2871 77.2567 72.1106 80.4404 72.1213 84.1116C72.1319 87.8711 75.3233 91.0148 79.1003 90.9917Z" fill="white"/>
<path d="M48.7123 96.069C48.6868 95.6235 48.6633 95.2158 48.6357 94.7514C41.4714 98.2251 35.2163 97.332 30.5792 90.6473C27.5049 86.2133 28.1181 80.2431 31.5969 76.1684C33.694 73.7118 36.3766 72.2387 39.6 71.7995C42.7893 71.3645 45.7913 71.9466 48.6591 73.7854V63.709H54.6396V96.0711H48.7102L48.7123 96.069ZM41.5417 90.9898C45.3782 91.0046 48.6463 87.886 48.6463 84.2106C48.6463 80.4133 45.4336 77.2128 41.6247 77.2128C37.7775 77.2128 34.5435 80.3545 34.5073 84.1287C34.4711 87.802 37.7264 90.9772 41.5417 90.9898Z" fill="white"/>
<path d="M114.016 73.6817C114.048 73.0492 114.072 72.5406 114.099 71.9774H120.067V96.0851H114.11C114.076 95.627 114.046 95.2004 114.003 94.6394C110.474 96.7576 106.799 97.3019 102.939 96.0725C100.182 95.1941 97.9973 93.5214 96.3558 91.1657C93.141 86.5551 93.5178 80.3075 97.1755 76.0416C100.714 71.9165 107.653 69.8907 114.014 73.6796L114.016 73.6817ZM107.093 90.9913C110.855 90.9976 114.067 87.8706 114.057 84.2141C114.044 80.358 110.889 77.1911 107.08 77.2121C103.292 77.2352 100.109 80.3874 100.109 84.1196C100.109 87.8685 103.275 90.985 107.093 90.9913Z" fill="white"/>
<path d="M26.551 96.0874H20.6705C20.6322 95.6293 20.5982 95.1985 20.5534 94.6501C17.0874 96.6737 13.4808 97.2748 9.6719 96.1673C6.88498 95.3582 4.66226 93.717 2.97819 91.397C-0.411252 86.7234 -0.151509 80.6503 3.59561 76.1028C7.49602 71.3661 13.3296 70.5087 20.5598 73.6504C20.5918 73.0935 20.6216 72.5618 20.6599 71.9083C22.2695 71.9083 23.8194 71.9083 25.3715 71.9083C25.7504 71.9083 26.1294 71.9083 26.5531 71.9083V96.0853L26.551 96.0874ZM13.4744 90.9936C17.3556 90.9936 20.6258 87.8288 20.5982 84.1071C20.5705 80.4002 17.3386 77.2375 13.5617 77.2165C9.71022 77.1976 6.48259 80.3456 6.47621 84.124C6.47195 87.8708 9.65274 90.9936 13.4744 90.9936Z" fill="white"/>
<path d="M15.959 56.5615C23.1168 52.47 30.1363 48.4583 37.2601 44.3857C40.9965 50.793 44.7139 57.1667 48.5206 63.6938C47.273 63.6938 46.2531 63.6938 45.2333 63.6938C37.143 63.6938 29.0526 63.7001 20.9622 63.6769C20.5982 63.6769 20.0531 63.5298 19.8956 63.2714C18.5607 61.088 17.2982 58.8625 15.959 56.5615Z" fill="white"/>
<path d="M122.522 88.4237H128.732C129.937 91.7566 133.101 93.1582 136.199 91.7334C136.423 91.6305 136.64 91.5065 136.836 91.3594C137.542 90.8256 138.087 90.1763 137.953 89.2348C137.815 88.2661 137.057 87.8164 136.21 87.5999C135.115 87.3225 133.983 87.1838 132.873 86.9569C131.279 86.6291 129.673 86.3391 128.102 85.9188C125.303 85.1686 123.555 83.3487 123.118 80.5118C122.66 77.5277 123.763 75.0165 126.361 73.4909C130.759 70.9082 135.356 70.9271 139.818 73.3795C142.126 74.6488 143.259 76.809 143.589 79.4989H137.442C137.34 78.2905 136.961 77.1495 135.652 76.6998C133.919 76.1029 132.13 76.1009 130.472 76.8658C129.94 77.1116 129.399 77.9039 129.369 78.4734C129.341 78.9714 129.914 79.7132 130.419 79.9759C131.277 80.4214 132.277 80.6294 133.24 80.8375C134.936 81.2031 136.669 81.4133 138.351 81.8315C140.757 82.4283 142.899 83.5021 144.015 85.8683C145.367 88.7368 144.296 92.6076 141.679 94.5536C137.683 97.525 129.403 97.4115 125.505 94.3308C123.621 92.843 122.614 90.8845 122.524 88.4216L122.522 88.4237Z" fill="white"/>
<path d="M57.7202 96.0544V72.0098H63.7433V96.0544H57.7202Z" fill="white"/>
</g>
<defs>
<clipPath id="clip0_1087_127713">
<rect width="144" height="96" fill="white" transform="translate(0.600098 0.741211)"/>
</clipPath>
</defs>
</svg>
