<svg width="102" height="97" viewBox="0 0 102 97" fill="none" xmlns="http://www.w3.org/2000/svg">
<g clip-path="url(#clip0_1087_127735)">
<path fill-rule="evenodd" clip-rule="evenodd" d="M14.1128 0.741211H86.943C82.6422 9.28109 78.3494 17.8249 74.0506 26.3648C72.3143 25.2422 70.604 24.0801 68.8457 22.9911C65.7983 21.1294 62.5352 19.57 59.0726 18.6333C59.0806 37.3732 59.0906 56.1111 59.1006 74.851C60.2701 74.4261 61.4376 73.9952 62.6071 73.5703C65.5608 79.7168 68.5145 85.8633 71.4641 92.0098C69.171 92.8478 66.9079 93.7727 64.5749 94.502C60.2202 95.8716 55.6719 96.6543 51.1017 96.7432H49.9621C48.7507 96.7116 47.5413 96.6503 46.3359 96.5278C41.8894 96.0969 37.5187 95.002 33.3517 93.417C32.0983 92.9446 30.841 92.4821 29.5897 92.0058C32.5434 85.8613 35.4931 79.7148 38.4468 73.5683C39.6163 73.9932 40.7838 74.4241 41.9533 74.849C41.9632 56.1071 41.9732 37.3672 41.9812 18.6253C38.5106 19.5681 35.2436 21.1373 32.1861 23.003C30.4359 24.088 28.7315 25.2442 27.0032 26.3608C22.7044 17.8249 18.4136 9.27911 14.1128 0.741211ZM17.3439 2.72944C18.4874 4.99435 19.625 7.26322 20.7646 9.52813C20.7646 9.53209 20.7706 9.53802 20.7706 9.54197C20.8803 9.76134 20.9901 9.98072 21.0999 10.2001C21.0999 10.2041 21.1058 10.21 21.1058 10.2139C21.1597 10.3226 21.2156 10.4294 21.2695 10.5381C21.2695 10.542 21.2755 10.5479 21.2755 10.5519C21.3673 10.7337 21.4571 10.9155 21.5489 11.0954C21.5489 11.0993 21.5549 11.1053 21.5549 11.1092C21.5888 11.1784 21.6247 11.2476 21.6607 11.3187C21.6607 11.3227 21.6666 11.3306 21.6666 11.3326C21.7205 11.4393 21.7744 11.546 21.8283 11.6547C21.8303 11.6587 21.8343 11.6646 21.8363 11.6685C21.9081 11.8128 21.98 11.9571 22.0538 12.0994C22.0538 12.1033 22.0598 12.1112 22.0598 12.1132C23.9697 15.9019 25.8697 19.6965 27.7836 23.4833C27.8694 23.4319 27.9512 23.3785 28.035 23.3251C28.039 23.3232 28.047 23.3172 28.051 23.3153C28.0889 23.2896 28.1667 23.2402 28.2047 23.2145C28.2086 23.2125 28.2146 23.2085 28.2166 23.2066C28.2546 23.1809 28.3324 23.1295 28.3723 23.1058C28.3763 23.1038 28.3843 23.0979 28.3883 23.0959C28.4262 23.0702 28.504 23.0208 28.5419 22.9951C28.5459 22.9931 28.5539 22.9872 28.5579 22.9852C29.0987 22.6334 29.6356 22.2777 30.1784 21.9279C30.1804 21.9279 30.1864 21.9239 30.1904 21.9219C30.2303 21.8962 30.3102 21.8468 30.3481 21.8211C30.3521 21.8192 30.3581 21.8152 30.36 21.8132C31.0226 21.3903 31.6972 20.9851 32.3777 20.5938C32.3817 20.5938 32.3877 20.5879 32.3917 20.5859C32.5174 20.5128 32.6452 20.4416 32.7709 20.3705C32.7749 20.3705 32.7809 20.3645 32.7829 20.3626C32.9106 20.2914 33.0403 20.2203 33.168 20.1491C33.172 20.1491 33.178 20.1452 33.18 20.1432C33.3816 20.0325 33.5832 19.9238 33.7867 19.8151C33.7887 19.8151 33.7947 19.8112 33.7987 19.8092C35.6048 18.8526 37.4768 18.0186 39.4127 17.3526C39.4167 17.3526 39.4287 17.3466 39.4326 17.3466C39.4706 17.3348 39.5444 17.3091 39.5823 17.2972C39.5883 17.2953 39.5983 17.2913 39.6043 17.2893C39.6382 17.2755 39.7081 17.2518 39.742 17.2379C39.75 17.236 39.7659 17.23 39.7739 17.2281C39.8098 17.2182 39.8817 17.1945 39.9176 17.1846C39.9236 17.1846 39.9356 17.1786 39.9416 17.1767C39.9775 17.1648 40.0513 17.1411 40.0872 17.1292C40.0932 17.1292 40.1032 17.1233 40.1072 17.1233C40.4724 17.0087 40.8376 16.898 41.2049 16.7933C41.2108 16.7933 41.2248 16.7893 41.2308 16.7873C41.2647 16.7794 41.3286 16.7636 41.3625 16.7537L41.4084 16.7794L41.4623 16.7537L41.4683 16.7023C41.596 16.7063 41.7158 16.647 41.8395 16.6213C41.8435 16.6213 41.8515 16.6174 41.8555 16.6174C41.9992 16.5818 42.1428 16.5442 42.2885 16.5087C42.2925 16.5087 42.3005 16.5047 42.3045 16.5047C42.3564 16.4928 42.4622 16.4672 42.5161 16.4553C42.518 16.4553 42.526 16.4553 42.528 16.4533C42.9451 16.3565 43.3642 16.2675 43.7853 16.1885C43.8153 16.1924 43.8771 16.1984 43.9071 16.2003C43.9749 16.645 43.943 17.0956 43.949 17.5443C43.941 34.5489 43.933 51.5516 43.925 68.5563C43.931 71.5959 43.9091 74.6375 43.931 77.6772C43.8911 77.6653 43.8093 77.6416 43.7694 77.6298C43.7654 77.6298 43.7574 77.6258 43.7534 77.6238C43.6097 77.5705 43.466 77.5151 43.3203 77.4637C43.3163 77.4637 43.3084 77.4598 43.3064 77.4578C42.9531 77.3274 42.5999 77.1989 42.2466 77.0704C42.2426 77.0704 42.2366 77.0665 42.2327 77.0645C42.085 77.0111 41.9393 76.9558 41.7936 76.9044C41.7896 76.9044 41.7816 76.9005 41.7776 76.8985C41.7397 76.8847 41.6659 76.857 41.6299 76.8451C41.626 76.8451 41.62 76.8412 41.616 76.8392C41.4683 76.7858 41.3226 76.7325 41.1769 76.6791C41.1729 76.6791 41.1669 76.6752 41.1629 76.6732C40.8656 76.5645 40.5682 76.4538 40.2709 76.3471C40.2649 76.3471 40.2549 76.3412 40.2489 76.3392C40.213 76.3253 40.1411 76.2997 40.1052 76.2858C40.1012 76.2858 40.0932 76.2819 40.0892 76.2799C39.9436 76.2265 39.7999 76.1732 39.6542 76.1198C39.6502 76.1198 39.6442 76.1159 39.6402 76.1139C39.5803 76.0902 39.5185 76.0664 39.4586 76.0427C38.9696 77.0487 38.4907 78.0586 38.0037 79.0646C38.0037 79.0685 37.9997 79.0745 37.9977 79.0784C36.1038 83.0312 34.1958 86.976 32.3119 90.9307L32.4176 90.9584C32.4176 90.9584 32.4376 90.9643 32.4436 90.9663C33.3377 91.3062 34.2318 91.6442 35.1298 91.9663C35.1338 91.9663 35.1438 91.9722 35.1478 91.9722C35.515 92.1047 35.8862 92.2292 36.2574 92.3537C36.2634 92.3537 36.2774 92.3596 36.2834 92.3616C36.3193 92.3734 36.3892 92.3952 36.4251 92.4051C36.4331 92.407 36.449 92.413 36.457 92.4149C36.4909 92.4268 36.5628 92.4505 36.5967 92.4624C36.6027 92.4624 36.6147 92.4683 36.6207 92.4703C36.91 92.5651 37.2014 92.6561 37.4948 92.743C37.5008 92.743 37.5108 92.747 37.5147 92.7489C37.6944 92.8043 37.876 92.8577 38.0576 92.909C38.0616 92.909 38.0696 92.913 38.0736 92.913C38.2532 92.9545 38.4268 93.0395 38.6144 93.0513L38.6184 93.1007L38.6723 93.1264L38.7182 93.1007C38.7501 93.1087 38.814 93.1245 38.8459 93.1324C38.8499 93.1324 38.8599 93.1363 38.8659 93.1383C39.0634 93.1778 39.255 93.2707 39.4566 93.2766L39.4606 93.326L39.5145 93.3517L39.5604 93.326C39.6781 93.3557 39.7979 93.3794 39.9176 93.413C39.9216 93.413 39.9316 93.417 39.9356 93.417C39.9695 93.4249 40.0413 93.4387 40.0753 93.4466L40.0872 93.496L40.1451 93.5158L40.189 93.4861C40.2309 93.4901 40.3168 93.496 40.3607 93.5V93.5494C40.3866 93.5494 40.4365 93.5553 40.4604 93.5573H40.5862L40.5922 93.6067L40.6461 93.6324L40.692 93.6047C42.1828 93.9348 43.6836 94.2253 45.2003 94.4111C47.6451 94.7372 50.1218 94.8241 52.5865 94.7095C54.7619 94.5988 56.9252 94.3044 59.0627 93.8854L59.1106 93.9111L59.1625 93.8854L59.1664 93.836C59.3979 93.836 59.6215 93.747 59.851 93.7154L59.8969 93.7431L59.9508 93.7174L59.9548 93.668C60.2441 93.6541 60.5215 93.5395 60.8089 93.4921L60.8548 93.5197L60.9087 93.494L60.9127 93.4446C61.1083 93.4426 61.2899 93.3557 61.4835 93.326L61.5294 93.3517L61.5833 93.326L61.5873 93.2766H61.6531C63.2417 92.8616 64.8084 92.3695 66.3491 91.8042C66.3531 91.8042 66.3611 91.8003 66.3651 91.7983C66.6624 91.6896 66.9578 91.577 67.2532 91.4683C67.2571 91.4683 67.2631 91.4643 67.2671 91.4623C67.7501 91.2805 68.2351 91.1007 68.718 90.9188C66.3451 85.9562 63.9482 81.0034 61.5793 76.0407C61.4675 76.0862 61.3538 76.1277 61.24 76.1692C61.234 76.1692 61.224 76.1751 61.2201 76.1771C61.0744 76.2285 60.9287 76.2819 60.783 76.3352C60.779 76.3352 60.773 76.3392 60.769 76.3412C60.6233 76.3945 60.4776 76.4479 60.332 76.5012C60.328 76.5012 60.32 76.5052 60.316 76.5072C60.1144 76.5783 59.9148 76.6534 59.7153 76.7265C59.7113 76.7265 59.7033 76.7325 59.6973 76.7325C59.5496 76.7839 59.4039 76.8372 59.2583 76.8926C59.2543 76.8926 59.2483 76.8965 59.2443 76.8985C59.0447 76.9716 58.8471 77.0428 58.6496 77.1179C58.6436 77.1179 58.6336 77.1238 58.6296 77.1258C58.4839 77.1772 58.3362 77.2305 58.1925 77.2859C58.1885 77.2859 58.1806 77.2898 58.1766 77.2918C58.0289 77.3452 57.8832 77.3965 57.7375 77.4519C57.7335 77.4519 57.7275 77.4558 57.7235 77.4578C57.6856 77.4716 57.6118 77.4993 57.5739 77.5131C57.5699 77.5131 57.5619 77.5171 57.5579 77.5191C57.4062 77.5744 57.2565 77.6317 57.1029 77.6792C57.1228 77.3926 57.1088 77.104 57.1128 76.8175C57.1029 64.2992 57.1068 51.7789 57.0889 39.2606C57.0909 31.5607 57.0849 23.8607 57.0769 16.1588C57.3663 16.2003 57.6517 16.2972 57.9431 16.313L57.9471 16.3624L58.0009 16.3861L58.0468 16.3585C58.1806 16.3782 58.3103 16.4296 58.448 16.4237L58.452 16.4731L58.5059 16.4968L58.5518 16.4711C58.7434 16.5008 58.929 16.5838 59.1245 16.5897L59.1285 16.6391L59.1824 16.6648L59.2283 16.6371C59.2602 16.645 59.3261 16.6608 59.358 16.6687C59.364 16.6687 59.374 16.6727 59.378 16.6747C59.4139 16.6806 59.4858 16.6925 59.5217 16.6984L59.5277 16.7478L59.5816 16.7755L59.6275 16.7518C59.6574 16.7518 59.7173 16.7537 59.7452 16.7537L59.7512 16.8031L59.8051 16.8288L59.851 16.8031C59.8829 16.811 59.9468 16.8269 59.9787 16.8367C59.9847 16.8387 59.9947 16.8407 60.0007 16.8427C60.1803 16.8921 60.3579 16.9533 60.5415 16.9988C60.5495 17.0008 60.5655 17.0047 60.5734 17.0067C60.6094 17.0186 60.6792 17.0423 60.7151 17.0541C60.7211 17.0561 60.7351 17.0601 60.7411 17.062C61.1881 17.2004 61.6292 17.3506 62.0702 17.5047C62.0762 17.5067 62.0862 17.5107 62.0922 17.5127C63.7467 18.1075 65.3572 18.823 66.9159 19.6333C66.9199 19.6353 66.9258 19.6392 66.9298 19.6412C67.1693 19.7657 67.4088 19.8922 67.6463 20.0226C67.6503 20.0226 67.6563 20.0286 67.6603 20.0286C67.8279 20.1175 67.9936 20.2104 68.1592 20.3033C68.1612 20.3053 68.1692 20.3072 68.1712 20.3092C68.3009 20.3804 68.4286 20.4535 68.5564 20.5266C68.5604 20.5286 68.5644 20.5325 68.5683 20.5325C68.7899 20.657 69.0094 20.7875 69.2289 20.916C69.2329 20.9179 69.2389 20.9219 69.2429 20.9239C69.3307 20.9752 69.4205 21.0286 69.5103 21.082C69.5143 21.0839 69.5203 21.0879 69.5243 21.0899C69.8217 21.2677 70.117 21.4515 70.4124 21.6334C70.4164 21.6354 70.4244 21.6413 70.4284 21.6433C70.6279 21.7717 70.8315 21.8982 71.0311 22.0267C71.0351 22.0286 71.043 22.0346 71.045 22.0366C71.085 22.0622 71.1648 22.1156 71.2047 22.1413C71.2067 22.1433 71.2127 22.1472 71.2167 22.1472C71.2546 22.1729 71.3324 22.2243 71.3723 22.248C71.3743 22.25 71.3823 22.254 71.3843 22.2579C71.4242 22.2836 71.5021 22.335 71.542 22.3607C71.544 22.3627 71.55 22.3666 71.552 22.3686C71.5919 22.3943 71.6697 22.4457 71.7096 22.4714C71.7116 22.4733 71.7176 22.4773 71.7216 22.4793C71.7595 22.505 71.8393 22.5563 71.8773 22.582C71.8793 22.584 71.8852 22.588 71.8872 22.588C72.1666 22.7698 72.4441 22.9536 72.7235 23.1354C72.7274 23.1374 72.7334 23.1413 72.7374 23.1453C72.9091 23.2579 73.0787 23.3706 73.2503 23.4813C74.1225 21.7816 74.9706 20.0681 75.8328 18.3625C75.8328 18.3585 75.8368 18.3526 75.8388 18.3487C75.9106 18.2044 75.9845 18.0581 76.0563 17.9139C76.0583 17.9099 76.0623 17.902 76.0623 17.9C76.1162 17.7913 76.1681 17.6846 76.224 17.5798C76.226 17.5759 76.23 17.568 76.23 17.566C76.2639 17.4949 76.2998 17.4257 76.3357 17.3565C76.3377 17.3526 76.3397 17.3466 76.3417 17.3427C76.3756 17.2715 76.4116 17.2004 76.4475 17.1312C76.4475 17.1273 76.4515 17.1213 76.4535 17.1174C76.5253 16.9731 76.5992 16.8288 76.671 16.6846C76.673 16.6806 76.677 16.6747 76.677 16.6707C76.8247 16.3762 76.9724 16.0837 77.1201 15.7912C77.1201 15.7873 77.124 15.7814 77.126 15.7774C79.2455 11.5598 81.369 7.34227 83.4904 3.12471C83.4904 3.12076 83.4944 3.11285 83.4964 3.11087C83.5583 2.98241 83.6241 2.85395 83.694 2.72746C82.0176 2.70967 80.3412 2.72548 78.6667 2.71955H39.4546C32.0844 2.72351 24.7141 2.70967 17.3439 2.72548V2.72944ZM20.5211 4.6722C23.2014 9.99851 25.8736 15.3268 28.5599 20.6491C31.0785 18.993 33.7348 17.5324 36.5189 16.3624C36.5448 16.3486 36.5987 16.3229 36.6246 16.309C36.8781 16.2359 37.1176 16.1193 37.3631 16.0244C37.391 16.0126 37.4449 15.9869 37.4708 15.9731C37.5327 15.9652 37.5926 15.9454 37.6465 15.9118C37.6744 15.8999 37.7283 15.8742 37.7542 15.8604C37.9299 15.8248 38.0955 15.7478 38.2631 15.6825C38.2911 15.6707 38.347 15.6489 38.3749 15.6371C38.4388 15.6312 38.4986 15.6114 38.5565 15.5778C38.5825 15.564 38.6344 15.5383 38.6603 15.5244C38.7401 15.5304 38.82 15.4987 38.8898 15.4632C38.9177 15.4513 38.9716 15.4256 38.9976 15.4138C39.0774 15.4177 39.1552 15.3841 39.2271 15.3525C39.255 15.3406 39.3089 15.3149 39.3349 15.3031H39.4007C39.4267 15.2873 39.4766 15.2596 39.5025 15.2477C39.716 15.224 39.9196 15.1311 40.1272 15.0718C40.1551 15.06 40.209 15.0363 40.2369 15.0244C40.3347 15.0244 40.4285 14.9908 40.5203 14.9552C40.5483 14.9454 40.6041 14.9236 40.6321 14.9137L40.6959 14.9078C40.7219 14.8959 40.7758 14.8722 40.8017 14.8623C40.8297 14.8584 40.8855 14.8505 40.9135 14.8465C40.9414 14.8367 40.9973 14.8129 41.0252 14.8031C41.4404 14.728 41.8515 14.6034 42.2646 14.5066C42.2925 14.4987 42.3504 14.4789 42.3783 14.471C42.4662 14.4809 42.554 14.4453 42.6398 14.4315C43.7275 14.1943 44.8291 14.0244 45.9347 13.9018C45.9248 36.0925 45.9068 58.2851 45.8988 80.4757C45.7551 80.4303 45.6194 80.3571 45.4717 80.3354C45.4458 80.3216 45.3959 80.2919 45.3699 80.2781H45.3061C45.2781 80.2642 45.2263 80.2385 45.1983 80.2267C45.1424 80.1931 45.0826 80.1733 45.0207 80.1654C44.9928 80.1536 44.9389 80.1299 44.9109 80.12C44.8411 80.0864 44.7652 80.0508 44.6874 80.0567C44.6615 80.0429 44.6076 80.0172 44.5836 80.0034C44.5277 79.9658 44.4679 79.948 44.402 79.948C44.3761 79.9342 44.3262 79.9045 44.3002 79.8907H44.2364C44.2104 79.8789 44.1565 79.8512 44.1306 79.8393C44.0747 79.8057 44.0148 79.784 43.951 79.7781C43.923 79.7662 43.8692 79.7425 43.8412 79.7306C43.6736 79.6674 43.5079 79.5863 43.3303 79.5587C43.3064 79.5429 43.2545 79.5132 43.2305 79.4994H43.1667C43.1407 79.4875 43.0868 79.4618 43.0609 79.448C43.005 79.4124 42.9451 79.3927 42.8813 79.3887C42.8533 79.3769 42.7994 79.3531 42.7715 79.3413C42.6039 79.2761 42.4382 79.201 42.2626 79.1654C42.2347 79.1535 42.1808 79.1298 42.1528 79.116C42.0431 79.0646 41.9293 79.0172 41.8076 78.9974C41.7796 78.9855 41.7257 78.9618 41.6978 78.948C41.5302 78.8828 41.3665 78.8057 41.1889 78.7741C41.1629 78.7602 41.1091 78.7365 41.0811 78.7247C40.9714 78.6733 40.8576 78.6239 40.7359 78.608C40.7079 78.5962 40.654 78.5705 40.6281 78.5586C40.5742 78.5329 40.5183 78.5112 40.4624 78.4914C39.1033 81.3176 37.7482 84.1439 36.3892 86.9701C35.9481 87.9088 35.4751 88.8338 35.052 89.7804C35.052 89.8042 35.052 89.8476 35.054 89.8714C35.2276 89.9247 35.3913 90.0117 35.5729 90.0453C35.6008 90.0571 35.6547 90.0808 35.6827 90.0947C35.8483 90.1619 36.0179 90.2291 36.1956 90.2706C36.2235 90.2824 36.2794 90.3042 36.3073 90.316C36.3772 90.3477 36.453 90.3773 36.5328 90.3813C36.5608 90.3931 36.6147 90.4168 36.6426 90.4287C36.7145 90.4623 36.7923 90.4919 36.8721 90.49C36.8981 90.5038 36.948 90.5334 36.9739 90.5473H37.0418C37.0677 90.5611 37.1176 90.5888 37.1435 90.6026H37.2094C37.2373 90.6145 37.2912 90.6402 37.3192 90.652C37.391 90.6817 37.4688 90.7093 37.5487 90.7172C37.5766 90.7271 37.6325 90.7489 37.6604 90.7607C37.6884 90.7647 37.7423 90.7706 37.7702 90.7746C37.7961 90.7864 37.848 90.8121 37.872 90.824H37.9398C37.9658 90.8398 38.0177 90.8674 38.0436 90.8813H38.1095C38.1374 90.8951 38.1933 90.9169 38.2192 90.9287C38.3669 90.9781 38.5166 91.0335 38.6723 91.0513C38.7002 91.0631 38.7561 91.0848 38.784 91.0967C38.812 91.1007 38.8679 91.1066 38.8958 91.1105C38.9217 91.1224 38.9756 91.1461 39.0016 91.158L39.0674 91.1639C39.0954 91.1758 39.1512 91.1975 39.1792 91.2074C39.2071 91.2113 39.263 91.2173 39.2909 91.2212C39.3169 91.2331 39.3688 91.2568 39.3947 91.2706L39.4606 91.2766C39.4885 91.2884 39.5444 91.3102 39.5723 91.322C39.6003 91.324 39.6562 91.3299 39.6841 91.3339C39.712 91.3438 39.7679 91.3655 39.7959 91.3754C39.9056 91.409 40.0174 91.4544 40.1331 91.4485C40.1611 91.4584 40.217 91.4801 40.2449 91.49C40.2728 91.494 40.3287 91.5019 40.3567 91.5058C40.3846 91.5157 40.4405 91.5335 40.4684 91.5434C40.652 91.5987 40.8416 91.656 41.0352 91.6718C41.0632 91.6817 41.121 91.6995 41.149 91.7094C45.1065 92.6363 49.2038 93.0138 53.2631 92.7213C55.8855 92.5315 58.4899 92.0987 61.0305 91.4307C61.0584 91.4208 61.1143 91.4011 61.1442 91.3912C61.242 91.3912 61.3418 91.3596 61.4316 91.322C61.4595 91.3121 61.5134 91.2924 61.5414 91.2825C61.5693 91.2785 61.6252 91.2706 61.6531 91.2667C61.6811 91.2548 61.735 91.2331 61.7629 91.2232C61.9365 91.2113 62.1022 91.1441 62.2698 91.0967C62.2978 91.0868 62.3536 91.0651 62.3816 91.0552L62.4454 91.0513C62.4714 91.0374 62.5233 91.0097 62.5492 90.9979H62.6171C62.643 90.9841 62.6949 90.9603 62.7208 90.9485C62.7488 90.9445 62.8047 90.9366 62.8326 90.9346C62.8605 90.9228 62.9164 90.901 62.9444 90.8892H63.0102C63.0362 90.8734 63.0881 90.8457 63.114 90.8319H63.1819C63.2078 90.818 63.2577 90.7904 63.2836 90.7765C63.3196 90.7706 63.3914 90.7607 63.4273 90.7548C63.4313 90.7548 63.4393 90.7508 63.4413 90.7508C63.4792 90.739 63.5571 90.7133 63.597 90.7014C63.601 90.7014 63.6089 90.6975 63.6129 90.6955C63.6429 90.6856 63.7047 90.6639 63.7347 90.652C63.7626 90.6402 63.8185 90.6184 63.8464 90.6066H63.9083C63.9342 90.5908 63.9861 90.5631 64.0121 90.5493C64.0919 90.5473 64.1678 90.5157 64.2396 90.486C64.2675 90.4742 64.3214 90.4524 64.3494 90.4406C64.4292 90.4307 64.503 90.405 64.5769 90.3734C64.6048 90.3615 64.6607 90.3398 64.6886 90.3299C64.8084 90.3022 64.9241 90.2627 65.0359 90.2113C65.0618 90.1994 65.1157 90.1737 65.1417 90.1599C65.2195 90.1599 65.2953 90.1283 65.3652 90.0967C65.3931 90.0848 65.449 90.0611 65.475 90.0512C65.5388 90.0433 65.5987 90.0235 65.6546 89.9899C65.6805 89.9781 65.7344 89.9504 65.7603 89.9366C65.8561 89.9346 65.944 89.8832 66.0338 89.8536C64.2296 86.0985 62.4255 82.3414 60.6193 78.5863C60.6193 78.5824 60.6134 78.5744 60.6114 78.5705L60.5754 78.4954C60.5215 78.5152 60.4697 78.5369 60.4178 78.5626C60.3898 78.5745 60.3379 78.6002 60.31 78.612H60.2481C60.2222 78.6258 60.1723 78.6555 60.1463 78.6693C59.7213 78.7918 59.3081 78.9618 58.895 79.118C58.8691 79.1318 58.8152 79.1575 58.7893 79.1693H58.7274C58.7014 79.1832 58.6495 79.2128 58.6236 79.2267C58.5019 79.2405 58.3881 79.2919 58.2783 79.3413C58.2504 79.3531 58.1965 79.3788 58.1706 79.3927C58.0488 79.4065 57.9351 79.4579 57.8253 79.5093C57.7994 79.5211 57.7455 79.5468 57.7195 79.5607H57.6577C57.6317 79.5745 57.5798 79.6041 57.5559 79.618C57.4342 79.6338 57.3204 79.6852 57.2106 79.7346C57.1827 79.7464 57.1288 79.7721 57.1029 79.784C56.9272 79.8176 56.7596 79.8947 56.5939 79.9599C56.566 79.9717 56.5121 79.9955 56.4842 80.0073C56.3644 80.031 56.2507 80.0745 56.1409 80.1279C56.113 80.1397 56.0591 80.1635 56.0312 80.1753C55.8555 80.2129 55.6899 80.286 55.5222 80.3512C55.4943 80.3631 55.4404 80.3868 55.4125 80.3986C55.3187 80.4144 55.2309 80.452 55.143 80.4856C55.1311 58.295 55.1151 36.1023 55.1091 13.9117C56.2886 14.0342 57.4581 14.2497 58.6196 14.4789C58.6476 14.4868 58.7054 14.5046 58.7334 14.5145C58.8611 14.5481 58.9888 14.5936 59.1225 14.5916C59.1505 14.6015 59.2064 14.6212 59.2343 14.6311C59.2622 14.6351 59.3181 14.6449 59.3481 14.6489C59.376 14.6588 59.4319 14.6785 59.4598 14.6884C59.4878 14.6924 59.5456 14.7003 59.5736 14.7042C59.6015 14.7141 59.6554 14.7359 59.6833 14.7457C59.7113 14.7497 59.7712 14.7576 59.7991 14.7616C59.825 14.7734 59.8789 14.7951 59.9049 14.805L59.9707 14.811C59.9987 14.8228 60.0545 14.8446 60.0825 14.8544C60.1104 14.8564 60.1663 14.8623 60.1942 14.8663C60.2222 14.8782 60.2761 14.8999 60.304 14.9118C60.3938 14.9454 60.4896 14.9829 60.5894 14.977C60.6153 14.9908 60.6692 15.0165 60.6952 15.0284L60.761 15.0323C60.789 15.0442 60.8449 15.0659 60.8728 15.0778C60.9007 15.0797 60.9546 15.0857 60.9826 15.0896C61.0085 15.1015 61.0604 15.1272 61.0863 15.139H61.1542C61.1801 15.1548 61.232 15.1825 61.258 15.1964H61.3238C61.3518 15.2102 61.4057 15.2339 61.4336 15.2458C61.5633 15.2932 61.695 15.3446 61.8327 15.3643C61.8587 15.3782 61.9126 15.4058 61.9365 15.4197H62.0004C62.0283 15.4335 62.0822 15.4572 62.1101 15.4691C62.182 15.5027 62.2578 15.5284 62.3377 15.5343C62.3656 15.5462 62.4195 15.5699 62.4474 15.5817C62.5173 15.6153 62.5911 15.647 62.6729 15.643C62.6989 15.6568 62.7528 15.6825 62.7787 15.6964C62.8326 15.73 62.8925 15.7497 62.9583 15.7557C62.9863 15.7675 63.0402 15.7912 63.0681 15.8031C63.1759 15.8545 63.2896 15.8999 63.4094 15.9217C63.4373 15.9335 63.4912 15.9592 63.5171 15.9711C63.6249 16.0205 63.7367 16.0778 63.8564 16.0877C63.8824 16.1015 63.9342 16.1292 63.9622 16.143C64.054 16.1944 64.1518 16.2359 64.2556 16.2577C64.2835 16.2715 64.3354 16.2952 64.3633 16.309C66.878 17.3506 69.2888 18.6313 71.5879 20.08C71.5919 20.0819 71.5999 20.0859 71.6018 20.0879C71.8972 20.2717 72.1886 20.4634 72.482 20.6511C75.1602 15.3248 77.8405 10.0025 80.5168 4.67418C60.5136 4.67418 40.5103 4.6722 20.5071 4.67418L20.5211 4.6722Z" fill="white"/>
<path fill-rule="evenodd" clip-rule="evenodd" d="M83.5101 3.12712C83.5101 3.12712 83.5141 3.11526 83.5161 3.11328C83.5161 3.11723 83.5121 3.12316 83.5101 3.12712ZM21.832 11.6532C21.832 11.6532 21.838 11.663 21.84 11.667C21.84 11.663 21.834 11.6571 21.832 11.6532ZM76.07 17.9182C76.07 17.9182 76.076 17.9064 76.076 17.9044C76.076 17.9064 76.072 17.9143 76.07 17.9182ZM38.0074 79.0789C38.0074 79.0789 38.0134 79.069 38.0134 79.065C38.0134 79.069 38.0094 79.0749 38.0074 79.0789Z" fill="white"/>
<path fill-rule="evenodd" clip-rule="evenodd" d="M20.7642 9.52832C20.7642 9.52832 20.7701 9.5382 20.7701 9.54215C20.7701 9.54018 20.7642 9.53227 20.7642 9.52832ZM77.1376 15.7934C77.1376 15.7934 77.1416 15.7835 77.1436 15.7796C77.1416 15.7835 77.1376 15.7894 77.1376 15.7934Z" fill="white"/>
<path fill-rule="evenodd" clip-rule="evenodd" d="M21.1016 10.2002C21.1016 10.2002 21.1075 10.2101 21.1075 10.214C21.1075 10.2101 21.1016 10.2041 21.1016 10.2002ZM33.7924 19.8113C33.7924 19.8113 33.8004 19.8073 33.8044 19.8053C33.8004 19.8073 33.7944 19.8113 33.7924 19.8113Z" fill="white"/>
<path fill-rule="evenodd" clip-rule="evenodd" d="M21.2715 10.5361C21.2715 10.5361 21.277 10.5453 21.277 10.549C21.277 10.5472 21.2715 10.5398 21.2715 10.5361Z" fill="white"/>
<path fill-rule="evenodd" clip-rule="evenodd" d="M21.5527 11.0938C21.5527 11.0938 21.5587 11.1036 21.5587 11.1076C21.5587 11.1036 21.5527 11.0977 21.5527 11.0938ZM76.3515 17.3588C76.3515 17.3588 76.3555 17.3489 76.3575 17.345C76.3555 17.3489 76.3535 17.3549 76.3515 17.3588Z" fill="white"/>
<path fill-rule="evenodd" clip-rule="evenodd" d="M21.6646 11.3164C21.6646 11.3164 21.6705 11.3283 21.6705 11.3302C21.6705 11.3263 21.6646 11.3184 21.6646 11.3164ZM76.2398 17.5835C76.2398 17.5835 76.2458 17.5716 76.2458 17.5696C76.2458 17.5736 76.2418 17.5815 76.2398 17.5835Z" fill="white"/>
<path fill-rule="evenodd" clip-rule="evenodd" d="M22.0576 12.0977C22.0576 12.0977 22.0636 12.1095 22.0636 12.1115C22.0636 12.1075 22.0576 12.0996 22.0576 12.0977ZM75.8466 18.3667C75.8466 18.3667 75.8506 18.3568 75.8526 18.3529C75.8506 18.3568 75.8466 18.3627 75.8466 18.3667Z" fill="white"/>
<path fill-rule="evenodd" clip-rule="evenodd" d="M42.2686 14.5102C42.2965 14.5023 42.3544 14.4825 42.3823 14.4746L42.3703 14.522L42.3125 14.5418L42.2686 14.5102Z" fill="white"/>
<path fill-rule="evenodd" clip-rule="evenodd" d="M58.6294 14.4727C58.6573 14.4806 58.7152 14.4983 58.7432 14.5082L58.6992 14.5399L58.6414 14.5201L58.6294 14.4727Z" fill="white"/>
<path fill-rule="evenodd" clip-rule="evenodd" d="M59.1343 14.5859C59.1623 14.5958 59.2181 14.6156 59.2461 14.6255L59.2022 14.6551L59.1443 14.6353L59.1323 14.5859H59.1343ZM59.3598 14.6413C59.3878 14.6512 59.4437 14.6709 59.4716 14.6808L59.4297 14.7085L59.3718 14.6887L59.3598 14.6413Z" fill="white"/>
<path fill-rule="evenodd" clip-rule="evenodd" d="M59.5854 14.6963C59.6134 14.7062 59.6673 14.7279 59.6952 14.7378C59.6693 14.7378 59.6194 14.7417 59.5954 14.7437L59.5854 14.6963Z" fill="white"/>
<path fill-rule="evenodd" clip-rule="evenodd" d="M59.811 14.7539C59.837 14.7658 59.8909 14.7875 59.9168 14.7974C59.8929 14.7974 59.843 14.7994 59.819 14.8013L59.811 14.7539Z" fill="white"/>
<path fill-rule="evenodd" clip-rule="evenodd" d="M40.9175 14.8501C40.9454 14.8402 41.0013 14.8165 41.0292 14.8066L41.0193 14.8541L40.9614 14.8758L40.9175 14.8481V14.8501Z" fill="white"/>
<path fill-rule="evenodd" clip-rule="evenodd" d="M59.9824 14.8047C60.0104 14.8166 60.0662 14.8383 60.0942 14.8482L60.0503 14.8759L59.9924 14.8521L59.9824 14.8027V14.8047Z" fill="white"/>
<path fill-rule="evenodd" clip-rule="evenodd" d="M40.6997 14.9117C40.7257 14.8998 40.7795 14.8761 40.8055 14.8662L40.7975 14.9136C40.7736 14.9136 40.7237 14.9136 40.6997 14.9136V14.9117Z" fill="white"/>
<path fill-rule="evenodd" clip-rule="evenodd" d="M60.2061 14.8604C60.234 14.8722 60.2879 14.8939 60.3158 14.9058L60.2699 14.9335L60.214 14.9098L60.2061 14.8604Z" fill="white"/>
<path fill-rule="evenodd" clip-rule="evenodd" d="M40.522 14.9595C40.5499 14.9496 40.6058 14.9279 40.6337 14.918L40.6238 14.9674L40.5659 14.9891L40.522 14.9595Z" fill="white"/>
<path fill-rule="evenodd" clip-rule="evenodd" d="M60.603 14.9707C60.629 14.9845 60.6829 15.0102 60.7088 15.0221L60.6629 15.0458L60.609 15.0201L60.603 14.9707ZM62.4531 91.043C62.479 91.0292 62.5309 91.0015 62.5569 90.9896L62.5529 91.0391L62.499 91.0667L62.4531 91.043ZM61.6588 91.2604C61.6867 91.2486 61.7406 91.2268 61.7685 91.2169L61.7586 91.2663L61.7007 91.29L61.6568 91.2624L61.6588 91.2604Z" fill="white"/>
<path fill-rule="evenodd" clip-rule="evenodd" d="M40.1309 15.0738C40.1588 15.0619 40.2127 15.0382 40.2406 15.0264L40.2326 15.0758L40.1768 15.0995L40.1309 15.0738ZM61.1659 15.137C61.1918 15.1509 61.2437 15.1785 61.2697 15.1924C61.2457 15.1924 61.1938 15.1884 61.1699 15.1865L61.1659 15.137Z" fill="white"/>
<path fill-rule="evenodd" clip-rule="evenodd" d="M60.7749 15.0283C60.8028 15.0402 60.8587 15.0619 60.8867 15.0738L60.8428 15.1014L60.7849 15.0777L60.7749 15.0283ZM62.2777 91.0888C62.3056 91.0789 62.3615 91.0571 62.3894 91.0473L62.3795 91.0967L62.3216 91.1184L62.2777 91.0888Z" fill="white"/>
<path fill-rule="evenodd" clip-rule="evenodd" d="M60.9961 15.0859C61.022 15.0978 61.0739 15.1235 61.0999 15.1353C61.0759 15.1353 61.026 15.1334 61.0021 15.1334L60.9981 15.0859H60.9961Z" fill="white"/>
<path fill-rule="evenodd" clip-rule="evenodd" d="M61.3354 15.1943C61.3634 15.2062 61.4173 15.2299 61.4452 15.2418L61.3993 15.2675L61.3434 15.2437L61.3354 15.1943Z" fill="white"/>
<path fill-rule="evenodd" clip-rule="evenodd" d="M39.4043 15.3053C39.4302 15.2915 39.4801 15.2638 39.5061 15.25V15.2974C39.4781 15.2974 39.4282 15.3014 39.4043 15.3034V15.3053Z" fill="white"/>
<path fill-rule="evenodd" clip-rule="evenodd" d="M39.231 15.356C39.2589 15.3442 39.3128 15.3185 39.3387 15.3066L39.3327 15.356L39.2769 15.3817L39.231 15.356Z" fill="white"/>
<path fill-rule="evenodd" clip-rule="evenodd" d="M61.8467 15.3604C61.8727 15.3742 61.9266 15.4019 61.9505 15.4157L61.9046 15.4394L61.8507 15.4117L61.8447 15.3604H61.8467Z" fill="white"/>
<path fill-rule="evenodd" clip-rule="evenodd" d="M38.8916 15.4674C38.9195 15.4555 38.9734 15.4298 38.9994 15.418L38.9934 15.4674L38.9375 15.4931L38.8916 15.4674Z" fill="white"/>
<path fill-rule="evenodd" clip-rule="evenodd" d="M62.0142 15.418C62.0421 15.4298 62.096 15.4535 62.124 15.4654L62.0781 15.4931L62.0202 15.4694L62.0122 15.4199L62.0142 15.418Z" fill="white"/>
<path fill-rule="evenodd" clip-rule="evenodd" d="M38.5581 15.5817C38.5841 15.5678 38.636 15.5422 38.6619 15.5283L38.6579 15.5777L38.604 15.6054L38.5562 15.5837L38.5581 15.5817Z" fill="white"/>
<path fill-rule="evenodd" clip-rule="evenodd" d="M62.3516 15.5303C62.3795 15.5422 62.4334 15.5659 62.4613 15.5777L62.4154 15.6034L62.3595 15.5777L62.3536 15.5283L62.3516 15.5303Z" fill="white"/>
<path fill-rule="evenodd" clip-rule="evenodd" d="M38.2651 15.6861C38.2931 15.6742 38.349 15.6525 38.3769 15.6406L38.3689 15.69L38.311 15.7138L38.2651 15.6861Z" fill="white"/>
<path fill-rule="evenodd" clip-rule="evenodd" d="M62.6865 15.6406C62.7125 15.6545 62.7664 15.6802 62.7923 15.694L62.7464 15.7177L62.6925 15.692L62.6865 15.6426V15.6406Z" fill="white"/>
<path fill-rule="evenodd" clip-rule="evenodd" d="M62.9721 15.7539C63.0001 15.7658 63.054 15.7895 63.0819 15.8013L63.036 15.829L62.9801 15.8053L62.9721 15.7559V15.7539ZM41.7036 78.9482L41.7495 78.9205L41.8054 78.9462L41.8134 78.9957C41.7854 78.9838 41.7316 78.9601 41.7036 78.9462V78.9482Z" fill="white"/>
<path fill-rule="evenodd" clip-rule="evenodd" d="M37.6484 15.9137C37.6764 15.9018 37.7303 15.8761 37.7562 15.8623L37.7502 15.9117L37.6943 15.9374L37.6484 15.9117V15.9137Z" fill="white"/>
<path fill-rule="evenodd" clip-rule="evenodd" d="M63.4233 15.9199C63.4513 15.9318 63.5052 15.9575 63.5311 15.9694L63.4852 15.995L63.4293 15.9694L63.4233 15.918V15.9199Z" fill="white"/>
<path fill-rule="evenodd" clip-rule="evenodd" d="M37.3647 16.026C37.3927 16.0141 37.4466 15.9884 37.4725 15.9746L37.4665 16.026L37.4106 16.0517L37.3647 16.026Z" fill="white"/>
<path fill-rule="evenodd" clip-rule="evenodd" d="M63.8721 16.0859C63.898 16.0998 63.9499 16.1274 63.9778 16.1413L63.9299 16.165L63.8761 16.1373L63.8721 16.0879V16.0859Z" fill="white"/>
<path fill-rule="evenodd" clip-rule="evenodd" d="M64.2715 16.2539C64.2994 16.2677 64.3513 16.2915 64.3792 16.3053L64.3334 16.331L64.2775 16.3053L64.2715 16.2539Z" fill="white"/>
<path fill-rule="evenodd" clip-rule="evenodd" d="M36.5205 16.362C36.5465 16.3481 36.6003 16.3224 36.6263 16.3086L36.6223 16.358L36.5684 16.3857L36.5205 16.362Z" fill="white"/>
<path fill-rule="evenodd" clip-rule="evenodd" d="M57.9546 16.3105C57.9805 16.3224 58.0344 16.3461 58.0604 16.356L58.0145 16.3837L57.9606 16.36L57.9566 16.3105H57.9546Z" fill="white"/>
<path fill-rule="evenodd" clip-rule="evenodd" d="M42.5258 16.4551C42.5258 16.4551 42.5358 16.4551 42.5378 16.4531C42.5338 16.4531 42.5278 16.4551 42.5258 16.4551ZM40.097 17.1271C40.097 17.1271 40.113 17.1211 40.117 17.1211C40.111 17.1211 40.101 17.1271 40.097 17.1271ZM58.6453 77.1256C58.6453 77.1256 58.6593 77.1197 58.6653 77.1177C58.6593 77.1177 58.6493 77.1236 58.6453 77.1256ZM66.3628 91.806C66.3628 91.806 66.3748 91.8021 66.3788 91.8001C66.3748 91.8001 66.3668 91.804 66.3628 91.806ZM35.1416 91.9661C35.1416 91.9661 35.1556 91.972 35.1596 91.972C35.1556 91.972 35.1476 91.9661 35.1416 91.9661Z" fill="white"/>
<path fill-rule="evenodd" clip-rule="evenodd" d="M58.46 16.4238C58.4859 16.4357 58.5378 16.4594 58.5637 16.4713L58.5178 16.497L58.464 16.4732L58.46 16.4238Z" fill="white"/>
<path fill-rule="evenodd" clip-rule="evenodd" d="M42.2984 16.5088C42.2984 16.5088 42.3104 16.5049 42.3144 16.5049C42.3104 16.5049 42.3024 16.5088 42.2984 16.5088ZM71.7215 22.4755C71.7215 22.4755 71.7295 22.4814 71.7335 22.4834C71.7295 22.4814 71.7235 22.4775 71.7215 22.4755ZM40.2588 76.3374C40.2588 76.3374 40.2748 76.3433 40.2807 76.3453C40.2748 76.3453 40.2648 76.3394 40.2588 76.3374Z" fill="white"/>
<path fill-rule="evenodd" clip-rule="evenodd" d="M41.8495 16.6192C41.8495 16.6192 41.8615 16.6152 41.8655 16.6152C41.8615 16.6152 41.8535 16.6172 41.8495 16.6192ZM39.5903 17.2912C39.5903 17.2912 39.6063 17.2852 39.6123 17.2832C39.6063 17.2852 39.5963 17.2892 39.5903 17.2912ZM71.554 22.3625C71.554 22.3625 71.562 22.3684 71.564 22.3704C71.562 22.3684 71.556 22.3645 71.554 22.3625Z" fill="white"/>
<path fill-rule="evenodd" clip-rule="evenodd" d="M59.1362 16.5898C59.1622 16.6017 59.2141 16.6254 59.24 16.6373L59.1941 16.6649L59.1402 16.6393L59.1362 16.5898Z" fill="white"/>
<path fill-rule="evenodd" clip-rule="evenodd" d="M59.3716 16.6709C59.3716 16.6709 59.3865 16.6747 59.3902 16.6766C59.3846 16.6766 59.3753 16.6728 59.3716 16.6709Z" fill="white"/>
<path fill-rule="evenodd" clip-rule="evenodd" d="M76.689 16.6857C76.689 16.6857 76.6945 16.6765 76.6945 16.6729C76.6945 16.6765 76.6908 16.682 76.689 16.6857Z" fill="white"/>
<path fill-rule="evenodd" clip-rule="evenodd" d="M41.3721 16.7496C41.398 16.7377 41.4519 16.7121 41.4778 16.7002L41.4719 16.7516L41.418 16.7773L41.3721 16.7516V16.7496Z" fill="white"/>
<path fill-rule="evenodd" clip-rule="evenodd" d="M59.5352 16.7002C59.5611 16.714 59.613 16.7397 59.639 16.7536L59.5931 16.7773L59.5392 16.7496L59.5332 16.7002H59.5352Z" fill="white"/>
<path fill-rule="evenodd" clip-rule="evenodd" d="M41.2148 16.7891C41.2148 16.7891 41.2348 16.7852 41.2408 16.7832C41.2348 16.7832 41.2208 16.7872 41.2148 16.7891ZM60.5515 17.0026L60.5675 17.0065L60.5834 17.0105C60.5834 17.0105 60.5595 17.0046 60.5515 17.0026Z" fill="white"/>
<path fill-rule="evenodd" clip-rule="evenodd" d="M59.7568 16.7578C59.7828 16.7697 59.8367 16.7954 59.8626 16.8072L59.8167 16.8329L59.7628 16.8072L59.7568 16.7578Z" fill="white"/>
<path fill-rule="evenodd" clip-rule="evenodd" d="M59.9905 16.8389C59.9905 16.8389 60.0064 16.8428 60.0124 16.8448C60.0064 16.8428 59.9964 16.8408 59.9905 16.8389ZM39.9234 17.1808C39.9234 17.1808 39.9413 17.1748 39.9473 17.1729C39.9413 17.1748 39.9294 17.1788 39.9234 17.1808ZM62.078 17.5089C62.078 17.5089 62.094 17.5148 62.1 17.5168C62.094 17.5148 62.084 17.5108 62.078 17.5089ZM30.1782 21.9241C30.1782 21.9241 30.1862 21.9201 30.1902 21.9181C30.1882 21.9201 30.1822 21.9241 30.1782 21.9241Z" fill="white"/>
<path fill-rule="evenodd" clip-rule="evenodd" d="M60.7251 17.0576C60.7251 17.0576 60.7457 17.0637 60.7519 17.0658C60.7457 17.0637 60.7313 17.0597 60.7251 17.0576Z" fill="white"/>
<path fill-rule="evenodd" clip-rule="evenodd" d="M76.4653 17.134C76.4653 17.134 76.469 17.1248 76.4708 17.1211C76.4708 17.1248 76.4672 17.1303 76.4653 17.134Z" fill="white"/>
<path fill-rule="evenodd" clip-rule="evenodd" d="M39.7636 17.2305L39.7796 17.2266C39.7796 17.2266 39.7556 17.2345 39.7476 17.2364L39.7636 17.2305ZM37.5024 92.7475C37.5024 92.7475 37.5184 92.7514 37.5224 92.7534C37.5164 92.7534 37.5064 92.7494 37.5024 92.7475Z" fill="white"/>
<path fill-rule="evenodd" clip-rule="evenodd" d="M39.4202 17.3507C39.4202 17.3507 39.4362 17.3447 39.4402 17.3447C39.4342 17.3447 39.4242 17.3507 39.4202 17.3507ZM70.4199 21.6394C70.4199 21.6394 70.4319 21.6473 70.4359 21.6493C70.4319 21.6473 70.4239 21.6433 70.4199 21.6394ZM28.0386 23.3232C28.0386 23.3232 28.0505 23.3153 28.0545 23.3134C28.0505 23.3153 28.0426 23.3213 28.0386 23.3232Z" fill="white"/>
<path fill-rule="evenodd" clip-rule="evenodd" d="M66.9258 19.6377C66.9258 19.6377 66.9355 19.6435 66.9393 19.6455C66.9355 19.6455 66.9296 19.6416 66.9258 19.6377Z" fill="white"/>
<path fill-rule="evenodd" clip-rule="evenodd" d="M67.6559 20.0244C67.6559 20.0244 67.6659 20.0303 67.6699 20.0303C67.6659 20.0303 67.6599 20.0244 67.6559 20.0244ZM60.3296 76.5089C60.3296 76.5089 60.3416 76.505 60.3456 76.503C60.3416 76.503 60.3336 76.507 60.3296 76.5089Z" fill="white"/>
<path fill-rule="evenodd" clip-rule="evenodd" d="M71.6016 20.0762C71.6016 20.0762 71.6132 20.082 71.6151 20.084C71.6112 20.082 71.6054 20.0781 71.6016 20.0762Z" fill="white"/>
<path fill-rule="evenodd" clip-rule="evenodd" d="M33.1738 20.1454C33.1738 20.1454 33.1835 20.1416 33.1854 20.1396C33.1815 20.1416 33.1758 20.1454 33.1738 20.1454Z" fill="white"/>
<path fill-rule="evenodd" clip-rule="evenodd" d="M68.167 20.3057C68.167 20.3057 68.1766 20.3095 68.1786 20.3114C68.1766 20.3095 68.1689 20.3076 68.167 20.3057Z" fill="white"/>
<path fill-rule="evenodd" clip-rule="evenodd" d="M32.7749 20.3661C32.7749 20.3661 32.7845 20.3603 32.7865 20.3584C32.7826 20.3603 32.7768 20.3642 32.7749 20.3661Z" fill="white"/>
<path fill-rule="evenodd" clip-rule="evenodd" d="M68.564 20.5303C68.564 20.5303 68.5717 20.5361 68.5755 20.5361C68.5736 20.5361 68.5678 20.5322 68.564 20.5303Z" fill="white"/>
<path fill-rule="evenodd" clip-rule="evenodd" d="M32.3813 20.5898C32.3813 20.5898 32.391 20.584 32.3949 20.582C32.391 20.584 32.3852 20.5879 32.3813 20.5898Z" fill="white"/>
<path fill-rule="evenodd" clip-rule="evenodd" d="M15.8768 23.3786C16.5753 22.4655 17.3177 21.588 18.106 20.75C19.1219 21.6354 20.3053 22.3469 21.5946 22.7619C22.1274 22.9141 22.7022 23.09 23.257 22.928C23.4725 22.2224 23.1433 21.5129 22.9557 20.8409C23.9974 22.9536 25.0711 25.0525 26.1269 27.1594C24.6041 28.7543 23.259 30.5073 22.0695 32.3572C25.6399 32.3572 29.2123 32.3572 32.7826 32.3572C32.7826 29.5606 32.7826 26.7641 32.7826 23.9675C33.9382 23.2462 35.1356 22.594 36.359 21.9951C36.359 25.7957 36.359 29.5942 36.361 33.3948C37.8518 34.8771 39.3526 36.3475 40.8374 37.8357C40.8334 37.9582 40.8334 38.0808 40.8334 38.2033C38.9494 37.8278 37.0555 37.4977 35.1576 37.2013C34.7005 36.7843 34.2754 36.3297 33.8284 35.9008C30.8408 35.8988 27.8512 35.9048 24.8636 35.8949C19.6866 35.4087 14.4838 35.0391 9.28289 35.2704C9.49843 34.6695 9.73393 34.0766 9.98339 33.4897C11.2686 33.9857 12.6537 34.2565 14.0367 34.1952C14.5636 34.1537 15.1384 34.1181 15.5774 33.792C15.5575 33.3335 15.298 32.9323 15.0446 32.5627C14.1964 31.3769 13.0289 30.4362 11.7476 29.7405C12.2725 28.7207 12.8533 27.7266 13.4819 26.7661C14.7632 27.4855 16.1542 28.0863 17.641 28.1871C18.0761 28.2128 18.5511 28.2464 18.9422 28.023C19.0021 27.6831 18.8903 27.3451 18.7686 27.0329C18.1839 25.5664 17.0762 24.3826 15.8788 23.3766L15.8768 23.3786ZM79.4488 22.7659C80.7441 22.3509 81.9315 21.6374 82.9513 20.75C83.7377 21.588 84.4821 22.4675 85.1806 23.3805C84.1029 24.2916 83.091 25.3312 82.4804 26.6139C82.2748 27.0546 82.0413 27.5309 82.1191 28.029C82.5502 28.2661 83.0671 28.2147 83.5401 28.1792C84.981 28.0566 86.3301 27.4696 87.5735 26.768C88.2081 27.7266 88.7829 28.7227 89.3097 29.7444C88.1303 30.3789 87.0626 31.2287 86.2283 32.2722C85.8931 32.7268 85.5179 33.209 85.4799 33.794C85.8651 34.1063 86.388 34.1419 86.863 34.1873C88.3019 34.3138 89.7289 33.964 91.076 33.4916C91.525 34.547 91.9222 35.6241 92.2614 36.719C90.9742 37.1499 89.7528 37.8139 88.741 38.7191C88.3458 39.0986 87.9127 39.4998 87.777 40.0492C88.0963 40.4188 88.6013 40.5453 89.0543 40.6718C90.4533 41.0473 91.9262 40.9485 93.3391 40.7133C93.5966 41.8299 93.8021 42.9604 93.9379 44.0968C92.5309 44.3063 91.1498 44.7826 89.9623 45.5653C89.5652 45.8439 89.1321 46.1443 88.9445 46.6108C89.2658 47.0792 89.8147 47.3124 90.3196 47.5337C91.5789 48.0397 92.95 48.2472 94.3051 48.2156C94.3609 49.2927 94.3609 50.3718 94.317 51.4469C91.2735 49.848 88.1822 48.3262 84.967 47.0969C84.532 46.9428 84.1647 46.6364 83.8614 46.3005C83.6738 44.0731 83.117 41.8951 82.4524 39.7646C82.0393 38.4325 81.5064 37.142 80.9117 35.8811C76.3515 35.8909 71.7912 35.8949 67.231 35.8969C65.2991 37.7962 63.3852 39.7113 61.4533 41.6086C61.0442 41.5315 60.6331 41.4722 60.222 41.4129C60.222 40.2172 60.22 39.0195 60.222 37.8238C61.7068 36.3514 63.1956 34.885 64.6764 33.4086C64.7263 33.2446 64.6824 33.0588 64.6964 32.8869C64.6964 29.2543 64.6964 25.6237 64.6984 21.9912C65.9297 22.5801 67.1192 23.2481 68.2747 23.9675C68.2807 26.7641 68.2648 29.5626 68.2827 32.3612C71.8511 32.3493 75.4195 32.3612 78.9898 32.3552C77.8044 30.5034 76.4532 28.7523 74.9325 27.1574C75.9902 25.0545 77.05 22.9517 78.1037 20.8488C78.1197 21.0287 77.976 21.167 77.9441 21.339C77.8044 21.8508 77.6207 22.4042 77.8044 22.928C78.3532 23.0821 78.922 22.9141 79.4508 22.7639L79.4488 22.7659ZM6.74831 48.2156C8.17726 48.2452 9.62815 48.0199 10.9413 47.4468C12.9391 48.1602 14.9548 48.8203 16.9924 49.4113C16.9565 50.7315 17.0403 52.0537 17.176 53.368C17.3077 54.7415 17.5392 56.1072 17.8685 57.4491C18.2058 58.8662 18.6129 60.2694 19.1378 61.6311C19.4432 62.4217 19.7844 63.1964 20.1377 63.9672C24.6959 63.9632 29.2542 63.9692 33.8124 63.9593C34.014 63.815 34.1717 63.6095 34.3553 63.4435C36.5107 61.309 38.6661 59.1725 40.8234 57.0381C40.8234 58.6824 40.8234 60.3267 40.8214 61.9691C40.8374 62.0798 40.7217 62.1371 40.6618 62.2102C39.7577 63.1016 38.8576 63.9968 37.9536 64.8902C37.4267 65.4238 36.8739 65.9357 36.363 66.4811C36.353 69.4081 36.363 72.3351 36.355 75.2621C35.9838 76.1041 35.5607 76.9262 35.1675 77.7622C33.4752 81.2782 31.7888 84.7981 30.0964 88.316C29.0806 87.8002 28.0907 87.235 27.1347 86.6164C27.8811 85.3238 28.4938 83.9087 28.5796 82.4027C28.5996 82.0035 28.6175 81.5746 28.41 81.2149C27.8751 81.1517 27.3702 81.3908 26.8992 81.6122C25.6579 82.2427 24.5842 83.1696 23.714 84.2447C22.792 83.5569 21.9079 82.8158 21.0577 82.043C21.9438 80.9659 22.7581 79.788 23.1353 78.4362C23.265 77.9559 23.4187 77.4361 23.263 76.944C22.7601 76.776 22.2252 76.9282 21.7323 77.0587C20.3871 77.4618 19.1558 78.197 18.102 79.1141C17.3157 78.2741 16.5713 77.3966 15.8728 76.4855C16.9345 75.5863 17.9364 74.5645 18.5471 73.3016C18.7626 72.847 19.0081 72.3589 18.9382 71.841C18.4712 71.596 17.9204 71.6513 17.4135 71.6948C16.0165 71.8608 14.6754 72.3727 13.4779 73.0941C12.8493 72.1316 12.2705 71.1394 11.7456 70.1196C12.9411 69.422 14.0986 68.5939 14.9188 67.4693C15.1943 67.0859 15.4936 66.6827 15.5675 66.2044C15.6253 66.0305 15.4158 65.9712 15.298 65.906C14.7771 65.6886 14.1964 65.6669 13.6396 65.655C12.3883 65.6629 11.1429 65.9198 9.97741 66.3724C9.52637 65.3171 9.13122 64.2399 8.79194 63.147C10.185 62.6351 11.556 61.9533 12.5938 60.8762C12.8832 60.5738 13.1845 60.2457 13.2764 59.8267C12.983 59.4907 12.5399 59.3504 12.1248 59.2299C10.6879 58.8445 9.16315 58.8662 7.71026 59.1508C7.4548 58.0342 7.24725 56.9056 7.10954 55.7692C8.51853 55.5143 9.9335 55.1032 11.119 54.281C11.5041 54.0083 11.9292 53.7178 12.1088 53.2632C11.9113 52.9233 11.552 52.7276 11.2148 52.5497C9.8417 51.8481 8.27505 51.6564 6.74831 51.6505C6.68445 50.5081 6.68844 49.3619 6.74632 48.2175L6.74831 48.2156ZM22.0735 67.5069C22.5984 68.335 23.1592 69.1394 23.75 69.924C24.9075 71.4774 26.2466 72.8885 27.6556 74.2186C29.2163 75.689 30.9625 76.9559 32.7806 78.0962C32.7806 74.5665 32.7806 71.0347 32.7806 67.5049C29.2123 67.5049 25.6439 67.5049 22.0735 67.5049V67.5069ZM60.2339 60.7635C61.7547 61.054 63.2774 61.3288 64.8062 61.5817C65.325 62.1055 65.8679 62.6075 66.3768 63.1391C66.5305 63.9889 66.8258 64.819 67.2948 65.5483C67.7738 66.3112 68.4204 66.9594 69.1389 67.5049C68.8515 67.5049 68.5641 67.5049 68.2767 67.5049C68.2767 71.0406 68.2767 74.5763 68.2767 78.1121C69.071 77.6278 69.8314 77.0883 70.5838 76.5468C72.1884 75.3886 73.6452 74.0427 75.0143 72.6237C75.8066 71.7995 76.547 70.926 77.2336 70.0109C77.8443 69.1947 78.457 68.3785 78.9838 67.5069C78.3731 67.5029 77.7624 67.5128 77.1517 67.5029C77.7584 67.0424 78.3153 66.5088 78.7523 65.8843C79.1694 65.2993 79.4788 64.6471 79.6983 63.9652C80.1334 63.9712 80.5724 63.9474 81.0075 63.9791C84.4841 64.5601 87.9786 65.0325 91.4891 65.3645C91.3574 65.7025 91.2217 66.0384 91.078 66.3705C89.8167 65.9297 88.4875 65.5898 87.1404 65.659C86.6474 65.6866 86.1325 65.7163 85.6815 65.9337C85.6037 65.9851 85.46 66.0305 85.4919 66.1511C85.5538 66.6788 85.8891 67.1215 86.1944 67.5405C87.0306 68.6097 88.1183 69.4734 89.3137 70.1216C88.7869 71.1414 88.2081 72.1335 87.5794 73.0941C86.3002 72.3747 84.9072 71.7738 83.4223 71.6731C82.9873 71.6474 82.5143 71.6118 82.1231 71.8371C82.0612 72.3984 82.3267 72.9221 82.5682 73.4103C83.2048 74.604 84.1228 75.6416 85.1846 76.4835C84.4861 77.3966 83.7437 78.2741 82.9573 79.1121C81.8597 78.2168 80.6443 77.4045 79.2552 77.0349C78.7863 76.9144 78.2773 76.7681 77.8044 76.9341C77.6427 77.4697 77.8123 78.029 77.96 78.5488C78.3771 79.8394 79.1016 81.0213 80.0036 82.0371C79.1555 82.8158 78.2713 83.555 77.3453 84.2427C76.4333 83.1834 75.3895 82.1853 74.1063 81.5826C73.6552 81.3731 73.1683 81.1379 72.6554 81.209C72.4099 81.6339 72.4658 82.1498 72.4997 82.6201C72.6214 84.0471 73.2202 85.3831 73.9247 86.6164C72.9667 87.231 71.9788 87.7982 70.965 88.3121C68.9174 84.051 66.8777 79.786 64.8221 75.5289C64.7742 75.4202 64.6984 75.3155 64.7064 75.1949C64.7044 72.2917 64.7104 69.3884 64.7004 66.4831C64.4808 66.2124 64.2014 65.9851 63.962 65.7301C62.7206 64.4988 61.4753 63.2735 60.2399 62.0383C60.2459 61.6133 60.2399 61.1865 60.2399 60.7615L60.2339 60.7635Z" fill="white"/>
<path fill-rule="evenodd" clip-rule="evenodd" d="M69.2368 20.9199C69.2368 20.9199 69.2468 20.9259 69.2508 20.9278C69.2468 20.9259 69.2408 20.9219 69.2368 20.9199ZM69.5182 21.0859C69.5182 21.0859 69.5282 21.0919 69.5322 21.0938C69.5282 21.0919 69.5222 21.0879 69.5182 21.0859Z" fill="white"/>
<path fill-rule="evenodd" clip-rule="evenodd" d="M30.3496 21.8175C30.3496 21.8175 30.3596 21.8115 30.3616 21.8096C30.3576 21.8115 30.3516 21.8155 30.3496 21.8175ZM41.1725 76.6715C41.1725 76.6715 41.1824 76.6755 41.1864 76.6774C41.1824 76.6774 41.1765 76.6735 41.1725 76.6715Z" fill="white"/>
<path fill-rule="evenodd" clip-rule="evenodd" d="M71.0391 22.0303C71.0391 22.0303 71.051 22.0382 71.053 22.0402C71.049 22.0382 71.0431 22.0342 71.0391 22.0303ZM28.5439 22.9908C28.5439 22.9908 28.5559 22.9829 28.5599 22.9809C28.5559 22.9829 28.5479 22.9888 28.5439 22.9908Z" fill="white"/>
<path fill-rule="evenodd" clip-rule="evenodd" d="M71.2145 22.1455C71.2145 22.1455 71.2225 22.1514 71.2265 22.1514C71.2225 22.1514 71.2185 22.1475 71.2145 22.1455ZM28.2085 23.2127C28.2085 23.2127 28.2185 23.2068 28.2205 23.2048C28.2165 23.2068 28.2105 23.2108 28.2085 23.2127Z" fill="white"/>
<path fill-rule="evenodd" clip-rule="evenodd" d="M71.3819 22.252C71.3819 22.252 71.3919 22.2579 71.3939 22.2618C71.3919 22.2599 71.3839 22.2559 71.3819 22.252ZM61.2356 76.1771C61.2356 76.1771 61.2496 76.1712 61.2556 76.1692C61.2496 76.1692 61.2396 76.1751 61.2356 76.1771ZM41.7892 76.8965C41.7892 76.8965 41.8012 76.9004 41.8052 76.9024C41.8012 76.9024 41.7932 76.8985 41.7892 76.8965ZM32.4272 90.9583C32.4272 90.9583 32.4472 90.9643 32.4532 90.9662C32.4472 90.9643 32.4332 90.9603 32.4272 90.9583ZM67.2667 91.4702C67.2667 91.4702 67.2767 91.4663 67.2807 91.4643C67.2767 91.4643 67.2707 91.4682 67.2667 91.4702Z" fill="white"/>
<path fill-rule="evenodd" clip-rule="evenodd" d="M71.8891 22.584C71.8891 22.584 71.8971 22.5899 71.8991 22.5899C71.8971 22.5899 71.8911 22.586 71.8891 22.584ZM38.0654 92.913C38.0654 92.913 38.0774 92.9169 38.0814 92.9169C38.0774 92.9169 38.0694 92.913 38.0654 92.913Z" fill="white"/>
<path fill-rule="evenodd" clip-rule="evenodd" d="M28.374 23.1013C28.374 23.1013 28.3852 23.0937 28.389 23.0918C28.3852 23.0937 28.3778 23.0975 28.374 23.1013Z" fill="white"/>
<path fill-rule="evenodd" clip-rule="evenodd" d="M72.7373 23.1396C72.7373 23.1396 72.747 23.1455 72.7508 23.1494C72.747 23.1474 72.7412 23.1435 72.7373 23.1396Z" fill="white"/>
<path fill-rule="evenodd" clip-rule="evenodd" d="M8.4686 36.399C11.2806 36.233 14.1006 36.2843 16.9145 36.4108C19.966 36.5571 23.0135 36.8061 26.051 37.1282C30.9984 37.6619 35.9319 38.3536 40.8134 39.324C40.8134 40.407 40.8134 41.4901 40.8134 42.5731C37.9635 42.002 35.1116 41.4407 32.2497 40.9327C30.1143 40.5612 27.9749 40.1896 25.8175 39.9742C24.9573 39.8813 24.0912 39.8952 23.227 39.9248C23.0155 39.9426 22.79 39.9248 22.5964 40.0256C23.1053 40.2272 23.6601 40.2726 24.193 40.3853C29.7471 41.4506 35.2813 42.6107 40.8074 43.8005C40.8194 44.427 40.8094 45.0515 40.8134 45.678C38.6501 45.2333 36.4867 44.7926 34.3233 44.3578C29.5296 43.4032 24.7338 42.4506 19.9121 41.6442C18.6748 41.4427 17.4354 41.2411 16.1861 41.1245C15.8249 41.1027 15.4497 41.0513 15.0984 41.1581C15.1324 41.2154 15.1623 41.2826 15.2321 41.3063C15.4736 41.4288 15.743 41.4802 16.0045 41.5415C20.6565 42.5949 25.3206 43.5929 29.9846 44.5989C33.5929 45.3736 37.2012 46.1523 40.8094 46.9271C40.8214 49.439 40.8114 51.951 40.8154 54.463C38.6002 53.9135 36.3969 53.3127 34.1816 52.7573C34.2375 52.0518 34.1617 51.3383 33.98 50.6545C33.537 48.9766 32.3954 47.5022 30.8887 46.6227C29.2322 45.6365 27.1387 45.427 25.3126 46.0535C23.5583 46.6405 22.0895 47.9805 21.3331 49.6505C19.7485 49.1821 18.1998 48.607 16.6152 48.1406C14.2223 47.4053 11.8374 46.6385 9.5004 45.7452C7.65435 45.0337 5.82625 44.261 4.10194 43.2886C3.16994 42.755 2.25589 42.168 1.48753 41.417C0.984609 40.9189 0.529582 40.3221 0.401855 39.6125V39.2469C0.519604 38.6461 0.986605 38.1876 1.49751 37.8793C2.2958 37.399 3.20785 37.1441 4.11392 36.9405C5.54685 36.6342 7.00972 36.4879 8.4726 36.397L8.4686 36.399ZM12.9849 45.0515C13.2564 45.1365 13.5238 45.2294 13.7932 45.3163C13.8571 44.504 13.9529 43.6937 14.0846 42.8913C13.8172 42.8241 13.5457 42.7648 13.2803 42.6937C13.1486 43.4744 13.0688 44.2649 12.9849 45.0515ZM15.2441 43.1641C15.1244 43.9447 15.0366 44.7313 14.9527 45.5159C15.2222 45.6049 15.4936 45.6958 15.763 45.7847C15.8269 44.9724 15.9227 44.1621 16.0544 43.3597C15.785 43.2945 15.5135 43.2293 15.2441 43.1641ZM16.9285 45.9922C17.1999 46.0693 17.4654 46.1662 17.7328 46.2531C17.7967 45.4408 17.8944 44.6305 18.0242 43.8261C17.7547 43.7609 17.4853 43.6977 17.2179 43.6305C17.0962 44.4131 17.0004 45.2017 16.9305 45.9903L16.9285 45.9922ZM72.322 39.8734C72.9427 39.6283 73.6292 39.5216 74.2958 39.5987C75.2039 39.6995 76.064 40.2094 76.551 40.9802C77.1258 41.8616 77.1657 43.0119 76.8084 43.9823C76.535 44.7274 75.9842 45.431 75.1959 45.6721C74.9963 45.7452 74.699 45.6978 74.6131 45.9428C74.4695 46.348 74.5593 46.7887 74.6271 47.2018C75.8705 47.4271 77.1018 47.7295 78.3531 47.9153C78.6545 47.9686 78.9778 47.9449 79.2452 47.7868C79.7542 47.5002 80.0795 47.0002 80.4028 46.5338C80.6423 46.184 81.0653 45.9428 81.5004 45.9843C81.9235 46.0179 82.2568 46.3104 82.5522 46.5852C83.1229 47.1227 83.6498 47.7552 84.3982 48.0595C87.6852 49.3382 90.8804 50.8422 93.9757 52.5222C95.728 53.4847 97.4583 54.4985 99.0748 55.6745C99.8152 56.214 100.55 56.8188 101.001 57.6271C101.24 58.0461 101.358 58.5185 101.402 58.9948V59.2774C101.382 59.8703 101.25 60.4533 101.071 61.0166C100.799 61.8585 100.384 62.6668 99.7893 63.3329C99.2285 63.9633 98.4422 64.4594 97.572 64.4693C94.4268 64.5839 91.2835 64.2776 88.1662 63.8961C85.3721 63.5463 82.5901 63.1036 79.812 62.6293C79.9358 61.5028 79.7402 60.3466 79.2792 59.311C78.5807 57.7279 77.2355 56.4393 75.613 55.8029C73.753 55.0559 71.5557 55.2061 69.8174 56.2022C68.129 57.1469 66.8937 58.8485 66.5464 60.7399C64.4389 60.4158 62.3354 60.0501 60.2419 59.6391C60.2419 56.7378 60.2419 53.8364 60.2419 50.9351C64.5487 51.866 68.8535 52.8147 73.1523 53.789C78.1077 54.9215 83.0671 56.0539 87.9845 57.3425C88.5254 57.469 89.0563 57.6943 89.621 57.6706C90.0162 57.6607 90.3754 57.4571 90.6748 57.216C90.4952 57.0243 90.2178 56.9986 89.9823 56.9097C87.4976 56.1508 84.975 55.5183 82.4544 54.8839C75.0761 53.0578 67.66 51.3877 60.2379 49.7454C60.2379 49.1149 60.2379 48.4844 60.2379 47.854C65.323 48.9963 70.4002 50.1663 75.4633 51.3976C77.7724 51.9609 80.0815 52.532 82.3706 53.1684C82.8495 53.2969 83.3125 53.04 83.6778 52.7593C83.3185 52.4866 82.8655 52.3818 82.4484 52.2257C80.1154 51.4688 77.7325 50.8719 75.3576 50.2592C70.3343 48.9825 65.2831 47.8145 60.2319 46.6464C60.2439 45.2768 60.2319 43.9052 60.2379 42.5356C61.8385 42.7747 63.4291 43.1265 65.0516 43.1838C65.0157 43.504 65.0117 43.836 65.1254 44.1424C65.2671 44.5535 65.6104 44.8618 65.9816 45.0713C66.6921 45.4705 67.4964 45.6503 68.2767 45.8618C68.9712 46.0535 69.6877 46.1563 70.3902 46.3183C70.7694 45.9646 70.929 45.4567 71.0528 44.9724C70.7015 44.9329 70.3443 44.927 70.001 44.838C69.7456 44.7847 69.6019 44.5159 69.5859 44.2768C69.554 43.6641 70.0948 43.17 70.011 42.5514C69.999 42.3775 69.9092 42.1739 70.0369 42.0217C70.3223 41.6996 70.7913 41.6383 71.1007 41.3438C71.5916 40.9229 71.6974 40.1639 72.318 39.8754L72.322 39.8734ZM26.8413 46.7433C24.9354 46.9389 23.1831 48.1583 22.3369 49.86C21.4708 51.536 21.5426 53.6368 22.5086 55.2555C23.4087 56.8109 25.0871 57.8979 26.8932 58.0678C28.6155 58.2576 30.3997 57.5994 31.5912 56.3583C32.8145 55.1171 33.4093 53.3048 33.1498 51.5893C32.9143 49.8936 31.8486 48.3402 30.3538 47.4844C29.304 46.8717 28.0507 46.6069 26.8393 46.7452L26.8413 46.7433ZM26.8094 48.8343C25.7576 49.024 24.8097 49.6999 24.2868 50.6229C23.8757 51.3324 23.724 52.1842 23.8637 52.9925C24.0054 53.8523 24.4804 54.6507 25.1649 55.1962C25.7916 55.7041 26.5898 55.9946 27.4001 56.0085C28.2383 56.0302 29.0765 55.7496 29.7331 55.2318C30.3957 54.7179 30.8707 53.9689 31.0443 53.1526C31.212 52.3897 31.1202 51.5735 30.7829 50.8679C30.4256 50.111 29.797 49.4805 29.0326 49.1228C28.3481 48.7947 27.5558 48.6939 26.8094 48.8343ZM26.971 49.947C26.2087 50.0952 25.5341 50.613 25.1988 51.3047C24.8356 52.0281 24.8695 52.9273 25.2767 53.6269C25.6519 54.293 26.3484 54.7713 27.1127 54.876C27.7993 54.9808 28.5237 54.7792 29.0566 54.3404C29.6633 53.8542 30.0205 53.0815 29.9906 52.3087C29.9726 51.5636 29.5894 50.8422 28.9887 50.3976C28.4239 49.9687 27.6695 49.8027 26.973 49.945L26.971 49.947ZM72.2302 56.3642C71.5716 56.469 70.933 56.6903 70.3523 57.0125C68.8355 57.8406 67.7378 59.3762 67.4704 61.0719C67.2808 62.2241 67.4604 63.4317 67.9813 64.4792C68.4703 65.4753 69.2606 66.3211 70.2205 66.8864C71.2503 67.4951 72.4757 67.7698 73.6712 67.6572C75.4374 67.507 77.0879 66.4753 78.0119 64.9812C78.7483 63.8131 79.0317 62.3743 78.7922 61.0166C78.5048 59.313 77.3812 57.7773 75.8445 56.967C74.7508 56.3761 73.4576 56.1646 72.2302 56.3642ZM72.5456 58.4078C71.6455 58.554 70.8133 59.0501 70.2545 59.7616C69.7016 60.4573 69.4202 61.3605 69.4901 62.2439C69.55 63.1194 69.9511 63.9633 70.5898 64.5701C71.3222 65.2816 72.366 65.661 73.3898 65.5879C74.4036 65.5266 75.3755 65.0128 76.0022 64.2242C76.6228 63.4574 76.9022 62.4317 76.7526 61.4593C76.6089 60.4573 76.0122 59.5363 75.164 58.975C74.4056 58.4651 73.4476 58.2576 72.5436 58.4098L72.5456 58.4078ZM72.5695 59.5481C71.5158 59.7754 70.6796 60.734 70.6217 61.8032C70.5239 62.904 71.2623 64.0029 72.318 64.3527C73.268 64.6966 74.4056 64.3843 75.0482 63.6135C75.7687 62.8052 75.8625 61.5265 75.2578 60.6272C74.7069 59.7557 73.5794 59.2991 72.5695 59.5481Z" fill="white"/>
<path fill-rule="evenodd" clip-rule="evenodd" d="M39.6499 76.1143C39.6499 76.1143 39.6619 76.1182 39.6639 76.1202C39.6599 76.1202 39.6539 76.1162 39.6499 76.1143ZM42.2424 77.0629C42.2424 77.0629 42.2523 77.0669 42.2563 77.0688C42.2523 77.0688 42.2464 77.0649 42.2424 77.0629Z" fill="white"/>
<path fill-rule="evenodd" clip-rule="evenodd" d="M40.1011 76.2803C40.1011 76.2803 40.1123 76.2841 40.116 76.286C40.1123 76.286 40.1048 76.2822 40.1011 76.2803Z" fill="white"/>
<path fill-rule="evenodd" clip-rule="evenodd" d="M60.7827 76.3408C60.7827 76.3408 60.7943 76.3369 60.7963 76.335C60.7924 76.335 60.7866 76.3389 60.7827 76.3408Z" fill="white"/>
<path fill-rule="evenodd" clip-rule="evenodd" d="M59.7109 76.7342C59.7109 76.7342 59.724 76.7285 59.7277 76.7285C59.724 76.7285 59.7165 76.7342 59.7109 76.7342Z" fill="white"/>
<path fill-rule="evenodd" clip-rule="evenodd" d="M41.6279 76.8369C41.6279 76.8369 41.6379 76.8409 41.6419 76.8428C41.6379 76.8428 41.6319 76.8389 41.6279 76.8369ZM57.7375 77.4555C57.7375 77.4555 57.7475 77.4516 57.7514 77.4496C57.7475 77.4496 57.7415 77.4535 57.7375 77.4555Z" fill="white"/>
<path fill-rule="evenodd" clip-rule="evenodd" d="M59.26 76.9005C59.26 76.9005 59.27 76.8965 59.274 76.8945C59.27 76.8945 59.264 76.8985 59.26 76.9005ZM43.7632 77.6218C43.7632 77.6218 43.7752 77.6258 43.7791 77.6278C43.7752 77.6278 43.7672 77.6238 43.7632 77.6218Z" fill="white"/>
<path fill-rule="evenodd" clip-rule="evenodd" d="M58.1904 77.2918C58.1904 77.2918 58.2016 77.288 58.2054 77.2861C58.2016 77.2861 58.1942 77.2899 58.1904 77.2918Z" fill="white"/>
<path fill-rule="evenodd" clip-rule="evenodd" d="M43.3159 77.4561C43.3159 77.4561 43.3256 77.46 43.3295 77.4619C43.3256 77.4619 43.3179 77.458 43.3159 77.4561Z" fill="white"/>
<path fill-rule="evenodd" clip-rule="evenodd" d="M57.5698 77.5164C57.5698 77.5164 57.581 77.5126 57.5848 77.5107C57.581 77.5107 57.5736 77.5145 57.5698 77.5164Z" fill="white"/>
<path fill-rule="evenodd" clip-rule="evenodd" d="M40.6357 78.5569L40.6816 78.5312L40.7375 78.5569L40.7435 78.6064C40.7156 78.5945 40.6617 78.5688 40.6357 78.5569Z" fill="white"/>
<path fill-rule="evenodd" clip-rule="evenodd" d="M60.3258 78.5569L60.3817 78.5312L60.4276 78.5569C60.3997 78.5688 60.3478 78.5945 60.3198 78.6064L60.3258 78.5569Z" fill="white"/>
<path fill-rule="evenodd" clip-rule="evenodd" d="M60.6211 78.5625C60.6211 78.5625 60.6266 78.5737 60.6284 78.5774C60.6284 78.5737 60.6229 78.5662 60.6211 78.5625Z" fill="white"/>
<path fill-rule="evenodd" clip-rule="evenodd" d="M60.1582 78.6136L60.2101 78.584L60.258 78.6057C60.2321 78.6196 60.1822 78.6492 60.1562 78.665V78.6156L60.1582 78.6136Z" fill="white"/>
<path fill-rule="evenodd" clip-rule="evenodd" d="M41.0869 78.723L41.1328 78.6973L41.1887 78.723L41.1947 78.7724C41.1687 78.7585 41.1149 78.7348 41.0869 78.723Z" fill="white"/>
<path fill-rule="evenodd" clip-rule="evenodd" d="M42.1587 79.1136L42.2046 79.0859L42.2605 79.1116L42.2665 79.161C42.2386 79.1492 42.1847 79.1255 42.1567 79.1116L42.1587 79.1136Z" fill="white"/>
<path fill-rule="evenodd" clip-rule="evenodd" d="M58.8029 79.1136L58.8568 79.0859L58.9027 79.1097C58.8767 79.1235 58.8228 79.1492 58.7969 79.161L58.8029 79.1116V79.1136Z" fill="white"/>
<path fill-rule="evenodd" clip-rule="evenodd" d="M58.6373 79.1712L58.6892 79.1416L58.7371 79.1633C58.7111 79.1772 58.6592 79.2068 58.6333 79.2207L58.6373 79.1712Z" fill="white"/>
<path fill-rule="evenodd" clip-rule="evenodd" d="M42.7754 79.3392L42.8213 79.3115L42.8772 79.3352L42.8852 79.3847C42.8572 79.3728 42.8033 79.3491 42.7754 79.3372V79.3392Z" fill="white"/>
<path fill-rule="evenodd" clip-rule="evenodd" d="M58.1862 79.3372L58.242 79.3115L58.2879 79.3372C58.26 79.3491 58.2061 79.3748 58.1802 79.3886L58.1862 79.3392V79.3372Z" fill="white"/>
<path fill-rule="evenodd" clip-rule="evenodd" d="M43.0645 79.4456L43.1104 79.4219L43.1642 79.4495L43.1702 79.499C43.1443 79.4871 43.0904 79.4594 43.0645 79.4476V79.4456Z" fill="white"/>
<path fill-rule="evenodd" clip-rule="evenodd" d="M43.2342 79.4973L43.2821 79.4775L43.334 79.5092V79.5586C43.31 79.5428 43.2601 79.5131 43.2342 79.4993V79.4973ZM35.5806 90.0412C35.6085 90.0531 35.6624 90.0768 35.6903 90.0906L35.6444 90.1183L35.5886 90.0926L35.5806 90.0432V90.0412Z" fill="white"/>
<path fill-rule="evenodd" clip-rule="evenodd" d="M57.7333 79.5052L57.7872 79.4795L57.8331 79.5032C57.8072 79.5151 57.7533 79.5408 57.7274 79.5546L57.7333 79.5052ZM45.2041 80.2285L45.25 80.2048L45.3039 80.2305L45.3099 80.2799C45.282 80.2661 45.2301 80.2424 45.2021 80.2285H45.2041Z" fill="white"/>
<path fill-rule="evenodd" clip-rule="evenodd" d="M57.5655 79.5628L57.6174 79.5332L57.6653 79.5549C57.6393 79.5688 57.5874 79.5984 57.5635 79.6123V79.5628H57.5655Z" fill="white"/>
<path fill-rule="evenodd" clip-rule="evenodd" d="M43.8452 79.7308L43.8911 79.7031L43.947 79.7268L43.955 79.7762C43.927 79.7644 43.8732 79.7407 43.8452 79.7288V79.7308Z" fill="white"/>
<path fill-rule="evenodd" clip-rule="evenodd" d="M57.1168 79.7269L57.1727 79.7012L57.2186 79.7269C57.1907 79.7387 57.1368 79.7644 57.1108 79.7763L57.1168 79.7269Z" fill="white"/>
<path fill-rule="evenodd" clip-rule="evenodd" d="M44.1343 79.8372L44.1802 79.8135L44.2341 79.8411L44.2401 79.8906C44.2141 79.8787 44.1602 79.851 44.1343 79.8392V79.8372ZM65.6622 89.9819C65.6882 89.97 65.7421 89.9424 65.768 89.9285L65.764 89.9779L65.7101 90.0056L65.6622 89.9819Z" fill="white"/>
<path fill-rule="evenodd" clip-rule="evenodd" d="M44.3042 79.8887L44.3517 79.8672L44.4031 79.8966V79.9455C44.3794 79.9318 44.3299 79.9024 44.3042 79.8887Z" fill="white"/>
<path fill-rule="evenodd" clip-rule="evenodd" d="M56.5002 79.9505L56.5561 79.9268L56.602 79.9544C56.574 79.9663 56.5201 79.99 56.4922 80.0019L56.5002 79.9525V79.9505Z" fill="white"/>
<path fill-rule="evenodd" clip-rule="evenodd" d="M44.5874 80.0032L44.6333 79.9795L44.6872 80.0072L44.6912 80.0566C44.6652 80.0427 44.6114 80.017 44.5874 80.0032Z" fill="white"/>
<path fill-rule="evenodd" clip-rule="evenodd" d="M44.9165 80.1224L44.9624 80.0947L45.0183 80.1184L45.0263 80.1679C44.9983 80.156 44.9444 80.1323 44.9165 80.1224Z" fill="white"/>
<path fill-rule="evenodd" clip-rule="evenodd" d="M56.047 80.1185L56.1029 80.0928L56.1488 80.1204C56.1209 80.1323 56.067 80.156 56.0391 80.1679L56.047 80.1185Z" fill="white"/>
<path fill-rule="evenodd" clip-rule="evenodd" d="M45.3736 80.2803L45.4191 80.2588L45.4705 80.2882V80.3371C45.4487 80.3234 45.3973 80.294 45.3716 80.2803H45.3736Z" fill="white"/>
<path fill-rule="evenodd" clip-rule="evenodd" d="M55.4284 80.3411L55.4843 80.3174L55.5302 80.345C55.5022 80.3569 55.4484 80.3806 55.4204 80.3925L55.4284 80.3431V80.3411Z" fill="white"/>
<path fill-rule="evenodd" clip-rule="evenodd" d="M35.0614 89.8664C34.9744 89.8429 34.9724 89.8136 35.0594 89.7764C35.0594 89.7999 35.0594 89.8429 35.0614 89.8664Z" fill="white"/>
<path fill-rule="evenodd" clip-rule="evenodd" d="M65.373 90.0884C65.401 90.0766 65.4569 90.0529 65.4828 90.043L65.4748 90.0924L65.419 90.1161L65.373 90.0884Z" fill="white"/>
<path fill-rule="evenodd" clip-rule="evenodd" d="M65.0435 90.2037C65.0694 90.1919 65.1233 90.1662 65.1492 90.1523L65.1452 90.2018L65.0914 90.2274L65.0435 90.2037Z" fill="white"/>
<path fill-rule="evenodd" clip-rule="evenodd" d="M36.2012 90.2666C36.2291 90.2785 36.285 90.3002 36.3129 90.3121L36.269 90.3397L36.2112 90.316L36.2012 90.2666Z" fill="white"/>
<path fill-rule="evenodd" clip-rule="evenodd" d="M64.5845 90.3657C64.6124 90.3539 64.6683 90.3321 64.6962 90.3223L64.6863 90.3717L64.6284 90.3934L64.5845 90.3657Z" fill="white"/>
<path fill-rule="evenodd" clip-rule="evenodd" d="M36.5386 90.377C36.5665 90.3888 36.6204 90.4125 36.6483 90.4244L36.6024 90.4521L36.5466 90.4283L36.5386 90.3789V90.377Z" fill="white"/>
<path fill-rule="evenodd" clip-rule="evenodd" d="M64.2476 90.48C64.2755 90.4682 64.3294 90.4464 64.3573 90.4346L64.3473 90.484L64.2915 90.5077L64.2476 90.48Z" fill="white"/>
<path fill-rule="evenodd" clip-rule="evenodd" d="M36.8779 90.4863C36.9039 90.5002 36.9538 90.5298 36.9797 90.5436L36.9318 90.5654L36.8799 90.5357V90.4863H36.8779Z" fill="white"/>
<path fill-rule="evenodd" clip-rule="evenodd" d="M37.0454 90.541C37.0714 90.5549 37.1212 90.5825 37.1472 90.5983C37.1232 90.5983 37.0734 90.5924 37.0474 90.5904V90.541H37.0454Z" fill="white"/>
<path fill-rule="evenodd" clip-rule="evenodd" d="M63.9141 90.5963C63.94 90.5825 63.9919 90.5548 64.0178 90.543L64.0138 90.5924L63.96 90.62L63.9141 90.5963Z" fill="white"/>
<path fill-rule="evenodd" clip-rule="evenodd" d="M37.2134 90.6006C37.2413 90.6124 37.2952 90.6362 37.3231 90.648L37.2772 90.6757L37.2214 90.652L37.2134 90.6026V90.6006Z" fill="white"/>
<path fill-rule="evenodd" clip-rule="evenodd" d="M63.7427 90.6441C63.7706 90.6322 63.8265 90.6105 63.8544 90.5986L63.8445 90.648L63.7866 90.6718L63.7427 90.6441Z" fill="white"/>
<path fill-rule="evenodd" clip-rule="evenodd" d="M63.6045 90.6912C63.6045 90.6912 63.6157 90.6874 63.6195 90.6855C63.6157 90.6855 63.6082 90.6893 63.6045 90.6912Z" fill="white"/>
<path fill-rule="evenodd" clip-rule="evenodd" d="M37.5522 90.7129C37.5802 90.7228 37.6361 90.7445 37.664 90.7564L37.6201 90.784L37.5622 90.7623L37.5522 90.7129Z" fill="white"/>
<path fill-rule="evenodd" clip-rule="evenodd" d="M63.4331 90.7471C63.4331 90.7471 63.4447 90.7432 63.4466 90.7432C63.4428 90.7432 63.437 90.7471 63.4331 90.7471Z" fill="white"/>
<path fill-rule="evenodd" clip-rule="evenodd" d="M37.7739 90.7705C37.7999 90.7824 37.8518 90.8081 37.8757 90.8199C37.8518 90.8199 37.8019 90.8199 37.7779 90.8199L37.7739 90.7725V90.7705Z" fill="white"/>
<path fill-rule="evenodd" clip-rule="evenodd" d="M63.1895 90.8219C63.2154 90.8081 63.2653 90.7804 63.2912 90.7666V90.816C63.2633 90.816 63.2154 90.82 63.1895 90.8219Z" fill="white"/>
<path fill-rule="evenodd" clip-rule="evenodd" d="M37.9438 90.8223C37.9698 90.8361 38.0217 90.8638 38.0476 90.8776C38.0217 90.8776 37.9718 90.8717 37.9478 90.8717L37.9438 90.8223Z" fill="white"/>
<path fill-rule="evenodd" clip-rule="evenodd" d="M63.0181 90.8776C63.044 90.8638 63.0959 90.8361 63.1218 90.8223L63.1179 90.8717C63.0919 90.8717 63.042 90.8776 63.0181 90.8776Z" fill="white"/>
<path fill-rule="evenodd" clip-rule="evenodd" d="M38.1153 90.8789C38.1432 90.8908 38.1991 90.9125 38.225 90.9244L38.1791 90.952L38.1213 90.9283L38.1133 90.8789H38.1153Z" fill="white"/>
<path fill-rule="evenodd" clip-rule="evenodd" d="M62.8403 90.9244C62.8683 90.9125 62.9242 90.8908 62.9521 90.8789L62.9421 90.9283L62.8862 90.952L62.8423 90.9244H62.8403Z" fill="white"/>
<path fill-rule="evenodd" clip-rule="evenodd" d="M62.625 90.9879C62.6509 90.976 62.7028 90.9523 62.7288 90.9404L62.7228 90.9879C62.6988 90.9879 62.6489 90.9879 62.625 90.9879Z" fill="white"/>
<path fill-rule="evenodd" clip-rule="evenodd" d="M38.6782 91.0469C38.7062 91.0587 38.762 91.0805 38.79 91.0923L38.7461 91.12L38.6902 91.0963L38.6802 91.0469H38.6782Z" fill="white"/>
<path fill-rule="evenodd" clip-rule="evenodd" d="M38.9014 91.1064C38.9273 91.1183 38.9812 91.142 39.0071 91.1539C38.9832 91.1539 38.9333 91.1539 38.9094 91.1539L38.9034 91.1064H38.9014ZM61.4372 91.3159C61.4651 91.3061 61.519 91.2863 61.5469 91.2764L61.537 91.3238L61.4811 91.3436L61.4372 91.3159Z" fill="white"/>
<path fill-rule="evenodd" clip-rule="evenodd" d="M39.0732 91.1602C39.1012 91.172 39.1571 91.1938 39.185 91.2037L39.1411 91.2313L39.0832 91.2076L39.0732 91.1582V91.1602Z" fill="white"/>
<path fill-rule="evenodd" clip-rule="evenodd" d="M39.2969 91.2168C39.3229 91.2287 39.3748 91.2524 39.4007 91.2662C39.3767 91.2662 39.3269 91.2662 39.3009 91.2662L39.2949 91.2188L39.2969 91.2168Z" fill="white"/>
<path fill-rule="evenodd" clip-rule="evenodd" d="M39.4683 91.2705C39.4962 91.2824 39.5521 91.3041 39.58 91.316L39.5361 91.3436L39.4782 91.3199L39.4683 91.2705Z" fill="white"/>
<path fill-rule="evenodd" clip-rule="evenodd" d="M39.6899 91.3281C39.7179 91.338 39.7738 91.3597 39.8017 91.3696L39.7578 91.3993L39.6999 91.3775L39.6899 91.3281Z" fill="white"/>
<path fill-rule="evenodd" clip-rule="evenodd" d="M61.0361 91.4253C61.0641 91.4154 61.12 91.3956 61.1499 91.3857L61.1379 91.4352L61.08 91.4549L61.0361 91.4253Z" fill="white"/>
<path fill-rule="evenodd" clip-rule="evenodd" d="M40.1411 91.4424C40.1691 91.4523 40.2249 91.474 40.2529 91.4839L40.209 91.5135L40.1511 91.4918L40.1411 91.4424Z" fill="white"/>
<path fill-rule="evenodd" clip-rule="evenodd" d="M40.3643 91.5C40.3922 91.5099 40.4481 91.5277 40.476 91.5376L40.4321 91.5672L40.3762 91.5474L40.3663 91.5H40.3643Z" fill="white"/>
<path fill-rule="evenodd" clip-rule="evenodd" d="M41.043 91.666C41.0709 91.6759 41.1288 91.6937 41.1567 91.7036L41.1148 91.7352L41.0569 91.7154L41.045 91.666H41.043Z" fill="white"/>
<path fill-rule="evenodd" clip-rule="evenodd" d="M36.2671 92.3555C36.2671 92.3555 36.287 92.3614 36.293 92.3634C36.287 92.3614 36.2731 92.3574 36.2671 92.3555ZM38.8556 93.1361C38.8556 93.1361 38.8695 93.1401 38.8755 93.1421C38.8695 93.1421 38.8595 93.1381 38.8556 93.1361Z" fill="white"/>
<path fill-rule="evenodd" clip-rule="evenodd" d="M36.4326 92.4072L36.4486 92.4132L36.4645 92.4191C36.4645 92.4191 36.4406 92.4112 36.4326 92.4092V92.4072ZM39.9271 93.4152C39.9271 93.4152 39.9411 93.4191 39.9451 93.4191C39.9411 93.4191 39.9311 93.4152 39.9271 93.4152Z" fill="white"/>
<path fill-rule="evenodd" clip-rule="evenodd" d="M36.6045 92.4648C36.6045 92.4648 36.6226 92.4709 36.6286 92.4729C36.6226 92.4729 36.6105 92.4669 36.6045 92.4648Z" fill="white"/>
<path fill-rule="evenodd" clip-rule="evenodd" d="M38.6221 93.0557C38.648 93.0675 38.6999 93.0932 38.7258 93.1051L38.6799 93.1308L38.6261 93.1051L38.6221 93.0557Z" fill="white"/>
<path fill-rule="evenodd" clip-rule="evenodd" d="M39.4663 93.2783C39.4923 93.2902 39.5441 93.3139 39.5701 93.3277L39.5242 93.3534L39.4703 93.3277L39.4663 93.2783Z" fill="white"/>
<path fill-rule="evenodd" clip-rule="evenodd" d="M61.4932 93.3277C61.5191 93.3159 61.571 93.2922 61.5969 93.2783L61.593 93.3277L61.5391 93.3534L61.4932 93.3277Z" fill="white"/>
<path fill-rule="evenodd" clip-rule="evenodd" d="M40.087 93.4482C40.1149 93.4581 40.1708 93.4779 40.1987 93.4878L40.1548 93.5174L40.0969 93.4977L40.085 93.4482H40.087Z" fill="white"/>
<path fill-rule="evenodd" clip-rule="evenodd" d="M60.8188 93.4937C60.8448 93.4819 60.8967 93.4581 60.9226 93.4463L60.9186 93.4957L60.8648 93.5214L60.8188 93.4937Z" fill="white"/>
<path fill-rule="evenodd" clip-rule="evenodd" d="M40.3706 93.502C40.3943 93.5157 40.4438 93.5431 40.4695 93.5568C40.4458 93.5568 40.3983 93.5509 40.3726 93.549V93.5L40.3706 93.502Z" fill="white"/>
<path fill-rule="evenodd" clip-rule="evenodd" d="M40.5957 93.5596C40.6216 93.5714 40.6755 93.5951 40.7015 93.607L40.6556 93.6347L40.6017 93.609L40.5957 93.5596Z" fill="white"/>
<path fill-rule="evenodd" clip-rule="evenodd" d="M59.8589 93.7174C59.8848 93.7055 59.9367 93.6818 59.9647 93.6699L59.9607 93.7193L59.9068 93.745L59.8609 93.7174H59.8589Z" fill="white"/>
<path fill-rule="evenodd" clip-rule="evenodd" d="M59.0723 93.8853C59.0982 93.8735 59.1501 93.8497 59.176 93.8379L59.1721 93.8873L59.1202 93.913L59.0723 93.8873V93.8853Z" fill="white"/>
</g>
<defs>
<clipPath id="clip0_1087_127735">
<rect width="101" height="96" fill="white" transform="translate(0.399902 0.741211)"/>
</clipPath>
</defs>
</svg>
