<svg width="102" height="97" viewBox="0 0 102 97" fill="none" xmlns="http://www.w3.org/2000/svg">
<g clip-path="url(#clip0_1087_127723)">
<path d="M53.0735 0.825657C54.049 0.503957 54.5879 1.1397 55.1238 2.08335C61.6534 13.5604 68.2211 25.016 74.7782 36.4777C75.8881 38.4187 76.9522 40.3887 78.0865 42.3112C82.1535 49.2063 86.042 56.2026 90.0693 63.1207C90.312 63.5373 90.3869 63.8452 90.08 64.2742C89.6968 64.8088 89.3884 65.4017 89.0892 65.9899C88.8861 66.3882 88.732 66.4112 88.3503 66.1523C83.1367 62.6121 77.9078 59.0933 72.682 55.5699C70.5966 54.1651 68.5112 52.7604 66.4196 51.3663C66.0319 51.1074 65.7387 50.8026 65.5006 50.3844C61.3954 43.1814 57.2764 35.986 53.1452 28.7983C52.8933 28.3586 52.7804 27.9159 52.7529 27.4272C52.385 20.7849 52.0155 14.1441 51.646 7.50324C51.5376 5.54393 51.4537 3.58309 51.2995 1.62838C51.2491 0.988039 51.3865 0.724551 52.0476 0.821061C52.3224 0.860891 52.6063 0.827189 53.072 0.827189L53.0735 0.825657Z" fill="white"/>
<path d="M54.8244 71.238C44.8782 71.238 34.9334 71.2426 24.9872 71.2349C21.427 71.2319 17.8668 71.1936 14.3066 71.1874C13.8806 71.1874 13.5997 71.094 13.4089 70.6696C13.1799 70.1611 12.9051 69.6617 12.5738 69.2159C12.1601 68.6567 12.3723 68.4484 12.9127 68.1818C16.3309 66.4952 19.7324 64.7733 23.1414 63.0668C27.5275 60.87 31.9152 58.6779 36.2967 56.4719C36.6509 56.2942 37.0005 56.2207 37.3914 56.2207C45.6797 56.2345 53.9664 56.2422 62.2547 56.2406C62.6822 56.2406 63.0425 56.3693 63.4089 56.5577C67.6866 58.7438 71.9674 60.9237 76.2482 63.1066C79.7794 64.9066 83.3045 66.7173 86.8448 68.4989C87.3166 68.7364 87.3914 68.8926 87.1166 69.3844C86.0525 71.2885 86.0769 71.3023 83.8999 71.3023H54.8244C54.8244 71.2809 54.8244 71.2594 54.8244 71.238Z" fill="white"/>
<path d="M46.9162 0.825195C48.5024 0.825195 48.5131 0.825195 48.4154 2.35557C47.8796 10.8301 47.3376 19.3031 46.8033 27.776C46.7834 28.0916 46.704 28.3673 46.5468 28.64C42.3744 35.8461 38.205 43.0537 34.0449 50.266C33.8082 50.6765 33.5136 50.9967 33.1227 51.2571C25.8588 56.1209 18.598 60.9893 11.3402 65.8638C10.9998 66.0921 10.7479 66.2422 10.5646 65.7137C10.4914 65.5008 10.3708 65.2878 10.2181 65.1239C9.24408 64.0684 9.51125 63.134 10.1998 61.9667C14.7035 54.3102 19.1216 46.6032 23.5704 38.9145C27.9153 31.4051 32.2663 23.8972 36.6081 16.3863C39.4615 11.4505 42.3332 6.52695 45.1209 1.55438C45.6247 0.656686 46.2918 0.872684 46.9147 0.825195H46.9162Z" fill="white"/>
<path d="M89.692 86.7212C91.7103 84.4356 93.585 82.3308 95.4354 80.203C95.843 79.7342 96.246 79.4753 96.9132 79.5106C98.1696 79.578 99.4337 79.5305 100.895 79.5305C100.006 80.5431 99.249 81.4147 98.4826 82.2787C97.0323 83.9148 95.5895 85.5585 94.1148 87.1732C93.7804 87.5393 93.7942 87.7568 94.1148 88.1122C96.2643 90.4882 98.394 92.881 100.53 95.2693C100.76 95.5266 101.02 95.761 101.199 96.1976C99.5772 96.1976 98.0368 96.1992 96.4964 96.1961C96.2338 96.1961 96.1086 95.9709 95.9605 95.8039C94.1163 93.7358 92.2767 91.6647 90.4355 89.5951C90.2401 89.376 90.0416 89.16 89.8279 88.9226C89.6065 89.2198 89.6966 89.4802 89.6951 89.7207C89.6859 91.6862 89.6768 93.6501 89.6997 95.6155C89.7058 96.0889 89.5607 96.2313 89.0951 96.2145C88.1547 96.1808 87.2127 96.1884 86.2723 96.2114C85.854 96.2221 85.6967 96.1057 85.6983 95.6569C85.7105 89.1248 85.712 82.5928 85.6983 76.0592C85.6983 75.5996 85.8601 75.5092 86.2708 75.5215C87.2112 75.5475 88.1547 75.5628 89.0936 75.5169C89.6355 75.4893 89.7027 75.7176 89.7012 76.1787C89.6844 79.3681 89.692 82.5575 89.692 85.747V86.7243V86.7212Z" fill="white"/>
<path d="M9.98928 87.5211C10.4076 87.5517 10.5816 87.5686 10.7572 87.5763C13.2518 87.6896 15.6105 86.458 16.4639 84.3991C17.4364 82.0537 17.3371 79.7268 15.6166 77.7276C14.2502 76.1406 12.3205 75.6381 10.3297 75.5814C7.12829 75.4895 3.92381 75.5431 0.720852 75.5186C0.326971 75.5156 0.200257 75.6274 0.200257 76.0333C0.210944 82.5623 0.213997 89.0928 0.19873 95.6218C0.19873 96.1228 0.394144 96.2177 0.830773 96.207C1.74525 96.1825 2.66278 96.1703 3.57573 96.2101C4.10701 96.2331 4.26884 96.0676 4.26426 95.5284C4.2383 92.9272 4.25052 90.3245 4.25815 87.7233C4.25815 87.5119 4.15434 87.2668 4.40318 87.0493C4.59096 87.253 4.77875 87.4491 4.95889 87.6529C7.35271 90.3505 9.74653 93.0482 12.1404 95.7444C12.3236 95.9496 12.4793 96.1978 12.806 96.1978C14.3403 96.1978 15.8761 96.1978 17.615 96.1978C15.0288 93.255 12.5785 90.467 9.98775 87.5196L9.98928 87.5211ZM7.75881 84.7591C6.54968 84.7591 5.68864 84.7438 4.82912 84.7652C4.41234 84.7759 4.24136 84.6503 4.24746 84.2045C4.26731 82.6496 4.26426 81.0932 4.24746 79.5368C4.24441 79.1615 4.32227 78.9807 4.74821 78.9945C6.62602 79.0527 8.50993 78.8919 10.3847 79.0941C12.5083 79.3223 13.6182 80.7822 13.1892 82.6987C12.919 83.9058 12.0747 84.3945 10.974 84.589C9.79386 84.7989 8.6 84.7499 7.75881 84.7575V84.7591Z" fill="white"/>
<path d="M66.6989 85.3163C66.3371 82.3306 64.3952 80.284 61.5494 79.7141C59.6319 79.3311 57.7679 79.4613 55.9588 80.6179C55.9588 79.0339 55.9466 77.5648 55.9664 76.0972C55.9725 75.6852 55.8794 75.5013 55.4229 75.5167C54.4321 75.5473 53.4382 75.5504 52.4474 75.5167C51.9833 75.4998 51.9161 75.6898 51.9177 76.0927C51.9284 82.6002 51.9329 89.1062 51.9131 95.6137C51.9116 96.2464 52.2001 96.3215 52.652 96.1407C53.1451 95.9446 53.6016 95.6597 54.081 95.4284C54.2947 95.3257 54.4764 95.145 54.7695 95.3594C56.3465 96.5114 58.1541 96.7596 60.0502 96.7045C63.6532 96.5988 66.2669 94.3683 66.702 90.8173C66.9249 88.999 66.9218 87.1362 66.702 85.3178L66.6989 85.3163ZM62.7677 90.2168C62.641 92.1041 61.3403 93.2163 59.3205 93.2086C57.3328 93.201 56.0733 92.1087 55.9832 90.2076C55.916 88.8075 55.9175 87.4012 55.971 86.001C56.0443 84.1275 57.4106 82.9357 59.3739 82.9449C61.3052 82.9541 62.6303 84.1015 62.7662 85.9352C62.8196 86.6705 62.7754 87.4134 62.7754 88.1534C62.7754 88.8412 62.8135 89.5336 62.7677 90.2184V90.2168Z" fill="white"/>
<path d="M48.9467 91.3292C48.2185 91.4135 47.472 91.3721 46.7361 91.3369C46.2934 91.3154 46.0491 91.4303 45.9071 91.8853C45.701 92.5456 45.159 92.9056 44.5301 93.1001C43.6156 93.382 42.6706 93.4096 41.7378 93.2273C39.8584 92.8596 39.0066 91.7903 38.9577 89.877C38.944 89.3653 39.0524 89.1662 39.6142 89.1815C41.1897 89.2213 42.7683 89.1953 44.3453 89.1953C45.9483 89.1953 47.5513 89.1738 49.1528 89.2075C49.6704 89.2183 49.8139 89.0467 49.794 88.5534C49.762 87.7124 49.8139 86.8683 49.7803 86.0273C49.6719 83.3587 48.5177 81.3397 46.0506 80.1907C44.4766 79.4585 42.7927 79.4064 41.1134 79.5918C37.228 80.0207 35.0082 82.5453 35.0067 86.4608C35.0067 87.6603 34.9792 88.8613 35.0128 90.0593C35.0754 92.2606 35.967 94.056 37.7913 95.3107C40.3851 97.0938 43.2217 96.9467 46.0644 96.141C48.0093 95.5895 49.1605 94.1893 49.6078 92.2116C49.7345 91.6509 49.7742 91.2342 48.9467 91.3308V91.3292ZM41.0401 83.0232C41.9912 82.7597 42.9423 82.7582 43.8827 83.0355C45.101 83.3955 45.8766 84.5368 45.8583 85.8113C45.8522 86.1851 45.727 86.2923 45.3713 86.2862C44.3804 86.2693 43.3896 86.2801 42.3988 86.2801C41.434 86.2801 40.4676 86.2632 39.5027 86.2877C39.1119 86.2984 38.9821 86.1958 38.9791 85.7822C38.9669 84.4387 39.7409 83.3832 41.0416 83.0232H41.0401Z" fill="white"/>
<path d="M32.3395 91.3395C31.5013 91.364 30.6617 91.3671 29.8235 91.338C29.4388 91.3242 29.2694 91.4268 29.132 91.8175C28.8694 92.5666 28.2572 92.9817 27.4969 93.1671C26.6954 93.3616 25.8847 93.3708 25.0741 93.2483C23.2176 92.9679 22.2344 91.8083 22.1719 89.921C22.1535 89.371 22.268 89.1611 22.8711 89.1795C24.4206 89.2255 25.9717 89.1948 27.5228 89.1948C29.1243 89.1948 30.7258 89.1765 32.3273 89.2071C32.8036 89.2163 32.9395 89.0754 32.9196 88.6066C32.8845 87.715 32.9273 86.8219 32.9059 85.9288C32.828 82.698 30.7563 80.2792 27.5915 79.6848C26.6068 79.4994 25.6176 79.5025 24.6283 79.553C21.2192 79.7261 18.6575 81.8938 18.2666 85.1215C18.0346 87.0395 18.0697 89.0018 18.2621 90.9259C18.4453 92.7535 19.3689 94.267 20.9169 95.2826C23.8298 97.1929 26.9259 97.0811 30.0052 95.8035C31.6739 95.1111 32.5151 93.6604 32.7944 91.8787C32.8586 91.4713 32.7608 91.3288 32.3395 91.3426V91.3395ZM24.1504 83.0473C25.1718 82.7394 26.1977 82.7394 27.2038 83.0917C28.3533 83.4946 29.0938 84.6727 29.0571 85.8859C29.0449 86.272 28.8602 86.2842 28.5839 86.2827C27.5946 86.2781 26.6053 86.2812 25.616 86.2812C24.6527 86.2812 23.6878 86.2612 22.7245 86.2904C22.2818 86.3041 22.1673 86.1418 22.1734 85.7189C22.1932 84.4337 22.9199 83.4196 24.1504 83.0488V83.0473Z" fill="white"/>
<path d="M83.5581 85.8142C83.4817 82.8913 81.6223 80.572 78.7949 79.8306C77.2972 79.4369 75.7782 79.4169 74.2622 79.6697C71.3646 80.1523 69.5081 82.0197 68.9799 84.9241C68.7906 85.9628 68.9188 87.0106 68.8959 88.0523C68.8959 88.8933 68.8562 89.7374 68.9036 90.5753C69.0593 93.3741 70.7172 95.5142 73.3431 96.3307C74.5003 96.6907 75.6972 96.703 76.8911 96.6555C80.8253 96.4977 83.4634 93.9716 83.5596 90.249C83.5978 88.7723 83.5978 87.2909 83.5596 85.8142H83.5581ZM79.5719 90.1296C79.5231 92.0399 78.2147 93.2118 76.1507 93.2087C74.1599 93.2056 72.8485 92.0107 72.8118 90.1326C72.7859 88.7677 72.7721 87.3997 72.7981 86.0348C72.8332 84.195 74.2255 82.9357 76.1659 82.9449C78.1842 82.9541 79.5338 84.1904 79.5719 86.0761C79.5857 86.7394 79.5735 87.4028 79.5735 88.0661C79.5735 88.7554 79.5887 89.4433 79.5704 90.1326L79.5719 90.1296Z" fill="white"/>
</g>
<defs>
<clipPath id="clip0_1087_127723">
<rect width="101" height="96" fill="white" transform="translate(0.200195 0.741211)"/>
</clipPath>
</defs>
</svg>
