<svg width="40" height="40" viewBox="0 0 40 40" fill="none" xmlns="http://www.w3.org/2000/svg">
<path id="Vector" d="M0.000247202 20.0527C0.0546979 31.0838 9.05408 40.0514 20.0174 39.9998C31.0897 39.9481 40.0365 30.9834 39.9999 19.9757C39.9633 8.94741 30.9348 -0.07464 20.0109 0.00046555C8.89354 0.0774487 -0.0542035 9.04411 0.000247202 20.0527ZM22.5982 10.7161C23.476 11.6014 24.3932 12.5271 25.3808 13.5241C23.2263 15.6731 21.0454 17.8483 18.8007 20.0874C20.99 22.2664 23.1652 24.4323 25.2916 26.5484C24.3697 27.4703 23.4488 28.3903 22.5869 29.2522C19.5105 26.1804 16.4002 23.0757 13.3162 19.9964C16.3974 16.9152 19.5067 13.8067 22.5973 10.7161H22.5982Z" fill="#D9D9D9"/>
</svg>
