<svg width="25" height="25" viewBox="0 0 25 25" fill="none" xmlns="http://www.w3.org/2000/svg">
<path id="Vector" d="M12.5329 24.9998C19.4274 24.9658 25.0321 19.3412 24.9999 12.4891C24.9676 5.56894 19.3646 -0.0228138 12.4848 7.05719e-05C5.59213 0.022953 -0.04665 5.66575 0.000290968 12.4932C0.0484054 19.4415 5.65257 25.0339 12.5329 24.9998ZM6.69759 10.8761C7.25091 10.3275 7.82945 9.75425 8.45259 9.13698C9.79569 10.4836 11.1552 11.8466 12.5546 13.2495C13.9165 11.8812 15.2702 10.5217 16.5927 9.19273C17.1689 9.76892 17.744 10.3445 18.2826 10.8832C16.3627 12.8059 14.4223 14.7499 12.4977 16.6773C10.572 14.7516 8.62921 12.8083 6.69759 10.8767V10.8761Z" fill="#D9D9D9"/>
</svg>
