<svg width="40" height="40" viewBox="0 0 40 40" fill="none" xmlns="http://www.w3.org/2000/svg">
<path d="M39.9998 19.9473C39.9453 8.91619 30.9459 -0.0514108 19.9826 0.000224828C8.9103 0.0518604 -0.0365025 9.01664 0.000110864 20.0243C0.0367242 31.0526 9.06521 40.0746 19.9891 39.9995C31.1065 39.9226 40.0542 30.9559 39.9998 19.9473ZM17.4018 29.2839C16.524 28.3986 15.6068 27.4729 14.6192 26.4758C16.7737 24.3269 18.9546 22.1517 21.1993 19.9126C19.01 17.7336 16.8348 15.5677 14.7084 13.4516C15.6303 12.5297 16.5512 11.6097 17.4131 10.7478C20.4895 13.8196 23.5998 16.9243 26.6838 20.0036C23.6026 23.0848 20.4933 26.1933 17.4027 29.2839L17.4018 29.2839Z" fill="#D9D9D9"/>
</svg>
