<svg width="73" height="50" viewBox="0 0 73 50" fill="none" xmlns="http://www.w3.org/2000/svg">
<path d="M72.0598 41.6061C71.4555 42.9337 70.3861 43.3369 68.9891 43.2912C67.0934 43.2278 65.1943 43.2753 63.3797 43.2753C62.816 44.3124 62.3949 45.3707 61.7342 46.2511C59.5515 49.1617 56.5706 50.4207 52.9908 49.8484C49.5342 49.2973 47.1436 47.26 45.8998 43.9638C45.706 43.4496 45.4928 43.2559 44.9167 43.2595C40.8841 43.2894 36.8515 43.2841 32.8206 43.263C32.3397 43.2612 32.1424 43.4074 31.982 43.8564C30.666 47.5646 27.2905 49.9752 23.4271 49.9998C19.6164 50.0245 16.1617 47.5734 14.8263 43.8986C14.7558 43.7032 14.6853 43.5095 14.599 43.2753C12.7175 43.2753 10.8447 43.2841 8.97025 43.2718C7.63133 43.263 6.64652 42.4829 6.49677 41.3472C6.29769 39.8488 7.28426 38.7025 8.84692 38.6761C10.4871 38.6479 12.129 38.669 13.7692 38.669C14.0247 38.669 14.2801 38.669 14.5779 38.669C15.0852 36.8765 15.9749 35.3376 17.3632 34.1191C22.2766 29.8016 29.8503 31.7825 31.9856 37.9647C32.1864 38.5475 32.4524 38.6849 33.0215 38.6814C37.0065 38.6585 40.9916 38.6673 44.9784 38.6726C45.3448 38.6726 45.6056 38.6726 45.7659 38.2112C47.14 34.2265 50.6142 31.7015 54.5393 31.7896C58.6089 31.8811 61.9175 34.4378 63.1965 38.4806C63.2106 38.5247 63.2317 38.5652 63.2634 38.6391H67.4669C67.4793 38.3873 67.5039 38.1408 67.5039 37.896C67.5057 34.4748 67.518 31.0536 67.4881 27.6323C67.4846 27.2502 67.3154 26.8118 67.0882 26.4984C66.2919 25.3979 65.4233 24.3502 64.6094 23.2638C64.3311 22.8922 64.0298 22.7479 63.5559 22.7479C58.1632 22.7655 52.7705 22.7038 47.3796 22.7866C45.1211 22.8218 44.2067 21.7512 44.2402 19.6031C44.3107 14.9176 44.2613 10.2285 44.2613 5.54127V4.61157C43.9125 4.61157 43.6166 4.61157 43.3188 4.61157C31.9486 4.61157 20.5783 4.61157 9.20808 4.60628C8.79231 4.60628 8.35716 4.57811 7.9643 4.45486C6.96363 4.13791 6.39283 3.18708 6.47915 2.09714C6.55843 1.09524 7.25784 0.301118 8.26027 0.109191C8.60204 0.044041 8.95791 0.0211505 9.30674 0.0193897C21.5244 0.0158681 33.7385 0.0317153 45.9526 2.08532e-05C47.8077 -0.00526156 49.0128 0.993114 48.8507 2.91063C48.8049 3.43887 48.8436 3.97592 48.8436 4.58339C49.1695 4.58339 49.4215 4.58339 49.6734 4.58339C52.464 4.58339 55.2528 4.61509 58.0434 4.56931C59.3859 4.54642 60.228 5.1134 60.8093 6.29842C62.3227 9.38335 63.9646 12.4102 65.4128 15.525C66.7376 18.3758 68.457 20.9377 70.4425 23.3518C71.0468 24.0861 71.526 24.9242 72.0615 25.7148V41.6061H72.0598ZM61.5528 18.1345C61.507 17.9814 61.4894 17.8651 61.4383 17.7665C60.0553 15.0091 58.6776 12.2499 57.2665 9.50836C57.1661 9.31291 56.8049 9.14564 56.5636 9.14388C54.1746 9.11747 51.784 9.12627 49.395 9.12979C49.2189 9.12979 49.0409 9.16501 48.8947 9.17909V18.1328H61.5528V18.1345ZM27.9054 40.87C27.8948 38.3732 25.8864 36.3835 23.3813 36.3941C20.9113 36.4046 18.8553 38.4718 18.88 40.9211C18.9047 43.381 20.9747 45.4217 23.4323 45.4094C25.9146 45.3971 27.9142 43.3686 27.9036 40.87H27.9054ZM49.9359 40.8454C49.906 43.3387 51.9002 45.3865 54.3808 45.4094C56.8437 45.4323 58.8908 43.4391 58.9613 40.9458C59.03 38.5317 56.9459 36.4135 54.4812 36.3941C51.9742 36.3747 49.9641 38.3415 49.9341 40.8436L49.9359 40.8454Z" fill="#555555"/>
<path d="M12.0181 18.2667C15.2279 18.2667 18.4396 18.2597 21.6495 18.272C22.6695 18.2755 23.4693 18.8601 23.8041 19.7775C24.1194 20.6403 23.9433 21.6686 23.1963 22.1898C22.6907 22.5419 22.0089 22.8184 21.4028 22.8219C15.1222 22.8677 8.84165 22.8624 2.56106 22.8413C0.658382 22.8342 -0.499079 21.2301 0.210901 19.6454C0.637242 18.6928 1.41769 18.2614 2.45535 18.2632C5.64234 18.2667 8.82932 18.2632 12.0163 18.2649L12.0181 18.2667Z" fill="#555555"/>
<path d="M15.6913 13.898C12.4585 13.898 9.22395 13.9068 5.99116 13.8927C4.81256 13.8874 3.91584 13.0669 3.73261 11.8907C3.58111 10.917 4.21181 9.85519 5.2019 9.51359C5.56834 9.38681 5.98059 9.34632 6.3717 9.34632C12.5801 9.33575 18.7902 9.33399 24.9985 9.3428C26.6334 9.34456 27.6341 10.2179 27.6447 11.6054C27.6535 12.8979 26.6651 13.891 25.3227 13.8962C22.1128 13.9068 18.9029 13.8998 15.693 13.8998L15.6913 13.898Z" fill="#555555"/>
<path d="M11.1425 31.758C9.47762 31.758 7.81455 31.765 6.14971 31.7562C4.77907 31.7474 3.77312 30.8283 3.71146 29.55C3.65332 28.3649 4.55357 27.3349 5.8643 27.2222C6.88787 27.1341 7.92377 27.1764 8.95439 27.1746C11.2746 27.1693 13.5948 27.1623 15.915 27.1817C16.3766 27.1852 16.8611 27.231 17.2927 27.3824C18.2757 27.7275 18.8677 28.7893 18.7144 29.7894C18.5435 30.9058 17.6345 31.7351 16.4858 31.751C14.7047 31.7756 12.9236 31.758 11.1425 31.758Z" fill="#555555"/>
</svg>
