<svg width="101" height="96" viewBox="0 0 101 96" fill="none" xmlns="http://www.w3.org/2000/svg">
<path fill-rule="evenodd" clip-rule="evenodd" d="M13.7107 0H86.5409C82.2401 8.53988 77.9473 17.0837 73.6485 25.6236C71.9122 24.501 70.2019 23.3389 68.4436 22.2499C65.3962 20.3882 62.1331 18.8288 58.6705 17.892C58.6785 36.6319 58.6885 55.3699 58.6985 74.1098C59.868 73.6849 61.0355 73.254 62.205 72.8291C65.1587 78.9756 68.1124 85.1221 71.062 91.2686C68.7689 92.1066 66.5058 93.0315 64.1728 93.7608C59.8181 95.1304 55.2698 95.913 50.6996 96.002H49.56C48.3486 95.9704 47.1392 95.9091 45.9338 95.7866C41.4873 95.3557 37.1166 94.2608 32.9496 92.6758C31.6962 92.2034 30.4389 91.7409 29.1876 91.2646C32.1413 85.1201 35.091 78.9736 38.0447 72.8271C39.2142 73.252 40.3817 73.6829 41.5512 74.1078C41.5611 55.3659 41.5711 36.626 41.5791 17.8841C38.1085 18.8269 34.8415 20.3961 31.784 22.2618C30.0338 23.3468 28.3294 24.503 26.6011 25.6196C22.3023 17.0837 18.0115 8.5379 13.7107 0ZM16.9418 1.98822C18.0853 4.25314 19.2229 6.52201 20.3625 8.78692C20.3625 8.79088 20.3685 8.7968 20.3685 8.80076C20.4782 9.02013 20.588 9.23951 20.6978 9.45889C20.6978 9.46284 20.7037 9.46877 20.7037 9.47272C20.7576 9.58142 20.8135 9.68815 20.8674 9.79685C20.8674 9.8008 20.8734 9.80673 20.8734 9.81068C20.9652 9.99251 21.055 10.1743 21.1468 10.3542C21.1468 10.3581 21.1528 10.3641 21.1528 10.368C21.1867 10.4372 21.2226 10.5064 21.2586 10.5775C21.2586 10.5815 21.2645 10.5894 21.2645 10.5913C21.3184 10.6981 21.3723 10.8048 21.4262 10.9135C21.4282 10.9174 21.4322 10.9234 21.4342 10.9273C21.506 11.0716 21.5779 11.2159 21.6517 11.3582C21.6517 11.3621 21.6577 11.37 21.6577 11.372C23.5676 15.1607 25.4676 18.9553 27.3815 22.742C27.4673 22.6907 27.5491 22.6373 27.6329 22.5839C27.6369 22.582 27.6449 22.576 27.6489 22.5741C27.6868 22.5484 27.7646 22.4989 27.8026 22.4733C27.8066 22.4713 27.8125 22.4673 27.8145 22.4654C27.8525 22.4397 27.9303 22.3883 27.9702 22.3646C27.9742 22.3626 27.9822 22.3567 27.9862 22.3547C28.0241 22.329 28.1019 22.2796 28.1398 22.2539C28.1438 22.2519 28.1518 22.246 28.1558 22.244C28.6966 21.8922 29.2335 21.5365 29.7763 21.1866C29.7783 21.1866 29.7843 21.1827 29.7883 21.1807C29.8282 21.155 29.9081 21.1056 29.946 21.0799C29.95 21.0779 29.956 21.074 29.9579 21.072C30.6205 20.6491 31.2951 20.2439 31.9756 19.8526C31.9796 19.8526 31.9856 19.8467 31.9896 19.8447C32.1153 19.7716 32.2431 19.7004 32.3688 19.6293C32.3728 19.6293 32.3788 19.6233 32.3808 19.6214C32.5085 19.5502 32.6382 19.4791 32.7659 19.4079C32.7699 19.4079 32.7759 19.404 32.7779 19.402C32.9795 19.2913 33.1811 19.1826 33.3846 19.0739C33.3866 19.0739 33.3926 19.07 33.3966 19.068C35.2027 18.1114 37.0747 17.2774 39.0106 16.6114C39.0146 16.6114 39.0266 16.6054 39.0305 16.6054C39.0685 16.5936 39.1423 16.5679 39.1802 16.556C39.1862 16.554 39.1962 16.5501 39.2022 16.5481C39.2361 16.5343 39.306 16.5106 39.3399 16.4967C39.3479 16.4948 39.3638 16.4888 39.3718 16.4868C39.4077 16.477 39.4796 16.4532 39.5155 16.4434C39.5215 16.4434 39.5335 16.4374 39.5395 16.4355C39.5754 16.4236 39.6492 16.3999 39.6851 16.388C39.6911 16.388 39.7011 16.3821 39.7051 16.3821C40.0703 16.2675 40.4355 16.1568 40.8028 16.052C40.8087 16.052 40.8227 16.0481 40.8287 16.0461C40.8626 16.0382 40.9265 16.0224 40.9604 16.0125L41.0063 16.0382L41.0602 16.0125L41.0662 15.9611C41.1939 15.9651 41.3137 15.9058 41.4374 15.8801C41.4414 15.8801 41.4494 15.8761 41.4534 15.8761C41.5971 15.8406 41.7407 15.803 41.8864 15.7674C41.8904 15.7674 41.8984 15.7635 41.9024 15.7635C41.9543 15.7516 42.0601 15.7259 42.114 15.7141C42.1159 15.7141 42.1239 15.7141 42.1259 15.7121C42.543 15.6153 42.9621 15.5263 43.3832 15.4473C43.4132 15.4512 43.475 15.4572 43.505 15.4591C43.5728 15.9038 43.5409 16.3544 43.5469 16.8031C43.5389 33.8077 43.5309 50.8104 43.5229 67.815C43.5289 70.8547 43.507 73.8963 43.5289 76.936C43.489 76.9241 43.4072 76.9004 43.3673 76.8885C43.3633 76.8885 43.3553 76.8846 43.3513 76.8826C43.2076 76.8293 43.0639 76.7739 42.9182 76.7225C42.9142 76.7225 42.9063 76.7186 42.9043 76.7166C42.551 76.5862 42.1978 76.4577 41.8445 76.3292C41.8405 76.3292 41.8345 76.3253 41.8306 76.3233C41.6829 76.2699 41.5372 76.2146 41.3915 76.1632C41.3875 76.1632 41.3795 76.1593 41.3755 76.1573C41.3376 76.1434 41.2638 76.1158 41.2278 76.1039C41.2239 76.1039 41.2179 76.1 41.2139 76.098C41.0662 76.0446 40.9205 75.9913 40.7748 75.9379C40.7708 75.9379 40.7648 75.934 40.7608 75.932C40.4635 75.8233 40.1661 75.7126 39.8688 75.6059C39.8628 75.6059 39.8528 75.6 39.8468 75.598C39.8109 75.5841 39.739 75.5584 39.7031 75.5446C39.6991 75.5446 39.6911 75.5407 39.6871 75.5387C39.5415 75.4853 39.3978 75.432 39.2521 75.3786C39.2481 75.3786 39.2421 75.3746 39.2381 75.3727C39.1782 75.3489 39.1164 75.3252 39.0565 75.3015C38.5675 76.3075 38.0886 77.3174 37.6016 78.3234C37.6016 78.3273 37.5976 78.3333 37.5956 78.3372C35.7017 82.2899 33.7937 86.2348 31.9098 90.1895L32.0155 90.2172C32.0155 90.2172 32.0355 90.2231 32.0415 90.2251C32.9356 90.565 33.8297 90.903 34.7277 91.2251C34.7317 91.2251 34.7417 91.231 34.7457 91.231C35.1129 91.3634 35.4841 91.488 35.8553 91.6125C35.8613 91.6125 35.8753 91.6184 35.8813 91.6204C35.9172 91.6322 35.9871 91.654 36.023 91.6638C36.031 91.6658 36.0469 91.6718 36.0549 91.6737C36.0888 91.6856 36.1607 91.7093 36.1946 91.7212C36.2006 91.7212 36.2126 91.7271 36.2186 91.7291C36.5079 91.8239 36.7993 91.9148 37.0927 92.0018C37.0987 92.0018 37.1087 92.0058 37.1126 92.0077C37.2923 92.0631 37.4739 92.1164 37.6555 92.1678C37.6595 92.1678 37.6675 92.1718 37.6715 92.1718C37.8511 92.2133 38.0247 92.2983 38.2123 92.3101L38.2163 92.3595L38.2702 92.3852L38.3161 92.3595C38.348 92.3674 38.4119 92.3832 38.4438 92.3912C38.4478 92.3912 38.4578 92.3951 38.4638 92.3971C38.6613 92.4366 38.8529 92.5295 39.0545 92.5354L39.0585 92.5848L39.1124 92.6105L39.1583 92.5848C39.276 92.6145 39.3958 92.6382 39.5155 92.6718C39.5195 92.6718 39.5295 92.6758 39.5335 92.6758C39.5674 92.6837 39.6392 92.6975 39.6732 92.7054L39.6851 92.7548L39.743 92.7746L39.7869 92.7449C39.8288 92.7489 39.9147 92.7548 39.9586 92.7588V92.8082C39.9845 92.8082 40.0344 92.8141 40.0583 92.8161H40.1841L40.1901 92.8655L40.244 92.8912L40.2899 92.8635C41.7807 93.1936 43.2815 93.4841 44.7982 93.6699C47.243 93.996 49.7197 94.0829 52.1844 93.9683C54.3598 93.8576 56.5231 93.5631 58.6606 93.1441L58.7085 93.1698L58.7604 93.1441L58.7643 93.0947C58.9958 93.0947 59.2194 93.0058 59.4489 92.9742L59.4948 93.0019L59.5487 92.9762L59.5527 92.9268C59.842 92.9129 60.1194 92.7983 60.4068 92.7508L60.4527 92.7785L60.5066 92.7528L60.5106 92.7034C60.7062 92.7014 60.8878 92.6145 61.0814 92.5848L61.1273 92.6105L61.1812 92.5848L61.1852 92.5354H61.251C62.8396 92.1204 64.4063 91.6283 65.947 91.063C65.951 91.063 65.959 91.0591 65.963 91.0571C66.2603 90.9484 66.5557 90.8358 66.8511 90.7271C66.855 90.7271 66.861 90.7231 66.865 90.7211C67.348 90.5393 67.833 90.3594 68.3159 90.1776C65.943 85.215 63.5461 80.2622 61.1772 75.2995C61.0654 75.345 60.9517 75.3865 60.8379 75.428C60.8319 75.428 60.8219 75.4339 60.818 75.4359C60.6723 75.4873 60.5266 75.5407 60.3809 75.594C60.3769 75.594 60.3709 75.598 60.3669 75.5999C60.2212 75.6533 60.0755 75.7067 59.9299 75.76C59.9259 75.76 59.9179 75.764 59.9139 75.766C59.7123 75.8371 59.5127 75.9122 59.3132 75.9853C59.3092 75.9853 59.3012 75.9913 59.2952 75.9913C59.1475 76.0427 59.0018 76.096 58.8562 76.1514C58.8522 76.1514 58.8462 76.1553 58.8422 76.1573C58.6426 76.2304 58.445 76.3016 58.2475 76.3767C58.2415 76.3767 58.2315 76.3826 58.2275 76.3846C58.0818 76.436 57.9341 76.4893 57.7904 76.5446C57.7864 76.5446 57.7785 76.5486 57.7745 76.5506C57.6268 76.6039 57.4811 76.6553 57.3354 76.7107C57.3314 76.7107 57.3254 76.7146 57.3214 76.7166C57.2835 76.7304 57.2097 76.7581 57.1718 76.7719C57.1678 76.7719 57.1598 76.7759 57.1558 76.7779C57.0041 76.8332 56.8544 76.8905 56.7008 76.938C56.7207 76.6514 56.7067 76.3628 56.7107 76.0762C56.7008 63.5579 56.7047 51.0377 56.6868 38.5194C56.6888 30.8194 56.6828 23.1195 56.6748 15.4176C56.9642 15.4591 57.2496 15.556 57.541 15.5718L57.545 15.6212L57.5988 15.6449L57.6447 15.6172C57.7785 15.637 57.9082 15.6884 58.0459 15.6825L58.0499 15.7319L58.1038 15.7556L58.1497 15.7299C58.3413 15.7595 58.5269 15.8425 58.7224 15.8485L58.7264 15.8979L58.7803 15.9236L58.8262 15.8959C58.8581 15.9038 58.924 15.9196 58.9559 15.9275C58.9619 15.9275 58.9719 15.9315 58.9759 15.9335C59.0118 15.9394 59.0837 15.9512 59.1196 15.9572L59.1256 16.0066L59.1795 16.0343L59.2254 16.0105C59.2553 16.0105 59.3152 16.0125 59.3431 16.0125L59.3491 16.0619L59.403 16.0876L59.4489 16.0619C59.4808 16.0698 59.5447 16.0856 59.5766 16.0955C59.5826 16.0975 59.5926 16.0995 59.5986 16.1015C59.7782 16.1509 59.9558 16.2121 60.1394 16.2576C60.1474 16.2596 60.1634 16.2635 60.1713 16.2655C60.2073 16.2773 60.2771 16.3011 60.313 16.3129C60.319 16.3149 60.333 16.3189 60.339 16.3208C60.786 16.4592 61.2271 16.6094 61.6681 16.7635C61.6741 16.7655 61.6841 16.7695 61.6901 16.7714C63.3445 17.3663 64.9551 18.0818 66.5138 18.8921C66.5178 18.8941 66.5237 18.898 66.5277 18.9C66.7672 19.0245 67.0067 19.151 67.2442 19.2814C67.2482 19.2814 67.2542 19.2874 67.2582 19.2874C67.4258 19.3763 67.5915 19.4692 67.7571 19.5621C67.7591 19.564 67.7671 19.566 67.7691 19.568C67.8988 19.6391 68.0265 19.7123 68.1543 19.7854C68.1583 19.7874 68.1623 19.7913 68.1662 19.7913C68.3878 19.9158 68.6073 20.0463 68.8268 20.1747C68.8308 20.1767 68.8368 20.1807 68.8408 20.1826C68.9286 20.234 69.0184 20.2874 69.1082 20.3408C69.1122 20.3427 69.1182 20.3467 69.1222 20.3487C69.4196 20.5265 69.7149 20.7103 70.0103 20.8922C70.0143 20.8941 70.0223 20.9001 70.0263 20.902C70.2258 21.0305 70.4294 21.157 70.629 21.2855C70.633 21.2874 70.6409 21.2934 70.6429 21.2953C70.6829 21.321 70.7627 21.3744 70.8026 21.4001C70.8046 21.4021 70.8106 21.406 70.8146 21.406C70.8525 21.4317 70.9303 21.4831 70.9702 21.5068C70.9722 21.5088 70.9802 21.5127 70.9822 21.5167C71.0221 21.5424 71.1 21.5938 71.1399 21.6195C71.1419 21.6214 71.1479 21.6254 71.1499 21.6274C71.1898 21.6531 71.2676 21.7044 71.3075 21.7301C71.3095 21.7321 71.3155 21.7361 71.3195 21.738C71.3574 21.7637 71.4372 21.8151 71.4752 21.8408C71.4772 21.8428 71.4831 21.8467 71.4851 21.8467C71.7645 22.0286 72.042 22.2124 72.3214 22.3942C72.3253 22.3962 72.3313 22.4001 72.3353 22.4041C72.507 22.5167 72.6766 22.6294 72.8482 22.7401C73.7204 21.0404 74.5685 19.3269 75.4307 17.6213C75.4307 17.6173 75.4347 17.6114 75.4367 17.6074C75.5085 17.4632 75.5824 17.3169 75.6542 17.1726C75.6562 17.1687 75.6602 17.1608 75.6602 17.1588C75.7141 17.0501 75.766 16.9434 75.8219 16.8386C75.8239 16.8347 75.8279 16.8268 75.8279 16.8248C75.8618 16.7537 75.8977 16.6845 75.9336 16.6153C75.9356 16.6114 75.9376 16.6054 75.9396 16.6015C75.9735 16.5303 76.0095 16.4592 76.0454 16.39C76.0454 16.3861 76.0494 16.3801 76.0514 16.3762C76.1232 16.2319 76.1971 16.0876 76.2689 15.9433C76.2709 15.9394 76.2749 15.9335 76.2749 15.9295C76.4226 15.635 76.5703 15.3425 76.718 15.05C76.718 15.0461 76.7219 15.0401 76.7239 15.0362C78.8434 10.8186 80.9669 6.60106 83.0883 2.3835C83.0883 2.37954 83.0923 2.37164 83.0943 2.36966C83.1562 2.2412 83.222 2.11274 83.2919 1.98625C81.6155 1.96846 79.9391 1.98427 78.2646 1.97834H39.0525C31.6823 1.9823 24.312 1.96846 16.9418 1.98427V1.98822ZM20.119 3.93099C22.7993 9.2573 25.4715 14.5856 28.1578 19.9079C30.6764 18.2517 33.3327 16.7912 36.1168 15.6212C36.1427 15.6074 36.1966 15.5817 36.2225 15.5678C36.476 15.4947 36.7155 15.3781 36.961 15.2832C36.9889 15.2714 37.0428 15.2457 37.0687 15.2319C37.1306 15.2239 37.1905 15.2042 37.2444 15.1706C37.2723 15.1587 37.3262 15.133 37.3521 15.1192C37.5278 15.0836 37.6934 15.0065 37.861 14.9413C37.889 14.9295 37.9449 14.9077 37.9728 14.8959C38.0367 14.8899 38.0965 14.8702 38.1544 14.8366C38.1804 14.8227 38.2323 14.7971 38.2582 14.7832C38.338 14.7891 38.4179 14.7575 38.4877 14.7219C38.5156 14.7101 38.5695 14.6844 38.5955 14.6725C38.6753 14.6765 38.7531 14.6429 38.825 14.6113C38.8529 14.5994 38.9068 14.5737 38.9328 14.5619H38.9986C39.0246 14.5461 39.0745 14.5184 39.1004 14.5065C39.3139 14.4828 39.5175 14.3899 39.7251 14.3306C39.753 14.3188 39.8069 14.2951 39.8348 14.2832C39.9326 14.2832 40.0264 14.2496 40.1182 14.214C40.1462 14.2041 40.202 14.1824 40.23 14.1725L40.2938 14.1666C40.3198 14.1547 40.3737 14.131 40.3996 14.1211C40.4276 14.1172 40.4834 14.1093 40.5114 14.1053C40.5393 14.0954 40.5952 14.0717 40.6231 14.0618C41.0383 13.9867 41.4494 13.8622 41.8625 13.7654C41.8904 13.7575 41.9483 13.7377 41.9762 13.7298C42.0641 13.7397 42.1519 13.7041 42.2377 13.6903C43.3254 13.4531 44.427 13.2832 45.5326 13.1606C45.5227 35.3513 45.5047 57.5439 45.4967 79.7345C45.353 79.689 45.2173 79.6159 45.0696 79.5942C45.0437 79.5804 44.9938 79.5507 44.9678 79.5369H44.904C44.876 79.523 44.8242 79.4973 44.7962 79.4855C44.7403 79.4519 44.6805 79.4321 44.6186 79.4242C44.5907 79.4124 44.5368 79.3886 44.5088 79.3788C44.439 79.3452 44.3631 79.3096 44.2853 79.3155C44.2594 79.3017 44.2055 79.276 44.1815 79.2622C44.1256 79.2246 44.0658 79.2068 43.9999 79.2068C43.974 79.193 43.9241 79.1633 43.8981 79.1495H43.8343C43.8083 79.1376 43.7544 79.11 43.7285 79.0981C43.6726 79.0645 43.6127 79.0428 43.5489 79.0368C43.5209 79.025 43.4671 79.0013 43.4391 78.9894C43.2715 78.9262 43.1058 78.8451 42.9282 78.8175C42.9043 78.8017 42.8524 78.772 42.8284 78.7582H42.7646C42.7386 78.7463 42.6847 78.7206 42.6588 78.7068C42.6029 78.6712 42.543 78.6515 42.4792 78.6475C42.4512 78.6356 42.3973 78.6119 42.3694 78.6001C42.2018 78.5349 42.0361 78.4597 41.8605 78.4242C41.8326 78.4123 41.7787 78.3886 41.7507 78.3748C41.641 78.3234 41.5272 78.2759 41.4055 78.2562C41.3775 78.2443 41.3236 78.2206 41.2957 78.2068C41.1281 78.1416 40.9644 78.0645 40.7868 78.0329C40.7608 78.019 40.707 77.9953 40.679 77.9834C40.5693 77.9321 40.4555 77.8826 40.3338 77.8668C40.3058 77.855 40.2519 77.8293 40.226 77.8174C40.1721 77.7917 40.1162 77.77 40.0603 77.7502C38.7013 80.5764 37.3462 83.4026 35.9871 86.2288C35.546 87.1676 35.073 88.0926 34.6499 89.0392C34.6499 89.0629 34.6499 89.1064 34.6519 89.1301C34.8255 89.1835 34.9892 89.2705 35.1708 89.3041C35.1987 89.3159 35.2526 89.3396 35.2806 89.3535C35.4462 89.4207 35.6158 89.4879 35.7935 89.5294C35.8214 89.5412 35.8773 89.563 35.9052 89.5748C35.9751 89.6065 36.0509 89.6361 36.1307 89.6401C36.1587 89.6519 36.2126 89.6756 36.2405 89.6875C36.3124 89.7211 36.3902 89.7507 36.47 89.7487C36.496 89.7626 36.5459 89.7922 36.5718 89.8061H36.6397C36.6656 89.8199 36.7155 89.8476 36.7414 89.8614H36.8073C36.8352 89.8733 36.8891 89.899 36.9171 89.9108C36.9889 89.9405 37.0667 89.9681 37.1466 89.976C37.1745 89.9859 37.2304 90.0077 37.2583 90.0195C37.2863 90.0235 37.3402 90.0294 37.3681 90.0333C37.394 90.0452 37.4459 90.0709 37.4699 90.0828H37.5377C37.5637 90.0986 37.6156 90.1262 37.6415 90.1401H37.7074C37.7353 90.1539 37.7912 90.1756 37.8171 90.1875C37.9648 90.2369 38.1145 90.2923 38.2702 90.31C38.2981 90.3219 38.354 90.3436 38.3819 90.3555C38.4099 90.3594 38.4658 90.3654 38.4937 90.3693C38.5196 90.3812 38.5735 90.4049 38.5995 90.4168L38.6653 90.4227C38.6933 90.4345 38.7491 90.4563 38.7771 90.4662C38.805 90.4701 38.8609 90.4761 38.8888 90.48C38.9148 90.4919 38.9667 90.5156 38.9926 90.5294L39.0585 90.5353C39.0864 90.5472 39.1423 90.5689 39.1702 90.5808C39.1982 90.5828 39.2541 90.5887 39.282 90.5927C39.3099 90.6025 39.3658 90.6243 39.3938 90.6342C39.5035 90.6678 39.6153 90.7132 39.731 90.7073C39.759 90.7172 39.8149 90.7389 39.8428 90.7488C39.8707 90.7527 39.9266 90.7606 39.9546 90.7646C39.9825 90.7745 40.0384 90.7923 40.0663 90.8022C40.2499 90.8575 40.4395 90.9148 40.6331 90.9306C40.6611 90.9405 40.7189 90.9583 40.7469 90.9682C44.7044 91.8951 48.8017 92.2726 52.861 91.9801C55.4834 91.7903 58.0878 91.3575 60.6284 90.6895C60.6563 90.6796 60.7122 90.6599 60.7421 90.65C60.8399 90.65 60.9397 90.6184 61.0295 90.5808C61.0574 90.5709 61.1113 90.5512 61.1393 90.5413C61.1672 90.5373 61.2231 90.5294 61.251 90.5255C61.279 90.5136 61.3329 90.4919 61.3608 90.482C61.5344 90.4701 61.7001 90.4029 61.8677 90.3555C61.8957 90.3456 61.9515 90.3239 61.9795 90.314L62.0433 90.31C62.0693 90.2962 62.1212 90.2685 62.1471 90.2567H62.215C62.2409 90.2428 62.2928 90.2191 62.3187 90.2073C62.3467 90.2033 62.4026 90.1954 62.4305 90.1934C62.4584 90.1816 62.5143 90.1598 62.5423 90.148H62.6081C62.6341 90.1322 62.686 90.1045 62.7119 90.0907H62.7798C62.8057 90.0768 62.8556 90.0492 62.8815 90.0353C62.9175 90.0294 62.9893 90.0195 63.0252 90.0136C63.0292 90.0136 63.0372 90.0096 63.0392 90.0096C63.0771 89.9978 63.155 89.9721 63.1949 89.9602C63.1989 89.9602 63.2068 89.9563 63.2108 89.9543C63.2408 89.9444 63.3026 89.9227 63.3326 89.9108C63.3605 89.899 63.4164 89.8772 63.4443 89.8654H63.5062C63.5322 89.8495 63.584 89.8219 63.61 89.808C63.6898 89.8061 63.7657 89.7744 63.8375 89.7448C63.8654 89.7329 63.9193 89.7112 63.9473 89.6993C64.0271 89.6895 64.1009 89.6638 64.1748 89.6321C64.2027 89.6203 64.2586 89.5985 64.2865 89.5887C64.4063 89.561 64.522 89.5215 64.6338 89.4701C64.6597 89.4582 64.7136 89.4325 64.7396 89.4187C64.8174 89.4187 64.8932 89.3871 64.9631 89.3555C64.991 89.3436 65.0469 89.3199 65.0729 89.31C65.1367 89.3021 65.1966 89.2823 65.2525 89.2487C65.2784 89.2369 65.3323 89.2092 65.3582 89.1954C65.454 89.1934 65.5419 89.142 65.6317 89.1124C63.8275 85.3573 62.0234 81.6002 60.2172 77.8451C60.2172 77.8411 60.2113 77.8332 60.2093 77.8293L60.1733 77.7542C60.1194 77.774 60.0676 77.7957 60.0157 77.8214C59.9877 77.8332 59.9358 77.8589 59.9079 77.8708H59.846C59.8201 77.8846 59.7702 77.9143 59.7442 77.9281C59.3192 78.0506 58.906 78.2206 58.4929 78.3767C58.467 78.3906 58.4131 78.4163 58.3872 78.4281H58.3253C58.2993 78.442 58.2474 78.4716 58.2215 78.4854C58.0998 78.4993 57.986 78.5507 57.8762 78.6001C57.8483 78.6119 57.7944 78.6376 57.7685 78.6515C57.6467 78.6653 57.533 78.7167 57.4232 78.7681C57.3973 78.7799 57.3434 78.8056 57.3174 78.8195H57.2556C57.2296 78.8333 57.1777 78.8629 57.1538 78.8768C57.0321 78.8926 56.9183 78.944 56.8085 78.9934C56.7806 79.0052 56.7267 79.0309 56.7008 79.0428C56.5251 79.0764 56.3575 79.1535 56.1918 79.2187C56.1639 79.2305 56.11 79.2542 56.0821 79.2661C55.9623 79.2898 55.8486 79.3333 55.7388 79.3867C55.7109 79.3985 55.657 79.4222 55.6291 79.4341C55.4534 79.4716 55.2878 79.5448 55.1201 79.61C55.0922 79.6219 55.0383 79.6456 55.0104 79.6574C54.9166 79.6732 54.8288 79.7108 54.7409 79.7444C54.729 57.5537 54.713 35.3611 54.707 13.1705C55.8865 13.293 57.056 13.5085 58.2175 13.7377C58.2455 13.7456 58.3033 13.7634 58.3313 13.7733C58.459 13.8069 58.5867 13.8523 58.7204 13.8504C58.7484 13.8603 58.8043 13.88 58.8322 13.8899C58.8601 13.8939 58.916 13.9037 58.946 13.9077C58.9739 13.9176 59.0298 13.9373 59.0577 13.9472C59.0857 13.9512 59.1435 13.9591 59.1715 13.963C59.1994 13.9729 59.2533 13.9946 59.2812 14.0045C59.3092 14.0085 59.3691 14.0164 59.397 14.0203C59.4229 14.0322 59.4768 14.0539 59.5028 14.0638L59.5686 14.0697C59.5966 14.0816 59.6524 14.1033 59.6804 14.1132C59.7083 14.1152 59.7642 14.1211 59.7921 14.1251C59.8201 14.1369 59.874 14.1587 59.9019 14.1705C59.9917 14.2041 60.0875 14.2417 60.1873 14.2358C60.2132 14.2496 60.2671 14.2753 60.2931 14.2871L60.3589 14.2911C60.3869 14.303 60.4428 14.3247 60.4707 14.3366C60.4986 14.3385 60.5525 14.3445 60.5805 14.3484C60.6064 14.3603 60.6583 14.386 60.6842 14.3978H60.7521C60.778 14.4136 60.8299 14.4413 60.8559 14.4551H60.9217C60.9497 14.469 61.0036 14.4927 61.0315 14.5045C61.1612 14.552 61.2929 14.6034 61.4306 14.6231C61.4566 14.637 61.5105 14.6646 61.5344 14.6785H61.5983C61.6262 14.6923 61.6801 14.716 61.708 14.7279C61.7799 14.7615 61.8557 14.7872 61.9356 14.7931C61.9635 14.805 62.0174 14.8287 62.0453 14.8405C62.1152 14.8741 62.189 14.9058 62.2708 14.9018C62.2968 14.9156 62.3507 14.9413 62.3766 14.9552C62.4305 14.9888 62.4904 15.0085 62.5562 15.0145C62.5842 15.0263 62.6381 15.05 62.666 15.0619C62.7738 15.1133 62.8875 15.1587 63.0073 15.1805C63.0352 15.1923 63.0891 15.218 63.115 15.2299C63.2228 15.2793 63.3346 15.3366 63.4543 15.3465C63.4803 15.3603 63.5321 15.388 63.5601 15.4018C63.6519 15.4532 63.7497 15.4947 63.8535 15.5164C63.8814 15.5303 63.9333 15.554 63.9612 15.5678C66.4759 16.6094 68.8867 17.8901 71.1858 19.3387C71.1898 19.3407 71.1978 19.3447 71.1998 19.3466C71.4951 19.5304 71.7865 19.7222 72.0799 19.9099C74.7581 14.5836 77.4384 9.26125 80.1147 3.93297C60.1115 3.93297 40.1082 3.93099 20.105 3.93297L20.119 3.93099Z" fill="#347F2A"/>
<path fill-rule="evenodd" clip-rule="evenodd" d="M83.1083 2.38542C83.1083 2.38542 83.1123 2.37356 83.1143 2.37158C83.1143 2.37553 83.1103 2.38146 83.1083 2.38542ZM21.4302 10.9115C21.4302 10.9115 21.4362 10.9213 21.4382 10.9253C21.4382 10.9213 21.4322 10.9154 21.4302 10.9115ZM75.6682 17.1765C75.6682 17.1765 75.6742 17.1647 75.6742 17.1627C75.6742 17.1647 75.6702 17.1726 75.6682 17.1765ZM37.6056 78.3372C37.6056 78.3372 37.6116 78.3273 37.6116 78.3233C37.6116 78.3273 37.6076 78.3332 37.6056 78.3372Z" fill="#252525"/>
<path fill-rule="evenodd" clip-rule="evenodd" d="M20.3625 8.78692C20.3625 8.78692 20.3685 8.7968 20.3685 8.80076C20.3685 8.79878 20.3625 8.79088 20.3625 8.78692ZM76.7359 15.0519C76.7359 15.0519 76.7399 15.0421 76.7419 15.0381C76.7399 15.0421 76.7359 15.048 76.7359 15.0519Z" fill="#252525"/>
<path fill-rule="evenodd" clip-rule="evenodd" d="M20.6997 9.45898C20.6997 9.45898 20.7057 9.46887 20.7057 9.47282C20.7057 9.46887 20.6997 9.46294 20.6997 9.45898ZM33.3906 19.0701C33.3906 19.0701 33.3986 19.0661 33.4025 19.0641C33.3986 19.0661 33.3926 19.0701 33.3906 19.0701Z" fill="#252525"/>
<path fill-rule="evenodd" clip-rule="evenodd" d="M20.8694 9.79492C20.8694 9.79492 20.8749 9.80412 20.8749 9.8078C20.8749 9.80596 20.8694 9.7986 20.8694 9.79492Z" fill="#252525"/>
<path fill-rule="evenodd" clip-rule="evenodd" d="M21.1508 10.3523C21.1508 10.3523 21.1567 10.3622 21.1567 10.3661C21.1567 10.3622 21.1508 10.3562 21.1508 10.3523ZM75.9496 16.6174C75.9496 16.6174 75.9536 16.6075 75.9556 16.6035C75.9536 16.6075 75.9516 16.6134 75.9496 16.6174Z" fill="#252525"/>
<path fill-rule="evenodd" clip-rule="evenodd" d="M21.2625 10.5754C21.2625 10.5754 21.2684 10.5873 21.2684 10.5893C21.2684 10.5853 21.2625 10.5774 21.2625 10.5754ZM75.8377 16.8425C75.8377 16.8425 75.8437 16.8306 75.8437 16.8287C75.8437 16.8326 75.8397 16.8405 75.8377 16.8425Z" fill="#252525"/>
<path fill-rule="evenodd" clip-rule="evenodd" d="M21.6556 11.3562C21.6556 11.3562 21.6616 11.3681 21.6616 11.37C21.6616 11.3661 21.6556 11.3582 21.6556 11.3562ZM75.4446 17.6252C75.4446 17.6252 75.4486 17.6154 75.4506 17.6114C75.4486 17.6154 75.4446 17.6213 75.4446 17.6252Z" fill="#252525"/>
<path fill-rule="evenodd" clip-rule="evenodd" d="M41.8665 13.7695C41.8944 13.7616 41.9523 13.7418 41.9802 13.7339L41.9682 13.7813L41.9104 13.8011L41.8665 13.7695Z" fill="#252525"/>
<path fill-rule="evenodd" clip-rule="evenodd" d="M58.2275 13.7317C58.2555 13.7396 58.3134 13.7574 58.3413 13.7673L58.2974 13.7989L58.2395 13.7791L58.2275 13.7317Z" fill="#252525"/>
<path fill-rule="evenodd" clip-rule="evenodd" d="M58.7325 13.8445C58.7604 13.8544 58.8163 13.8741 58.8442 13.884L58.8003 13.9137L58.7424 13.8939L58.7305 13.8445H58.7325ZM58.958 13.8998C58.9859 13.9097 59.0418 13.9295 59.0697 13.9393L59.0278 13.967L58.97 13.9473L58.958 13.8998Z" fill="#252525"/>
<path fill-rule="evenodd" clip-rule="evenodd" d="M59.1833 13.9551C59.2113 13.965 59.2652 13.9867 59.2931 13.9966C59.2672 13.9966 59.2173 14.0005 59.1933 14.0025L59.1833 13.9551Z" fill="#252525"/>
<path fill-rule="evenodd" clip-rule="evenodd" d="M59.4089 14.0125C59.4349 14.0243 59.4888 14.046 59.5147 14.0559C59.4908 14.0559 59.4409 14.0579 59.4169 14.0599L59.4089 14.0125Z" fill="#252525"/>
<path fill-rule="evenodd" clip-rule="evenodd" d="M40.5154 14.1094C40.5433 14.0995 40.5992 14.0758 40.6271 14.0659L40.6172 14.1134L40.5593 14.1351L40.5154 14.1074V14.1094Z" fill="#252525"/>
<path fill-rule="evenodd" clip-rule="evenodd" d="M59.5806 14.0637C59.6085 14.0756 59.6644 14.0973 59.6923 14.1072L59.6484 14.1349L59.5905 14.1112L59.5806 14.0618V14.0637Z" fill="#252525"/>
<path fill-rule="evenodd" clip-rule="evenodd" d="M40.2979 14.1705C40.3238 14.1586 40.3777 14.1349 40.4036 14.125L40.3956 14.1724C40.3717 14.1724 40.3218 14.1724 40.2979 14.1724V14.1705Z" fill="#252525"/>
<path fill-rule="evenodd" clip-rule="evenodd" d="M59.8041 14.1191C59.832 14.131 59.8859 14.1527 59.9138 14.1646L59.8679 14.1923L59.8121 14.1685L59.8041 14.1191Z" fill="#252525"/>
<path fill-rule="evenodd" clip-rule="evenodd" d="M40.1201 14.218C40.1481 14.2081 40.2039 14.1864 40.2319 14.1765L40.2219 14.2259L40.164 14.2477L40.1201 14.218Z" fill="#252525"/>
<path fill-rule="evenodd" clip-rule="evenodd" d="M60.2012 14.2297C60.2271 14.2436 60.281 14.2693 60.3069 14.2811L60.261 14.3048L60.2072 14.2791L60.2012 14.2297ZM62.0512 90.302C62.0772 90.2882 62.1291 90.2605 62.155 90.2487L62.151 90.2981L62.0971 90.3258L62.0512 90.302ZM61.2569 90.5194C61.2849 90.5076 61.3387 90.4858 61.3667 90.476L61.3567 90.5254L61.2988 90.5491L61.2549 90.5214L61.2569 90.5194Z" fill="#252525"/>
<path fill-rule="evenodd" clip-rule="evenodd" d="M39.729 14.3326C39.7569 14.3207 39.8108 14.297 39.8388 14.2852L39.8308 14.3346L39.7749 14.3583L39.729 14.3326ZM60.764 14.3958C60.79 14.4097 60.8418 14.4373 60.8678 14.4512C60.8438 14.4512 60.792 14.4472 60.768 14.4452L60.764 14.3958Z" fill="#252525"/>
<path fill-rule="evenodd" clip-rule="evenodd" d="M60.3728 14.2871C60.4007 14.299 60.4566 14.3207 60.4846 14.3326L60.4407 14.3602L60.3828 14.3365L60.3728 14.2871ZM61.8756 90.3476C61.9035 90.3377 61.9594 90.3159 61.9874 90.3061L61.9774 90.3555L61.9195 90.3772L61.8756 90.3476Z" fill="#252525"/>
<path fill-rule="evenodd" clip-rule="evenodd" d="M60.5945 14.3445C60.6204 14.3563 60.6723 14.382 60.6983 14.3939C60.6743 14.3939 60.6244 14.3919 60.6005 14.3919L60.5965 14.3445H60.5945Z" fill="#252525"/>
<path fill-rule="evenodd" clip-rule="evenodd" d="M60.9336 14.4531C60.9615 14.465 61.0154 14.4887 61.0434 14.5006L60.9975 14.5263L60.9416 14.5025L60.9336 14.4531Z" fill="#252525"/>
<path fill-rule="evenodd" clip-rule="evenodd" d="M39.0026 14.5639C39.0285 14.55 39.0784 14.5224 39.1043 14.5085V14.556C39.0764 14.556 39.0265 14.5599 39.0026 14.5619V14.5639Z" fill="#252525"/>
<path fill-rule="evenodd" clip-rule="evenodd" d="M38.8289 14.6153C38.8568 14.6035 38.9107 14.5778 38.9366 14.5659L38.9306 14.6153L38.8748 14.641L38.8289 14.6153Z" fill="#252525"/>
<path fill-rule="evenodd" clip-rule="evenodd" d="M61.4446 14.6191C61.4706 14.633 61.5245 14.6606 61.5484 14.6745L61.5025 14.6982L61.4486 14.6705L61.4426 14.6191H61.4446Z" fill="#252525"/>
<path fill-rule="evenodd" clip-rule="evenodd" d="M38.4897 14.7259C38.5177 14.7141 38.5716 14.6884 38.5975 14.6765L38.5915 14.7259L38.5356 14.7516L38.4897 14.7259Z" fill="#252525"/>
<path fill-rule="evenodd" clip-rule="evenodd" d="M61.6122 14.6765C61.6402 14.6884 61.694 14.7121 61.722 14.7239L61.6761 14.7516L61.6182 14.7279L61.6102 14.6785L61.6122 14.6765Z" fill="#252525"/>
<path fill-rule="evenodd" clip-rule="evenodd" d="M38.1563 14.8405C38.1822 14.8266 38.2341 14.8009 38.2601 14.7871L38.2561 14.8365L38.2022 14.8642L38.1543 14.8424L38.1563 14.8405Z" fill="#252525"/>
<path fill-rule="evenodd" clip-rule="evenodd" d="M61.9495 14.7891C61.9774 14.8009 62.0313 14.8247 62.0592 14.8365L62.0133 14.8622L61.9574 14.8365L61.9515 14.7871L61.9495 14.7891Z" fill="#252525"/>
<path fill-rule="evenodd" clip-rule="evenodd" d="M37.863 14.9454C37.891 14.9335 37.9469 14.9118 37.9748 14.8999L37.9668 14.9493L37.9089 14.973L37.863 14.9454Z" fill="#252525"/>
<path fill-rule="evenodd" clip-rule="evenodd" d="M62.2848 14.8999C62.3107 14.9137 62.3646 14.9394 62.3906 14.9533L62.3447 14.977L62.2908 14.9513L62.2848 14.9019V14.8999Z" fill="#252525"/>
<path fill-rule="evenodd" clip-rule="evenodd" d="M62.5702 15.0125C62.5981 15.0243 62.652 15.048 62.6799 15.0599L62.634 15.0876L62.5781 15.0638L62.5702 15.0144V15.0125ZM41.3016 78.2068L41.3475 78.1791L41.4034 78.2048L41.4114 78.2542C41.3835 78.2423 41.3296 78.2186 41.3016 78.2048V78.2068Z" fill="#252525"/>
<path fill-rule="evenodd" clip-rule="evenodd" d="M37.2463 15.1725C37.2743 15.1606 37.3282 15.1349 37.3541 15.1211L37.3481 15.1705L37.2922 15.1962L37.2463 15.1705V15.1725Z" fill="#252525"/>
<path fill-rule="evenodd" clip-rule="evenodd" d="M63.0212 15.1785C63.0492 15.1903 63.1031 15.216 63.129 15.2279L63.0831 15.2536L63.0272 15.2279L63.0212 15.1765V15.1785Z" fill="#252525"/>
<path fill-rule="evenodd" clip-rule="evenodd" d="M36.9629 15.2853C36.9908 15.2734 37.0447 15.2477 37.0707 15.2339L37.0647 15.2853L37.0088 15.311L36.9629 15.2853Z" fill="#252525"/>
<path fill-rule="evenodd" clip-rule="evenodd" d="M63.4702 15.3445C63.4962 15.3583 63.548 15.386 63.576 15.3998L63.5281 15.4235L63.4742 15.3959L63.4702 15.3465V15.3445Z" fill="#252525"/>
<path fill-rule="evenodd" clip-rule="evenodd" d="M63.8694 15.5125C63.8973 15.5263 63.9492 15.55 63.9771 15.5638L63.9313 15.5895L63.8754 15.5638L63.8694 15.5125Z" fill="#252525"/>
<path fill-rule="evenodd" clip-rule="evenodd" d="M36.1187 15.6212C36.1446 15.6074 36.1985 15.5817 36.2244 15.5679L36.2204 15.6173L36.1665 15.645L36.1187 15.6212Z" fill="#252525"/>
<path fill-rule="evenodd" clip-rule="evenodd" d="M57.553 15.5698C57.5789 15.5817 57.6328 15.6054 57.6588 15.6153L57.6128 15.643L57.559 15.6192L57.555 15.5698H57.553Z" fill="#252525"/>
<path fill-rule="evenodd" clip-rule="evenodd" d="M42.124 15.7141C42.124 15.7141 42.1339 15.7141 42.1359 15.7122C42.1319 15.7122 42.126 15.7141 42.124 15.7141ZM39.6951 16.3861C39.6951 16.3861 39.7111 16.3802 39.7151 16.3802C39.7091 16.3802 39.6991 16.3861 39.6951 16.3861ZM58.2435 76.3846C58.2435 76.3846 58.2575 76.3787 58.2634 76.3767C58.2575 76.3767 58.2475 76.3826 58.2435 76.3846ZM65.961 91.0651C65.961 91.0651 65.973 91.0611 65.9769 91.0591C65.973 91.0591 65.965 91.0631 65.961 91.0651ZM34.7397 91.2251C34.7397 91.2251 34.7537 91.2311 34.7577 91.2311C34.7537 91.2311 34.7457 91.2251 34.7397 91.2251Z" fill="#252525"/>
<path fill-rule="evenodd" clip-rule="evenodd" d="M58.0579 15.6824C58.0838 15.6942 58.1357 15.7179 58.1616 15.7298L58.1157 15.7555L58.0619 15.7318L58.0579 15.6824Z" fill="#252525"/>
<path fill-rule="evenodd" clip-rule="evenodd" d="M41.8963 15.7674C41.8963 15.7674 41.9083 15.7634 41.9123 15.7634C41.9083 15.7634 41.9003 15.7674 41.8963 15.7674ZM71.3194 21.734C71.3194 21.734 71.3274 21.74 71.3314 21.7419C71.3274 21.74 71.3214 21.736 71.3194 21.734ZM39.8567 75.5959C39.8567 75.5959 39.8727 75.6019 39.8786 75.6038C39.8727 75.6038 39.8627 75.5979 39.8567 75.5959Z" fill="#252525"/>
<path fill-rule="evenodd" clip-rule="evenodd" d="M41.4474 15.8782C41.4474 15.8782 41.4594 15.8743 41.4634 15.8743C41.4594 15.8743 41.4514 15.8762 41.4474 15.8782ZM39.1882 16.5502C39.1882 16.5502 39.2042 16.5443 39.2102 16.5423C39.2042 16.5443 39.1942 16.5482 39.1882 16.5502ZM71.1519 21.6215C71.1519 21.6215 71.1599 21.6275 71.1618 21.6294C71.1599 21.6275 71.1539 21.6235 71.1519 21.6215Z" fill="#252525"/>
<path fill-rule="evenodd" clip-rule="evenodd" d="M58.7344 15.8484C58.7603 15.8602 58.8122 15.884 58.8382 15.8958L58.7923 15.9235L58.7384 15.8978L58.7344 15.8484Z" fill="#252525"/>
<path fill-rule="evenodd" clip-rule="evenodd" d="M58.9698 15.9294C58.9698 15.9294 58.9847 15.9332 58.9885 15.9351C58.9829 15.9351 58.9736 15.9313 58.9698 15.9294Z" fill="#252525"/>
<path fill-rule="evenodd" clip-rule="evenodd" d="M76.2869 15.9443C76.2869 15.9443 76.2924 15.9351 76.2924 15.9314C76.2924 15.9351 76.2887 15.9406 76.2869 15.9443Z" fill="#252525"/>
<path fill-rule="evenodd" clip-rule="evenodd" d="M40.9705 16.0086C40.9964 15.9968 41.0503 15.9711 41.0762 15.9592L41.0702 16.0106L41.0164 16.0363L40.9705 16.0106V16.0086Z" fill="#252525"/>
<path fill-rule="evenodd" clip-rule="evenodd" d="M59.1336 15.9592C59.1595 15.9731 59.2114 15.9988 59.2374 16.0126L59.1915 16.0363L59.1376 16.0086L59.1316 15.9592H59.1336Z" fill="#252525"/>
<path fill-rule="evenodd" clip-rule="evenodd" d="M40.8127 16.0482C40.8127 16.0482 40.8327 16.0442 40.8387 16.0422C40.8327 16.0422 40.8187 16.0462 40.8127 16.0482ZM60.1494 16.2616L60.1813 16.2695C60.1813 16.2695 60.1574 16.2636 60.1494 16.2616Z" fill="#252525"/>
<path fill-rule="evenodd" clip-rule="evenodd" d="M59.355 16.0164C59.3809 16.0282 59.4348 16.0539 59.4608 16.0658L59.4148 16.0915L59.361 16.0658L59.355 16.0164Z" fill="#252525"/>
<path fill-rule="evenodd" clip-rule="evenodd" d="M59.5886 16.0974C59.5886 16.0974 59.6046 16.1014 59.6106 16.1033C59.6046 16.1014 59.5946 16.0994 59.5886 16.0974ZM39.5215 16.4393C39.5215 16.4393 39.5395 16.4334 39.5455 16.4314C39.5395 16.4334 39.5275 16.4373 39.5215 16.4393ZM61.6761 16.7674C61.6761 16.7674 61.6921 16.7733 61.6981 16.7753C61.6921 16.7733 61.6821 16.7694 61.6761 16.7674ZM29.7764 21.1826C29.7764 21.1826 29.7844 21.1787 29.7883 21.1767C29.7863 21.1787 29.7804 21.1826 29.7764 21.1826Z" fill="#252525"/>
<path fill-rule="evenodd" clip-rule="evenodd" d="M60.323 16.3169C60.323 16.3169 60.3436 16.323 60.3498 16.3251C60.3436 16.323 60.3292 16.3189 60.323 16.3169Z" fill="#252525"/>
<path fill-rule="evenodd" clip-rule="evenodd" d="M76.0632 16.393C76.0632 16.393 76.0669 16.3838 76.0687 16.3801C76.0687 16.3838 76.0651 16.3893 76.0632 16.393Z" fill="#252525"/>
<path fill-rule="evenodd" clip-rule="evenodd" d="M39.3618 16.4888L39.3777 16.4849C39.3777 16.4849 39.3538 16.4928 39.3458 16.4947L39.3618 16.4888ZM37.1006 92.0058C37.1006 92.0058 37.1165 92.0097 37.1205 92.0117C37.1146 92.0117 37.1046 92.0077 37.1006 92.0058Z" fill="#252525"/>
<path fill-rule="evenodd" clip-rule="evenodd" d="M39.0186 16.6094C39.0186 16.6094 39.0346 16.6035 39.0386 16.6035C39.0326 16.6035 39.0226 16.6094 39.0186 16.6094ZM70.0183 20.8982C70.0183 20.8982 70.0303 20.9061 70.0343 20.908C70.0303 20.9061 70.0223 20.9021 70.0183 20.8982ZM27.637 22.582C27.637 22.582 27.6489 22.5741 27.6529 22.5721C27.6489 22.5741 27.641 22.58 27.637 22.582Z" fill="#252525"/>
<path fill-rule="evenodd" clip-rule="evenodd" d="M66.5237 18.896C66.5237 18.896 66.5333 18.9018 66.5372 18.9038C66.5333 18.9038 66.5275 18.8999 66.5237 18.896Z" fill="#252525"/>
<path fill-rule="evenodd" clip-rule="evenodd" d="M67.2541 19.2834C67.2541 19.2834 67.264 19.2894 67.268 19.2894C67.264 19.2894 67.2581 19.2834 67.2541 19.2834ZM59.9277 75.768C59.9277 75.768 59.9397 75.764 59.9437 75.762C59.9397 75.762 59.9317 75.766 59.9277 75.768Z" fill="#252525"/>
<path fill-rule="evenodd" clip-rule="evenodd" d="M71.1997 19.3347C71.1997 19.3347 71.2113 19.3406 71.2132 19.3425C71.2094 19.3406 71.2036 19.3367 71.1997 19.3347Z" fill="#252525"/>
<path fill-rule="evenodd" clip-rule="evenodd" d="M32.772 19.4037C32.772 19.4037 32.7816 19.3999 32.7835 19.3979C32.7797 19.3999 32.7739 19.4037 32.772 19.4037Z" fill="#252525"/>
<path fill-rule="evenodd" clip-rule="evenodd" d="M67.7651 19.564C67.7651 19.564 67.7748 19.5678 67.7767 19.5697C67.7748 19.5678 67.7671 19.5659 67.7651 19.564Z" fill="#252525"/>
<path fill-rule="evenodd" clip-rule="evenodd" d="M32.3728 19.6251C32.3728 19.6251 32.3824 19.6194 32.3844 19.6174C32.3805 19.6194 32.3747 19.6232 32.3728 19.6251Z" fill="#252525"/>
<path fill-rule="evenodd" clip-rule="evenodd" d="M68.1622 19.7893C68.1622 19.7893 68.1699 19.7951 68.1738 19.7951C68.1719 19.7951 68.1661 19.7912 68.1622 19.7893Z" fill="#252525"/>
<path fill-rule="evenodd" clip-rule="evenodd" d="M31.9796 19.8486C31.9796 19.8486 31.9893 19.8428 31.9932 19.8408C31.9893 19.8428 31.9835 19.8467 31.9796 19.8486Z" fill="#252525"/>
<path fill-rule="evenodd" clip-rule="evenodd" d="M15.4749 22.6374C16.1734 21.7243 16.9159 20.8468 17.7042 20.0088C18.72 20.8942 19.9035 21.6057 21.1927 22.0207C21.7256 22.1729 22.3003 22.3488 22.8552 22.1867C23.0707 21.4812 22.7414 20.7717 22.5538 20.0997C23.5956 22.2124 24.6693 24.3113 25.725 26.4181C24.2023 28.0131 22.8571 29.7661 21.6677 31.616C25.2381 31.616 28.8104 31.616 32.3808 31.616C32.3808 28.8194 32.3808 26.0229 32.3808 23.2263C33.5363 22.5049 34.7337 21.8527 35.9571 21.2539C35.9571 25.0545 35.9571 28.853 35.9591 32.6536C37.4499 34.1359 38.9507 35.6063 40.4356 37.0945C40.4316 37.217 40.4316 37.3395 40.4316 37.4621C38.5476 37.0866 36.6536 36.7565 34.7557 36.4601C34.2987 36.043 33.8736 35.5885 33.4265 35.1596C30.4389 35.1576 27.4493 35.1636 24.4617 35.1537C19.2848 34.6675 14.0819 34.2979 8.88104 34.5292C9.09658 33.9283 9.33207 33.3354 9.58154 32.7484C10.8668 33.2445 12.2518 33.5153 13.6349 33.454C14.1617 33.4125 14.7365 33.3769 15.1756 33.0508C15.1556 32.5923 14.8962 32.1911 14.6427 31.8215C13.7945 30.6357 12.627 29.695 11.3458 28.9993C11.8706 27.9795 12.4514 26.9854 13.0801 26.0248C14.3613 26.7442 15.7523 27.3451 17.2392 27.4459C17.6742 27.4715 18.1492 27.5051 18.5404 27.2818C18.6003 26.9419 18.4885 26.6039 18.3668 26.2917C17.782 24.8252 16.6744 23.6414 15.4769 22.6354L15.4749 22.6374ZM79.047 22.0247C80.3422 21.6096 81.5297 20.8962 82.5495 20.0088C83.3358 20.8468 84.0802 21.7263 84.7787 22.6393C83.701 23.5504 82.6892 24.59 82.0785 25.8727C81.8729 26.3134 81.6394 26.7897 81.7173 27.2877C82.1483 27.5249 82.6652 27.4735 83.1382 27.438C84.5791 27.3154 85.9283 26.7284 87.1716 26.0268C87.8062 26.9854 88.381 27.9815 88.9079 29.0032C87.7284 29.6376 86.6607 30.4875 85.8265 31.531C85.4912 31.9856 85.116 32.4678 85.0781 33.0528C85.4633 33.3651 85.9861 33.4006 86.4611 33.4461C87.9 33.5726 89.327 33.2228 90.6741 32.7504C91.1232 33.8058 91.5203 34.8829 91.8596 35.9778C90.5723 36.4087 89.3509 37.0727 88.3391 37.9779C87.9439 38.3574 87.5109 38.7586 87.3752 39.308C87.6945 39.6776 88.1994 39.8041 88.6524 39.9306C90.0514 40.3061 91.5243 40.2073 92.9373 39.9721C93.1947 41.0887 93.4003 42.2192 93.536 43.3556C92.129 43.5651 90.748 44.0414 89.5605 44.824C89.1633 45.1027 88.7303 45.4031 88.5427 45.8695C88.864 46.3379 89.4128 46.5712 89.9177 46.7925C91.177 47.2985 92.5481 47.506 93.9032 47.4743C93.9591 48.5515 93.9591 49.6306 93.9152 50.7057C90.8717 49.1068 87.7803 47.585 84.5652 46.3557C84.1301 46.2016 83.7629 45.8952 83.4595 45.5592C83.272 43.3319 82.7151 41.1539 82.0506 39.0234C81.6374 37.6913 81.1046 36.4008 80.5099 35.1399C75.9496 35.1497 71.3894 35.1537 66.8291 35.1557C64.8972 37.055 62.9833 38.97 61.0515 40.8674C60.6423 40.7903 60.2312 40.731 59.8201 40.6717C59.8201 39.476 59.8181 38.2783 59.8201 37.0826C61.3049 35.6102 62.7937 34.1438 64.2746 32.6674C64.3245 32.5034 64.2806 32.3176 64.2945 32.1457C64.2945 28.5131 64.2945 24.8825 64.2965 21.2499C65.5279 21.8389 66.7174 22.5069 67.8729 23.2263C67.8789 26.0229 67.8629 28.8214 67.8809 31.6199C71.4492 31.6081 75.0176 31.6199 78.588 31.614C77.4025 29.7622 76.0514 28.0111 74.5306 26.4162C75.5884 24.3133 76.6481 22.2105 77.7019 20.1076C77.7178 20.2875 77.5741 20.4258 77.5422 20.5977C77.4025 21.1096 77.2189 21.663 77.4025 22.1867C77.9513 22.3409 78.5201 22.1729 79.049 22.0227L79.047 22.0247ZM6.34646 47.4743C7.7754 47.504 9.2263 47.2787 10.5395 46.7055C12.5372 47.419 14.5529 48.0791 16.5905 48.67C16.5546 49.9903 16.6384 51.3125 16.7742 52.6267C16.9059 54.0003 17.1374 55.366 17.4667 56.7079C17.804 58.125 18.2111 59.5282 18.736 60.8899C19.0413 61.6805 19.3826 62.4552 19.7358 63.226C24.2941 63.222 28.8523 63.228 33.4106 63.2181C33.6121 63.0738 33.7698 62.8683 33.9534 62.7023C36.1088 60.5678 38.2642 58.4313 40.4216 56.2969C40.4216 57.9412 40.4216 59.5855 40.4196 61.2279C40.4356 61.3386 40.3198 61.3959 40.2599 61.469C39.3559 62.3603 38.4558 63.2556 37.5517 64.1489C37.0249 64.6826 36.472 65.1945 35.9611 65.7399C35.9511 68.6669 35.9611 71.5939 35.9531 74.5209C35.5819 75.3629 35.1588 76.185 34.7657 77.021C33.0733 80.537 31.3869 84.0569 29.6945 87.5748C28.6787 87.059 27.6888 86.4938 26.7329 85.8752C27.4793 84.5826 28.092 83.1675 28.1778 81.6615C28.1977 81.2623 28.2157 80.8334 28.0081 80.4737C27.4733 80.4105 26.9684 80.6496 26.4974 80.871C25.256 81.5014 24.1823 82.4284 23.3122 83.5035C22.3901 82.8157 21.506 82.0746 20.6559 81.3018C21.542 80.2247 22.3562 79.0468 22.7334 77.695C22.8631 77.2147 23.0168 76.6949 22.8611 76.2028C22.3582 76.0348 21.8234 76.187 21.3304 76.3174C19.9853 76.7206 18.7539 77.4558 17.7002 78.3729C16.9139 77.5329 16.1695 76.6554 15.4709 75.7443C16.5327 74.845 17.5345 73.8233 18.1452 72.5604C18.3608 72.1058 18.6062 71.6176 18.5364 71.0998C18.0694 70.8548 17.5186 70.9101 17.0117 70.9536C15.6146 71.1196 14.2735 71.6315 13.0761 72.3529C12.4474 71.3904 11.8686 70.3982 11.3438 69.3784C12.5392 68.6808 13.6967 67.8527 14.517 66.7281C14.7924 66.3447 15.0918 65.9415 15.1656 65.4632C15.2235 65.2893 15.0139 65.23 14.8962 65.1648C14.3753 64.9474 13.7945 64.9257 13.2377 64.9138C11.9864 64.9217 10.7411 65.1786 9.57555 65.6312C9.12452 64.5758 8.72936 63.4987 8.39009 62.4058C9.78311 61.8939 11.1542 61.2121 12.192 60.135C12.4813 59.8326 12.7827 59.5045 12.8745 59.0855C12.5811 58.7495 12.1381 58.6092 11.723 58.4886C10.286 58.1032 8.76129 58.125 7.3084 58.4096C7.05295 57.2929 6.84539 56.1644 6.70769 55.028C8.11667 54.7731 9.53165 54.362 10.7171 53.5398C11.1023 53.2671 11.5274 52.9766 11.707 52.522C11.5094 52.1821 11.1502 51.9864 10.8129 51.8085C9.43984 51.1069 7.87319 50.9152 6.34646 50.9093C6.28259 49.7669 6.28659 48.6206 6.34446 47.4763L6.34646 47.4743ZM21.6717 66.7657C22.1966 67.5938 22.7574 68.3981 23.3481 69.1828C24.5056 70.7362 25.8448 72.1473 27.2537 73.4774C28.8144 74.9478 30.5607 76.2147 32.3788 77.355C32.3788 73.8252 32.3788 70.2935 32.3788 66.7637C28.8104 66.7637 25.242 66.7637 21.6717 66.7637V66.7657ZM59.8321 60.0223C61.3528 60.3128 62.8756 60.5875 64.4043 60.8405C64.9232 61.3643 65.466 61.8662 65.9749 62.3979C66.1286 63.2477 66.424 64.0778 66.893 64.8071C67.372 65.57 68.0186 66.2182 68.737 66.7637C68.4496 66.7637 68.1623 66.7637 67.8749 66.7637C67.8749 70.2994 67.8749 73.8351 67.8749 77.3708C68.6692 76.8866 69.4295 76.3471 70.1819 75.8056C71.7865 74.6474 73.2434 73.3015 74.6125 71.8825C75.4048 71.0583 76.1452 70.1848 76.8317 69.2697C77.4424 68.4535 78.0551 67.6372 78.582 66.7657C77.9713 66.7617 77.3606 66.7716 76.7499 66.7617C77.3566 66.3012 77.9134 65.7676 78.3505 65.1431C78.7676 64.5581 79.0769 63.9059 79.2964 63.224C79.7315 63.2299 80.1706 63.2062 80.6056 63.2379C84.0822 63.8189 87.5767 64.2913 91.0872 64.6233C90.9555 64.9612 90.8198 65.2972 90.6761 65.6292C89.4148 65.1885 88.0857 64.8486 86.7385 64.9178C86.2456 64.9454 85.7307 64.9751 85.2797 65.1925C85.2018 65.2439 85.0581 65.2893 85.0901 65.4099C85.1519 65.9376 85.4872 66.3803 85.7926 66.7993C86.6288 67.8685 87.7164 68.7321 88.9119 69.3804C88.385 70.4002 87.8062 71.3923 87.1776 72.3529C85.8983 71.6335 84.5053 71.0326 83.0205 70.9318C82.5854 70.9061 82.1124 70.8706 81.7213 71.0959C81.6594 71.6572 81.9248 72.1809 82.1663 72.6691C82.8029 73.8628 83.721 74.9004 84.7827 75.7423C84.0842 76.6554 83.3418 77.5329 82.5555 78.3709C81.4578 77.4756 80.2424 76.6633 78.8534 76.2937C78.3844 76.1732 77.8755 76.0269 77.4025 76.1929C77.2408 76.7285 77.4105 77.2878 77.5582 77.8076C77.9753 79.0982 78.6997 80.2801 79.6018 81.2959C78.7536 82.0746 77.8695 82.8138 76.9435 83.5015C76.0314 82.4422 74.9877 81.4441 73.7044 80.8413C73.2534 80.6319 72.7664 80.3967 72.2535 80.4678C72.008 80.8927 72.0639 81.4086 72.0978 81.8789C72.2196 83.3059 72.8183 84.6419 73.5228 85.8752C72.5648 86.4898 71.5769 87.057 70.5631 87.5709C68.5155 83.3098 66.4759 79.0448 64.4203 74.7877C64.3724 74.679 64.2965 74.5743 64.3045 74.4537C64.3025 71.5504 64.3085 68.6472 64.2985 65.7419C64.079 65.4711 63.7996 65.2439 63.5601 64.9889C62.3188 63.7576 61.0734 62.5323 59.8381 61.2971C59.844 60.8721 59.8381 60.4452 59.8381 60.0203L59.8321 60.0223Z" fill="#D7B06C"/>
<path fill-rule="evenodd" clip-rule="evenodd" d="M68.8347 20.1787C68.8347 20.1787 68.8447 20.1846 68.8487 20.1866C68.8447 20.1846 68.8387 20.1807 68.8347 20.1787ZM69.1161 20.3447C69.1161 20.3447 69.1261 20.3507 69.1301 20.3526C69.1261 20.3507 69.1201 20.3467 69.1161 20.3447Z" fill="#252525"/>
<path fill-rule="evenodd" clip-rule="evenodd" d="M29.948 21.076C29.948 21.076 29.958 21.0701 29.96 21.0681C29.956 21.0701 29.95 21.074 29.948 21.076ZM40.7709 75.9301C40.7709 75.9301 40.7808 75.934 40.7848 75.936C40.7808 75.936 40.7748 75.932 40.7709 75.9301Z" fill="#252525"/>
<path fill-rule="evenodd" clip-rule="evenodd" d="M70.637 21.2893C70.637 21.2893 70.6489 21.2972 70.6509 21.2992C70.6469 21.2972 70.641 21.2933 70.637 21.2893ZM28.1418 22.2498C28.1418 22.2498 28.1538 22.2419 28.1578 22.2399C28.1538 22.2419 28.1458 22.2478 28.1418 22.2498Z" fill="#252525"/>
<path fill-rule="evenodd" clip-rule="evenodd" d="M70.8125 21.4041C70.8125 21.4041 70.8205 21.41 70.8245 21.41C70.8205 21.41 70.8165 21.406 70.8125 21.4041ZM27.8065 22.4713C27.8065 22.4713 27.8165 22.4654 27.8185 22.4634C27.8145 22.4654 27.8085 22.4693 27.8065 22.4713Z" fill="#252525"/>
<path fill-rule="evenodd" clip-rule="evenodd" d="M70.9802 21.5107C70.9802 21.5107 70.9902 21.5167 70.9922 21.5206C70.9902 21.5186 70.9822 21.5147 70.9802 21.5107ZM60.8339 75.4359C60.8339 75.4359 60.8479 75.43 60.8539 75.428C60.8479 75.428 60.8379 75.4339 60.8339 75.4359ZM41.3875 76.1553C41.3875 76.1553 41.3995 76.1592 41.4035 76.1612C41.3995 76.1612 41.3915 76.1573 41.3875 76.1553ZM32.0255 90.2171C32.0255 90.2171 32.0455 90.2231 32.0515 90.225C32.0455 90.2231 32.0315 90.2191 32.0255 90.2171ZM66.865 90.729C66.865 90.729 66.875 90.7251 66.879 90.7231C66.875 90.7231 66.869 90.727 66.865 90.729Z" fill="#252525"/>
<path fill-rule="evenodd" clip-rule="evenodd" d="M71.4871 21.8428C71.4871 21.8428 71.4951 21.8487 71.4971 21.8487C71.4951 21.8487 71.4891 21.8447 71.4871 21.8428ZM37.6635 92.1718C37.6635 92.1718 37.6754 92.1757 37.6794 92.1757C37.6754 92.1757 37.6674 92.1718 37.6635 92.1718Z" fill="#252525"/>
<path fill-rule="evenodd" clip-rule="evenodd" d="M27.9722 22.3603C27.9722 22.3603 27.9834 22.3527 27.9871 22.3508C27.9834 22.3527 27.9759 22.3565 27.9722 22.3603Z" fill="#252525"/>
<path fill-rule="evenodd" clip-rule="evenodd" d="M72.3352 22.3982C72.3352 22.3982 72.3449 22.404 72.3487 22.4079C72.3449 22.406 72.3391 22.4021 72.3352 22.3982Z" fill="#252525"/>
<path fill-rule="evenodd" clip-rule="evenodd" d="M8.06675 35.6575C10.8787 35.4915 13.6987 35.5429 16.5127 35.6694C19.5642 35.8156 22.6116 36.0646 25.6491 36.3868C30.5966 36.9204 35.53 37.6121 40.4116 38.5825C40.4116 39.6656 40.4116 40.7486 40.4116 41.8317C37.5617 41.2605 34.7098 40.6992 31.8479 40.1913C29.7125 39.8197 27.573 39.4482 25.4156 39.2328C24.5555 39.1399 23.6893 39.1537 22.8252 39.1833C22.6136 39.2011 22.3881 39.1833 22.1945 39.2841C22.7034 39.4857 23.2583 39.5312 23.7911 39.6438C29.3452 40.7091 34.8794 41.8692 40.4056 43.059C40.4176 43.6855 40.4076 44.31 40.4116 44.9366C38.2482 44.4919 36.0848 44.0511 33.9215 43.6163C29.1277 42.6618 24.332 41.7091 19.5103 40.9028C18.2729 40.7012 17.0336 40.4996 15.7842 40.383C15.423 40.3613 15.0478 40.3099 14.6966 40.4166C14.7305 40.4739 14.7604 40.5411 14.8303 40.5648C15.0718 40.6874 15.3412 40.7387 15.6026 40.8C20.2547 41.8534 24.9187 42.8515 29.5827 43.8575C33.191 44.6322 36.7993 45.4109 40.4076 46.1856C40.4196 48.6976 40.4096 51.2095 40.4136 53.7215C38.1983 53.1721 35.995 52.5713 33.7798 52.0159C33.8356 51.3103 33.7598 50.5969 33.5782 49.913C33.1351 48.2351 31.9936 46.7607 30.4868 45.8813C28.8303 44.895 26.7368 44.6856 24.9107 45.3121C23.1565 45.899 21.6876 47.239 20.9312 48.909C19.3466 48.4406 17.7979 47.8655 16.2133 47.3991C13.8204 46.6639 11.4355 45.8971 9.09854 45.0037C7.25249 44.2923 5.4244 43.5195 3.70009 42.5471C2.76808 42.0135 1.85403 41.4265 1.08568 40.6755C0.582754 40.1775 0.127727 39.5806 0 38.8711V38.5055C0.117748 37.9046 0.584749 37.4461 1.09566 37.1378C1.89395 36.6576 2.806 36.4026 3.71206 36.199C5.145 35.8927 6.60787 35.7464 8.07074 35.6555L8.06675 35.6575ZM12.5831 44.31C12.8545 44.395 13.1219 44.4879 13.3914 44.5749C13.4552 43.7626 13.551 42.9523 13.6827 42.1499C13.4153 42.0827 13.1439 42.0234 12.8785 41.9522C12.7467 42.7329 12.6669 43.5234 12.5831 44.31ZM14.8423 42.4226C14.7225 43.2033 14.6347 43.9899 14.5509 44.7745C14.8203 44.8634 15.0917 44.9543 15.3611 45.0433C15.425 44.231 15.5208 43.4207 15.6525 42.6183C15.3831 42.5531 15.1117 42.4878 14.8423 42.4226ZM16.5267 45.2508C16.7981 45.3279 17.0635 45.4247 17.3309 45.5117C17.3948 44.6994 17.4926 43.8891 17.6223 43.0847C17.3529 43.0195 17.0835 42.9562 16.816 42.889C16.6943 43.6717 16.5985 44.4602 16.5287 45.2488L16.5267 45.2508ZM71.9202 39.132C72.5409 38.8869 73.2274 38.7802 73.894 38.8572C74.802 38.958 75.6622 39.4679 76.1491 40.2387C76.7239 41.1202 76.7638 42.2704 76.4066 43.2408C76.1332 43.9859 75.5824 44.6895 74.794 44.9306C74.5945 45.0037 74.2971 44.9563 74.2113 45.2014C74.0676 45.6065 74.1574 46.0473 74.2253 46.4603C75.4686 46.6856 76.7 46.988 77.9513 47.1738C78.2526 47.2272 78.576 47.2034 78.8434 47.0453C79.3523 46.7588 79.6776 46.2587 80.0009 45.7923C80.2404 45.4425 80.6635 45.2014 81.0986 45.2429C81.5217 45.2765 81.8549 45.569 82.1503 45.8437C82.7211 46.3813 83.248 47.0137 83.9964 47.3181C87.2833 48.5968 90.4785 50.1008 93.5739 51.7807C95.3261 52.7432 97.0564 53.7571 98.673 54.933C99.4134 55.4726 100.148 56.0773 100.599 56.8857C100.838 57.3046 100.956 57.777 101 58.2533V58.5359C100.98 59.1288 100.848 59.7119 100.669 60.2751C100.397 61.1171 99.9822 61.9254 99.3875 62.5914C98.8267 63.2219 98.0403 63.718 97.1702 63.7278C94.0249 63.8425 90.8816 63.5361 87.7643 63.1547C84.9703 62.8049 82.1882 62.3622 79.4102 61.8878C79.5339 60.7613 79.3383 59.6051 78.8773 58.5695C78.1788 56.9865 76.8337 55.6979 75.2112 55.0615C73.3511 54.3144 71.1538 54.4646 69.4155 55.4607C67.7272 56.4054 66.4918 58.107 66.1445 59.9984C64.037 59.6743 61.9335 59.3087 59.84 58.8976C59.84 55.9963 59.84 53.095 59.84 50.1937C64.1468 51.1246 68.4516 52.0732 72.7504 53.0476C77.7058 54.18 82.6652 55.3125 87.5827 56.6011C88.1235 56.7276 88.6544 56.9529 89.2192 56.9291C89.6143 56.9193 89.9736 56.7157 90.2729 56.4746C90.0933 56.2829 89.8159 56.2572 89.5804 56.1682C87.0957 55.4093 84.5731 54.7769 82.0525 54.1425C74.6743 52.3163 67.2582 50.6463 59.836 49.0039C59.836 48.3734 59.836 47.743 59.836 47.1125C64.9212 48.2549 69.9983 49.4249 75.0615 50.6562C77.3705 51.2194 79.6796 51.7906 81.9687 52.427C82.4477 52.5554 82.9107 52.2985 83.2759 52.0179C82.9167 51.7451 82.4636 51.6404 82.0465 51.4843C79.7135 50.7273 77.3306 50.1304 74.9557 49.5178C69.9324 48.241 64.8812 47.073 59.83 45.905C59.842 44.5354 59.83 43.1638 59.836 41.7941C61.4366 42.0333 63.0272 42.3851 64.6497 42.4424C64.6138 42.7625 64.6098 43.0946 64.7236 43.4009C64.8653 43.812 65.2085 44.1203 65.5797 44.3298C66.2902 44.729 67.0945 44.9089 67.8748 45.1204C68.5694 45.3121 69.2858 45.4148 69.9883 45.5769C70.3675 45.2231 70.5272 44.7152 70.6509 44.231C70.2997 44.1915 69.9424 44.1855 69.5992 44.0966C69.3437 44.0432 69.2 43.7744 69.184 43.5353C69.1521 42.9226 69.693 42.4285 69.6091 41.8099C69.5972 41.636 69.5073 41.4324 69.6351 41.2803C69.9205 40.9581 70.3895 40.8969 70.6988 40.6024C71.1897 40.1814 71.2955 39.4225 71.9162 39.1339L71.9202 39.132ZM26.4395 46.0018C24.5335 46.1975 22.7813 47.4169 21.9351 49.1185C21.0689 50.7945 21.1408 52.8954 22.1067 54.514C23.0068 56.0694 24.6852 57.1564 26.4913 57.3264C28.2137 57.5161 29.9978 56.858 31.1893 55.6168C32.4127 54.3757 33.0074 52.5633 32.748 50.8479C32.5125 49.1521 31.4467 47.5987 29.9519 46.7429C28.9022 46.1303 27.6489 45.8654 26.4375 46.0038L26.4395 46.0018ZM26.4075 48.0928C25.3558 48.2825 24.4078 48.9585 23.8849 49.8814C23.4738 50.5909 23.3221 51.4427 23.4618 52.2511C23.6035 53.1108 24.0785 53.9093 24.763 54.4547C25.3897 54.9627 26.188 55.2532 26.9983 55.267C27.8365 55.2888 28.6747 55.0081 29.3313 54.4903C29.9939 53.9764 30.4688 53.2274 30.6425 52.4112C30.8101 51.6483 30.7183 50.8321 30.381 50.1265C30.0238 49.3695 29.3951 48.7391 28.6308 48.3814C27.9462 48.0533 27.1539 47.9525 26.4075 48.0928ZM26.5692 49.2055C25.8068 49.3537 25.1323 49.8715 24.797 50.5633C24.4337 51.2866 24.4677 52.1859 24.8748 52.8855C25.25 53.5515 25.9465 54.0298 26.7109 54.1346C27.3974 54.2393 28.1219 54.0377 28.6547 53.599C29.2614 53.1128 29.6187 52.34 29.5887 51.5673C29.5708 50.8222 29.1876 50.1008 28.5869 49.6561C28.0221 49.2272 27.2677 49.0612 26.5712 49.2035L26.5692 49.2055ZM71.8284 55.6228C71.1698 55.7275 70.5312 55.9489 69.9504 56.271C68.4336 57.0991 67.336 58.6347 67.0686 60.3305C66.879 61.4827 67.0586 62.6902 67.5795 63.7377C68.0684 64.7338 68.8587 65.5797 69.8187 66.1449C70.8485 66.7537 72.0739 67.0284 73.2693 66.9157C75.0355 66.7655 76.686 65.7338 77.61 64.2397C78.3464 63.0717 78.6298 61.6329 78.3904 60.2751C78.103 58.5715 76.9794 57.0359 75.4427 56.2256C74.349 55.6346 73.0558 55.4231 71.8284 55.6228ZM72.1437 57.6663C71.2436 57.8126 70.4114 58.3086 69.8526 59.0201C69.2998 59.7158 69.0184 60.619 69.0882 61.5024C69.1481 62.378 69.5493 63.2219 70.1879 63.8286C70.9203 64.5401 71.9641 64.9196 72.9879 64.8465C74.0017 64.7852 74.9737 64.2713 75.6003 63.4828C76.221 62.7159 76.5004 61.6902 76.3507 60.7178C76.207 59.7158 75.6103 58.7948 74.7621 58.2335C74.0037 57.7236 73.0458 57.5161 72.1417 57.6683L72.1437 57.6663ZM72.1677 58.8067C71.1139 59.034 70.2777 59.9925 70.2198 61.0617C70.122 62.1626 70.8604 63.2614 71.9162 63.6112C72.8662 63.9551 74.0037 63.6429 74.6464 62.8721C75.3668 62.0637 75.4606 60.785 74.8559 59.8858C74.3051 59.0142 73.1775 58.5577 72.1677 58.8067Z" fill="#E40D1D"/>
<path fill-rule="evenodd" clip-rule="evenodd" d="M39.248 75.3726C39.248 75.3726 39.26 75.3765 39.262 75.3785C39.258 75.3785 39.252 75.3745 39.248 75.3726ZM41.8405 76.3212C41.8405 76.3212 41.8505 76.3252 41.8545 76.3271C41.8505 76.3271 41.8445 76.3232 41.8405 76.3212Z" fill="#252525"/>
<path fill-rule="evenodd" clip-rule="evenodd" d="M39.6991 75.5386C39.6991 75.5386 39.7103 75.5424 39.7141 75.5443C39.7103 75.5443 39.7028 75.5405 39.6991 75.5386Z" fill="#252525"/>
<path fill-rule="evenodd" clip-rule="evenodd" d="M60.3809 75.5998C60.3809 75.5998 60.3925 75.5959 60.3944 75.594C60.3905 75.594 60.3847 75.5979 60.3809 75.5998Z" fill="#252525"/>
<path fill-rule="evenodd" clip-rule="evenodd" d="M59.3091 75.993C59.3091 75.993 59.3221 75.9873 59.3258 75.9873C59.3221 75.9873 59.3147 75.993 59.3091 75.993Z" fill="#252525"/>
<path fill-rule="evenodd" clip-rule="evenodd" d="M41.2258 76.0959C41.2258 76.0959 41.2358 76.0999 41.2398 76.1019C41.2358 76.1019 41.2298 76.0979 41.2258 76.0959ZM57.3354 76.7146C57.3354 76.7146 57.3454 76.7106 57.3493 76.7086C57.3454 76.7086 57.3394 76.7126 57.3354 76.7146Z" fill="#252525"/>
<path fill-rule="evenodd" clip-rule="evenodd" d="M58.8582 76.1592C58.8582 76.1592 58.8682 76.1553 58.8722 76.1533C58.8682 76.1533 58.8622 76.1573 58.8582 76.1592ZM43.3613 76.8806C43.3613 76.8806 43.3733 76.8846 43.3773 76.8866C43.3733 76.8866 43.3653 76.8826 43.3613 76.8806Z" fill="#252525"/>
<path fill-rule="evenodd" clip-rule="evenodd" d="M57.7883 76.5504C57.7883 76.5504 57.7995 76.5466 57.8033 76.5447C57.7995 76.5447 57.7921 76.5485 57.7883 76.5504Z" fill="#252525"/>
<path fill-rule="evenodd" clip-rule="evenodd" d="M42.9142 76.7146C42.9142 76.7146 42.9239 76.7185 42.9277 76.7204C42.9239 76.7204 42.9161 76.7165 42.9142 76.7146Z" fill="#252525"/>
<path fill-rule="evenodd" clip-rule="evenodd" d="M57.1677 76.7757C57.1677 76.7757 57.1789 76.7719 57.1827 76.77C57.1789 76.77 57.1715 76.7738 57.1677 76.7757Z" fill="#252525"/>
<path fill-rule="evenodd" clip-rule="evenodd" d="M40.2339 77.8155L40.2798 77.7898L40.3357 77.8155L40.3417 77.8649C40.3137 77.853 40.2598 77.8273 40.2339 77.8155Z" fill="#252525"/>
<path fill-rule="evenodd" clip-rule="evenodd" d="M59.9238 77.8155L59.9797 77.7898L60.0256 77.8155C59.9977 77.8273 59.9458 77.853 59.9178 77.8649L59.9238 77.8155Z" fill="#252525"/>
<path fill-rule="evenodd" clip-rule="evenodd" d="M60.2192 77.8213C60.2192 77.8213 60.2247 77.8324 60.2266 77.8362C60.2266 77.8324 60.2211 77.825 60.2192 77.8213Z" fill="#252525"/>
<path fill-rule="evenodd" clip-rule="evenodd" d="M59.7561 77.8727L59.808 77.843L59.8559 77.8648C59.83 77.8786 59.7801 77.9082 59.7542 77.924V77.8746L59.7561 77.8727Z" fill="#252525"/>
<path fill-rule="evenodd" clip-rule="evenodd" d="M40.6851 77.9815L40.731 77.9558L40.7868 77.9815L40.7928 78.0309C40.7669 78.0171 40.713 77.9934 40.6851 77.9815Z" fill="#252525"/>
<path fill-rule="evenodd" clip-rule="evenodd" d="M41.7566 78.3729L41.8025 78.3452L41.8584 78.3709L41.8644 78.4203C41.8365 78.4085 41.7826 78.3847 41.7546 78.3709L41.7566 78.3729Z" fill="#252525"/>
<path fill-rule="evenodd" clip-rule="evenodd" d="M58.401 78.3729L58.4549 78.3452L58.5008 78.3689C58.4749 78.3828 58.421 78.4085 58.395 78.4203L58.401 78.3709V78.3729Z" fill="#252525"/>
<path fill-rule="evenodd" clip-rule="evenodd" d="M58.2354 78.43L58.2873 78.4004L58.3352 78.4221C58.3093 78.436 58.2574 78.4656 58.2314 78.4794L58.2354 78.43Z" fill="#252525"/>
<path fill-rule="evenodd" clip-rule="evenodd" d="M42.3733 78.598L42.4192 78.5703L42.4751 78.594L42.4831 78.6434C42.4551 78.6316 42.4012 78.6079 42.3733 78.596V78.598Z" fill="#252525"/>
<path fill-rule="evenodd" clip-rule="evenodd" d="M57.7844 78.596L57.8403 78.5703L57.8862 78.596C57.8583 78.6079 57.8044 78.6336 57.7784 78.6474L57.7844 78.598V78.596Z" fill="#252525"/>
<path fill-rule="evenodd" clip-rule="evenodd" d="M42.6627 78.7049L42.7086 78.6812L42.7625 78.7088L42.7685 78.7582C42.7425 78.7464 42.6887 78.7187 42.6627 78.7068V78.7049Z" fill="#252525"/>
<path fill-rule="evenodd" clip-rule="evenodd" d="M42.8323 78.7561L42.8802 78.7363L42.9321 78.7679V78.8174C42.9082 78.8015 42.8583 78.7719 42.8323 78.7581V78.7561ZM35.1787 89.3C35.2067 89.3119 35.2605 89.3356 35.2885 89.3494L35.2426 89.3771L35.1867 89.3514L35.1787 89.302V89.3Z" fill="#252525"/>
<path fill-rule="evenodd" clip-rule="evenodd" d="M57.3314 78.7642L57.3853 78.7385L57.4312 78.7622C57.4052 78.7741 57.3513 78.7998 57.3254 78.8136L57.3314 78.7642ZM44.8022 79.4876L44.8481 79.4639L44.902 79.4895L44.9079 79.539C44.88 79.5251 44.8281 79.5014 44.8002 79.4876H44.8022Z" fill="#252525"/>
<path fill-rule="evenodd" clip-rule="evenodd" d="M57.1637 78.8214L57.2156 78.7917L57.2635 78.8135C57.2376 78.8273 57.1857 78.857 57.1617 78.8708V78.8214H57.1637Z" fill="#252525"/>
<path fill-rule="evenodd" clip-rule="evenodd" d="M43.4431 78.9893L43.489 78.9617L43.5449 78.9854L43.5529 79.0348C43.5249 79.0229 43.4711 78.9992 43.4431 78.9874V78.9893Z" fill="#252525"/>
<path fill-rule="evenodd" clip-rule="evenodd" d="M56.7147 78.9854L56.7706 78.9597L56.8165 78.9854C56.7886 78.9973 56.7347 79.023 56.7087 79.0348L56.7147 78.9854Z" fill="#252525"/>
<path fill-rule="evenodd" clip-rule="evenodd" d="M43.7324 79.0962L43.7783 79.0725L43.8322 79.1002L43.8382 79.1496C43.8123 79.1377 43.7584 79.1101 43.7324 79.0982V79.0962ZM65.2604 89.2409C65.2863 89.2291 65.3402 89.2014 65.3662 89.1876L65.3622 89.237L65.3083 89.2646L65.2604 89.2409Z" fill="#252525"/>
<path fill-rule="evenodd" clip-rule="evenodd" d="M43.9021 79.1473L43.9496 79.1257L44.001 79.1551V79.2041C43.9773 79.1904 43.9278 79.161 43.9021 79.1473Z" fill="#252525"/>
<path fill-rule="evenodd" clip-rule="evenodd" d="M56.0981 79.2088L56.154 79.1851L56.1999 79.2127C56.1719 79.2246 56.118 79.2483 56.0901 79.2602L56.0981 79.2108V79.2088Z" fill="#252525"/>
<path fill-rule="evenodd" clip-rule="evenodd" d="M44.1855 79.2622L44.2314 79.2385L44.2853 79.2662L44.2893 79.3156C44.2634 79.3018 44.2095 79.2761 44.1855 79.2622Z" fill="#252525"/>
<path fill-rule="evenodd" clip-rule="evenodd" d="M44.5148 79.3807L44.5607 79.353L44.6166 79.3767L44.6245 79.4262C44.5966 79.4143 44.5427 79.3906 44.5148 79.3807Z" fill="#252525"/>
<path fill-rule="evenodd" clip-rule="evenodd" d="M55.6449 79.3768L55.7008 79.3511L55.7467 79.3787C55.7188 79.3906 55.6649 79.4143 55.637 79.4262L55.6449 79.3768Z" fill="#252525"/>
<path fill-rule="evenodd" clip-rule="evenodd" d="M44.9717 79.5386L45.0172 79.5171L45.0686 79.5465V79.5954C45.0469 79.5817 44.9954 79.5523 44.9697 79.5386H44.9717Z" fill="#252525"/>
<path fill-rule="evenodd" clip-rule="evenodd" d="M55.0263 79.6001L55.0822 79.5764L55.1281 79.6041C55.1001 79.6159 55.0463 79.6397 55.0183 79.6515L55.0263 79.6021V79.6001Z" fill="#252525"/>
<path fill-rule="evenodd" clip-rule="evenodd" d="M34.6593 89.1252C34.5723 89.1017 34.5703 89.0724 34.6573 89.0352C34.6573 89.0587 34.6573 89.1017 34.6593 89.1252Z" fill="#252525"/>
<path fill-rule="evenodd" clip-rule="evenodd" d="M64.9709 89.3475C64.9989 89.3356 65.0548 89.3119 65.0807 89.302L65.0727 89.3514L65.0169 89.3751L64.9709 89.3475Z" fill="#252525"/>
<path fill-rule="evenodd" clip-rule="evenodd" d="M64.6417 89.4623C64.6677 89.4504 64.7216 89.4247 64.7475 89.4109L64.7435 89.4603L64.6896 89.486L64.6417 89.4623Z" fill="#252525"/>
<path fill-rule="evenodd" clip-rule="evenodd" d="M35.7994 89.5254C35.8274 89.5372 35.8833 89.559 35.9112 89.5708L35.8673 89.5985L35.8094 89.5748L35.7994 89.5254Z" fill="#252525"/>
<path fill-rule="evenodd" clip-rule="evenodd" d="M64.1827 89.6243C64.2107 89.6124 64.2666 89.5907 64.2945 89.5808L64.2845 89.6302L64.2266 89.652L64.1827 89.6243Z" fill="#252525"/>
<path fill-rule="evenodd" clip-rule="evenodd" d="M36.1367 89.6362C36.1647 89.6481 36.2185 89.6718 36.2465 89.6837L36.2006 89.7113L36.1447 89.6876L36.1367 89.6382V89.6362Z" fill="#252525"/>
<path fill-rule="evenodd" clip-rule="evenodd" d="M63.8455 89.7388C63.8734 89.727 63.9273 89.7052 63.9552 89.6934L63.9452 89.7428L63.8894 89.7665L63.8455 89.7388Z" fill="#252525"/>
<path fill-rule="evenodd" clip-rule="evenodd" d="M36.476 89.7449C36.5019 89.7587 36.5518 89.7884 36.5777 89.8022L36.5298 89.8239L36.4779 89.7943V89.7449H36.476Z" fill="#252525"/>
<path fill-rule="evenodd" clip-rule="evenodd" d="M36.6436 89.8C36.6695 89.8139 36.7194 89.8416 36.7453 89.8574C36.7214 89.8574 36.6715 89.8514 36.6456 89.8495V89.8H36.6436Z" fill="#252525"/>
<path fill-rule="evenodd" clip-rule="evenodd" d="M63.5122 89.8554C63.5382 89.8415 63.59 89.8139 63.616 89.802L63.612 89.8514L63.5581 89.8791L63.5122 89.8554Z" fill="#252525"/>
<path fill-rule="evenodd" clip-rule="evenodd" d="M36.8113 89.8594C36.8392 89.8712 36.8931 89.8949 36.921 89.9068L36.8751 89.9345L36.8193 89.9108L36.8113 89.8614V89.8594Z" fill="#252525"/>
<path fill-rule="evenodd" clip-rule="evenodd" d="M63.3406 89.9029C63.3685 89.891 63.4244 89.8693 63.4523 89.8574L63.4424 89.9068L63.3845 89.9305L63.3406 89.9029Z" fill="#252525"/>
<path fill-rule="evenodd" clip-rule="evenodd" d="M63.2029 89.95C63.2029 89.95 63.2141 89.9462 63.2178 89.9443C63.2141 89.9443 63.2066 89.9481 63.2029 89.95Z" fill="#252525"/>
<path fill-rule="evenodd" clip-rule="evenodd" d="M37.1505 89.9722C37.1785 89.982 37.2343 90.0038 37.2623 90.0156L37.2184 90.0433L37.1605 90.0216L37.1505 89.9722Z" fill="#252525"/>
<path fill-rule="evenodd" clip-rule="evenodd" d="M63.0312 90.0056C63.0312 90.0056 63.0429 90.0017 63.0448 90.0017C63.0409 90.0017 63.0351 90.0056 63.0312 90.0056Z" fill="#252525"/>
<path fill-rule="evenodd" clip-rule="evenodd" d="M37.3721 90.0293C37.398 90.0412 37.4499 90.0668 37.4739 90.0787C37.4499 90.0787 37.4 90.0787 37.3761 90.0787L37.3721 90.0313V90.0293Z" fill="#252525"/>
<path fill-rule="evenodd" clip-rule="evenodd" d="M62.7877 90.0807C62.8137 90.0669 62.8636 90.0392 62.8895 90.0254V90.0748C62.8616 90.0748 62.8137 90.0788 62.7877 90.0807Z" fill="#252525"/>
<path fill-rule="evenodd" clip-rule="evenodd" d="M37.5417 90.0808C37.5677 90.0946 37.6196 90.1223 37.6455 90.1361C37.6196 90.1361 37.5697 90.1302 37.5457 90.1302L37.5417 90.0808Z" fill="#252525"/>
<path fill-rule="evenodd" clip-rule="evenodd" d="M62.6161 90.1361C62.642 90.1223 62.6939 90.0946 62.7199 90.0808L62.7159 90.1302C62.6899 90.1302 62.64 90.1361 62.6161 90.1361Z" fill="#252525"/>
<path fill-rule="evenodd" clip-rule="evenodd" d="M37.7134 90.1382C37.7414 90.15 37.7972 90.1718 37.8232 90.1836L37.7773 90.2113L37.7194 90.1876L37.7114 90.1382H37.7134Z" fill="#252525"/>
<path fill-rule="evenodd" clip-rule="evenodd" d="M62.4385 90.1836C62.4664 90.1718 62.5223 90.15 62.5502 90.1382L62.5403 90.1876L62.4844 90.2113L62.4405 90.1836H62.4385Z" fill="#252525"/>
<path fill-rule="evenodd" clip-rule="evenodd" d="M62.2229 90.2469C62.2488 90.235 62.3007 90.2113 62.3267 90.1995L62.3207 90.2469C62.2967 90.2469 62.2468 90.2469 62.2229 90.2469Z" fill="#252525"/>
<path fill-rule="evenodd" clip-rule="evenodd" d="M38.2761 90.3062C38.3041 90.318 38.3599 90.3398 38.3879 90.3516L38.344 90.3793L38.2881 90.3556L38.2781 90.3062H38.2761Z" fill="#252525"/>
<path fill-rule="evenodd" clip-rule="evenodd" d="M38.4996 90.3655C38.5256 90.3773 38.5795 90.4011 38.6054 90.4129C38.5815 90.4129 38.5316 90.4129 38.5076 90.4129L38.5016 90.3655H38.4996ZM61.0354 90.575C61.0634 90.5651 61.1173 90.5453 61.1452 90.5354L61.1352 90.5829L61.0793 90.6026L61.0354 90.575Z" fill="#252525"/>
<path fill-rule="evenodd" clip-rule="evenodd" d="M38.6713 90.4187C38.6992 90.4306 38.7551 90.4523 38.783 90.4622L38.7391 90.4899L38.6812 90.4662L38.6713 90.4167V90.4187Z" fill="#252525"/>
<path fill-rule="evenodd" clip-rule="evenodd" d="M38.8948 90.4761C38.9208 90.4879 38.9727 90.5116 38.9986 90.5255C38.9746 90.5255 38.9248 90.5255 38.8988 90.5255L38.8928 90.4781L38.8948 90.4761Z" fill="#252525"/>
<path fill-rule="evenodd" clip-rule="evenodd" d="M39.0664 90.5293C39.0943 90.5412 39.1502 90.5629 39.1782 90.5748L39.1343 90.6024L39.0764 90.5787L39.0664 90.5293Z" fill="#252525"/>
<path fill-rule="evenodd" clip-rule="evenodd" d="M39.288 90.5867C39.3159 90.5966 39.3718 90.6183 39.3997 90.6282L39.3558 90.6578L39.2979 90.6361L39.288 90.5867Z" fill="#252525"/>
<path fill-rule="evenodd" clip-rule="evenodd" d="M60.6343 90.6836C60.6622 90.6737 60.7181 90.6539 60.748 90.644L60.7361 90.6935L60.6782 90.7132L60.6343 90.6836Z" fill="#252525"/>
<path fill-rule="evenodd" clip-rule="evenodd" d="M39.739 90.7014C39.767 90.7113 39.8228 90.733 39.8508 90.7429L39.8069 90.7726L39.749 90.7508L39.739 90.7014Z" fill="#252525"/>
<path fill-rule="evenodd" clip-rule="evenodd" d="M39.9625 90.7588C39.9905 90.7687 40.0463 90.7865 40.0743 90.7963L40.0304 90.826L39.9745 90.8062L39.9645 90.7588H39.9625Z" fill="#252525"/>
<path fill-rule="evenodd" clip-rule="evenodd" d="M40.6411 90.9248C40.6691 90.9347 40.7269 90.9525 40.7549 90.9624L40.713 90.994L40.6551 90.9742L40.6431 90.9248H40.6411Z" fill="#252525"/>
<path fill-rule="evenodd" clip-rule="evenodd" d="M35.8652 91.6145C35.8652 91.6145 35.8852 91.6204 35.8912 91.6224C35.8852 91.6204 35.8712 91.6165 35.8652 91.6145ZM38.4537 92.3952C38.4537 92.3952 38.4677 92.3991 38.4737 92.4011C38.4677 92.4011 38.4577 92.3971 38.4537 92.3952Z" fill="#252525"/>
<path fill-rule="evenodd" clip-rule="evenodd" d="M36.031 91.6658L36.0629 91.6776C36.0629 91.6776 36.039 91.6697 36.031 91.6677V91.6658ZM39.5255 92.6737C39.5255 92.6737 39.5395 92.6777 39.5435 92.6777C39.5395 92.6777 39.5295 92.6737 39.5255 92.6737Z" fill="#252525"/>
<path fill-rule="evenodd" clip-rule="evenodd" d="M36.2026 91.7231C36.2026 91.7231 36.2207 91.7292 36.2267 91.7312C36.2207 91.7312 36.2087 91.7252 36.2026 91.7231Z" fill="#252525"/>
<path fill-rule="evenodd" clip-rule="evenodd" d="M38.2202 92.314C38.2462 92.3258 38.298 92.3515 38.324 92.3634L38.2781 92.3891L38.2242 92.3634L38.2202 92.314Z" fill="#252525"/>
<path fill-rule="evenodd" clip-rule="evenodd" d="M39.0645 92.5374C39.0904 92.5492 39.1423 92.5729 39.1682 92.5868L39.1223 92.6125L39.0684 92.5868L39.0645 92.5374Z" fill="#252525"/>
<path fill-rule="evenodd" clip-rule="evenodd" d="M61.0913 92.5868C61.1173 92.5749 61.1691 92.5512 61.1951 92.5374L61.1911 92.5868L61.1372 92.6125L61.0913 92.5868Z" fill="#252525"/>
<path fill-rule="evenodd" clip-rule="evenodd" d="M39.6851 92.7073C39.713 92.7172 39.7689 92.7369 39.7969 92.7468L39.753 92.7765L39.6951 92.7567L39.6831 92.7073H39.6851Z" fill="#252525"/>
<path fill-rule="evenodd" clip-rule="evenodd" d="M60.4167 92.7528C60.4427 92.7409 60.4946 92.7172 60.5205 92.7053L60.5165 92.7547L60.4627 92.7804L60.4167 92.7528Z" fill="#252525"/>
<path fill-rule="evenodd" clip-rule="evenodd" d="M39.9685 92.7607C39.9922 92.7745 40.0417 92.8019 40.0674 92.8156C40.0437 92.8156 39.9962 92.8097 39.9705 92.8077V92.7588L39.9685 92.7607Z" fill="#252525"/>
<path fill-rule="evenodd" clip-rule="evenodd" d="M40.1941 92.8181C40.22 92.83 40.2739 92.8537 40.2999 92.8655L40.254 92.8932L40.2001 92.8675L40.1941 92.8181Z" fill="#252525"/>
<path fill-rule="evenodd" clip-rule="evenodd" d="M59.4568 92.9761C59.4827 92.9643 59.5346 92.9406 59.5626 92.9287L59.5586 92.9781L59.5047 93.0038L59.4588 92.9761H59.4568Z" fill="#252525"/>
<path fill-rule="evenodd" clip-rule="evenodd" d="M58.6705 93.1441C58.6965 93.1323 58.7484 93.1085 58.7743 93.0967L58.7703 93.1461L58.7184 93.1718L58.6705 93.1461V93.1441Z" fill="#252525"/>
</svg>
