<svg width="150" height="151" viewBox="0 0 150 151" fill="none" xmlns="http://www.w3.org/2000/svg">
<path d="M63.8925 150.08C59.7522 150.08 55.7777 148.295 52.4001 144.92C35.0858 127.613 18.0083 110.514 5.06166 97.5486C-1.68406 90.7887 -1.6888 81.3542 5.05692 74.6038C13.6264 66.0214 22.2007 57.4438 30.775 48.8661L31.3434 48.2981C44.0343 35.602 56.6967 22.9296 69.3497 10.243C76.157 3.42161 84.0633 0.103218 93.5282 0.103218H93.7982C96.2615 0.122153 98.7343 0.126887 101.202 0.126887C103.216 0.126887 105.229 0.126887 107.242 0.122153C107.242 0.122153 110.828 0.117419 112.368 0.117419L113.277 0.122153C115.461 0.122153 117.636 0.117419 119.815 0.107951H119.89C122.065 0.103218 124.22 0.09375 126.376 0.09375C129.507 0.09375 132.084 0.107951 134.49 0.141088C142.477 0.245232 148.498 5.42401 149.839 13.3437C149.976 14.1389 149.986 15.0242 149.986 16.1035C149.986 21.3485 149.986 26.5936 149.986 31.8386C149.986 39.8246 149.981 48.085 150 56.3077C150.024 65.6759 146.651 73.8038 139.971 80.4737L122.335 98.0787C106.679 113.71 91.0222 129.341 75.3517 144.962C71.9835 148.319 68.0185 150.094 63.8925 150.094V150.08ZM93.9356 6.53172C85.9392 6.53172 79.3688 9.26786 73.8453 14.9011C69.7476 19.081 65.541 23.2704 61.4765 27.3179L61.3249 27.4693C59.5864 29.2019 57.8478 30.9345 56.1141 32.667L45.6402 43.1524C33.6267 55.1763 21.6133 67.2001 9.59038 79.2145C7.35444 81.4489 6.36438 83.759 6.47807 86.4857C6.60597 89.5579 8.19292 91.5177 9.55722 92.8857C19.9742 103.3 30.3865 113.719 40.7988 124.143L56.8862 140.243C59.1127 142.468 61.4718 143.599 63.8972 143.599C66.3226 143.599 68.677 142.472 70.9035 140.247C78.4213 132.744 94.6746 116.522 94.6746 116.522C108.242 102.978 121.814 89.4301 135.39 75.8961C140.833 70.4712 143.586 63.8249 143.572 56.1372C143.562 51.607 143.567 47.072 143.572 42.5418V30.6646C143.572 25.9214 143.576 21.1828 143.572 16.4396C143.567 10.243 139.843 6.54592 133.619 6.54119H121.037C117.385 6.54592 113.732 6.55066 110.08 6.55066C104.736 6.55066 99.3975 6.54592 94.054 6.52699H93.9403L93.9356 6.53172Z" fill="white"/>
<path d="M105.552 60.003C97.004 60.003 90.0159 53.0131 89.9775 44.4238C89.9583 40.2424 91.5661 36.3067 94.5034 33.344C97.4456 30.3766 101.367 28.7339 105.547 28.7146H105.614C114.191 28.7146 121.179 35.7238 121.194 44.3419C121.199 48.4993 119.581 52.4205 116.634 55.3832C113.673 58.3603 109.737 60.003 105.557 60.003H105.552ZM105.586 35.2661C100.637 35.2661 96.5913 39.3271 96.5721 44.313C96.5625 46.7458 97.4936 49.0292 99.1974 50.7489C100.896 52.4639 103.157 53.4081 105.566 53.4129C110.553 53.4129 114.614 49.3519 114.623 44.366C114.633 39.3657 110.592 35.2806 105.614 35.2661H105.586Z" fill="white"/>
</svg>
