<svg width="150" height="151" viewBox="0 0 150 151" fill="none" xmlns="http://www.w3.org/2000/svg">
<path d="M40.0243 150.094C36.923 149.38 34.6618 147.403 32.5734 145.118C31.2112 143.63 29.7273 142.253 28.3297 140.797C26.995 139.408 26.9125 137.658 28.0667 136.428C29.2679 135.15 31.0698 135.182 32.487 136.579C34.4852 138.547 36.4284 140.574 38.4187 142.551C40.5503 144.665 42.6741 144.654 44.8254 142.523C46.2622 141.102 47.6715 139.662 49.0887 138.221C51.3891 135.876 51.3381 133.999 49.0337 131.654C43.7576 126.286 38.5286 120.869 33.2525 115.496C28.6281 110.79 23.9761 106.112 19.3203 101.438C18.6294 100.743 17.8953 100.085 17.1297 99.4775C15.9599 98.549 13.8714 98.6323 12.6348 99.7949C10.6642 101.648 8.73665 103.557 6.91513 105.561C5.41552 107.211 5.61966 109.394 7.31163 111.151C9.36083 113.278 11.4689 115.35 13.5338 117.461C14.4838 118.433 14.7665 119.584 14.1933 120.861C13.6516 122.075 12.6545 122.722 11.3786 122.56C10.6602 122.468 9.85547 122.087 9.32943 121.583C7.05646 119.401 4.81882 117.179 2.67148 114.873C-0.873411 111.064 -0.893039 105.235 2.62829 101.398C4.49299 99.3664 6.42442 97.3903 8.45007 95.5253C11.2844 92.9183 14.6173 92.2954 18.2996 93.3747C18.7746 93.5135 19.548 93.5413 19.8424 93.2596C22.7709 90.4145 25.6328 87.4901 28.5064 84.5894C28.7066 84.3871 28.8872 84.1609 29.0717 83.9506C23.191 77.7644 25.4875 69.0903 32.4831 66.1777C28.7144 59.6305 31.8314 52.1944 38.9212 50.1628C38.3009 47.3454 38.5443 44.5996 40.0439 42.056C41.5514 39.5046 43.8047 37.9571 46.4114 37.2389C46.4938 35.354 46.3172 33.5367 46.694 31.8503C47.9581 26.2117 53.3795 22.9658 59.0717 24.184C59.6291 24.3031 60.3986 24.1443 60.8618 23.815C63.437 21.9937 66.2635 22.2556 69.0743 22.7714C75.4261 23.9301 81.7582 25.2117 88.1099 26.3863C89.3033 26.6085 90.5596 26.4736 91.7569 26.6759C97.6533 27.6719 101.261 32.7986 100.323 38.7507C100.276 39.0443 100.26 39.3379 100.213 39.7705C102.969 40.5522 105.249 42.06 106.765 44.5916C108.292 47.1351 108.527 49.881 107.927 52.7221C114.176 54.8371 116.767 59.5194 115.751 65.896C119.649 67.015 122.361 69.4672 123.398 73.4948C124.419 77.4747 123.182 80.8992 120.297 83.9069C122.734 86.3711 125.113 88.7717 127.492 91.1724C127.736 91.4184 128.014 91.6367 128.215 91.9105C129.279 93.3707 130.382 93.7199 132.27 93.0612C135.587 91.9065 138.79 92.7437 141.409 95.1523C143.47 97.0491 145.456 99.045 147.341 101.12C150.909 105.053 150.913 110.901 147.191 114.695C136.576 125.528 125.906 136.301 115.181 147.022C111.303 150.899 105.355 150.768 101.414 146.923C99.6514 145.205 97.9045 143.467 96.2165 141.674C93.229 138.499 92.4753 134.813 94.0809 130.73C94.3989 129.92 94.2183 129.5 93.6726 128.956C90.1199 125.409 86.6025 121.822 83.0419 118.282C82.7003 117.941 82.1508 117.635 81.6875 117.615C78.5117 117.484 75.3319 117.421 72.1521 117.357C71.0764 117.338 69.9576 117.195 68.933 117.437C67.8456 117.695 66.6365 118.115 65.8513 118.861C62.5067 122.056 59.3151 125.413 56.0293 128.674C55.4208 129.277 55.2991 129.718 55.6956 130.555C57.5368 134.452 56.8341 138.67 53.8741 141.809C52.1507 143.634 50.4862 145.562 48.5391 147.114C46.9728 148.36 45.0217 149.114 43.2394 150.086H40.0086L40.0243 150.094ZM24.2745 97.3268C33.3938 106.588 42.3876 115.731 51.4559 124.94C54.8241 121.524 58.3023 118.048 61.7215 114.508C63.5627 112.604 65.765 111.532 68.3638 111.473C71.1 111.409 73.8519 111.382 76.5724 111.628C81.3499 112.056 85.6132 111.445 88.7969 107.255C90.0021 105.668 91.961 105.727 93.1858 106.969C94.442 108.239 94.3164 109.902 92.9581 111.453C91.6941 112.897 90.5164 114.421 89.429 115.75C92.1612 118.54 95.345 121.786 98.4345 124.936C107.369 115.873 116.375 106.735 125.145 97.8387C122.134 94.7674 119.013 91.5851 115.864 88.371C115.26 88.9503 114.596 89.6844 113.835 90.2994C112.426 91.4343 110.569 91.1407 109.579 89.7042C108.712 88.4424 108.877 86.9544 110.113 85.6806C112.272 83.4546 114.514 81.3079 116.63 79.0421C118.287 77.2644 118.2 74.6495 116.583 73.0067C114.934 71.3322 112.449 71.2291 110.608 72.8202C109.756 73.5583 108.998 74.4114 108.19 75.2011C106.647 76.7089 104.928 76.8359 103.656 75.5423C102.419 74.2884 102.56 72.471 104.036 70.9553C105.65 69.2966 107.33 67.7015 108.889 65.9912C110.51 64.2056 110.427 61.5907 108.83 59.9479C107.157 58.2298 104.606 58.1703 102.749 59.8567C101.838 60.682 101.006 61.5947 100.13 62.4597C98.5601 64.0152 96.7425 64.162 95.4863 62.8446C94.2575 61.555 94.4107 59.813 95.9181 58.2655C97.669 56.468 99.4944 54.7379 101.179 52.8769C102.851 51.0278 102.69 48.3851 100.955 46.7463C99.2706 45.1551 96.7504 45.171 94.972 46.8336C94.0377 47.7065 93.178 48.6589 92.2594 49.5477C90.8108 50.9524 89.0482 51.0635 87.8194 49.8493C86.5475 48.5914 86.6535 46.7701 88.1256 45.2622C89.8097 43.5361 91.5213 41.8378 93.2172 40.1197C94.2458 39.08 94.7561 37.8261 94.552 36.354C94.3125 34.6517 93.3978 33.4216 91.7922 32.8105C90.0649 32.1518 88.4829 32.5407 87.1835 33.8184C84.6593 36.3024 82.2057 38.8657 79.6736 41.3458C78.9867 42.0203 78.8257 42.4965 79.2693 43.4687C81.8249 49.0834 78.9749 55.6545 73.2159 57.5592C72.207 57.8925 71.1274 58.0115 70.0126 58.2456C69.9576 58.4837 69.8712 58.7615 69.832 59.0472C69.0154 64.5786 65.977 67.6777 60.4889 68.4554C59.6134 68.5784 59.5271 69.0189 59.4486 69.7212C58.9107 74.6336 55.3541 78.2525 50.498 78.8794C50.078 78.935 49.6618 79.0342 49.3478 79.0937C49.1122 80.2484 48.9984 81.288 48.6883 82.2681C46.8197 88.1607 40.2991 91.0097 34.6343 88.486C34.1947 88.2916 33.3899 88.1805 33.1347 88.4265C30.0766 91.4145 27.0892 94.4778 24.2784 97.3268H24.2745ZM144.388 107.818C143.76 106.715 143.36 105.632 142.649 104.83C141.15 103.14 139.509 101.573 137.891 99.9933C135.948 98.0887 133.73 98.0768 131.799 100.021C121.404 110.493 111.02 120.976 100.649 131.472C98.725 133.42 98.7132 135.67 100.578 137.618C102.144 139.249 103.738 140.856 105.359 142.435C107.275 144.304 109.47 144.376 111.334 142.503C121.808 131.972 132.262 121.421 142.677 110.826C143.419 110.072 143.772 108.933 144.392 107.814L144.388 107.818ZM59.005 62.5708C61.5174 62.4319 62.8875 61.6105 63.5823 59.8725C64.285 58.1068 64.0023 56.4362 62.6715 55.0752C59.1267 51.4524 55.5739 47.8375 51.9623 44.2861C50.1054 42.4608 47.487 42.5282 45.7793 44.2861C44.0795 46.036 44.0913 48.643 45.9285 50.5357C49.391 54.103 52.8691 57.6544 56.4376 61.1106C57.258 61.9081 58.4789 62.2851 59.0089 62.5748L59.005 62.5708ZM69.7417 52.361C72.3326 52.119 74.3308 50.1707 74.268 47.7105C74.2327 46.3852 73.8165 45.4567 72.3405 44.8019C66.2871 42.1275 61.8314 37.7468 59.2601 31.4971C59.0246 30.9217 58.3729 30.3265 57.7841 30.1242C55.9311 29.4853 53.9683 30.3027 52.9516 31.9495C51.8759 33.6914 52.0565 35.8381 53.5797 37.3936C57.9764 41.8934 62.3928 46.3733 66.8838 50.7818C67.6336 51.5198 68.7799 51.8452 69.7417 52.365V52.361ZM53.776 68.4713C53.4148 67.63 53.2499 66.5984 52.6611 65.9754C49.7561 62.9002 46.8079 59.8567 43.738 56.9521C42.1716 55.472 39.6474 55.7458 38.1125 57.2378C36.5658 58.7416 36.1771 61.2852 37.6453 62.8882C40.5621 66.0825 43.6281 69.1498 46.7725 72.1179C48.0484 73.3242 49.7757 73.2607 51.3263 72.4393C52.8338 71.6378 53.5797 70.2966 53.772 68.4713H53.776ZM43.2865 78.7485C43.1766 78.3755 43.1727 77.5541 42.7644 77.0978C41.2334 75.3955 39.722 73.6138 37.9201 72.2449C36.3028 71.0187 33.9788 71.6695 32.6519 73.2448C31.376 74.7606 31.2426 77.1613 32.5577 78.7088C33.7275 80.0897 35.023 81.3872 36.4088 82.5419C37.767 83.6728 39.4001 83.7085 40.9547 82.8951C42.4582 82.1054 43.212 80.7761 43.2865 78.7405V78.7485ZM64.917 28.1481C64.8267 28.3743 64.7364 28.5965 64.6501 28.8227C66.2086 33.4692 69.5768 36.4889 73.3376 38.7824C75.9678 36.1278 78.4292 33.6398 80.9731 31.0725C75.6734 30.1083 70.2952 29.1282 64.921 28.1481H64.917Z" fill="white"/>
<path d="M121.71 0.09375C123.297 0.11002 124.137 0.716065 124.578 1.88341C125.062 3.16465 124.852 4.37674 123.98 5.38139C121.977 7.68761 119.967 9.97757 117.956 12.2757C116.797 13.6016 115.651 14.952 114.466 16.2495C113.221 17.6121 111.627 17.6731 110.542 16.461C109.449 15.2408 109.442 13.3698 110.638 11.9828C113.787 8.33433 116.957 4.71027 120.166 1.13094C120.671 0.569638 121.415 0.288986 121.71 0.09375Z" fill="white"/>
<path d="M33.7398 0.09375C31.9414 0.11002 30.9898 0.716065 30.4898 1.88341C29.9414 3.16465 30.1793 4.37674 31.1672 5.38139C33.4374 7.68761 35.7156 9.97757 37.9939 12.2757C39.3084 13.6016 40.6068 14.952 41.9496 16.2495C43.3609 17.6121 45.1674 17.6731 46.3972 16.461C47.6351 15.2408 47.6432 13.3698 46.2883 11.9828C42.7197 8.33433 39.127 4.71027 35.4898 1.13094C34.9172 0.569638 34.0745 0.288986 33.7398 0.09375Z" fill="white"/>
<path d="M77.5089 9.22867C77.5089 11.2392 77.529 13.2498 77.5009 15.2566C77.4769 17.1171 76.3275 18.2987 74.5773 18.3362C72.7951 18.3737 71.5096 17.1246 71.4975 15.2416C71.4695 11.2205 71.4695 7.20311 71.4975 3.18201C71.5096 1.31775 72.8272 0.0498987 74.5934 0.0949111C76.3195 0.139923 77.4809 1.35151 77.5049 3.19326C77.529 5.20382 77.5089 7.21437 77.5089 9.22117V9.22867Z" fill="white"/>
</svg>
