<svg width="150" height="151" viewBox="0 0 150 151" fill="none" xmlns="http://www.w3.org/2000/svg">
<path d="M74.2262 150.094C69.2418 146.831 64.2416 143.589 59.2823 140.288C58.2565 139.604 57.281 139.324 56.0191 139.412C50.6036 139.795 45.1754 140.043 39.7536 140.364C37.9127 140.471 36.7232 139.667 35.9082 138.033C33.4695 133.143 31.0024 128.266 28.463 123.426C28.0665 122.672 27.3522 121.937 26.6033 121.545C21.9304 119.098 17.2448 116.667 12.4775 114.406C10.2433 113.344 9.42201 111.865 9.61082 109.431C10.0168 104.173 10.2685 98.9032 10.4856 93.6331C10.5202 92.7819 10.2559 91.7895 9.79648 91.0702C6.87629 86.5036 3.90261 81.9684 0.86285 77.4804C-0.314035 75.7435 -0.273127 74.2297 0.900611 72.5055C3.97813 67.9828 6.98014 63.4099 9.95067 58.8151C10.3377 58.2152 10.5706 57.3766 10.5391 56.6637C10.2937 51.2491 10.023 45.8313 9.63599 40.4262C9.47551 38.1774 10.2591 36.7578 12.3107 35.7653C17.1913 33.4035 22.0185 30.9286 26.8298 28.4349C27.4655 28.1051 28.076 27.4895 28.4032 26.8551C30.9206 22.0027 33.4034 17.1346 35.8138 12.2288C36.761 10.3004 38.1393 9.55605 40.2759 9.7068C45.8394 10.0994 51.4091 10.3915 56.982 10.6522C57.5956 10.6804 58.3037 10.3726 58.8417 10.0272C63.4329 7.04662 68.024 4.06293 72.5521 0.98817C74.2829 -0.186459 75.7933 -0.214725 77.5335 0.966185C81.9421 3.95929 86.4293 6.82991 90.8474 9.80731C91.8323 10.47 92.77 10.7338 93.9752 10.6522C99.4411 10.2878 104.916 10.046 110.389 9.73507C112.236 9.63143 113.41 10.4543 114.218 12.0843C116.676 17.0215 119.171 21.9399 121.72 26.8269C122.073 27.499 122.724 28.1491 123.397 28.5009C128.165 30.9789 132.976 33.3721 137.772 35.7967C140.245 37.0468 140.629 37.8162 140.456 40.5392C140.107 46.048 139.798 51.5569 139.534 57.0688C139.506 57.6373 139.805 58.2937 140.129 58.7931C143.398 63.8308 146.705 68.8434 150 73.8654V76.5036C149.789 76.7517 149.547 76.9778 149.367 77.2479C146.318 81.8428 143.244 86.422 140.267 91.064C139.786 91.8177 139.49 92.8573 139.524 93.7461C139.745 99.1576 140.041 104.569 140.406 109.971C140.541 111.991 139.814 113.281 137.986 114.173C133.165 116.535 128.369 118.954 123.614 121.447C122.784 121.884 121.975 122.675 121.538 123.504C119.014 128.291 116.569 133.121 114.174 137.977C113.271 139.811 111.931 140.483 109.929 140.348C104.322 139.971 98.7048 139.67 93.091 139.378C92.6001 139.352 92.0148 139.513 91.6026 139.783C86.3821 143.197 81.1868 146.645 75.9853 150.087H74.2231L74.2262 150.094ZM99.8722 133.492V133.498C102.56 133.652 105.247 133.762 107.928 133.976C108.913 134.054 109.394 133.731 109.829 132.845C112.025 128.379 114.325 123.966 116.528 119.503C117.208 118.124 118.149 117.154 119.543 116.472C123.932 114.33 128.25 112.041 132.658 109.94C133.911 109.343 134.169 108.633 134.077 107.358C133.731 102.389 133.52 97.4113 133.206 92.4396C133.118 91.0514 133.48 89.8893 134.254 88.7398C137.067 84.5721 139.789 80.3384 142.618 76.1801C143.216 75.3007 143.15 74.7102 142.583 73.8717C139.82 69.7856 137.152 65.6367 134.383 61.5538C133.52 60.2786 133.108 58.9941 133.209 57.4457C133.536 52.474 133.756 47.4991 134.084 42.5273C134.156 41.4312 133.958 40.7936 132.856 40.2628C128.325 38.08 123.819 35.8344 119.388 33.4538C118.309 32.8727 117.277 31.8363 116.695 30.759C114.357 26.4217 112.141 22.0153 110.017 17.5712C109.419 16.318 108.702 16.0416 107.424 16.1296C102.446 16.4719 97.4618 16.6918 92.4805 17.0121C91.0897 17.1001 89.9253 16.7232 88.7768 15.9506C84.5979 13.1427 80.3592 10.426 76.1929 7.60566C75.315 7.01207 74.7234 7.04976 73.8738 7.62451C69.7012 10.4386 65.4688 13.1679 61.2899 15.9757C60.1382 16.7483 58.9613 17.0969 57.5736 17.009C52.4475 16.6886 47.3152 16.4468 42.1891 16.1139C41.2199 16.0511 40.7259 16.3243 40.2885 17.2163C38.048 21.7703 35.7037 26.2709 33.4506 30.8156C32.8338 32.0624 31.9685 32.9136 30.7192 33.5291C26.1627 35.7779 21.6534 38.1146 17.0969 40.3571C16.2662 40.7654 15.9767 41.2208 16.0365 42.141C16.3575 47.1599 16.5872 52.185 16.9239 57.2039C17.0309 58.7931 16.6753 60.1342 15.7753 61.4627C12.9747 65.5802 10.2937 69.7825 7.48991 73.8999C6.88888 74.7825 6.93608 75.3698 7.51508 76.2209C10.1741 80.1405 12.6915 84.1607 15.4071 88.0394C16.669 89.8422 17.0434 91.667 16.8767 93.8121C16.5116 98.4352 16.3543 103.077 16.0396 107.703C15.9673 108.781 16.2662 109.34 17.2669 109.827C21.795 112.019 26.2634 114.337 30.779 116.551C32.0314 117.163 32.8842 118.027 33.4978 119.274C35.7005 123.737 38.0134 128.146 40.1878 132.622C40.7259 133.731 41.3773 134.02 42.5479 133.941C47.6236 133.602 52.7024 133.288 57.7876 133.118C58.8732 133.08 60.1288 133.454 61.0571 134.035C65.2769 136.689 69.4306 139.447 73.5465 142.258C74.6196 142.989 75.3496 143.09 76.4887 142.305C80.548 139.5 84.6703 136.777 88.8618 134.17C89.9065 133.52 91.2973 133.172 92.5403 133.14C94.979 133.084 97.4241 133.351 99.8659 133.486L99.8722 133.492Z" fill="white"/>
<path d="M75.0471 28.4721C100.918 28.5568 121.884 49.4815 121.812 75.1406C121.736 100.878 100.648 121.828 74.9464 121.715C49.031 121.602 28.169 100.85 28.1879 75.0402C28.2068 49.2244 49.3144 28.3906 75.0503 28.4753L75.0471 28.4721ZM115.578 75.1311C115.65 52.9523 97.3826 34.727 75.0503 34.6925C52.7274 34.658 34.507 52.7704 34.4566 75.0434C34.4062 97.2661 52.614 115.441 74.9621 115.476C97.285 115.51 115.509 97.4103 115.578 75.1311Z" fill="white"/>
<path d="M69.692 82.4995C70.122 82.0988 70.5552 81.7013 70.9789 81.2942C77.8753 74.6411 84.7527 67.9686 91.6839 61.3607C92.3922 60.6854 93.3882 60.1619 94.3305 59.9519C95.589 59.6708 96.6103 60.3914 97.2396 61.5385C97.8467 62.6468 97.7771 63.768 97.0625 64.802C96.7273 65.2899 96.3036 65.7229 95.8799 66.1333C88.1298 73.6168 80.3765 81.0939 72.6169 88.5645C70.1663 90.9233 68.7339 90.8748 66.3814 88.4062C62.6091 84.4479 58.8368 80.4961 55.0739 76.5281C54.6313 76.0628 54.1917 75.5749 53.8502 75.0321C53.0502 73.7557 53.2431 72.2209 54.2676 71.1675C55.3301 70.0754 56.8953 69.9041 58.1696 70.7927C58.6502 71.1288 59.0581 71.5779 59.4913 71.9818C63.0043 75.2777 66.5142 78.5767 70.024 81.8726L69.692 82.4898V82.4995Z" fill="white"/>
</svg>
